<?xml version="1.0" encoding="utf-8"?>
<!-- Generator: Adobe Illustrator 22.1.0, SVG Export Plug-In . SVG Version: 6.00 Build 0)  -->
<svg version="1.1" id="Layer_1" xmlns="http://www.w3.org/2000/svg" xmlns:xlink="http://www.w3.org/1999/xlink" x="0px" y="0px"
	 width="250px" height="250px" viewBox="0 0 250 250" enable-background="new 0 0 250 250" xml:space="preserve">
<g>
	<path d="M229.359,20.196l6.802-0.99l0.947,6.793c0.083,0.608,0.635,1.02,1.245,0.938c0.595-0.08,1.02-0.64,0.927-1.24l-0.948-6.808
		l6.807-1c0.605-0.08,1.015-0.64,0.932-1.243c-0.088-0.598-0.65-1.018-1.255-0.925l-6.792,0.99l-0.948-6.805
		c-0.082-0.598-0.645-1.018-1.245-0.935c-0.595,0.085-1.015,0.642-0.938,1.243l0.957,6.813l-6.812,0.997
		c-0.595,0.085-1.015,0.643-0.927,1.24C228.206,19.864,228.759,20.276,229.359,20.196z"/>
	<path d="M214.677,37.54c-0.887,1.193-0.62,2.898,0.59,3.808l5.472,4.105c1.225,0.913,2.935,0.69,3.822-0.49l2.7-3.615l16.459-1.152
		c0.615-0.143,1.167-0.495,1.537-0.993c0.24-0.323,0.4-0.68,0.472-1.078c0.205-1.022-0.215-2.095-1.07-2.738l-26.429-19.831
		c-0.855-0.638-2.002-0.737-2.925-0.252c-0.917,0.47-1.485,1.473-1.415,2.51l3.495,16.124L214.677,37.54z M215.95,17.734
		c-0.02-0.248,0.107-0.493,0.342-0.607c0.23-0.113,0.502-0.085,0.712,0.06l26.436,19.831c0.21,0.157,0.313,0.418,0.26,0.678
		c-0.04,0.24-0.235,0.435-0.482,0.49l-17.171,1.325l-1.415,1.88c-0.22,0.288-0.63,0.34-0.933,0.123l-5.47-4.108
		c-0.292-0.225-0.363-0.64-0.147-0.917l1.407-1.888L215.95,17.734z"/>
	<path d="M200.363,217.293v-11.198c-0.005-0.68-0.552-1.23-1.237-1.23c-0.683,0-1.23,0.552-1.23,1.23v11.036
		c0,3.048-2.48,3.375-5.517,3.375h-23.861c-3.048,0-5.517-0.342-5.517-3.375v-11.216c0-0.678-0.548-1.225-1.23-1.225
		c-0.677,0-1.23,0.547-1.23,1.225v11.378c0,4.4,1.597,7.97,5.99,7.97h27.851C198.781,225.263,200.363,221.683,200.363,217.293z"/>
	<path d="M180.459,185.466c-0.683,0-1.235,0.548-1.235,1.23v24.962l-5.717-5.728c-0.482-0.478-1.26-0.478-1.743,0
		c-0.477,0.492-0.477,1.265,0,1.747l7.822,7.813c0.235,0.24,0.552,0.365,0.865,0.365s0.63-0.118,0.865-0.365l7.822-7.813
		c0.488-0.483,0.488-1.255,0-1.747c-0.482-0.478-1.255-0.478-1.737,0l-5.717,5.728v-24.962
		C181.684,186.013,181.136,185.466,180.459,185.466z"/>
	<path d="M96.119,158.719l-0.255-0.395l-4.215-4.21c-0.215-0.225-0.507-0.343-0.825-0.343c-0.308,0-0.6,0.117-0.81,0.343
		c-0.225,0.215-0.348,0.507-0.352,0.82c0,0.308,0.128,0.6,0.342,0.825l2.222,2.228H81.465v-10.763l2.227,2.212
		c0.22,0.225,0.518,0.342,0.825,0.342c0.313,0,0.605-0.118,0.825-0.342c0.225-0.225,0.342-0.517,0.342-0.825
		c0-0.313-0.128-0.595-0.342-0.805l-4.242-4.243l-0.327-0.215l-0.465-0.103l-0.425,0.082l-0.38,0.25l-4.227,4.228
		c-0.215,0.21-0.338,0.493-0.342,0.805c0,0.308,0.127,0.6,0.342,0.825c0.225,0.225,0.507,0.342,0.83,0.342
		c0.308,0,0.6-0.118,0.815-0.342l2.227-2.212v10.763H68.396l2.212-2.227c0.225-0.225,0.348-0.518,0.348-0.825
		c0-0.313-0.128-0.605-0.348-0.82c-0.22-0.225-0.518-0.343-0.825-0.343c-0.313,0-0.595,0.117-0.815,0.343l-4.237,4.238l-0.21,0.327
		l-0.107,0.465l0.087,0.43l0.245,0.38l4.222,4.223c0.22,0.22,0.502,0.343,0.815,0.343c0.307,0,0.6-0.123,0.825-0.343
		c0.22-0.215,0.348-0.507,0.348-0.825c0-0.313-0.128-0.605-0.348-0.82l-2.212-2.227h10.752v10.753l-2.217-2.212
		c-0.225-0.225-0.517-0.342-0.825-0.342c-0.313,0-0.605,0.118-0.83,0.342c-0.215,0.225-0.342,0.518-0.338,0.835
		c0,0.298,0.128,0.585,0.338,0.805l4.232,4.228l0.342,0.22l0.465,0.107l0.42-0.087l0.39-0.26l4.22-4.22
		c0.225-0.21,0.342-0.503,0.342-0.81c0-0.318-0.117-0.605-0.342-0.82c-0.215-0.225-0.508-0.353-0.82-0.353s-0.61,0.127-0.825,0.347
		l-2.232,2.218v-10.753h10.767l-2.217,2.217c-0.225,0.225-0.348,0.518-0.348,0.83c0,0.308,0.123,0.6,0.348,0.825
		c0.215,0.22,0.508,0.342,0.82,0.342s0.605-0.122,0.815-0.342l4.222-4.233l0.225-0.338l0.107-0.47L96.119,158.719z"/>
	<path d="M102.671,159.136c0-12.323-10.032-22.359-22.366-22.359c-12.324,0-22.356,10.036-22.356,22.359
		c0,12.331,10.034,22.364,22.356,22.364C92.639,181.5,102.671,171.465,102.671,159.136z M80.305,179.053
		c-10.982,0-19.906-8.936-19.906-19.919c0-10.978,8.925-19.909,19.906-19.909s19.911,8.931,19.911,19.909
		C100.216,170.114,91.287,179.053,80.305,179.053z"/>
	<path d="M146.496,195.889c0.675,0.165,1.475-0.317,1.635-0.99l3.325-13.581c0.165-0.665-0.323-1.47-0.995-1.63
		c-0.78-0.197-1.468,0.263-1.64,0.995l-3.33,13.566C145.326,194.976,145.716,195.699,146.496,195.889z"/>
	<path d="M160.838,168.607c-0.86-1.41-3.247-2.608-4.852-2.998l-3.925-0.968c-1.587-0.385-4.247-0.42-5.682,0.45
		c-1.42,0.865-2.345,2.11-2.735,3.698l-2.557,10.466c-0.385,1.578-0.17,3.073,0.65,4.468c0.778,1.355,2.975,2.512,4.507,2.985
		l0.79-3.233c-0.942-0.278-3.277-1.098-2.705-3.433l2.48-10.148c0.17-0.693,1.035-2.842,4.657-1.952l3.652,0.917
		c3.59,0.875,3.325,2.793,3.145,3.53l-2.562,10.483c-0.165,0.678-0.497,2.47-3.955,1.723l-0.8,3.258
		c1.547,0.277,4.017,0.273,5.327-0.512l0.088-0.05c1.347-0.85,2.232-2.08,2.617-3.663l2.557-10.461
		C161.93,171.555,161.695,170.027,160.838,168.607z"/>
	<path d="M155.188,191.776c-0.795-1.302-2.977-2.45-4.487-2.915l-0.795,3.263c3.417,0.932,2.875,2.675,2.715,3.345l-2.567,10.493
		c-0.18,0.733-0.835,2.55-4.42,1.675l-3.662-0.875c-3.622-0.885-3.402-3.182-3.232-3.893l2.485-10.133
		c0.567-2.34,3.017-1.988,3.99-1.798l0.79-3.233c-1.587-0.293-4.072-0.273-5.39,0.563c-1.362,0.855-2.25,2.085-2.642,3.673
		l-2.557,10.456c-0.385,1.588-0.143,3.115,0.717,4.54c0.875,1.43,3.247,2.638,4.835,3.023l3.93,0.963
		c1.607,0.395,4.277,0.435,5.687-0.425c1.42-0.855,2.335-2.11,2.73-3.72l2.552-10.455c0.39-1.578,0.17-3.075-0.63-4.453
		L155.188,191.776z"/>
	<path d="M99.966,206.387c0.512,0.762,0.723,1.655,1.198,2.412c1.152,1.808,3.192,4.253,6.312,3.975
		c3.212-0.293,5.259-3.37,6.597-6.528c1.005-0.815,1.615-2.353,1.347-3.965c-0.057-0.37-0.347-0.64-0.492-0.938
		c0.01-0.057,0.02-0.117,0.02-0.17c0-0.16-0.02-0.322-0.03-0.477c0.01-0.157,0.03-0.323,0.03-0.478c0-0.903-0.165-1.763-0.445-2.568
		c-0.782-2.813-2.862-4.728-6.015-5.133c-0.45-0.077-0.902-0.128-1.372-0.128c-0.562,0-1.097,0.058-1.62,0.17
		c-4.14,0.63-6.3,3.683-6.307,8.658c-1.08,0.737-0.66,3.263-0.067,4.253C99.352,205.874,99.739,206.054,99.966,206.387z
		 M107.066,208.267c1.947,0,3.72-0.713,5.097-1.89c-1.045,2.12-2.7,4.335-5.395,4.145c-2.46-0.17-4.042-2.223-5.04-4.365
		C103.136,207.467,105.006,208.267,107.066,208.267z"/>
	<path d="M125.23,218.278h0.015l-0.005-0.01c1.87-3.155,2.97-6.823,2.97-10.758c0-11.651-9.487-21.149-21.146-21.149
		c-11.659,0-21.146,9.498-21.146,21.149c0,3.94,1.097,7.623,2.982,10.778l-0.015,0.058l0.185,0.317l0.058,0.005
		c3.745,5.988,10.364,9.991,17.929,9.991C114.786,228.659,121.538,224.478,125.23,218.278z M90.49,216.19
		c-1.377-2.598-2.157-5.558-2.157-8.698c-0.005-10.306,8.402-18.709,18.729-18.709c10.332,0,18.734,8.403,18.734,18.731
		c0,3.14-0.785,6.095-2.162,8.7c-1.645-1.92-3.652-3.698-5.272-4.175c-0.845-0.25-1.685-0.283-2.52-0.327
		c-0.62-0.035-1.27-0.058-1.777-0.158c-0.117-0.05-0.342-0.138-0.63-0.138l-0.497,0.01l-0.573,0.537l-0.092,0.302
		c-0.327,1.06-2.505,1.85-5.057,1.85c-2.68,0-5.03-0.85-5.59-2.018l-0.067-0.137l-0.573-0.553h-0.47c-0.24,0-0.43,0.063-0.542,0.113
		c-0.645,0.118-1.275,0.153-1.88,0.18c-0.855,0.045-1.655,0.087-2.49,0.327C94.387,212.387,92.042,214.53,90.49,216.19z
		 M107.061,226.243c-6.28,0-11.834-3.115-15.239-7.875c1.24-1.518,3.755-3.818,4.447-4.018c0.568-0.165,1.2-0.2,1.947-0.235
		c0.528-0.025,1.122-0.057,1.758-0.152c1.542,1.885,4.717,2.558,7.237,2.558c2.48,0,5.537-0.67,6.855-2.55
		c0.595,0.077,1.162,0.113,1.67,0.138c0.743,0.04,1.378,0.067,1.938,0.235c0.65,0.185,3.72,3.013,4.575,4.083
		C118.853,223.151,113.321,226.243,107.061,226.243z"/>
	<path d="M131.475,44.438c-1.02,0-1.85,0.83-1.85,1.853v12.033l0.14,0.713c0.185,0.455,0.548,0.823,1.07,1.02l0.573,0.115
		l12.069,0.015c1.03,0,1.865-0.833,1.865-1.858c0-1.035-0.835-1.878-1.865-1.878h-7.509l11.829-11.831
		c0.728-0.728,0.728-1.915,0-2.645c-0.347-0.353-0.82-0.545-1.317-0.545c-0.497,0-0.967,0.193-1.317,0.545l-11.817,11.836v-7.521
		C133.344,45.268,132.509,44.438,131.475,44.438z M145.674,42.485c0.43-0.432,1.187-0.432,1.612,0c0.45,0.45,0.45,1.175,0,1.615
		l-13.067,13.073h9.252c0.63,0,1.143,0.512,1.143,1.152c0,0.625-0.513,1.133-1.143,1.133h-11.957l-0.472-0.09
		c-0.268-0.112-0.497-0.332-0.58-0.545l-0.112-0.54V46.291h-0.008c0-0.628,0.512-1.133,1.133-1.133c0.63,0,1.147,0.505,1.147,1.133
		v9.268L145.674,42.485z"/>
	<path d="M108.809,83.623l11.822-11.846v7.515c0,1.033,0.835,1.878,1.87,1.878c1.025,0,1.855-0.845,1.855-1.878V67.275l-0.123-0.642
		l-0.363-0.588l-0.605-0.45l-0.697-0.162l-12.079-0.005c-1.025,0-1.85,0.828-1.85,1.848c0,1.03,0.825,1.875,1.85,1.875h7.505
		l-11.822,11.833c-0.347,0.335-0.547,0.82-0.547,1.315c0,0.492,0.2,0.972,0.547,1.302C106.876,84.311,108.106,84.316,108.809,83.623
		z M106.681,81.498l13.057-13.068h-9.247c-0.625,0-1.132-0.517-1.132-1.155c0-0.62,0.507-1.133,1.132-1.133h11.972l0.47,0.103
		l0.37,0.24l0.23,0.36l0.102,0.472V79.29c0,0.633-0.507,1.153-1.132,1.153c-0.64,0-1.153-0.52-1.153-1.153V70.03l-13.047,13.079
		c-0.435,0.425-1.183,0.425-1.615-0.023c-0.21-0.205-0.332-0.478-0.332-0.785C106.356,81.993,106.471,81.708,106.681,81.498z"/>
	<path d="M145.289,67.732c0-0.638-0.512-1.15-1.147-1.15H131.96l-0.47,0.1l-0.395,0.26l-0.215,0.353l-0.102,0.513l0.005,12.136
		c0,0.64,0.512,1.165,1.143,1.165c0.64,0,1.162-0.525,1.162-1.17V70.51l0.18,0.18l13.104,13.139c0.2,0.2,0.493,0.313,0.8,0.313
		c0.318,0,0.625-0.12,0.83-0.333c0.22-0.205,0.338-0.492,0.338-0.805c0-0.305-0.117-0.595-0.333-0.8l-13.284-13.316h9.419
		C144.776,68.887,145.289,68.37,145.289,67.732z"/>
	<path d="M119.06,56.521l0.185,0.183h-9.424c-0.645,0-1.162,0.52-1.162,1.165c0,0.63,0.527,1.148,1.162,1.148l12.124,0.013
		l0.518-0.11l0.352-0.223l0.26-0.39l0.098-0.472V45.636c-0.007-0.63-0.52-1.15-1.15-1.15c-0.64,0-1.162,0.52-1.162,1.15v9.436
		l-13.289-13.308c-0.205-0.215-0.488-0.335-0.8-0.335c-0.307,0-0.595,0.12-0.805,0.338c-0.21,0.208-0.327,0.513-0.327,0.833
		c0,0.307,0.107,0.602,0.313,0.802L119.06,56.521z"/>
	<path d="M210.255,110.268h-4.322v-4.323c-0.015-0.485-0.41-0.88-0.887-0.88c-0.482,0.013-0.88,0.405-0.88,0.88v4.323h-4.33
		c-0.49,0.01-0.88,0.4-0.88,0.88c-0.015,0.238,0.092,0.47,0.25,0.623c0.157,0.158,0.37,0.243,0.62,0.243l4.34,0.015l0.015,4.33
		c-0.015,0.245,0.092,0.47,0.245,0.625c0.16,0.155,0.375,0.25,0.62,0.25c0.487-0.015,0.887-0.405,0.887-0.88v-4.325h4.322
		c0.493-0.008,0.887-0.405,0.887-0.88C211.127,110.665,210.737,110.268,210.255,110.268z"/>
	<path d="M216.127,126.456l6.005-6.003c0.21-0.168,0.327-0.422,0.327-0.687V94.992c0-0.493-0.4-0.89-0.882-0.89H198.17
		c-0.512-1.318-1.767-2.183-3.197-2.183c-1.407,0-2.685,0.885-3.197,2.183h-3.255c-0.487,0-0.885,0.397-0.885,0.885v30.882
		c0,0.49,0.395,0.89,0.885,0.89h26.936C215.724,126.759,215.98,126.631,216.127,126.456z M196.558,94.132h-3.175
		C194.103,92.794,195.693,92.874,196.558,94.132z M214.575,119.758v5.215h-25.164V95.872h7.227v3.47c0,0.315-0.26,0.568-0.573,0.568
		s-0.573-0.253-0.573-0.568v-2.175c0-0.49-0.39-0.885-0.885-0.885c-0.495,0-0.887,0.395-0.887,0.885v2.175
		c0,1.295,1.05,2.345,2.345,2.345c1.295,0,2.345-1.053,2.345-2.345v-3.47h22.284v23.002h-0.008h-5.225
		C214.975,118.873,214.575,119.276,214.575,119.758z"/>
	<path d="M43.58,35.365L33.37,37l-0.435-1.095c-0.147-0.378-0.548-0.603-0.952-0.543l-8.994,1.44
		c-0.405,0.07-0.707,0.407-0.732,0.82l-0.067,1.168l-10.209,1.635c-2.27,0.365-3.822,2.51-3.462,4.78L13.292,75
		c0.363,2.273,2.51,3.82,4.78,3.46l31.591-5.063c2.275-0.365,3.832-2.513,3.467-4.778l-4.77-29.797
		C47.997,36.555,45.845,35.002,43.58,35.365z M50.937,68.54c0.128,0.785,0.405,2.42-2.04,2.813l-30.756,4.93
		c-2.24,0.357-2.69-1.245-2.813-2.033l-4.644-28.967c-0.128-0.783-0.108-2.46,2.04-2.81L21.929,41l-0.04,0.673
		c-0.02,0.26,0.082,0.525,0.282,0.693c0.19,0.177,0.465,0.26,0.723,0.222l10.987-1.76c0.26-0.045,0.487-0.205,0.625-0.44
		c0.128-0.23,0.153-0.505,0.05-0.75l-0.245-0.623l9.17-1.473c2.24-0.357,2.69,1.25,2.817,2.033L50.937,68.54z"/>
	<path d="M28.268,48.308c-0.365,0.058-0.677,0.295-0.835,0.625c-0.132,0.27-0.143,0.573-0.045,0.852
		c0.103,0.277,0.308,0.5,0.575,0.628l3.13,1.47c0.465,0.22,1.04,0.078,1.347-0.33l4.262-5.543c0.363-0.487,0.267-1.188-0.21-1.555
		c-0.468-0.363-1.195-0.27-1.555,0.205l-3.705,4.833l-2.325-1.09C28.713,48.308,28.483,48.273,28.268,48.308z"/>
	<path d="M29.298,52.146l-1.767-0.83c-0.507-0.232-0.892-0.662-1.085-1.195c-0.195-0.533-0.17-1.105,0.063-1.62
		c0.487-1.018,1.812-1.498,2.832-1.01l0.533,0.25l-0.283-1.758c-0.103-0.66-0.732-1.113-1.397-1.008l-4.765,0.765
		c-0.67,0.108-1.122,0.735-1.015,1.395l0.763,4.768c0.112,0.663,0.737,1.113,1.4,1.005L29.298,52.146z"/>
	<path d="M36.42,53.904l-3.71,4.835l-2.32-1.093c-0.2-0.1-0.425-0.13-0.645-0.095c-0.365,0.06-0.677,0.288-0.83,0.625
		c-0.128,0.265-0.143,0.573-0.045,0.852c0.097,0.275,0.307,0.498,0.575,0.623l3.125,1.48c0.465,0.218,1.045,0.068,1.353-0.335
		l4.257-5.541c0.365-0.483,0.273-1.188-0.21-1.56C37.505,53.336,36.778,53.429,36.42,53.904z"/>
	<path d="M30.783,61.399l-1.767-0.835c-0.508-0.24-0.898-0.663-1.095-1.198c-0.19-0.527-0.16-1.1,0.073-1.615
		c0.492-1.03,1.812-1.507,2.837-1.018l0.527,0.255l-0.282-1.758c-0.103-0.667-0.732-1.115-1.397-1.01l-4.765,0.77
		c-0.67,0.105-1.122,0.73-1.015,1.398l0.768,4.765c0.1,0.655,0.725,1.11,1.39,1.003L30.783,61.399z"/>
	<path d="M31.158,63.467l-4.765,0.765c-0.67,0.107-1.118,0.737-1.015,1.4l0.763,4.763c0.107,0.665,0.737,1.118,1.407,1.012
		l4.77-0.767c0.665-0.108,1.112-0.735,1.005-1.403l-0.763-4.76C32.453,63.809,31.823,63.362,31.158,63.467z"/>
	<path d="M87.862,104.4c-1.523,0.187-2.602,1.608-2.417,3.16l0.85,7.01c0.19,1.56,1.577,2.678,3.1,2.5l4.625-0.565l12.606,11.436
		c0.548,0.365,1.198,0.523,1.835,0.44c0.41-0.05,0.805-0.185,1.147-0.41c0.898-0.58,1.407-1.66,1.275-2.753l-4.097-33.865
		c-0.135-1.098-0.883-2.025-1.887-2.373c-1.01-0.342-2.167-0.052-2.895,0.735l-9.522,14.126L87.862,104.4z M103.536,91.204
		c0.175-0.188,0.45-0.262,0.702-0.178c0.245,0.085,0.42,0.313,0.455,0.577l4.107,33.868c0.03,0.26-0.097,0.523-0.327,0.675
		c-0.205,0.138-0.487,0.138-0.713-0.015l-13.246-11.856l-2.408,0.292c-0.37,0.045-0.707-0.232-0.757-0.61l-0.85-7.01
		c-0.045-0.373,0.22-0.728,0.58-0.763l2.418-0.3L103.536,91.204z"/>
	<path d="M112.628,98.659h-0.015c-0.39,0.05-0.67,0.21-0.875,0.47l-0.195,0.265c-0.39,0.503-0.338,1.23,0.117,1.678
		c1.768,1.747,2.857,3.995,3.155,6.48c0.282,2.323-0.16,4.618-1.29,6.635c-0.292,0.54-0.157,1.235,0.317,1.62l0.262,0.21
		c0.26,0.205,0.573,0.298,0.903,0.26l0.082-0.02c0.363-0.067,0.655-0.293,0.83-0.605c1.44-2.57,2.007-5.488,1.65-8.44
		c-0.378-3.155-1.76-5.998-4.005-8.206C113.316,98.759,112.971,98.639,112.628,98.659z"/>
	<path d="M119.19,121.674l0.26,0.205c0.363,0.287,0.82,0.423,1.275,0.37c0.025-0.008,0.052-0.008,0.072-0.015
		c0.478-0.08,0.892-0.36,1.162-0.778c2.862-4.463,4.072-9.858,3.432-15.181c-0.675-5.528-3.292-10.611-7.375-14.311
		c-0.357-0.315-0.825-0.478-1.3-0.443c-0.498,0.045-0.908,0.29-1.2,0.675l-0.2,0.26c-0.557,0.737-0.465,1.793,0.23,2.413
		c3.375,3.073,5.537,7.28,6.095,11.866c0.537,4.41-0.47,8.881-2.832,12.583C118.323,120.083,118.483,121.108,119.19,121.674z"/>
	<path d="M199.191,150.025h-19.839c-0.625,0-1.133,0.513-1.133,1.138c0,0.63,0.508,1.132,1.133,1.132h19.839
		c0.63,0,1.137-0.502,1.137-1.132C200.328,150.538,199.821,150.025,199.191,150.025z"/>
	<path d="M196.358,158.571h-14.169c-0.625,0-1.133,0.508-1.133,1.127c0,0.635,0.508,1.148,1.133,1.148h14.169
		c0.63,0,1.137-0.512,1.137-1.148C197.496,159.079,196.993,158.571,196.358,158.571z"/>
	<path d="M211.672,154.013c-0.008-10.838-10.052-19.656-22.399-19.656c-12.339,0-22.386,8.813-22.386,19.649
		c0,5.988,3.057,11.563,8.384,15.319l0.123,0.082v9.733l9.589-5.846l0.098,0.02c1.46,0.24,2.832,0.353,4.205,0.353
		C201.633,173.667,211.672,164.849,211.672,154.013z M189.274,171.384c-1.532,0-3.13-0.165-4.737-0.502l-7.012,4.233l0.092-6.958
		c-5.307-3.258-8.467-8.536-8.467-14.151c0-9.576,9.027-17.369,20.121-17.369c11.094,0,20.126,7.793,20.126,17.369
		C209.4,163.591,200.37,171.384,189.274,171.384z"/>
	<path d="M84.905,59.409l-5.517,1.548c-0.445,0.125-0.692,0.58-0.575,1.018c0.127,0.45,0.58,0.695,1.02,0.573l1.08-0.302
		l0.105,0.397c0.262,0.92,1.23,1.467,2.162,1.205c0.927-0.262,1.47-1.23,1.21-2.15l-0.113-0.4l1.08-0.302
		c0.44-0.123,0.692-0.573,0.573-1.01C85.802,59.544,85.35,59.284,84.905,59.409z"/>
	<path d="M84.682,58.609c0.45-0.122,0.698-0.573,0.575-1.008c-0.117-0.447-0.572-0.7-1.017-0.575l-5.522,1.547
		c-0.44,0.123-0.697,0.583-0.572,1.018c0.127,0.443,0.575,0.693,1.02,0.573L84.682,58.609z"/>
	<path d="M76.283,39.288c0.43-0.117,0.677-0.57,0.562-0.995l-0.742-2.623c-0.118-0.43-0.562-0.673-0.99-0.552
		c-0.435,0.118-0.677,0.557-0.562,0.987l0.738,2.635C75.408,39.155,75.848,39.405,76.283,39.288z"/>
	<path d="M85.245,40.57l1.23-2.433c0.2-0.397,0.05-0.885-0.352-1.085c-0.398-0.205-0.88-0.045-1.085,0.35l-1.235,2.433
		c-0.205,0.398-0.045,0.885,0.357,1.093C84.56,41.128,85.04,40.973,85.245,40.57z"/>
	<path d="M67.721,42.135c-0.375-0.235-0.88-0.117-1.107,0.263c-0.24,0.373-0.117,0.875,0.26,1.103l2.32,1.435
		c0.385,0.235,0.877,0.115,1.112-0.258c0.23-0.38,0.113-0.885-0.26-1.113L67.721,42.135z"/>
	<path d="M73.391,29.127c-11.229,3.155-17.796,14.854-14.641,26.087C61.904,66.432,73.6,73.008,84.832,69.852
		c11.229-3.158,17.791-14.858,14.637-26.084C96.314,32.54,84.612,25.974,73.391,29.127z M84.28,67.912
		c-10.152,2.855-20.742-3.09-23.594-13.244c-2.857-10.158,3.08-20.744,13.242-23.599c10.159-2.855,20.746,3.09,23.596,13.248
		C100.381,54.469,94.439,65.052,84.28,67.912z"/>
	<path d="M76.525,40.143c-4.232,1.192-6.704,5.59-5.517,9.825c0.757,2.693,2.847,4.763,5.537,5.51l0.298,1.055
		c0.235,0.863,1.127,1.378,2.007,1.125l1.572-0.443l-1.752-6.24l-2.91-1.64c-0.4-0.22-0.547-0.728-0.318-1.125
		c0.22-0.395,0.723-0.535,1.118-0.31l2.495,1.4l1.403-2.493c0.215-0.397,0.727-0.542,1.122-0.317
		c0.395,0.217,0.542,0.728,0.313,1.125l-1.63,2.915l1.752,6.25l1.645-0.47c0.875-0.24,1.367-1.15,1.133-2.008l-0.298-1.058
		c1.89-2.028,2.612-4.893,1.85-7.586C85.16,41.425,80.75,38.96,76.525,40.143z"/>
	<path d="M158.958,136.382l6.215,1.143c2.72,0.498,5.327-1.308,5.832-4.028l2.535-13.828c1.48,0.325,3.765,0.812,3.765,0.812
		c0.327,0.113,0.685,0.02,0.967-0.177c2.36-1.628,3.067-5.563,1.48-7.856c-2.003-3.46-4.195-7.38-4.635-8.403l1.435-7.825
		c0.425-2.37-1.147-4.66-3.515-5.095c-2.367-0.433-4.652,1.14-5.092,3.515l-0.097,0.552l-2.945-4.28
		c-1.57-2.295-4.955-2.918-7.24-1.323L136.219,104.4c-2.362,1.625-3.065,5.553-1.44,7.928c0.195,0.285,0.508,0.487,0.84,0.515
		c0.01,0,2.335,0.318,3.765,0.555l-2.53,13.836c-0.51,2.72,1.298,5.343,4.017,5.835l6.24,1.148c0.66,0.118,1.285-0.313,1.407-0.968
		l2.002-10.923c0.26-1.415,1.615-2.353,3.022-2.093l4.369,0.803c1.407,0.262,2.345,1.612,2.085,3.03l-2.002,10.918
		C157.878,135.634,158.313,136.264,158.958,136.382z M158.338,118.661l-4.36-0.798c-2.715-0.5-5.327,1.308-5.825,4.03l-1.787,9.728
		l-5.062-0.923c-1.405-0.265-2.342-1.623-2.08-3.038l2.73-14.884c0.235-1.305-1.137-1.555-2.245-1.76
		c-1.017-0.185-2.392-0.375-3.175-0.488c-0.558-1.343-0.103-3.36,1.05-4.148l21.449-14.808c1.233-0.855,3.047-0.517,3.897,0.713
		c0,0,9.619,12.506,14.794,21.451c0.785,1.142,0.522,3.205-0.445,4.263c-0.767-0.172-2.15-0.485-3.17-0.677
		c-1.12-0.205-2.5-0.458-2.74,0.852l-2.73,14.886c-0.265,1.413-1.617,2.35-3.032,2.09l-5.035-0.922l1.783-9.738
		C162.86,121.773,161.058,119.164,158.338,118.661z"/>
	<path d="M198.81,64.48c0.138,0.223,0.343,0.387,0.585,0.455c0.255,0.065,0.513,0.025,0.738-0.103l5.185-3.003
		c0.22-0.135,0.38-0.345,0.445-0.593c0.067-0.248,0.032-0.505-0.092-0.727l-3.012-5.178c-0.255-0.447-0.892-0.605-1.317-0.353
		c-0.455,0.268-0.61,0.86-0.352,1.32l2.525,4.34l-4.35,2.52C198.708,63.432,198.553,64.027,198.81,64.48z"/>
	<path d="M155.868,47.981c-0.063,0.255-0.03,0.512,0.103,0.74l3.012,5.18c0.128,0.225,0.333,0.385,0.575,0.455
		c0.255,0.065,0.513,0.033,0.732-0.103c0.47-0.26,0.625-0.857,0.352-1.315l-2.52-4.348l4.345-2.525
		c0.46-0.265,0.615-0.863,0.358-1.308c-0.25-0.447-0.885-0.62-1.323-0.357l-5.179,3.003
		C156.098,47.533,155.938,47.738,155.868,47.981z"/>
	<path d="M198.033,34.352l-22.134-5.88c-2.777-0.738-5.645,0.925-6.382,3.7l-9.642,36.33c-0.738,2.783,0.927,5.645,3.7,6.383
		l14.354,3.808c1.392,0.368,2.832,0.178,4.077-0.545l9.657-5.61c1.245-0.718,2.13-1.88,2.495-3.27l7.577-28.544
		C202.475,37.958,200.815,35.092,198.033,34.352z M199.728,40.198l-7.58,28.544c-0.02,0.07-0.045,0.148-0.067,0.22l-6.04-1.608
		c-2.782-0.74-5.65,0.92-6.392,3.703l-1.47,5.55l-14.067-3.733c-1.67-0.445-2.67-2.16-2.227-3.833l9.642-36.33
		c0.445-1.665,2.162-2.66,3.832-2.223l22.136,5.883C199.166,36.815,200.165,38.535,199.728,40.198z"/>
	<path d="M190.581,53.491l-17.699-4.7c-0.552-0.147-1.122,0.185-1.275,0.745c-0.147,0.563,0.18,1.127,0.738,1.278l17.699,4.703
		c0.562,0.15,1.127-0.183,1.28-0.743C191.471,54.211,191.139,53.641,190.581,53.491z"/>
	<path d="M192.741,45.368l-17.699-4.703c-0.558-0.148-1.122,0.185-1.275,0.745c-0.153,0.563,0.18,1.127,0.732,1.278l17.704,4.7
		c0.562,0.15,1.128-0.18,1.275-0.74C193.623,46.086,193.296,45.516,192.741,45.368z"/>
	<path d="M117.003,171.052c0.318,1.408,1.317,2.52,2.695,2.978l0.088,0.03c0.677,0.165,1.367,0.18,1.992,0.045
		c0.688-0.158,1.317-0.503,1.835-0.99l25.393-20.671c1.065-0.948,1.517-2.423,1.2-3.833c-0.31-1.423-1.35-2.55-2.692-2.945
		l-31.781-7.858c-1.302-0.47-2.842-0.18-3.97,0.83c-1.04,0.995-1.475,2.443-1.162,3.848L117.003,171.052z M147.086,147.678
		c0.625,0.185,1.09,0.687,1.24,1.352c0.15,0.663-0.05,1.318-0.565,1.778l-24.916,20.294l-6.982-31.15L147.086,147.678z"/>
	<path d="M28.883,209.49c-0.507,0.147-0.902,0.573-1,1.095c-0.097,0.523,0.103,1.06,0.527,1.383L41.9,222.111l0.04,0.03
		l-1.752,8.843c-0.088,0.425,0.072,0.85,0.405,1.113c0.332,0.267,0.79,0.327,1.182,0.165l8.725-3.693l4.877,3.663
		c0.17,0.128,0.358,0.215,0.558,0.25c0.17,0.035,0.348,0.04,0.518,0.005c0.365-0.067,0.702-0.293,0.907-0.62l25.359-37.628
		L28.883,209.49z M56.606,227.366c-0.147,0.24-0.395,0.405-0.67,0.455c-0.128,0.03-0.26,0.025-0.38-0.005
		c-0.147-0.02-0.277-0.088-0.4-0.18l-7.197-5.185l24.466-21.046L39.64,215.903l-4.292-3.15c-0.317-0.235-0.465-0.625-0.385-1.015
		c0.068-0.385,0.363-0.693,0.733-0.795l42.467-13.361L56.606,227.366z"/>
	<path d="M52.494,103.112c2.045,3.165,5.66,4.988,9.442,4.758c1.767-0.11,3.482-0.67,4.947-1.615
		c2.362-1.505,3.985-3.838,4.585-6.573c0.585-2.705,0.082-5.475-1.41-7.816c-2.027-3.18-5.635-5.015-9.424-4.788
		c-1.767,0.107-3.482,0.67-4.975,1.615C50.814,91.789,49.39,98.254,52.494,103.112z M58.502,93.137
		c0.687-0.443,1.51-0.713,2.377-0.77c1.91-0.115,3.775,0.798,4.75,2.33c1.527,2.378,0.82,5.566-1.552,7.118
		c-0.738,0.47-1.582,0.747-2.46,0.8c-1.895,0.115-3.687-0.798-4.677-2.398C55.392,97.804,56.074,94.689,58.502,93.137z"/>
	<path d="M48.95,77.7c-2.972,1.893-2.612,2.96-0.87,6.358c1.187,2.353,1.187,2.353,0.058,3.93c-0.855,1.195-1.025,1.3-1.655,1.335
		c-0.507,0.032-1.302-0.052-2.137-0.148c-1.397-0.172-2.217-0.225-2.842-0.187c-2.3,0.143-2.657,1.798-2.94,3.125
		c-0.732,3.298,0.16,3.975,3.995,5.238c2.422,0.793,2.422,0.793,2.7,2.558c0.298,1.958,0.298,1.958-1.85,3.633
		c-3.202,2.548-3.77,3.415-2.022,6.13c0.778,1.2,1.5,2.355,3.042,2.263c0.85-0.052,1.823-0.475,3.56-1.35
		c1.025-0.535,1.715-0.85,2.142-0.877c0.303-0.02,0.58,0.107,1.577,0.828c1.563,1.127,1.563,1.127,1.25,3.793
		c-0.493,4.013-0.26,5.118,3.057,5.843c0.785,0.17,1.387,0.275,1.91,0.247c1.865-0.112,2.408-1.762,3.217-4.253
		c0.8-2.418,0.8-2.418,2.657-2.7c0.47-0.08,0.835-0.125,1.147-0.145c0.683-0.045,0.81-0.052,2.345,1.9
		c1.512,1.915,2.535,3.073,3.98,2.983c0.66-0.042,1.407-0.345,2.357-0.95c2.797-1.785,2.632-2.91,0.747-6.58
		c-1.095-2.14-1.095-2.14,0.045-3.69c0.865-1.207,1.03-1.298,1.67-1.33c0.503-0.032,1.245,0.028,2.213,0.148
		c1.162,0.132,2.027,0.208,2.725,0.165c2.148-0.132,2.632-1.547,2.997-3.233c0.732-3.295-0.395-3.958-4.047-5.148
		c-2.372-0.763-2.372-0.763-2.69-2.665c-0.277-1.825-0.277-1.825,1.742-3.398c3.247-2.593,3.877-3.565,2.028-6.435
		c-0.65-1.012-1.382-2.162-2.91-2.07c-0.87,0.052-1.83,0.472-3.677,1.407c-0.957,0.49-1.625,0.793-2.032,0.818
		c-0.292,0.017-0.575-0.092-1.577-0.812c-1.573-1.155-1.573-1.155-1.235-3.998c0.44-3.68,0.287-4.93-3.175-5.678
		c-0.723-0.157-1.275-0.26-1.798-0.228c-1.812,0.11-2.397,1.645-3.282,4.343c-0.753,2.32-0.753,2.32-2.665,2.653
		c-0.39,0.052-0.717,0.095-1.01,0.113c-0.697,0.047-0.885,0.052-2.455-1.945c-1.605-2.045-2.512-3.108-3.935-3.02
		C50.522,76.715,49.802,77.143,48.95,77.7z M53.577,80.993c1.533,1.952,2.357,2.888,4.267,2.773c0.318-0.02,0.665-0.065,1.215-0.16
		c2.857-0.47,3.34-0.93,4.355-4.093c0.79-2.38,1.097-2.84,1.387-2.86c0.293-0.017,0.778,0.075,1.21,0.17
		c1.86,0.405,1.86,0.405,1.51,3.353c-0.425,3.603-0.19,4.273,2.09,5.971c1.09,0.777,1.88,1.287,2.972,1.215
		c0.758-0.047,1.533-0.37,2.865-1.052c1.152-0.575,2.325-1.15,2.852-1.183c0.133-0.007,0.26-0.015,0.973,1.095
		c1.005,1.575,1.005,1.575-1.537,3.623c-2.602,2.002-2.96,2.76-2.545,5.395c0.472,2.825,0.983,3.358,4.145,4.358
		c2.972,0.985,2.972,0.985,2.6,2.69c-0.338,1.513-0.44,1.518-1.05,1.558c-0.512,0.033-1.285-0.04-2.347-0.157
		c-1.04-0.122-1.885-0.208-2.588-0.165c-1.625,0.1-2.32,0.903-3.267,2.213c-1.66,2.263-1.69,3.04-0.215,5.913
		c1.475,2.878,1.475,2.878,0.01,3.818c-0.512,0.318-1.055,0.635-1.322,0.653c-0.41,0.027-1.485-1.315-2.187-2.21
		c-1.475-1.88-2.213-2.825-4.155-2.708c-0.365,0.025-0.8,0.077-1.342,0.17c-2.787,0.42-3.282,0.882-4.36,4.133
		c-0.782,2.378-1.025,2.768-1.317,2.788c-0.277,0.017-0.762-0.073-1.317-0.2c-1.758-0.385-1.758-0.385-1.398-3.508
		c0.39-3.27,0.26-4.051-2.105-5.751c-1.075-0.79-1.865-1.31-2.972-1.245c-0.81,0.052-1.635,0.405-2.982,1.095
		c-1.148,0.58-2.237,1.095-2.72,1.125c-0.18,0.013-0.312-0.04-1.103-1.275c-0.885-1.398-0.885-1.398,1.537-3.32
		c2.7-2.11,3.095-2.663,2.632-5.625c-0.415-2.72-0.88-3.2-4.13-4.265c-2.97-0.985-2.97-0.985-2.577-2.762
		c0.302-1.403,0.342-1.405,0.982-1.443c0.497-0.032,1.25,0.027,2.45,0.17c1.172,0.14,1.925,0.18,2.525,0.145
		c1.66-0.1,2.34-0.898,3.267-2.215c1.655-2.303,1.665-3.043,0.107-6.131c-1.347-2.658-1.347-2.658,0.128-3.595
		c0.365-0.24,1.04-0.678,1.327-0.695C51.812,78.773,52.867,80.108,53.577,80.993z"/>
	<path d="M53.634,193.371c0.338-0.133,0.655-0.328,0.898-0.548c1.182-0.995,1.557-2.73,0.952-4.318l-0.995-2.568
		c-4.7-12.151-15.587-19.329-27.306-18.119l-1.762-4.55c-0.625-1.613-1.762-2.93-3.217-3.715c-1.44-0.777-3.125-0.885-4.62-0.307
		c-1.49,0.575-2.657,1.797-3.192,3.325l-7.73,21.292c-0.322,0.902-0.302,1.928,0.063,2.863c0.363,0.937,1.05,1.728,1.88,2.158
		l20.051,10.543c1.43,0.768,3.105,0.87,4.595,0.293c1.495-0.575,2.66-1.793,3.207-3.325c0.552-1.543,0.508-3.285-0.113-4.898
		l-2.115-5.451c4.395-0.67,9.764,1.588,15.987,6.696C51.232,193.571,52.512,193.806,53.634,193.371z M32.413,184.148l-1.173,0.338
		l3.017,7.808c0.435,1.123,0.473,2.305,0.092,3.34c-0.332,0.938-1.01,1.645-1.905,1.998c-0.885,0.342-1.88,0.273-2.745-0.185
		L9.644,186.893c-0.358-0.18-0.665-0.547-0.835-0.983c-0.165-0.44-0.18-0.898-0.04-1.295l7.729-21.302
		c0.327-0.937,1-1.64,1.895-1.988c0.902-0.353,1.88-0.277,2.76,0.185c0.977,0.533,1.757,1.44,2.187,2.553l2.392,6.188l0.885-0.118
		c10.989-1.538,21.356,5.138,25.789,16.599l0.995,2.578c0.26,0.678,0.132,1.43-0.338,1.83c-0.363,0.327-0.962,0.255-1.42-0.138
		C44.135,184.836,37.843,182.6,32.413,184.148z"/>
	<path d="M57.412,131.919c-2.002-4.038-6.592-6.35-10.922-5.473l-0.082,0.02l-0.052-0.08c-1.505-2.088-3.612-3.58-6.097-4.313
		c-2.755-0.81-5.687-0.563-8.267,0.703c-1.997,0.983-3.652,2.498-4.78,4.38c-0.943,1.577-1.505,3.36-1.62,5.16l-0.005,0.097
		l-0.092,0.03c-0.39,0.107-0.772,0.26-1.118,0.425c-3.08,1.513-4.359,5.245-2.852,8.326c0.185,0.37,0.41,0.733,0.688,1.102
		l0.05,0.063l-0.035,0.078c-1.302,2.455-1.348,5.4-0.132,7.886c0.987,2.023,2.71,3.618,4.845,4.498
		c2.187,0.903,4.502,0.928,6.527,0.063l6.415-3.15c0.487-0.24,0.688-0.805,0.45-1.3c-0.24-0.488-0.825-0.683-1.302-0.45
		l-6.332,3.105c-3.187,1.328-7.24-0.348-8.852-3.633c-1.05-2.138-0.885-4.713,0.445-6.696c0.26-0.39,0.2-0.913-0.148-1.255
		c-0.357-0.348-0.645-0.738-0.875-1.198c-1.04-2.125-0.165-4.683,1.948-5.723c0.46-0.225,0.932-0.358,1.42-0.405
		c0.493-0.052,0.885-0.493,0.875-0.988c-0.052-3.668,2.035-7.086,5.332-8.7c4.432-2.175,9.722-0.64,12.299,3.548
		c0.235,0.375,0.688,0.553,1.108,0.43c3.632-1.08,7.685,0.783,9.414,4.313c1.83,3.735,0.482,8.453-2.997,10.508l-5.47,2.675
		c-0.493,0.245-0.688,0.81-0.45,1.308c0.24,0.477,0.81,0.677,1.3,0.44l5.572-2.73c2.137-1.25,3.715-3.29,4.424-5.758
		C58.749,136.782,58.524,134.189,57.412,131.919z"/>
	<path d="M46.295,139.532c0.17-0.508-0.102-1.065-0.61-1.24l-7.885-2.695c-0.245-0.087-0.522-0.067-0.742,0.04
		c-0.235,0.118-0.41,0.318-0.487,0.558l-2.7,7.896c-0.078,0.25-0.067,0.512,0.05,0.747s0.317,0.405,0.562,0.493
		c0.492,0.16,1.08-0.128,1.23-0.605l1.932-5.67l9.569,19.514c0.235,0.483,0.815,0.682,1.302,0.44c0.482-0.235,0.677-0.8,0.445-1.295
		l-9.569-19.519l5.677,1.938C45.557,140.3,46.122,140.02,46.295,139.532z"/>
	<path d="M69.643,1.142L87.3,5.675c0.42,0.108,0.855-0.17,0.967-0.625c0.118-0.458-0.128-0.915-0.543-1.018L72.051,0.005h-2.897
		c-0.02,0.038-0.043,0.073-0.052,0.118C68.988,0.577,69.229,1.035,69.643,1.142z"/>
	<path d="M68.631,5.088l17.656,4.538c0.415,0.105,0.845-0.172,0.963-0.63c0.117-0.46-0.122-0.908-0.537-1.01L69.048,3.448
		c-0.405-0.105-0.845,0.165-0.963,0.63C67.973,4.53,68.211,4.983,68.631,5.088z"/>
	<path d="M67.673,9.058l7.422,1.908c0.45,0.11,0.907-0.16,1.025-0.618c0.122-0.452-0.158-0.917-0.6-1.03l-7.422-1.91
		c-0.45-0.118-0.908,0.157-1.03,0.61C66.951,8.476,67.226,8.938,67.673,9.058z"/>
	<path d="M59.926,7.128l-1.43,5.58c-0.573,2.233-0.16,4.265,2.285,4.893l29.328,7.543c0.682,0.172,1.387-0.243,1.567-0.933
		l2.173-8.438c1.607-0.012,3.08-1.093,3.5-2.743c0.415-1.645-0.343-3.3-1.743-4.083l1.932-7.506c0.143-0.552-0.03-1.095-0.405-1.435
		h-7.532l6.195,1.588l-1.762,6.88c-1.675-0.065-3.232,1.045-3.677,2.758c-0.44,1.705,0.39,3.433,1.89,4.18l-2.05,7.986l-29.061-7.47
		c-1.147-0.29-1.45-1.185-1.225-2.078l1.655-6.446c1.527-0.1,2.885-1.153,3.29-2.73c0.405-1.573-0.278-3.163-1.568-3.983
		l0.175-0.685h-1.705l-0.04,0.148c-1.742-0.163-3.402,0.953-3.852,2.728C57.412,4.655,58.332,6.438,59.926,7.128z"/>
	<path d="M178.582,0.73l19.759,1.935c0.595,0.057,1.128-0.367,1.193-0.97c0.052-0.59-0.38-1.118-0.982-1.175L193.248,0h-15.579
		C177.799,0.39,178.147,0.682,178.582,0.73z"/>
	<path d="M178.147,5.163l9.892,0.973c0.59,0.06,1.122-0.37,1.178-0.965c0.062-0.593-0.375-1.123-0.968-1.183l-9.892-0.972
		c-0.595-0.06-1.122,0.372-1.193,0.968C177.112,4.578,177.544,5.1,178.147,5.163z"/>
	<path d="M199.156,17.221l0.03,0.035c0.138,0.235,0.358,0.373,0.61,0.4l4.605,0.455c0.435,0.045,0.82-0.273,0.865-0.707
		c0.038-0.44-0.275-0.833-0.705-0.877l-3.827-0.368l0.497-5.093c0.045-0.43-0.268-0.815-0.703-0.86
		c-0.435-0.045-0.815,0.27-0.865,0.703l-0.58,5.971v0.075l-0.04,0.06l0.05,0.055L199.156,17.221z"/>
	<path d="M193.921,9.621c-1.938,1.583-3.14,3.833-3.385,6.328c-0.25,2.493,0.497,4.928,2.09,6.863
		c1.592,1.93,3.837,3.133,6.327,3.378c2.485,0.242,4.927-0.493,6.87-2.085c1.937-1.593,3.14-3.84,3.387-6.32
		c0.245-2.485-0.502-4.925-2.09-6.87c-1.592-1.933-3.847-3.13-6.33-3.378C198.3,7.29,195.863,8.033,193.921,9.621z M200.633,9.12
		c2.085,0.197,3.955,1.198,5.272,2.805c1.322,1.605,1.947,3.63,1.737,5.703c-0.205,2.07-1.2,3.935-2.812,5.26
		c-1.615,1.318-3.637,1.933-5.712,1.725c-2.08-0.202-3.95-1.198-5.272-2.803c-1.322-1.615-1.937-3.645-1.733-5.705
		c0.205-2.068,1.198-3.943,2.813-5.265C196.533,9.531,198.558,8.913,200.633,9.12z"/>
	<path d="M173.112,23.354l20.804,2.042c-0.785-0.555-1.485-1.2-2.09-1.933c-0.127-0.155-0.25-0.323-0.365-0.49l-18.237-1.79
		c-1.517-0.152-2.085-1.203-1.962-2.375l1.84-18.804h-2.137l-1.74,17.649C168.942,20.561,169.87,23.034,173.112,23.354z"/>
	<path d="M205.875,0.005h-2.142l-0.68,6.948c0.717,0.237,1.402,0.545,2.04,0.918L205.875,0.005z"/>
	<path d="M110.863,9.185l2.275-1.155l12.382,24.372c0.692,1.358,2.245,1.853,3.627,1.157l28.311-14.396
		c1.397-0.703,1.92-2.26,1.225-3.618l-7.889-15.541h-2.552l8.412,16.566c0.132,0.258,0.057,0.485-0.195,0.615l-28.323,14.396
		c-0.26,0.132-0.487,0.052-0.615-0.2L115.133,7.01l13.794-7.006h-15.999l-2.92,1.485c-1.367,0.69-1.895,2.288-1.205,3.643
		L110.863,9.185z"/>
	<path d="M121.798,6.618c-0.558,0.285-0.778,0.96-0.508,1.51l9.349,18.396c0.277,0.55,0.962,0.768,1.517,0.483
		c0.553-0.285,0.782-0.962,0.503-1.51l-9.344-18.396C123.038,6.553,122.353,6.328,121.798,6.618z"/>
	<path d="M127.882,3.533c-0.558,0.285-0.785,0.963-0.507,1.513l9.344,18.391c0.282,0.548,0.963,0.765,1.517,0.48
		c0.552-0.283,0.783-0.963,0.502-1.51L129.395,4.02C129.122,3.465,128.432,3.25,127.882,3.533z"/>
	<path d="M142.796,20.346c0.273,0.555,0.958,0.768,1.518,0.485c0.557-0.285,0.782-0.968,0.502-1.51l-9.344-18.394
		c-0.277-0.55-0.962-0.768-1.512-0.48c-0.557,0.283-0.782,0.96-0.502,1.513L142.796,20.346z"/>
	<path d="M150.393,17.741c0.568-0.288,0.785-0.968,0.503-1.51l-8.242-16.224h-2.545l8.772,17.246
		C149.159,17.811,149.839,18.029,150.393,17.741z"/>
	<path d="M26.613,11.668c-3.082,0.905-4.85,4.145-3.947,7.223c0.908,3.077,4.145,4.85,7.227,3.943
		c3.075-0.908,4.845-4.155,3.94-7.233C32.925,12.528,29.683,10.761,26.613,11.668z"/>
	<path d="M22.879,9.918l5.917-1.738c1.51-0.445,2.357-2.095,1.9-3.658l-1.183-4.52h-2.285c0.747,2.858,1.337,5.11,1.337,5.11
		c0.128,0.415-0.057,0.853-0.395,0.953l-5.91,1.74c-0.345,0.103-0.732-0.168-0.867-0.608l-2.36-7.193h-2.312l2.567,7.843
		C19.761,9.441,21.369,10.368,22.879,9.918z"/>
	<path d="M31.473,28.167C43.025,24.772,49.65,12.593,46.252,1.033c-0.107-0.36-0.267-0.682-0.39-1.03h-2.357
		c0.215,0.55,0.46,1.08,0.63,1.655c3.052,10.388-2.91,21.336-13.289,24.396c-10.389,3.06-21.321-2.9-24.384-13.293
		C5.187,8.448,5.515,3.98,7.092,0.002H4.745c-1.485,4.215-1.722,8.873-0.4,13.381C7.752,24.939,19.916,31.575,31.473,28.167z"/>
	<path d="M69.153,250h2.895l-1.982-0.512C69.691,249.393,69.311,249.618,69.153,250z"/>
	<path d="M97.719,244.962l-28.826-7.413c-2.033-0.533-4.107,0.708-4.637,2.763l-2.49,9.683h1.705l1.715-6.641
		c0.302,0.375,0.757,0.553,1.2,0.67l23.226,5.973h7.545c-0.163-0.14-0.338-0.252-0.552-0.307l-0.375-0.093
		c-0.575-0.175-0.913-0.783-0.768-1.367c0.147-0.573,0.688-0.928,1.245-0.84l0.363,0.083c0.688,0.175,1.397-0.24,1.573-0.933
		C98.817,245.847,98.401,245.132,97.719,244.962z"/>
	<path d="M75.438,237.247l14.559,3.74l0.142-0.543c0.143-0.707,0.175-1.415,0.133-2.105c-0.065-2.823-1.525-5.123-4.357-6.258
		c-0.395-0.18-0.8-0.338-1.24-0.45c-0.513-0.132-1.03-0.205-1.548-0.225C79.373,231.044,76.745,233.121,75.438,237.247z"/>
	<path d="M177.604,249.54c-0.015,0.16,0.01,0.317,0.057,0.46h15.584l-14.462-1.415C178.194,248.515,177.667,248.945,177.604,249.54z
		"/>
	<path d="M148.569,240.022l-2.07-4.063c-0.682-1.348-2.29-1.86-3.652-1.168l-9.154,4.648l-1.773-3.49
		c-0.282-0.558-0.952-0.768-1.532-0.47l-0.058,0.195l-0.2-0.067l-12.227,6.215c-0.562,0.292-0.782,0.932-0.492,1.5l1.777,3.49
		l-6.255,3.178h15.994l15.362-7.798l3.96,7.798h2.55l-4.482-8.828L148.569,240.022z M121.188,245.8l-1.28-2.505l10.482-5.323
		l1.275,2.495L121.188,245.8z"/>
	<path d="M140.039,247.342c-0.558,0.282-0.782,0.962-0.497,1.513l0.575,1.142h2.545l-1.103-2.168
		C141.279,247.28,140.594,247.06,140.039,247.342z"/>
	<path d="M15.979,240.659c-0.365-1.25-1.607-1.988-2.755-1.645c0,0-1.45,1.055-1.715,1.26c-3.17,2.583-5.46,5.978-6.777,9.723h2.352
		c1.365-3.435,3.645-6.508,6.765-8.746l2.865,8.746h2.315l-2.983-9.113L15.979,240.659z"/>
	<path d="M27.761,235.502c-0.323-0.035-2.177-0.128-2.177-0.128c-1.122,0.332-1.752,1.568-1.44,2.783
		c-0.01,0.015,1.782,6.855,3.085,11.841h2.285l-3.242-12.408c7.679,0.38,14.404,5.278,17.231,12.408h2.347
		C43.073,242.074,36.005,236.439,27.761,235.502z"/>
	<path d="M217.857,83.588c0.337,0.885,1.005,1.593,1.822,1.973l0.157,0.088c0.927,0.415,1.948,0.438,2.89,0.073l27.266-10.471
		v-2.108l-27.966,10.743c-0.142,0.052-0.283,0.088-0.435,0.105l6.747-15.153l6.7,2.263c0.44,0.153,0.963-0.052,1.192-0.46
		l3.467-6.168l10.294,4.59v-2.165l-9.322-4.148l7.32-13.026c0.073,0.105,0.137,0.215,0.18,0.338l1.822,4.75v-5.508
		c-0.327-0.815-0.927-1.49-1.747-1.915v-0.005l-0.118-0.055c-0.942-0.45-1.997-0.487-2.97-0.118l-32.43,12.451
		c-0.973,0.37-1.728,1.102-2.125,2.038c-0.01,0.017-0.035,0.06-0.05,0.132l-0.01,0.042c-0.332,0.865-0.332,1.798-0.01,2.635
		L217.857,83.588z M226.459,68.205l-6.635,14.901c-0.045-0.073-0.082-0.155-0.107-0.23l-7.329-19.081
		c-0.045-0.12-0.073-0.245-0.098-0.367L226.459,68.205z"/>
	<path d="M240.938,139.387c2.06-2.973,5.782-4.078,9.047-3.008v-2.52c-4.062-0.995-8.505,0.512-11.029,4.155l-3.285,4.745
		l-3.682-2.55c-1.547-1.075-3.682-0.688-4.75,0.855l-11.927,17.234c-1.07,1.548-0.677,3.688,0.87,4.75l24.466,16.944
		c1.542,1.07,3.682,0.678,4.745-0.87l4.6-6.635v-4.243l-4.707,6.798c-0.308,0.445-0.942,0.567-1.387,0.26l-24.466-16.944
		c-0.465-0.313-0.572-0.933-0.255-1.388l10.049-14.523c0.312-0.45,0.932-0.573,1.392-0.255l19.374,13.414v-2.933l-12.339-8.541
		L240.938,139.387z"/>
	<path d="M237.853,155.753l-3.608,5.216c-0.38,0.542-0.24,1.3,0.308,1.68c0.548,0.375,1.305,0.24,1.68-0.302l3.608-5.215
		c0.375-0.548,0.245-1.308-0.298-1.69C238.991,155.066,238.231,155.206,237.853,155.753z"/>
	<path d="M242.025,93.067c2.34-2.038,5.107-3.278,7.97-3.763v-2.263c-3.48,0.515-6.745,2.002-9.445,4.365
		c-5.077,4.433-7.314,11.244-5.825,17.761c0.122,0.512,0.573,0.855,1.07,0.86c0.097,0,0.18-0.005,0.267-0.033
		c0.6-0.145,0.988-0.735,0.84-1.328C235.603,102.935,237.553,96.962,242.025,93.067z"/>
	<path d="M242.463,117.778l4.877-0.378c0.615-0.052,1.08-0.582,1.03-1.192c-0.05-0.623-0.58-1.07-1.205-1.02l-7.372,0.577
		c-0.615,0.053-1.085,0.575-1.035,1.19l0.552,7.313c0.035,0.572,0.522,1.01,1.095,1.022c0.035,0,0.063,0,0.097-0.012
		c0.615-0.05,1.08-0.575,1.035-1.195l-0.333-4.443c2.51,2.065,5.542,3.373,8.795,3.883v-2.205
		C247.268,120.826,244.66,119.638,242.463,117.778z"/>
	<path d="M14.329,223.513c0.605,0.302,1.295,0.18,1.705-0.365c0.522-0.677,0.4-1.738-0.255-2.372
		c-4.912-4.758-10.469-7.416-15.771-7.796v3.355c0.282,0.02,0.567,0.01,0.85,0.045c0.26,0.308,0.472,0.678,0.615,1.095
		c0.585,1.643-0.078,3.355-1.465,3.943v11.553C6.115,230.744,11.237,227.351,14.329,223.513z M3.502,229.626
		c2.402-2.465,3.257-6.506,1.885-10.366c-0.262-0.748-0.595-1.43-0.983-2.075c2.955,0.995,5.912,2.777,8.682,5.273
		C10.867,225.148,7.492,227.658,3.502,229.626z"/>
	<path d="M7.282,71.243l0.03-0.063c0.37-0.895,0.38-1.872,0.05-2.75L0.038,49.348c-0.005-0.018-0.025-0.03-0.03-0.045v5.508
		L5.505,69.14c0.03,0.072,0.052,0.152,0.067,0.233L0,66.897v2.165l4.847,2.158c-0.117,0.085-0.255,0.158-0.385,0.21L0,73.145v2.11
		l5.17-1.985C6.13,72.905,6.877,72.183,7.282,71.243z"/>
	<path d="M4.087,148.48l-3.285,4.75l-0.795-0.558v2.935l5.092,3.525c0.455,0.313,0.567,0.942,0.255,1.393l-5.347,7.723v4.243
		l7.334-10.591c1.067-1.547,0.677-3.678-0.87-4.75l-3.687-2.55l3.285-4.75c3.267-4.718,2.085-11.211-2.627-14.474
		c-1.075-0.743-2.24-1.225-3.442-1.518v2.525c0.717,0.235,1.415,0.538,2.065,0.988C5.682,139.877,6.597,144.857,4.087,148.48z"/>
	<path d="M0.002,87.036v2.263c4.58-0.77,9.39,0.395,13.079,3.45l-4.82,0.132c-0.62,0.015-1.107,0.515-1.097,1.138
		c0.02,0.598,0.508,1.073,1.107,1.083h0.035l7.402-0.192c0.605-0.018,1.085-0.495,1.095-1.095v-0.132l-0.157-7.241
		c-0.01-0.62-0.527-1.1-1.142-1.087c-0.62,0.015-1.107,0.525-1.097,1.138l0.103,4.543c-2.97-2.478-6.655-3.928-10.615-4.168
		C2.582,86.786,1.277,86.851,0.002,87.036z"/>
	<path d="M2.727,123.809c4.565,0.05,8.934-1.563,12.402-4.578c5.077-4.438,7.31-11.238,5.82-17.761
		c-0.138-0.592-0.742-0.97-1.338-0.825c-0.6,0.143-0.99,0.735-0.845,1.33c1.307,5.728-0.65,11.706-5.117,15.596
		c-3.135,2.735-7.032,4.05-10.892,4.01c-0.925-0.008-1.842-0.095-2.75-0.262v2.208c0.59,0.09,1.172,0.21,1.777,0.248
		C2.102,123.789,2.415,123.804,2.727,123.809z"/>
	<path d="M229.989,233.464c-0.107,0.907,0.478,1.808,1.302,2.007c0.262,0.068,0.527,0.052,0.767-0.035
		c0.25-0.088,0.47-0.255,0.63-0.472c4.847,0.932,10.922,0.272,17.007-1.885c0.103-0.035,0.195-0.078,0.297-0.112v-11.553
		c-0.045,0.02-0.072,0.057-0.122,0.077c-1.48,0.523-3.165-0.42-3.77-2.125c-0.365-1.025-0.25-2.08,0.225-2.875
		c1.193-0.22,2.422-0.25,3.667-0.16v-3.35c-2.352-0.17-4.662,0.057-6.83,0.83C236.093,216.32,231.166,223.668,229.989,233.464z
		 M247.658,231.961c-5.185,1.62-10.404,2.123-14.554,1.41c0.747-5.053,2.597-9.308,5.297-12.301
		c-0.045,1.303,0.165,2.648,0.645,3.985C240.496,229.154,244.02,231.814,247.658,231.961z"/>
	<path d="M226.506,224.788l-1.45-4.093l6.28-2.233l0.805,2.265c0.43-0.665,0.885-1.29,1.362-1.89l1.465-1.665
		c2.188-2.26,4.74-3.97,7.617-4.991c2.027-0.717,4.155-1.08,6.337-1.095l-8.417-23.717c-0.528-1.485-2.183-2.245-3.7-1.71
		l-28.583,10.143c-1.512,0.543-2.32,2.178-1.792,3.663l9.912,27.932c0.522,1.48,2.182,2.245,3.697,1.71l9.512-3.375
		c0.338-0.835,0.698-1.64,1.095-2.418L226.506,224.788z M238.401,187.098l1.45,4.088l-6.274,2.228l-1.45-4.088L238.401,187.098z
		 M230.326,189.961l1.45,4.098l-6.28,2.228l-1.455-4.093L230.326,189.961z M209.33,202.022l-1.45-4.093l6.28-2.233l1.455,4.093
		L209.33,202.022z M215.962,195.064l6.28-2.233l1.455,4.093l-6.284,2.233L215.962,195.064z M218.427,227.654l-1.45-4.088l6.28-2.232
		l1.455,4.093L218.427,227.654z M221.517,204.399c-0.512-1.44,0.347-2.35,1.86-1.992l8.807,2.032c1.508,0.35,1.978,1.64,1.025,2.865
		l-5.567,7.135c-0.952,1.225-2.192,1.06-2.692-0.372L221.517,204.399z"/>
	<path d="M204.485,240.039l0.472,0.04c0.908,0.092,1.72-0.567,1.812-1.475c0.092-0.907-0.575-1.71-1.49-1.803l-27.846-2.735
		c-2.68-0.283-5.082,1.685-5.342,4.35l-1.138,11.578h2.137l0.782-7.94c0.46,0.42,1.07,0.567,1.665,0.615l28.626,2.813l-0.445,4.513
		h2.142l0.497-5.05c0.105-0.995-0.545-1.895-1.53-1.988l-0.51-0.052c-0.778-0.113-1.323-0.8-1.245-1.563
		C203.148,240.599,203.768,240.042,204.485,240.039z"/>
</g>
</svg>
