<?xml version="1.0" encoding="utf-8"?>
<!-- Generator: Adobe Illustrator 15.1.0, SVG Export Plug-In . SVG Version: 6.00 Build 0)  -->
<!DOCTYPE svg PUBLIC "-//W3C//DTD SVG 1.1//EN" "http://www.w3.org/Graphics/SVG/1.1/DTD/svg11.dtd">
<svg version="1.1" id="Layer_1" xmlns="http://www.w3.org/2000/svg" xmlns:xlink="http://www.w3.org/1999/xlink" x="0px" y="0px"
	 width="500px" height="500px" viewBox="0 0 500 500" enable-background="new 0 0 500 500" xml:space="preserve">
<g>
	<path fill="#FFFFFF" d="M324.531,125.767c0.376-0.964-0.093-2.058-1.064-2.434l-36.099-14.136l10.405-4.561
		c0.947-0.417,1.382-1.533,0.972-2.493c-0.205-0.454-0.566-0.811-1.04-0.991c-0.464-0.183-0.977-0.173-1.44,0.032l-14.565,6.392
		c-0.21,0.093-0.415,0.237-0.61,0.437c-0.156,0.168-0.293,0.371-0.376,0.598c-0.088,0.227-0.132,0.474-0.132,0.745
		c0.01,0.237,0.059,0.476,0.156,0.698l6.353,14.573c0.405,0.93,1.553,1.377,2.471,0.972c0.952-0.415,1.392-1.531,0.977-2.483
		l-4.541-10.408l36.094,14.131C323.057,127.219,324.15,126.736,324.531,125.767z"/>
	<path fill="#FFFFFF" d="M256.46,141.003l32.344,12.664c4.673,1.829,9.951-0.491,11.787-5.166l7.524-19.243
		c0.02-0.044,0.225-0.552,0.02-1.028c-0.166-0.393-0.586-0.72-1.245-0.981c-0.498-0.193-1.201-0.378-1.68-0.137
		c-0.4,0.21-0.557,0.667-0.557,0.667l-7.563,19.351c-1.069,2.744-4.18,4.102-6.909,3.03l-32.344-12.664
		c-2.734-1.072-4.089-4.175-3.015-6.917l17.756-45.347c1.074-2.737,4.17-4.094,6.904-3.025l32.344,12.664
		c2.734,1.074,4.092,4.172,3.018,6.912l-3.018,7.72l-0.054,0.093c0,0-0.205,0.383-0.073,0.759c0.142,0.388,0.635,0.759,1.392,1.057
		c0.508,0.198,1.206,0.386,1.68,0.146c0.42-0.198,0.557-0.671,0.562-0.676l3.018-7.727c1.826-4.678-0.479-9.963-5.146-11.794
		l-32.344-12.664c-4.668-1.826-9.946,0.491-11.782,5.168l-17.754,45.344C249.492,133.887,251.797,139.177,256.46,141.003z"/>
	<path fill="#FFFFFF" d="M366.914,162.886c-0.806-0.356-1.768,0.02-2.124,0.833s0.01,1.768,0.825,2.126l25.249,11.123
		c0.806,0.359,1.768-0.012,2.124-0.823c0.361-0.818-0.01-1.775-0.825-2.134L366.914,162.886z"/>
	<path fill="#FFFFFF" d="M371.143,153.293c-0.815-0.356-1.768,0.012-2.129,0.828c-0.356,0.815,0.015,1.772,0.825,2.134
		l25.249,11.123c0.811,0.359,1.768-0.015,2.129-0.83s-0.01-1.772-0.83-2.129L371.143,153.293z"/>
	<path fill="#FFFFFF" d="M407.319,154.277l-36.064-15.891c-3.467-1.526-7.529,0.049-9.058,3.516l-19.072,43.281
		c-1.523,3.464,0.054,7.529,3.516,9.058l25.366,11.169c0.645,6.79,4.834,13.04,11.514,15.984c9.829,4.331,21.313-0.127,25.645-9.958
		c4.111-9.338,0.288-20.149-8.54-24.922l10.205-23.179C412.363,159.866,410.786,155.806,407.319,154.277z M402.1,206.179
		c0.767,0.334,1.113,1.228,0.776,1.985c-0.337,0.767-1.226,1.113-1.997,0.776l-8.794-3.872l-4.053,9.211
		c-0.337,0.767-1.24,1.118-2.002,0.781c-0.762-0.339-1.108-1.24-0.776-2.002l4.058-9.211l-8.315-3.667
		c-0.767-0.337-1.113-1.233-0.776-1.997c0.332-0.759,1.23-1.106,1.997-0.771l8.32,3.669l3.691-8.384
		c0.337-0.762,1.23-1.106,1.997-0.774c0.762,0.339,1.113,1.233,0.771,2l-3.691,8.379L402.1,206.179z M407.881,162.029l-10.22,23.186
		c-9.453-3.257-19.99,1.216-24.092,10.535c-0.884,2.004-1.382,4.07-1.572,6.133l-24.048-10.601
		c-1.841-0.811-2.676-2.964-1.865-4.797l19.072-43.279c0.806-1.836,2.954-2.671,4.795-1.863l36.064,15.889
		C407.852,158.04,408.687,160.195,407.881,162.029z"/>
	<path fill="#FFFFFF" d="M415.898,433.203l25.947-52.803c0.566-1.152,0.024-2.573-1.206-3.184l-9.99-4.907
		c0.303,1.196,0.264,2.383,0.107,3.306l8.12,3.999l-25.415,51.729l-47.979-23.574l25.415-51.733l8.101,3.979
		c0.625-0.693,1.553-1.45,2.681-1.938l-9.961-4.893c-1.24-0.61-2.69-0.166-3.262,0.986l-25.942,52.803
		c-0.571,1.152-0.029,2.578,1.206,3.184l48.926,24.038C413.877,434.8,415.332,434.355,415.898,433.203z"/>
	<path fill="#FFFFFF" d="M405.771,413.979c0.474,0.229,1.04,0.034,1.265-0.435c0.234-0.469,0.044-1.035-0.43-1.265l-16.289-8.008
		c-0.469-0.225-1.035-0.034-1.265,0.43c-0.229,0.474-0.034,1.04,0.43,1.27L405.771,413.979z"/>
	<path fill="#FFFFFF" d="M413.818,411.538c0.234-0.469,0.049-1.035-0.42-1.27l-20.967-10.298c-0.469-0.229-1.035-0.034-1.265,0.435
		c-0.234,0.469-0.044,1.04,0.425,1.27l20.962,10.298C413.027,412.207,413.594,412.012,413.818,411.538z"/>
	<path fill="#FFFFFF" d="M379.673,392.93l-3.564,7.251c-0.288,0.596-0.044,1.318,0.562,1.611l7.231,3.555
		c0.601,0.298,1.328,0.054,1.621-0.547l3.193-6.489l3.955-2.412c0.571-0.347,0.747-1.094,0.405-1.66
		c-0.352-0.571-1.089-0.757-1.66-0.405l-3.208,1.943l-6.914-3.398C380.688,392.085,379.966,392.334,379.673,392.93z
		 M378.818,400.151l0.835-1.694l0.347,2.28L378.818,400.151z M383.887,402.646l-1.27-0.625l2.246-1.372L383.887,402.646z
		 M385.757,397.271l-3.506,2.129l-0.625-4.077c-0.01-0.029-0.02-0.068-0.024-0.093L385.757,397.271z"/>
	<path fill="#FFFFFF" d="M417.856,391.528c0.234-0.469,0.044-1.04-0.43-1.274l-16.289-8.003c-0.464-0.229-1.035-0.034-1.27,0.439
		c-0.229,0.469-0.029,1.035,0.439,1.265l16.289,8.003C417.07,392.192,417.632,391.997,417.856,391.528z"/>
	<path fill="#FFFFFF" d="M396.25,382.969l3.555-7.236c0.298-0.601,0.049-1.328-0.552-1.626l-7.236-3.56
		c-0.601-0.288-1.328-0.039-1.626,0.562l-3.555,7.236c-0.288,0.596-0.044,1.328,0.557,1.621l7.231,3.56
		C395.234,383.813,395.952,383.56,396.25,382.969z"/>
	<path fill="#FFFFFF" d="M426.631,390.498c0.225-0.474,0.029-1.045-0.43-1.274l-22.944-11.274c-0.474-0.234-1.045-0.034-1.274,0.439
		c-0.229,0.464-0.034,1.035,0.435,1.265l22.944,11.279C425.83,391.157,426.396,390.962,426.631,390.498z"/>
	<path fill="#FFFFFF" d="M425.972,367.173c-0.601-0.303-2.1-1.035-5.688-2.803l1.04-2.104c0.039-0.073,0.093-0.146,0.142-0.225
		c0.034-0.083,0.059-0.166,0.093-0.249l0.049-0.107l-0.01-0.005c0.562-1.582-0.122-3.364-1.66-4.121
		c-1.553-0.752-3.374-0.215-4.287,1.206l-0.005-0.005l-0.049,0.093c-0.044,0.088-0.103,0.151-0.146,0.234
		c-0.044,0.078-0.059,0.161-0.088,0.254l-1.04,2.104c-3.589-1.772-5.107-2.515-5.713-2.813c-3.53-1.733-9.399,4.541-9.399,4.541
		l28.906,14.204C428.115,377.378,429.502,368.906,425.972,367.173z M419.985,361.313c-0.415,0.845-1.436,1.196-2.28,0.781
		c-0.85-0.415-1.191-1.44-0.781-2.285c0.42-0.845,1.44-1.187,2.28-0.776C420.054,359.448,420.4,360.469,419.985,361.313z"/>
	<path fill="#FFFFFF" d="M79.854,72.405l29.609,41.206c1.88,2.625,5.466,3.293,7.971,1.492l3.042-2.185
		c2.512-1.804,3.025-5.417,1.145-8.042L92.014,63.669c-1.882-2.62-5.466-3.276-7.974-1.475l-3.047,2.188
		C78.494,66.184,77.974,69.785,79.854,72.405z M83.281,67.546l3.032-2.18c0.837-0.605,2.036-0.383,2.661,0.491l29.602,41.204
		c0.627,0.876,0.454,2.083-0.378,2.683l-3.037,2.18c-0.835,0.598-2.031,0.376-2.661-0.498L82.9,70.22
		C82.273,69.351,82.446,68.142,83.281,67.546z"/>
	<path fill="#FFFFFF" d="M70.388,140.608c1.409,1.96,3.696,3.02,6.123,2.813l0.156-0.017c1.165-0.19,2.236-0.62,3.113-1.255
		c0.957-0.681,1.721-1.631,2.195-2.732l10.315-37.532c1.023-2.161,0.779-4.731-0.64-6.704c-1.418-1.975-3.777-3.025-6.106-2.751
		l-38.845-2.202c-2.322,0.137-4.512,1.602-5.598,3.904c-0.964,2.231-0.701,4.739,0.71,6.702L70.388,140.608z M86.199,95.813
		c1.089-0.129,2.141,0.342,2.805,1.267s0.774,2.073,0.286,3.113l-9.822,36.624L48.301,93.442L86.199,95.813z"/>
	<path fill="#FFFFFF" d="M218.647,206.038l-26.057-2.817c-0.586-0.063-1.113,0.352-1.177,0.933
		c-0.063,0.579,0.366,1.099,0.952,1.165l26.057,2.813c0.586,0.061,1.106-0.356,1.169-0.935
		C219.653,206.616,219.233,206.104,218.647,206.038z"/>
	<path fill="#FFFFFF" d="M206.892,210.918l-14.958-1.619c-0.588-0.059-1.113,0.352-1.177,0.93c-0.063,0.571,0.366,1.094,0.952,1.157
		l14.956,1.616c0.593,0.066,1.118-0.356,1.179-0.923C207.908,211.499,207.485,210.979,206.892,210.918z"/>
	<path fill="#FFFFFF" d="M168.179,231.436l54.575,5.896c0.015,0.002,0.029,0,0.049,0.007c0.691,0.073,1.326-0.425,1.399-1.113
		c0.049-0.425-0.137-0.837-0.449-1.094l-0.532-0.73c-2.083-2.839-1.66-6.743,0.979-9.075l0.876-0.771
		c0.105-0.095,0.178-0.198,0.254-0.308c0.01-0.034,0.02-0.059,0.032-0.085c0.059-0.115,0.09-0.229,0.115-0.349
		c0-0.022,0.012-0.034,0.015-0.063l1.56-14.414c3.455,0.176,6.487-2.363,6.865-5.862c0.376-3.494-2.043-6.626-5.459-7.192
		l1.204-11.106c0.603-5.54-3.489-10.549-9.106-11.15l-29.973-3.24c-0.698-0.078-1.328,0.422-1.401,1.108l-4.988,46.133l-4.111-0.444
		l4.983-46.135c0.076-0.684-0.435-1.306-1.135-1.382l-7.283-0.786c-5.1-0.554-9.695,3.093-10.239,8.12l-1.301,12.046
		c-3.418-0.125-6.404,2.395-6.777,5.859c-0.376,3.467,2.002,6.565,5.369,7.175l-2.239,20.723
		C161.013,227.292,164.033,230.986,168.179,231.436z M195.95,173.894l6.755,0.73l-1.458,13.499l-2.515-3.101
		c-0.139-0.164-0.327-0.266-0.537-0.288c-0.215-0.027-0.415,0.032-0.586,0.166l-3.123,2.495L195.95,173.894z M191.575,173.418
		l2.808,0.308l-1.663,15.376c-0.034,0.317,0.115,0.608,0.408,0.784c0.298,0.144,0.659,0.112,0.881-0.081l3.997-3.191l3.228,3.97
		c0.137,0.168,0.325,0.269,0.532,0.293c0.095,0.015,0.188,0.002,0.32-0.024c0.305-0.085,0.52-0.352,0.557-0.676l1.66-15.381
		l15.981,1.729c4.224,0.457,7.305,4.214,6.858,8.381l-1.24,11.462c-2.644,0.625-4.736,2.834-5.044,5.696s1.26,5.466,3.708,6.641
		l-1.462,13.528l-36.377-3.931L191.575,173.418z M169.529,218.97l51.892,5.603c-0.84,0.571-1.648,2.212-1.924,3.955l-45.527-4.919
		c-0.701-0.076-1.326,0.417-1.399,1.104c-0.076,0.693,0.43,1.306,1.13,1.382l45.403,4.907c-0.103,1.467,0.427,2.629,1.24,3.55
		l-51.895-5.605c-2.754-0.298-4.753-2.756-4.448-5.596C164.294,220.635,166.772,218.669,169.529,218.97z"/>
	<path fill="#FFFFFF" d="M188.213,167.317l22.456,2.424c-0.039-5.74-4.341-10.657-10.139-11.282
		C194.731,157.83,189.487,161.721,188.213,167.317z"/>
	<path fill="#FFFFFF" d="M135.073,273.76c-0.332-0.449-0.962-0.537-1.404-0.205l-19.763,14.731
		c-0.444,0.332-0.535,0.967-0.205,1.416c0.332,0.444,0.962,0.527,1.404,0.2l19.763-14.741
		C135.313,274.829,135.408,274.204,135.073,273.76z"/>
	<path fill="#FFFFFF" d="M130.161,284.727c-0.334-0.449-0.969-0.542-1.414-0.21l-11.35,8.462c-0.439,0.327-0.535,0.967-0.203,1.411
		c0.334,0.444,0.964,0.532,1.409,0.205l11.345-8.467C130.393,285.801,130.488,285.171,130.161,284.727z"/>
	<path fill="#FFFFFF" d="M88.086,270.811c-0.396-0.527-1.147-0.64-1.682-0.249l-5.527,4.126c-3.86,2.886-4.658,8.384-1.768,12.266
		l26.35,35.337c2.354,3.159,6.833,3.813,9.978,1.47l41.384-30.864c0.017-0.01,0.022-0.024,0.039-0.029
		c0.525-0.391,0.645-1.143,0.244-1.675c-0.249-0.337-0.632-0.503-1.018-0.483l-0.837-0.171c-3.281-0.654-5.532-3.667-5.22-6.997
		l0.095-1.113c0.012-0.132,0-0.254-0.027-0.376c-0.01-0.024-0.024-0.049-0.032-0.073c-0.032-0.117-0.083-0.215-0.151-0.322
		c-0.007-0.02-0.012-0.034-0.027-0.049l-22.19-29.766c-3.181-4.28-9.253-5.164-13.516-1.987l-22.734,16.953
		c-0.532,0.396-0.63,1.147-0.237,1.675l26.536,35.596l-3.125,2.329L88.086,270.811z M102.285,261.724l7.769,10.41l-3.745-0.557
		c-0.21-0.029-0.391,0.02-0.559,0.137c-0.159,0.122-0.259,0.288-0.293,0.493l-0.527,3.75l-7.769-10.42L102.285,261.724z
		 M93.848,268.018l2.126-1.592l8.853,11.87c0.186,0.239,0.466,0.356,0.784,0.283c0.303-0.088,0.53-0.342,0.557-0.615l0.679-4.81
		l4.802,0.723c0.195,0.029,0.386-0.02,0.549-0.137c0.073-0.059,0.132-0.117,0.205-0.22c0.156-0.259,0.134-0.586-0.056-0.835
		l-8.848-11.87l12.114-9.033c3.213-2.39,7.771-1.721,10.171,1.489l21.472,28.799l-27.588,20.576L93.848,268.018z M147.622,284.79
		c-0.203,0.942,0.3,2.607,1.243,4.009l-34.534,25.747c-0.525,0.4-0.64,1.143-0.239,1.675c0.398,0.532,1.145,0.645,1.672,0.254
		l34.446-25.688c0.879,1.099,1.992,1.572,3.149,1.694l-39.358,29.355c-2.09,1.558-5.056,1.118-6.692-1.069
		c-1.565-2.095-1.133-5.063,0.955-6.621L147.622,284.79z"/>
	<path fill="#FFFFFF" d="M433.994,282.227l-5.376-4.434l0.776-5.098c-0.039-0.684-0.469-1.563-0.972-1.978l-13.574-11.211
		c-0.503-0.415-1.455-0.674-2.124-0.576l-4.854,1.724l-3.911-3.232l2.031-2.463c0.303-0.364,0.249-0.896-0.112-1.194l-4.111-3.398
		c-0.356-0.298-0.894-0.249-1.196,0.115l-2.031,2.466l-1.997-1.648c-1.094-0.901-2.7-0.747-3.604,0.347l-30.786,37.28
		c-1.802,2.178-1.489,5.4,0.684,7.197l39.424,32.559c2.178,1.797,5.4,1.489,7.202-0.693l25.894-31.357
		C438.96,292.266,438.345,285.825,433.994,282.227z M432.549,294.932l-26.772,32.427l-42.271-34.912l31.304-37.91l37.217,30.732
		C434.775,287.544,434.609,292.441,432.549,294.932z"/>
	<path fill="#FFFFFF" d="M390.83,283.13c-4.312,5.22-3.564,12.959,1.655,17.28c5.225,4.307,12.964,3.574,17.271-1.65
		c4.321-5.225,3.579-12.959-1.646-17.271C402.886,277.173,395.146,277.905,390.83,283.13z M404.849,294.556
		c-2.041,2.48-5.703,2.822-8.174,0.781c-2.48-2.046-2.827-5.703-0.781-8.179c2.046-2.471,5.698-2.822,8.174-0.776
		C406.543,288.423,406.895,292.08,404.849,294.556z"/>
	<path fill="#FFFFFF" d="M397.456,265.815c1.172-1.421,0.972-3.516-0.444-4.692c-1.421-1.172-3.525-0.967-4.692,0.449
		c-1.177,1.416-0.972,3.521,0.444,4.692C394.18,267.432,396.284,267.231,397.456,265.815z"/>
	<path fill="#FFFFFF" d="M238.372,58.723c-2.185-1.238-4.546,0.398-4.546,0.398L211.05,76.533c0,0-5.52-2.466-13.223,1.873
		l20.137,11.018c2.395-5.801-0.862-9.5-0.862-9.5l22.07-17.188C239.172,62.737,240.591,59.988,238.372,58.723z"/>
	<polygon fill="#FFFFFF" points="182.434,94.937 183.948,96.624 184.321,96.296 182.832,94.59 	"/>
	<path fill="#FFFFFF" d="M193.425,80.405c-2.268,1.13-4.797,2.439-7.549,3.916c-7.571,4.363-13.025,8.704-16.206,12.896
		c-3.186,4.189-5.198,7.996-5.972,11.299c-0.796,3.354-0.535,7.078,0.776,11.062l0.151,0.474l9.055,4.077l-0.413-2.163
		c-0.708-3.647-0.623-7,0.249-9.961c0.369-1.24,0.779-2.419,1.24-3.521c-0.391,1.682-0.637,3.313-0.732,4.873
		c-0.188,2.927,0.054,6.414,0.737,10.359l0.107,0.627l7.92,3.049l-0.737-2.28c-0.879-2.698-0.845-5.542,0.088-8.452
		c0.747-2.341,1.648-4.539,2.686-6.572c-0.034,0.12-0.073,0.242-0.105,0.361c-1.038,3.596-1.631,6.724-1.758,9.287
		c-0.139,2.593,0.171,5.281,0.923,7.993l0.151,0.557l7.959,2.961l-0.898-2.358c-0.986-2.581-1.067-5.398-0.244-8.379
		c0.74-2.686,1.709-5.225,2.891-7.573c-0.806,3.518-1.211,6.687-1.218,9.429c-0.012,2.827,0.393,5.92,1.218,9.187l0.139,0.583
		l8.962,3.179l-0.313-1.912c-0.708-4.277-0.808-8.279-0.291-11.909c0.51-3.647,1.731-7.949,3.625-12.773
		c1.875-4.795,5.151-9.922,9.741-15.247l0.913-1.057L193.96,80.142L193.425,80.405z M203.743,107.91
		c-1.963,5-3.22,9.463-3.767,13.291c-0.461,3.303-0.454,6.89,0.034,10.691l-4.194-1.487c-0.684-2.869-1.021-5.579-1.011-8.049
		c0.01-2.651,0.422-5.752,1.23-9.229c0.793-3.445,2.373-7.114,4.678-10.908l-1.885-1.255c-2.795,3.689-4.976,6.97-6.482,9.746
		c-1.545,2.82-2.781,5.918-3.696,9.214c-0.72,2.612-0.835,5.129-0.352,7.52l-2.354-0.881c-0.583-2.288-0.82-4.553-0.703-6.733
		c0.12-2.388,0.686-5.339,1.677-8.77c0.984-3.423,2.852-7.363,5.54-11.714l-1.833-1.326c-2.935,3.381-5.21,6.438-6.76,9.097
		c-1.558,2.664-2.861,5.647-3.899,8.87c-0.833,2.598-1.045,5.156-0.625,7.639l-2.429-0.935c-0.574-3.513-0.779-6.609-0.613-9.204
		c0.181-2.734,0.842-5.71,1.987-8.862c1.035-2.856,2.871-5.483,5.454-7.817l-1.519-1.677c-0.542,0.474-1.311,1.167-2.332,2.085
		c-1.577,1.411-3.174,3.328-4.744,5.688c-1.577,2.378-2.864,5.229-3.821,8.481c-0.796,2.717-1.013,5.703-0.637,8.899l-4.189-1.89
		c-1.05-3.411-1.243-6.565-0.579-9.377c0.708-2.996,2.578-6.509,5.569-10.447c2.993-3.943,8.213-8.076,15.491-12.273
		c2.485-1.333,4.81-2.542,6.921-3.596l19.077,10.381C208.687,98.223,205.583,103.201,203.743,107.91z"/>
	<polygon fill="#FFFFFF" points="182.466,94.978 183.186,95.786 182.935,95.498 	"/>
	<path fill="#FFFFFF" d="M177.549,81.636c0.383,0.864,1.406,1.257,2.29,0.867l0.884-0.393c0.879-0.388,1.274-1.411,0.889-2.275
		l-12.859-29.001c-0.383-0.867-1.401-1.257-2.28-0.869l-0.886,0.393c-0.884,0.391-1.279,1.411-0.896,2.278L177.549,81.636z"/>
	<path fill="#FFFFFF" d="M160.261,101.943c0.383,0.864,1.406,1.252,2.283,0.864l0.889-0.393c0.876-0.391,1.274-1.409,0.894-2.273
		l-12.861-29.006c-0.383-0.867-1.406-1.252-2.283-0.864l-0.889,0.396c-0.876,0.388-1.277,1.404-0.891,2.271L160.261,101.943z"/>
	<path fill="#FFFFFF" d="M168.176,90.64c0.386,0.867,1.404,1.257,2.283,0.869l0.891-0.393c0.874-0.388,1.27-1.409,0.886-2.275
		l-12.859-28.999c-0.386-0.869-1.404-1.257-2.278-0.869l-0.894,0.396c-0.876,0.388-1.272,1.404-0.886,2.273L168.176,90.64z"/>
	<path fill="#FFFFFF" d="M358.325,116.355c0.581,0.583,1.602,0.605,2.197,0l25.396-25.403l25.366,25.4
		c0.605,0.586,1.646,0.583,2.222,0c0.615-0.613,0.615-1.616,0-2.229L388.125,88.75l25.381-25.4c0.303-0.298,0.459-0.686,0.459-1.099
		c0-0.417-0.156-0.811-0.459-1.106c-0.596-0.596-1.631-0.593-2.222-0.002l-25.366,25.398l-25.391-25.396
		c-0.591-0.596-1.611-0.593-2.202-0.002c-0.61,0.61-0.605,1.609,0.005,2.231l25.381,25.376l-25.386,25.374
		C357.71,114.736,357.71,115.74,358.325,116.355z"/>
	<path fill="#FFFFFF" d="M284.663,277.432h30.181c2.598,0,4.995-2.021,5.449-4.59l5.063-39.719c0.215-1.306-0.098-2.551-0.889-3.496
		c-0.801-0.959-1.973-1.482-3.311-1.482h-44.16c-1.333,0-2.51,0.522-3.301,1.487c-0.791,0.957-1.099,2.212-0.859,3.491l6.338,39.729
		C279.658,275.43,282.065,277.432,284.663,277.432z M275.562,231.189c0.332-0.391,0.83-0.605,1.436-0.605h44.16
		c0.605,0,1.118,0.215,1.45,0.615c0.327,0.396,0.454,0.945,0.352,1.541l-5.054,39.702c-0.264,1.377-1.655,2.549-3.062,2.549h-30.181
		c-1.416,0-2.842-1.182-3.096-2.539l-6.338-39.734C275.122,232.131,275.239,231.587,275.562,231.189z"/>
	<path fill="#FFFFFF" d="M289.233,268.789c1.343-0.049,2.393-1.318,2.339-2.861l-2.925-26.423c-0.059-1.533-1.182-2.744-2.515-2.705
		c-1.348,0.044-2.388,1.313-2.339,2.856l2.92,26.428C286.772,267.617,287.9,268.828,289.233,268.789z"/>
	<path fill="#FFFFFF" d="M299.336,268.857c1.333-0.117,2.319-1.436,2.202-2.969l-0.063-26.589c-0.117-1.543-1.294-2.683-2.646-2.576
		c-1.333,0.12-2.31,1.448-2.192,2.976l0.054,26.599C296.812,267.832,298.003,268.975,299.336,268.857z"/>
	<path fill="#FFFFFF" d="M308.838,268.789c1.338,0.039,2.466-1.172,2.52-2.705l2.925-26.428c0.049-1.543-0.991-2.813-2.339-2.856
		c-1.338-0.039-2.456,1.172-2.52,2.705l-2.925,26.423C306.45,267.471,307.495,268.74,308.838,268.789z"/>
	<path fill="#FFFFFF" d="M313.521,201.03c-1.372,0.72-1.816,2.576-1.001,4.165l24.033,38.477c0.815,1.575,2.583,2.268,3.95,1.558
		c1.367-0.713,1.821-2.578,0.991-4.158l-8.989-14.399l4.59-3.062c0.527-0.352,0.679-1.074,0.327-1.611l-4.785-7.314
		c-0.347-0.537-1.06-0.684-1.592-0.327l-4.404,2.93l-9.175-14.697C316.646,201.013,314.888,200.313,313.521,201.03z"/>
	<path fill="#FFFFFF" d="M279.912,202.502c7.749,4.539,8.73,11.389,8.73,11.389l-6.255,2.883l15.767,7.825l6.514-18.408l-6.25,3.027
		c0,0-3.965-13.252-19.38-14.236c-15.415-0.977-19.639,8.713-19.639,8.713S272.158,197.969,279.912,202.502z"/>
	<path fill="#FFFFFF" d="M64.79,225.146c0,0.991,1.335,1.785,2.979,1.785h60.708c1.643,0,2.979-0.793,2.979-1.785
		c0-0.979-1.335-1.78-2.979-1.78H67.769C66.125,223.367,64.79,224.167,64.79,225.146z"/>
	<path fill="#FFFFFF" d="M116.035,181.355l-11.887-12.634l-35.879,33.796l11.89,12.634L116.035,181.355z M104.065,171.511
		l9.185,9.761l-33.008,31.094l-9.189-9.766L104.065,171.511z"/>
	<polygon fill="#FFFFFF" points="64.79,217.703 79.165,216.084 67.278,203.455 	"/>
	<path fill="#FFFFFF" d="M111.455,161.836l-6.311,5.942l11.89,12.634l6.309-5.945c2.324-2.185,2.427-5.869,0.247-8.181l-3.953-4.202
		C117.449,159.758,113.777,159.646,111.455,161.836z"/>
	<path fill="#FFFFFF" d="M205.891,29.165c18.45,0,34.055-12.324,39.065-29.165h-4.907c-4.846,14.229-18.306,24.5-34.158,24.5
		c-15.842,0-29.309-10.271-34.158-24.5h-4.893C171.851,16.841,187.454,29.165,205.891,29.165z"/>
	<path fill="#FFFFFF" d="M205.891,6.799c1.294,0,2.336-1.038,2.336-2.332V0h-4.668v4.468C203.56,5.762,204.612,6.799,205.891,6.799z
		"/>
	<path fill="#FFFFFF" d="M54.502,36.555l20.061-20.112v12.754c0,1.758,1.426,3.184,3.179,3.184c1.736,0,3.147-1.426,3.147-3.184
		V8.809l-0.212-1.094l-0.605-1.006l-1.028-0.752l-1.179-0.288L57.346,5.657c-1.736,0-3.142,1.414-3.142,3.152
		c0,1.753,1.406,3.181,3.142,3.181h12.747L50.032,32.078c-0.591,0.576-0.925,1.387-0.925,2.227c0,0.845,0.334,1.655,0.923,2.224
		C51.226,37.729,53.301,37.742,54.502,36.555z"/>
	<path fill="#FFFFFF" d="M93.738,32.29c1.089,0,1.973-0.889,1.973-1.982V14.292l0.31,0.313l22.246,22.3
		c0.344,0.334,0.845,0.532,1.367,0.532c0.537,0,1.052-0.205,1.409-0.562c0.366-0.354,0.569-0.845,0.569-1.37
		c0-0.53-0.2-1.011-0.564-1.367L98.481,11.543h16.003c1.069,0,1.943-0.886,1.943-1.973c0-1.074-0.874-1.946-1.943-1.946H93.804
		L93,7.786l-0.669,0.447l-0.366,0.588l-0.181,0.876l0.012,20.61C91.797,31.401,92.668,32.29,93.738,32.29z"/>
	<path fill="#FFFFFF" d="M288.545,31.519h8.701l20.854,24.075c0.933,0.796,2.109,1.233,3.315,1.233c0.781,0,1.528-0.176,2.217-0.513
		c1.816-0.872,2.988-2.764,2.988-4.822V0h-3.94v51.492c0,0.498-0.283,0.957-0.742,1.177c-0.415,0.208-0.947,0.139-1.328-0.178
		l-21.943-25.007h-4.536c-0.703,0-1.265-0.583-1.265-1.299V12.983c0-0.713,0.562-1.294,1.265-1.294h4.536L308.926,0h-5.054
		l-6.626,7.654h-8.701c-2.871,0-5.205,2.39-5.205,5.33v13.201C283.34,29.128,285.674,31.519,288.545,31.519z"/>
	<path fill="#FFFFFF" d="M337.891,19.585c0,4.373-1.343,8.533-3.877,12.034c-0.674,0.935-0.581,2.261,0.215,3.079l0.439,0.447
		c0.43,0.442,1.011,0.691,1.621,0.691l0.166-0.01c0.674-0.051,1.284-0.391,1.68-0.938c3.247-4.453,4.966-9.744,4.966-15.303
		c0-5.969-1.938-11.56-5.61-16.162c-0.41-0.513-1.021-0.83-1.665-0.859h-0.024c-0.742,0-1.289,0.237-1.724,0.686l-0.435,0.444
		c-0.84,0.852-0.903,2.214-0.151,3.152C336.372,10.488,337.891,14.89,337.891,19.585z"/>
	<path fill="#FFFFFF" d="M342.656,42.312c-1.074,1.313-0.996,3.259,0.19,4.473l0.425,0.437c0.61,0.62,1.436,0.969,2.29,0.969
		c0.044,0,0.093,0,0.132-0.005c0.908-0.039,1.748-0.461,2.344-1.169c6.304-7.661,9.775-17.402,9.775-27.432
		c0-6.885-1.65-13.579-4.692-19.585h-8.198c3.76,5.771,5.83,12.561,5.83,19.585C350.752,27.886,347.876,35.957,342.656,42.312z"/>
	<path fill="#FFFFFF" d="M410.02,7.5h21.621c0.957,0,1.733-0.784,1.733-1.741c0-0.955-0.776-1.729-1.733-1.729H410.02
		c-0.952,0-1.729,0.774-1.729,1.729C408.291,6.716,409.067,7.5,410.02,7.5z"/>
	<path fill="#FFFFFF" d="M399.458,20.437l0.186,0.129v14.849l14.624-8.923l0.156,0.029c2.231,0.356,4.326,0.532,6.406,0.532
		c17.715,0,32.314-11.892,33.999-27.053h-3.496c-1.694,13.245-14.717,23.584-30.503,23.584c-2.344,0-4.775-0.259-7.227-0.774
		l-10.708,6.46l0.142-10.61c-7.153-4.402-11.738-11.216-12.7-18.66h-3.486C387.739,7.998,392.207,15.33,399.458,20.437z"/>
	<path fill="#FFFFFF" d="M205.891,447.637c-22.468,0-40.757,18.291-40.757,40.762c0,4.033,0.61,7.92,1.707,11.602h4.893
		c-1.243-3.647-1.948-7.539-1.948-11.602c0-19.907,16.201-36.108,36.106-36.108c19.915,0,36.104,16.201,36.104,36.108
		c0,4.063-0.706,7.954-1.946,11.602h4.907c1.096-3.682,1.707-7.568,1.707-11.602C246.663,465.928,228.374,447.637,205.891,447.637z"
		/>
	<path fill="#FFFFFF" d="M221.963,486.064h-13.735v-13.74c0-1.284-1.042-2.334-2.336-2.334c-1.279,0-2.332,1.05-2.332,2.334v13.74
		h-13.743c-1.279,0-2.332,1.05-2.332,2.334c0,1.289,1.052,2.329,2.332,2.329h13.743V500h4.668v-9.272h13.735
		c1.296,0,2.332-1.04,2.332-2.329C224.294,487.114,223.259,486.064,221.963,486.064z"/>
	<path fill="#FFFFFF" d="M118.455,464.927c-0.847,0-1.641,0.332-2.239,0.928l-20.059,20.103v-12.773
		c0-1.738-1.428-3.145-3.179-3.145c-1.733,0-3.145,1.406-3.145,3.145v20.42l0.242,1.211c0.31,0.771,0.935,1.396,1.812,1.738
		l0.969,0.195l20.488,0.015c1.753,0,3.174-1.411,3.174-3.159s-1.421-3.174-3.174-3.174h-12.742l20.088-20.098
		c1.228-1.23,1.228-3.237,0-4.478C120.093,465.259,119.297,464.927,118.455,464.927z M119.822,469.473l-22.183,22.183h15.706
		c1.072,0,1.948,0.874,1.948,1.948c0,1.069-0.876,1.934-1.948,1.934H93.042l-0.806-0.156c-0.464-0.186-0.837-0.557-0.991-0.918
		l-0.188-0.918v-20.361c0-1.055,0.867-1.914,1.921-1.914c1.074,0,1.953,0.859,1.953,1.914v15.732l22.151-22.192
		c0.732-0.737,2.012-0.728,2.739-0.005C120.574,467.48,120.574,468.716,119.822,469.473z"/>
	<path fill="#FFFFFF" d="M76.926,470.122c-1.084,0-1.97,0.874-1.97,1.948v16.025l-22.561-22.603
		c-0.352-0.366-0.835-0.566-1.36-0.566s-1.013,0.205-1.372,0.571c-0.356,0.356-0.557,0.869-0.557,1.411
		c0,0.527,0.193,1.021,0.53,1.372l22.268,22.28l0.31,0.308H56.221c-1.091,0-1.98,0.884-1.98,1.973c0,1.074,0.889,1.953,1.98,1.953
		l20.579,0.01l0.876-0.186l0.588-0.361l0.444-0.674l0.164-0.801V472.07C78.872,470.996,78,470.122,76.926,470.122z"/>
	<path fill="#FFFFFF" d="M323.643,482.852c-1.797-0.869-4.014-0.576-5.542,0.718L303.872,500h5.054l11.685-13.32
		c0.371-0.317,0.894-0.4,1.353-0.176c0.439,0.215,0.718,0.674,0.718,1.172V500h3.94v-12.324
		C326.621,485.615,325.449,483.721,323.643,482.852z"/>
	<path fill="#FFFFFF" d="M345.029,490.234c-0.938-0.029-1.758,0.332-2.383,0.977l-0.425,0.435c-1.206,1.235-1.27,3.223-0.127,4.536
		c1.04,1.201,1.968,2.49,2.827,3.818h8.198c-1.567-3.086-3.477-6.006-5.767-8.652C346.758,490.669,345.913,490.264,345.029,490.234z
		"/>
	<path fill="#FFFFFF" d="M435.962,490.986h-30.273c-0.952,0-1.733,0.781-1.733,1.743c0,0.952,0.781,1.729,1.733,1.729h30.273
		c0.952,0,1.729-0.776,1.729-1.729C437.69,491.768,436.914,490.986,435.962,490.986z"/>
	<path fill="#FFFFFF" d="M420.83,467.08c-18.838,0-34.165,13.452-34.165,29.99c0,0.986,0.078,1.963,0.186,2.93h3.486
		c-0.127-0.967-0.205-1.943-0.205-2.93c0-14.619,13.77-26.504,30.698-26.504c16.934,0,30.703,11.885,30.703,26.504
		c0,0.986-0.073,1.963-0.2,2.93h3.496c0.107-0.967,0.171-1.943,0.171-2.93C455,480.532,439.673,467.08,420.83,467.08z"/>
	<path fill="#FFFFFF" d="M494.111,28.938c0,4.255,2.393,7.922,5.889,9.868V19.07C496.504,21.016,494.111,24.683,494.111,28.938z"/>
	<path fill="#FFFFFF" d="M488.984,75.84l1.074,0.544c3.257,1.653,6.895,4.146,9.941,6.379v-2.952
		c-2.534-1.809-5.239-3.599-7.803-4.99c2.632-5.022,5.21-9.688,7.803-14.236v-4.78c-3.501,5.981-6.929,12.185-10.459,18.97
		L488.984,75.84z"/>
	<path fill="#FFFFFF" d="M497.734,40.251c-0.825-0.454-1.646-0.906-1.938-1.082c-5.61-3.298-11.27-4.971-16.841-4.971
		c-9.492,0-17.954,4.778-24.473,13.816c-1.431,1.992-1.66,4.172-0.649,6.15c1.177,2.297,3.848,3.838,6.636,3.838
		c2.31,0,4.331-1.045,5.703-2.949c4.346-6.03,9.785-8.379,16.113-6.912c-3.286,5.752-6.289,11.606-10.669,20.22
		c-2.979,5.864-9.087,11.782-16.025,11.785c-2.217,0-4.385-0.605-6.455-1.809c-1.265-0.73-2.573-1.104-3.892-1.104
		c-3.169,0-6.089,2.295-6.943,5.452c-0.801,2.998,0.493,5.898,3.364,7.563c4.512,2.612,9.399,3.936,14.531,3.936
		c8.745,0,17.188-3.894,22.759-10.449c0.054,0.02,0.103,0.034,0.151,0.054c6.304,2.173,14.678,8.083,17.021,9.993
		c0.981,0.801,2.407,3.333,3.872,6.265v-5.005c-0.864-1.44-1.655-2.522-2.373-3.103c-2.847-2.322-11.27-8.162-17.739-10.396
		c-0.254-0.093-0.488-0.195-0.708-0.317l-0.874-0.466l-0.615,0.779c-5.039,6.331-13.271,10.269-21.494,10.269
		c-4.712,0-9.194-1.213-13.335-3.611c-2.793-1.616-2.51-3.958-2.261-4.895c0.493-1.831,2.246-3.691,4.644-3.691
		c0.894,0,1.802,0.266,2.695,0.786c2.441,1.406,5.01,2.129,7.651,2.129c6.982,0,14.102-5.139,18.149-13.083
		c4.692-9.243,7.803-15.298,11.372-21.438l0.747-1.284l-1.416-0.449c-7.915-2.5-14.917,0.061-20.205,7.395
		c-1.167,1.624-2.695,1.965-3.77,1.965c-1.89,0-3.75-1.05-4.521-2.551c-0.591-1.16-0.435-2.429,0.464-3.672
		c6.055-8.396,13.848-12.83,22.544-12.83c5.142,0,10.4,1.563,15.635,4.646c0.313,0.181,1.143,0.637,1.997,1.108
		c0.859,0.479,1.733,0.962,2.046,1.145c0.459,0.271,0.908,0.444,1.367,0.684v-2.649c-0.054-0.032-0.107-0.049-0.161-0.081
		C499.517,41.238,498.618,40.742,497.734,40.251z"/>
	<path fill="#FFFFFF" d="M496.216,142.41l-34.512,11.709c-0.596,0.203-1.138,0.657-1.45,1.218l-15.039,27.607
		c-0.332,0.613-0.391,1.357-0.161,2.048l15.762,46.445c0.454,1.34,1.919,2.065,3.262,1.609l30.615-10.388
		c1.343-0.454,2.061-1.921,1.606-3.259c-0.454-1.345-1.919-2.07-3.262-1.614l-28.179,9.565l-14.746-43.455l0.713-0.005
		c0.078,0,0.244-0.056,0.342-0.088l16.079-5.457c1.348-0.457,2.07-1.924,1.616-3.264l-5.464-16.108l32.036-10.872L500,161.555
		v-16.013l-0.518-1.526C499.028,142.673,497.559,141.953,496.216,142.41z"/>
	<path fill="#FFFFFF" d="M495.498,207.214c0.557,1.648,2.349,2.532,3.994,1.973l0.508-0.173v-6.648l-2.534,0.859
		C495.82,203.784,494.937,205.574,495.498,207.214z"/>
	<path fill="#FFFFFF" d="M485.459,269.492l-28.555,35.469c-2.046,3.638-0.845,7.896,2.666,9.482l40.43,10.83v-58.311l-4.463-1.196
		C492.021,264.185,487.5,265.859,485.459,269.492z"/>
	<path fill="#FFFFFF" d="M464.189,324.243c-0.464-0.146-0.967-0.186-1.484-0.02c-1.206,0.4-1.89,1.621-1.528,2.729
		c0.239,0.703,0.859,1.157,1.577,1.323l-0.02,0.044L500,338.315v-4.473l-35.806-9.624L464.189,324.243z"/>
	<path fill="#FFFFFF" d="M468.618,337.725c-0.483-0.181-1.045-0.225-1.597-0.039c-1.206,0.391-1.89,1.611-1.528,2.725
		c0.244,0.742,0.918,1.211,1.689,1.348l-0.02,0.034L500,350.596v-4.473l-31.367-8.428L468.618,337.725z"/>
	<path fill="#FFFFFF" d="M467.368,435.532l9.321-17.93c0.674-1.304,0.166-2.91-1.138-3.594c-1.304-0.674-2.915-0.166-3.594,1.138
		l-9.448,18.179c-4.404,8.481-3.291,14.985,3.13,18.32L500,469.502v-10.674l-26.812-13.931
		C467.734,442.065,465.19,439.722,467.368,435.532z"/>
	<path fill="#FFFFFF" d="M493.477,426.001c-0.439-1.362-1.987-2.168-3.35-1.738c-1.396,0.449-2.173,1.953-1.733,3.35l6.016,19.004
		c0.21,0.674,0.684,1.24,1.299,1.563c0.63,0.332,1.372,0.386,2.021,0.166l2.271-0.718v-13.481l-2.461,4.736L493.477,426.001z"/>
	<path fill="#FFFFFF" d="M9.795,58.093c9.487,0,17.944-4.771,24.448-13.796c1.436-1.992,1.665-4.177,0.654-6.15
		c-1.182-2.3-3.848-3.845-6.641-3.845c-2.295,0-4.321,1.052-5.698,2.952C16.777,45.281,8.96,46.709,0,41.511v2.649
		c9.59,5.02,18.262,3.132,24.487-5.515c1.167-1.626,2.695-1.965,3.77-1.965c1.899,0,3.755,1.047,4.526,2.546
		c0.591,1.16,0.43,2.432-0.469,3.677c-6.035,8.384-13.833,12.815-22.52,12.815c-2.617,0-5.308-0.413-7.983-1.228l-0.898-0.271
		l-0.469,0.806C0.293,55.278,0.146,55.549,0,55.806v4.78c0.674-1.182,1.343-2.402,2.021-3.562
		C4.629,57.734,7.236,58.093,9.795,58.093z"/>
	<path fill="#FFFFFF" d="M17.046,28.938c0-6.274-5.132-11.362-11.465-11.362c-2.036,0-3.921,0.571-5.581,1.494v19.736
		C1.66,39.729,3.545,40.3,5.581,40.3C11.914,40.3,17.046,35.212,17.046,28.938z"/>
	<path fill="#FFFFFF" d="M5.386,111.46c1.167,2.395,3.32,3.765,5.894,3.765c2.52,0,4.98-1.331,6.265-3.391
		c1.167-1.86,1.24-4.053,0.205-6.167c-0.596-1.221-1.274-2.681-1.997-4.258C12.71,94.827,8.921,86.633,5.601,84.016
		C3.984,82.739,2.041,81.27,0,79.812v2.952c1.587,1.162,3.057,2.273,4.126,3.118c2.876,2.266,6.68,10.505,9.463,16.521
		c0.742,1.597,1.421,3.076,2.021,4.307c0.845,1.733,0.425,3.064-0.078,3.867c-0.85,1.362-2.559,2.273-4.253,2.273
		c-0.957,0-2.725-0.317-3.76-2.429c-0.615-1.262-1.333-2.82-2.104-4.492C3.364,101.47,1.563,97.646,0,95.042v5.005
		c1.123,2.249,2.271,4.729,3.257,6.875C4.038,108.611,4.766,110.186,5.386,111.46z"/>
	<path fill="#FFFFFF" d="M6.626,173.091c1.348-0.457,2.07-1.919,1.616-3.262L0,145.542v16.013l3.369,9.927
		C3.823,172.825,5.288,173.545,6.626,173.091z"/>
	<path fill="#FFFFFF" d="M18.184,217.866c0.557,1.643,2.349,2.524,3.994,1.968c1.646-0.559,2.529-2.349,1.968-3.992l-4.57-13.472
		l12.813-4.346c1.641-0.557,2.524-2.346,1.968-3.997c-0.557-1.641-2.354-2.522-3.994-1.965l-12.808,4.346l-4.57-13.467
		c-0.557-1.643-2.349-2.529-3.994-1.97s-2.529,2.351-1.968,3.994l4.565,13.467L0,202.366v6.648l13.613-4.619L18.184,217.866z"/>
	<path fill="#FFFFFF" d="M14.99,322.881l28.564-35.479c2.031-3.643,0.84-7.886-2.681-9.478L0,266.963v58.311l4.917,1.318
		C8.433,328.184,12.949,326.514,14.99,322.881z"/>
	<path fill="#FFFFFF" d="M14.756,340.62c2.451-0.801,4.648-2.485,6.04-4.839l28.442-35.327l-0.034-0.024
		c0.449-0.547,0.649-1.245,0.43-1.929c-0.366-1.104-1.636-1.68-2.842-1.284c-0.479,0.161-0.835,0.459-1.118,0.815l-0.029-0.02
		L17.08,333.477l-0.215,0.313c-0.718,1.27-1.855,2.251-3.218,2.754c-1.328,0.488-2.627,0.464-3.76-0.044L0,333.843v4.473
		l7.905,2.119C10.078,341.353,12.52,341.357,14.756,340.62z"/>
	<path fill="#FFFFFF" d="M19.194,354.106h0.005c2.52-0.835,4.702-2.593,6.03-4.849l28.447-35.322l-0.039-0.034
		c0.469-0.547,0.684-1.27,0.459-1.963c-0.366-1.108-1.641-1.68-2.847-1.274c-0.493,0.156-0.864,0.469-1.147,0.845l-0.024-0.015
		l-28.56,35.459l-0.22,0.313c-0.742,1.328-1.987,2.354-3.413,2.827h-0.005c-1.226,0.405-2.49,0.361-3.56-0.122L0,346.123v4.473
		l12.339,3.306C14.443,354.795,16.86,354.868,19.194,354.106z"/>
	<path fill="#FFFFFF" d="M35.088,445.317c-1.299-0.674-2.91-0.166-3.594,1.143l-9.16,17.637c-2.183,4.194-5.547,3.457-11.006,0.62
		L0,458.828v10.674l10.142,5.273c6.421,3.33,12.383,0.503,16.787-7.974l9.297-17.886C36.904,447.612,36.396,445.996,35.088,445.317z
		"/>
	<path fill="#FFFFFF" d="M18.462,438.989c-0.43-1.362-1.978-2.163-3.335-1.733l-12.861,4.077L22.5,402.388
		c0.679-1.304,0.171-2.915-1.133-3.594s-2.91-0.171-3.589,1.138L0,434.146v13.481l16.724-5.293
		C18.125,441.895,18.906,440.391,18.462,438.989z"/>
	<path fill="#FFFFFF" d="M327.603,373.687c1.748,1.748,4.59,1.748,6.338,0l31.416-31.416c1.748-1.748,1.748-4.585,0-6.333
		l-4.395-4.39l-30.078,30.083l-22.612-22.607l22.534-22.529l7.51,7.51l-15.02,15.02l7.588,7.583l22.568-22.573l-19.395-19.39
		c-1.748-1.748-4.585-1.748-6.333,0l-31.416,31.416c-1.743,1.748-1.743,4.59,0,6.333L327.603,373.687z"/>
	<path fill="#FFFFFF" d="M309.048,464.102c0-0.889-0.723-1.621-1.616-1.621h-10.732l11.011-11.016l-2.295-2.28l-11.001,10.986
		l0.063-10.649c0-0.894-0.732-1.611-1.626-1.611c-0.889,0-1.621,0.718-1.621,1.611v14.58c0,0.474,0.205,0.869,0.518,1.128
		c0.293,0.308,0.703,0.483,1.152,0.483h14.531C308.325,465.713,309.048,465,309.048,464.102z"/>
	<path fill="#FFFFFF" d="M347.412,443.765v-29.873c0-1.24-0.498-2.344-1.328-3.047c-0.815-0.83-1.948-1.313-3.105-1.313h-29.795
		c-2.393,0-4.341,1.963-4.341,4.36c0,2.402,1.948,4.36,4.341,4.36h19.512l-21.523,21.523l6.147,6.167l21.489-21.489l-0.083,19.312
		c0,2.407,1.948,4.355,4.355,4.355C345.469,448.12,347.412,446.172,347.412,443.765z M340.786,443.765l0.103-24.326l-23.569,23.574
		l-3.223-3.237l23.599-23.594h-24.512c-1.255,0-2.271-1.03-2.271-2.29c0-1.265,1.016-2.29,2.271-2.29h29.795
		c0.61,0,1.196,0.249,1.689,0.757c0.449,0.376,0.679,0.903,0.679,1.533v29.873c0,1.26-1.021,2.285-2.266,2.285
		C341.812,446.05,340.786,445.024,340.786,443.765z"/>
	<path fill="#FFFFFF" d="M263.906,303.828c0.234,0.132,0.547,0.093,0.811-0.117c0.273-0.195,0.459-0.522,0.498-0.859l-0.586-11.992
		c0.029-0.332-0.088-0.63-0.313-0.762c-0.234-0.132-0.547-0.088-0.811,0.117l-10.674,5.508c-0.137,0.098-0.256,0.234-0.334,0.376
		c-0.094,0.156-0.146,0.322-0.162,0.479c-0.041,0.347,0.084,0.63,0.309,0.762l5.686-0.791l-26.594,46.182l-2.168-5.313
		c-0.232-0.132-0.542-0.093-0.813,0.117c-0.269,0.19-0.457,0.522-0.496,0.854l0.586,11.992c-0.039,0.337,0.085,0.63,0.32,0.762
		c0.227,0.132,0.54,0.093,0.808-0.107l10.676-5.513c0.142-0.093,0.251-0.229,0.334-0.371c0.088-0.156,0.151-0.317,0.159-0.488
		c0.044-0.332-0.078-0.63-0.308-0.762l-5.679,0.801l26.592-46.182L263.906,303.828z"/>
	<path fill="#FFFFFF" d="M178.569,322.017l32.896,18.94c2.3,1.328,5.242,0.547,6.558-1.738l25.378-44.072l-4.5-19.668
		l-25.183-14.502c-2.3-1.328-5.249-0.537-6.56,1.743l-30.378,52.749C175.464,317.754,176.267,320.688,178.569,322.017z
		 M180.293,317.485l30.371-52.749c0.208-0.356,0.681-0.483,1.045-0.273l22.656,13.047l-5.811,10.088
		c-0.557,0.967-0.212,2.192,0.764,2.759l9.143,5.264l-23.94,41.572c-0.21,0.366-0.684,0.493-1.05,0.278l-32.898-18.94
		C180.212,318.32,180.083,317.847,180.293,317.485z"/>
	<path fill="#FFFFFF" d="M226.423,302.017c0.686,0.396,1.604,0.112,2.039-0.645s0.217-1.685-0.466-2.075l-21.685-12.49
		c-0.688-0.396-1.597-0.117-2.034,0.64c-0.435,0.752-0.227,1.689,0.464,2.09L226.423,302.017z"/>
	<path fill="#FFFFFF" d="M222.649,308.579c0.686,0.391,1.602,0.103,2.036-0.649c0.437-0.757,0.22-1.685-0.466-2.08l-21.682-12.49
		c-0.688-0.396-1.599-0.107-2.036,0.649c-0.432,0.752-0.227,1.685,0.464,2.085L222.649,308.579z"/>
	<path fill="#FFFFFF" d="M207.458,308.56c0.691,0.396,1.599,0.107,2.036-0.649c0.432-0.752,0.225-1.685-0.464-2.085l-10.269-5.913
		c-0.691-0.391-1.602-0.103-2.034,0.649c-0.437,0.757-0.227,1.685,0.461,2.085L207.458,308.56z"/>
	<path fill="#FFFFFF" d="M174.172,386.538c0.981,2.056,3.071,3.257,5.327,3.086c0.33-0.02,0.657-0.073,0.989-0.161
		c1.899-0.513,3.372-2.007,3.855-3.906c0.239-0.903,0.225-1.855-0.017-2.764c-0.242-0.898-0.703-1.719-1.353-2.368l-0.151-0.161
		c-1.367-1.294-3.32-1.797-5.149-1.309c-2.893,0.776-4.619,3.76-3.843,6.655C173.918,385.938,174.036,386.25,174.172,386.538z"/>
	<path fill="#FFFFFF" d="M210.632,420.483c0.132-0.024,0.264-0.063,0.391-0.112c3.521-1.187,5.493-4.888,4.541-8.438l-9.17-34.199
		c-0.996-3.716-4.824-5.923-8.547-4.922l-3.604,0.962l-1.072-4.004c-1.199-4.463-5.808-7.124-10.269-5.923l-33.247,8.916
		c-3.875,1.035-6.479,4.688-6.199,8.672c0.044,0.522,0.134,1.06,0.278,1.597l11.689,43.584c1.196,4.463,5.798,7.124,10.261,5.923
		L210.632,420.483z M198.845,376.538c1.663-0.449,3.379,0.547,3.823,2.197l9.17,34.194c0.381,1.411-0.283,2.915-1.577,3.574
		c-0.132,0.088-0.352,0.19-0.63,0.259l-4.79,1.289l0.195-1.211c0.19-1.177,0.127-2.349-0.181-3.486l-9.614-35.85L198.845,376.538z
		 M157.109,413.184l-0.981,1.167l-8.669-32.319c-0.212-0.791-0.195-1.631,0.034-2.427c0.41-1.504,1.621-2.705,3.159-3.12
		l33.252-8.916c2.402-0.645,4.885,0.791,5.532,3.203l8.064,30.063c0,0-2.964,4.277-7.366,4.595
		c-9.395,0.669-16.343-8.364-22.559-6.25C161.755,401.157,160.046,409.697,157.109,413.184z"/>
	<path fill="#FFFFFF" d="M294.756,382.295l1.504-1.577c2.344-2.456,2.344-6.46,0-8.921l-9.238-9.702
		c-1.24-1.24-2.734-1.899-4.326-1.899c-1.631,0-3.271,0.713-4.385,1.904l-1.436,1.509c-1.709-0.879-4.033-0.518-5.352,0.864
		l-26.262,27.559l-4.697,16.123l-10.874,11.401l14.878,8.965l7.797-8.179l15.115-4.756l26.523-27.749
		C295.4,386.372,295.693,384.092,294.756,382.295z M251.873,416.592l-7.598-7.974l4.058-12.783l15.72,16.494L251.873,416.592z
		 M291.348,385.283l-23.984,25.176l-17.292-18.135l24.109-25.293c0.313-0.327,0.889-0.332,1.201,0l15.967,16.768
		C291.729,384.194,291.729,384.883,291.348,385.283z M292.344,379.492l-12.764-13.389l1.387-1.44c0.869-0.928,2.529-0.928,3.408,0
		l9.238,9.692c0.996,1.045,0.996,2.754,0,3.809L292.344,379.492z"/>
	<path fill="#FFFFFF" d="M90.286,422.759c0.605-0.117,1.211-0.22,1.812-0.317c1.399-0.234,2.852-0.469,4.219-0.918l3.311-1.001
		l1.887-0.728c1.658-0.576,3.203-1.406,4.443-2.065l2.649-1.489l5.044,6.074c0.425,0.513,1.096,0.713,1.729,0.518
		c0.208-0.063,0.393-0.166,0.554-0.298c0.325-0.269,0.537-0.669,0.583-1.094l1.814-19.634c0.039-0.435-0.09-0.854-0.364-1.182
		c-0.276-0.332-0.669-0.542-1.099-0.581l-19.634-1.821c-0.649-0.059-1.274,0.278-1.58,0.859c-0.31,0.581-0.229,1.284,0.19,1.792
		l4.829,5.815l-0.183,0.156l-1.409,0.996c-0.737,0.542-1.494,1.104-2.466,1.611l-1.853,1.069l-2.026,0.913
		c-0.898,0.464-1.851,0.771-2.871,1.099c-0.527,0.176-1.082,0.352-1.626,0.557c-0.483,0.098-0.962,0.215-1.453,0.337
		c-1.165,0.273-2.378,0.566-3.557,0.669c-1.443,0.244-2.793,0.288-4.219,0.337c-0.43,0.005-0.862,0.024-1.296,0.034
		c-0.417-0.024-0.845-0.049-1.27-0.068c-1.45-0.088-2.82-0.166-4.136-0.43c-1.392-0.166-2.59-0.483-3.862-0.825
		c-0.488-0.132-0.974-0.264-1.458-0.376c-0.552-0.225-1.111-0.415-1.66-0.61c-1.089-0.381-2.117-0.747-2.993-1.226l-2.234-1.084
		l-1.914-1.172c-1.174-0.659-2.109-1.382-3.022-2.09l-2.532-2.095l-2.026-1.904c-0.623-0.586-1.614-0.562-2.209-0.01
		c-0.62,0.571-0.698,1.528-0.171,2.197l2.664,3.369l1.47,1.528c0.862,0.898,1.836,1.919,3.083,2.891l1.816,1.523l2.273,1.567
		c1.023,0.771,2.239,1.421,3.411,2.046c0.527,0.278,1.072,0.571,1.606,0.874c0.059,0.044,0.122,0.063,0.186,0.098
		c0.476,0.19,0.959,0.4,1.443,0.615c1.404,0.605,2.854,1.235,4.441,1.675c1.57,0.571,3.333,0.933,5.032,1.294l1.255,0.264
		c0.049,0.01,0.105,0.02,0.156,0.029l1.27,0.146c1.741,0.215,3.542,0.425,5.369,0.391c1.592,0.103,3.235-0.039,4.817-0.181
		c0.525-0.039,1.045-0.088,1.57-0.122C90.151,422.783,90.222,422.773,90.286,422.759z"/>
	<path fill="#FFFFFF" d="M52.068,400.586l1.965,1.841l2.361,1.958l0.73-0.605c-9.229-11.191-7.671-27.754,3.496-37.031
		c11.194-9.292,27.803-7.759,37.1,3.442c6.162,7.417,7.534,17.202,4.519,25.669l4.192,0.391c3.027-9.595,1.311-20.479-5.581-28.779
		c-10.771-12.969-30.078-14.761-43.049-3.989c-10.735,8.916-13.789,23.672-8.418,35.85
		C50.359,399.458,51.306,399.873,52.068,400.586z"/>
	<path fill="#FFFFFF" d="M89.873,373.711l-12.405,10.303l-8.784-10.581c-0.776-0.933-2.173-1.064-3.11-0.288
		c-0.935,0.776-1.062,2.173-0.286,3.11l10.198,12.28c0.771,0.928,2.166,1.06,3.103,0.283l14.104-11.714
		c0.938-0.776,1.064-2.173,0.293-3.101C92.205,373.062,90.811,372.93,89.873,373.711z"/>
</g>
</svg>
