<?xml version="1.0" encoding="utf-8"?>
<!-- Generator: Adobe Illustrator 24.1.1, SVG Export Plug-In . SVG Version: 6.00 Build 0)  -->
<svg version="1.1" id="Layer_1" xmlns="http://www.w3.org/2000/svg" xmlns:xlink="http://www.w3.org/1999/xlink" x="0px" y="0px"
	 width="698px" height="220px" viewBox="0 0 698 220" enable-background="new 0 0 698 220" xml:space="preserve">
<g>
	<g>
		<path fill="#53565A" d="M678.37,126.902v-0.043c0-4.031,3.268-7.427,7.385-7.427c4.161,0,7.385,3.352,7.385,7.383v0.043
			c0,4.031-3.267,7.428-7.385,7.428C681.598,134.287,678.37,130.933,678.37,126.902z M692.294,126.858v-0.043
			c0-3.606-2.803-6.578-6.539-6.578c-3.693,0-6.535,3.014-6.535,6.621v0.043c0,3.606,2.799,6.578,6.535,6.578
			C689.448,133.48,692.294,130.466,692.294,126.858z M682.657,122.869h3.61c1.823,0,3.138,0.807,3.138,2.547
			c0,1.23-0.677,2.037-1.697,2.376l1.953,2.803h-2.248l-1.657-2.462h-1.189v2.462h-1.909V122.869z M686.137,126.604
			c0.893,0,1.358-0.425,1.358-1.061c0-0.679-0.508-1.02-1.358-1.02h-1.571v2.08H686.137z"/>
	</g>
	<g>
		<g>
			<path fill="#53565A" d="M238.437,87.935h14.489l3.213,7.244h4.078l-12.803-28.298h-3.336l-12.81,28.298h3.92L238.437,87.935z
				 M239.957,84.473l5.743-12.814l5.714,12.814H239.957z M268.446,95.179h-3.696v-28.1h3.66l9.806,14.695l9.806-14.695h3.653v28.1
				h-3.776V73.733l-9.467,13.924h-0.519l-0.094-0.144l-9.374-13.747V95.179z M319.927,95.179h-20.702v-28.1h20.507v3.498h-16.73
				v8.686h14.965v3.502h-14.965v8.92h16.924V95.179z M329.035,84.523h7.32l7.954,10.656h4.654l-8.509-11.312
				c4.575-1.012,7.191-3.984,7.191-8.3c0-2.212-0.785-4.215-2.219-5.649c-1.83-1.83-4.684-2.839-8.034-2.839h-12.133v28.1h3.775
				V84.523z M329.035,70.617h8.12c4.179,0,6.679,1.895,6.679,5.148c0,3.221-2.637,5.3-6.715,5.3h-8.084V70.617z M353.986,83.035
				V67.079h3.775v28.1h-3.775V83.035z M364.023,81.209c0-8.221,6.24-14.597,14.208-14.597c5.469,0,8.481,2.133,10.93,4.442
				l0.245,0.227l-2.579,2.767l-0.252-0.231c-2.709-2.572-5.216-3.671-8.387-3.671c-5.858,0-10.274,4.691-10.274,10.905
				c0,6.24,4.518,11.067,10.274,11.067c3.797,0,6.196-1.549,8.624-3.869l0.238-0.227l2.507,2.468l-0.238,0.245
				c-2.399,2.432-5.605,4.918-11.204,4.918C370.075,95.651,364.023,89.444,364.023,81.209z M399.126,87.935h14.489l3.213,7.244
				h4.078l-12.803-28.298h-3.336l-12.811,28.298h3.92L399.126,87.935z M400.646,84.473l5.742-12.814l5.714,12.814H400.646z
				 M429.135,95.179h-3.696v-28.1h3.408l0.101,0.13l16.672,21.204V67.079h3.696v28.1h-2.976l-0.101-0.129l-17.105-21.716V95.179z
				 M473.038,87.935h14.482l3.213,7.244h4.078l-12.803-28.298h-3.343l-12.803,28.298h3.92L473.038,87.935z M474.552,84.473
				l5.75-12.814l5.706,12.814H474.552z M496.578,81.209c0-8.221,6.247-14.597,14.208-14.597c5.469,0,8.488,2.133,10.93,4.442
				l0.245,0.227l-2.579,2.767l-0.252-0.231c-2.709-2.572-5.217-3.671-8.38-3.671c-5.865,0-10.282,4.691-10.282,10.905
				c0,6.24,4.518,11.067,10.282,11.067c3.797,0,6.189-1.549,8.617-3.869l0.238-0.227l2.514,2.468l-0.238,0.245
				c-2.399,2.432-5.613,4.918-11.211,4.918C502.637,95.651,496.578,89.444,496.578,81.209z M531.688,87.935h14.489l3.214,7.244
				h4.078l-12.811-28.298h-3.336l-12.803,28.298h3.919L531.688,87.935z M533.208,84.473l5.742-12.814l5.706,12.814H533.208z
				 M582.771,81.05c0-8.095-6.276-13.971-14.914-13.971h-9.864v28.1h9.864C576.496,95.179,582.771,89.271,582.771,81.05z
				 M567.857,91.641h-6.088V70.617h6.088c6.492,0,11.023,4.323,11.023,10.591C578.881,87.354,574.349,91.641,567.857,91.641z
				 M609.545,95.179h-20.7v-28.1h20.506v3.498h-16.73v8.686h14.965v3.502h-14.965v8.92h16.925V95.179z M618.573,95.179h-3.696v-28.1
				h3.653l9.813,14.695l9.806-14.695h3.653v28.1h-3.776V73.733l-9.467,13.924h-0.519l-0.101-0.144l-9.367-13.747V95.179z
				 M657.7,84.098l-11.712-17.018h4.582l0.101,0.148l8.974,13.297l9.143-13.445h4.431l-11.708,16.975v11.125H657.7V84.098z
				 M245.606,148.108c8.055,0,14.367-6.376,14.367-14.598c0-8.235-6.146-14.446-14.287-14.446c-8.055,0-14.367,6.376-14.367,14.598
				C231.318,141.897,237.464,148.108,245.606,148.108z M245.606,122.605c5.872,0,10.476,4.824,10.476,11.056
				c0,6.218-4.474,10.908-10.397,10.908c-5.973,0-10.469-4.719-10.469-11.06C235.216,127.292,239.676,122.605,245.606,122.605z
				 M269.397,123.07v9.121h14.85v3.502h-14.85v11.946h-3.775v-28.103h20.383v3.534H269.397z M315.46,119.064
				c-8.055,0-14.369,6.376-14.369,14.598c0,8.235,6.148,14.446,14.289,14.446c8.055,0,14.367-6.376,14.367-14.598
				C329.748,125.275,323.602,119.064,315.46,119.064z M315.46,144.57c-5.973,0-10.469-4.719-10.469-11.06
				c0-6.218,4.46-10.905,10.39-10.905c5.973,0,10.469,4.723,10.469,11.056C325.85,139.879,321.383,144.57,315.46,144.57z
				 M335.389,119.536v28.103h3.776v-9.676h6.326c5.526,0,11.11-2.882,11.11-9.392c0-5.49-4.164-9.035-10.606-9.035H335.389z
				 M345.606,134.461h-6.441V123.07h6.6c4.467,0,7.032,2.053,7.032,5.695C352.797,132.17,349.9,134.461,345.606,134.461z
				 M379.946,119.536h3.775v28.103h-3.775v-12.342h-15.145v12.342h-3.775v-28.103h3.775v12.18h15.145V119.536z M397.31,131.467
				v-8.397h-9.201v-3.534h22.22v3.534h-9.208v24.569h-3.811V131.467z M433.645,119.536h3.776v28.103h-3.776v-12.342h-15.152v12.342
				h-3.775v-28.103h3.775v12.18h15.152V119.536z M463.081,140.391l3.214,7.248h4.078l-12.803-28.298h-3.336l-12.814,28.298h3.92
				l3.25-7.248H463.081z M461.568,136.933h-11.456l5.742-12.818L461.568,136.933z M478.169,119.536v24.565h15.433v3.538H474.4
				v-28.103H478.169z M521.103,147.639V126.19l-9.474,13.927h-0.512l-0.101-0.144l-9.374-13.747v21.413h-3.696v-28.103h3.66
				l9.806,14.695l9.813-14.695h3.653v28.103H521.103z M530.528,133.662c0,8.235,6.146,14.446,14.288,14.446
				c8.055,0,14.367-6.376,14.367-14.598c0-8.235-6.146-14.446-14.288-14.446C536.839,119.064,530.528,125.44,530.528,133.662z
				 M544.894,144.57c-5.973,0-10.469-4.719-10.469-11.06c0-6.218,4.46-10.905,10.39-10.905c5.872,0,10.476,4.824,10.476,11.056
				C555.291,139.879,550.817,144.57,544.894,144.57z M568.606,144.101h15.433v3.538h-19.209v-28.103h3.776V144.101z M614.38,133.51
				c0-8.235-6.146-14.446-14.288-14.446c-8.055,0-14.367,6.376-14.367,14.598c0,8.235,6.139,14.446,14.287,14.446
				C608.068,148.108,614.38,141.731,614.38,133.51z M600.092,144.57c-5.973,0-10.476-4.719-10.476-11.06
				c0-6.218,4.467-10.905,10.397-10.905c5.872,0,10.476,4.824,10.476,11.056C610.489,139.879,606.015,144.57,600.092,144.57z
				 M632.839,148.108c-8.416,0-14.288-5.941-14.288-14.446c0-8.221,6.189-14.598,14.086-14.598c4.28,0,7.306,1.081,10.447,3.725
				l0.259,0.216l-2.443,2.875l-0.259-0.224c-1.816-1.585-4.063-3.051-8.12-3.051c-5.656,0-10.08,4.788-10.08,10.905
				c0,6.694,4.222,11.139,10.512,11.139c2.709,0,5.526-0.958,7.573-2.569v-6.311h-8.343v-3.462h12.004v11.42l-0.122,0.104
				C642.278,145.427,638.438,148.108,632.839,148.108z M657.794,147.639v-11.088l-11.704-17.015h4.582l0.101,0.151l8.967,13.293
				l9.15-13.445h4.424l-11.701,16.979v11.125H657.794z M240.281,171.952h-6.47v17.145h2.255v-5.923h3.898
				c3.372,0,6.773-1.754,6.773-5.67v-0.05C246.737,174.114,244.201,171.952,240.281,171.952z M236.066,174.06h4.064
				c2.759,0,4.33,1.265,4.33,3.469v0.047c0,2.104-1.78,3.516-4.424,3.516h-3.97V174.06z M256.983,176.128l0.166,0.007v2.342h-0.317
				c-2.875,0-4.741,2.154-4.741,5.505v5.116h-2.205v-12.753h2.205v2.666c1.045-1.823,2.745-2.886,4.662-2.886
				C256.831,176.124,256.903,176.124,256.983,176.128z M265.506,176.081c-3.732,0-6.658,2.922-6.658,6.654v0.047
				c0,3.7,2.904,6.603,6.607,6.603c3.747,0,6.679-2.918,6.679-6.65v-0.051C272.135,178.981,269.224,176.081,265.506,176.081z
				 M265.506,187.375c-2.471,0-4.402-2.039-4.402-4.64v-0.051c0-2.63,1.874-4.615,4.352-4.615c2.486,0,4.431,2.05,4.431,4.665v0.047
				C269.887,185.401,267.999,187.375,265.506,187.375z M278.122,176.344h3.934v1.988h-3.934v7.061c0,1.29,0.605,1.884,1.909,1.884
				c0.612,0,1.11-0.119,1.722-0.411l0.252-0.126v1.974l-0.094,0.051c-0.72,0.374-1.456,0.547-2.313,0.547
				c-2.378,0-3.682-1.304-3.682-3.678v-7.302h-1.722v-1.988h1.722v-3.743h2.205V176.344z M290.162,176.081
				c-3.495,0-6.124,2.864-6.124,6.654s2.738,6.65,6.362,6.65c2.147,0,3.761-0.735,5.238-2.385l0.129-0.133l-1.419-1.265
				l-0.115,0.122c-1.11,1.16-2.306,1.693-3.783,1.693c-2.205,0-3.855-1.502-4.165-3.761h9.799l0.007-0.166
				c0.029-0.295,0.029-0.49,0.029-0.663C296.12,178.794,293.728,176.081,290.162,176.081z M290.119,177.994
				c2.414,0,3.516,1.938,3.754,3.815h-7.587C286.61,179.558,288.159,177.994,290.119,177.994z M309.156,185.451l1.434,1.348
				l-0.115,0.129c-1.023,1.146-2.543,2.457-5.195,2.457c-3.604,0-6.537-2.961-6.537-6.603v-0.047c0-3.671,2.932-6.654,6.537-6.654
				c2.637,0,4.107,1.207,5.094,2.259l0.115,0.122l-1.47,1.556l-0.129-0.137c-0.893-0.944-1.96-1.812-3.631-1.812
				c-2.385,0-4.26,2.029-4.26,4.615v0.051c0,2.601,1.926,4.64,4.383,4.64c1.34,0,2.536-0.584,3.653-1.794L309.156,185.451z
				 M316.758,176.344h3.934v1.988h-3.934v7.061c0,1.29,0.605,1.884,1.916,1.884c0.605,0,1.102-0.119,1.715-0.411l0.252-0.126v1.974
				l-0.094,0.051c-0.72,0.374-1.455,0.547-2.313,0.547c-2.371,0-3.682-1.304-3.682-3.678v-7.302h-1.722v-1.988h1.722v-3.743h2.205
				V176.344z M323.674,171.596h1.138h1.333v2.399h-2.471V171.596z M323.797,184.205v-7.861h2.205v12.753h-2.205V184.205z
				 M341.485,181.222v7.875h-2.205v-7.417c0-2.23-1.21-3.563-3.235-3.563c-2.089,0-3.552,1.521-3.552,3.704v7.277h-2.205v-12.753
				h2.205v1.751c0.994-1.333,2.356-2.014,4.071-2.014C339.554,176.081,341.485,178.102,341.485,181.222z M355.427,178.243
				c-1.232-1.437-2.796-2.161-4.669-2.161c-2.947,0-6.002,2.259-6.002,6.027v0.05c0,3.747,3.055,5.98,6.002,5.98
				c1.866,0,3.408-0.749,4.69-2.276v0.951c0,2.687-1.578,4.229-4.33,4.229c-1.686,0-3.257-0.519-4.662-1.549l-0.158-0.115
				l-1.03,1.751l0.144,0.094c1.672,1.167,3.603,1.761,5.735,1.761c2.054,0,3.733-0.594,4.849-1.708
				c1.088-1.084,1.635-2.604,1.635-4.514v-10.418h-2.205V178.243z M351.118,186.15c-2.306,0-4.107-1.773-4.107-4.042v-0.051
				c0-2.313,1.729-3.988,4.107-3.988c2.154,0,4.381,1.503,4.381,4.017v0.047C355.499,184.616,353.222,186.15,351.118,186.15z
				 M381.091,184.363v0.051c0,2.896-2.428,4.928-5.908,4.928c-2.673,0-4.892-0.872-6.982-2.734l-0.13-0.119l1.412-1.664l0.137,0.13
				c1.823,1.65,3.458,2.323,5.635,2.323c2.096,0,3.559-1.099,3.559-2.676v-0.047c0-1.38-0.663-2.266-4.222-3.015
				c-3.466-0.757-5.771-1.895-5.771-5.015v-0.051c0-2.759,2.392-4.759,5.692-4.759c2.378,0,4.172,0.627,6.009,2.1l0.13,0.108
				l-1.318,1.751l-0.137-0.115c-1.491-1.218-2.997-1.78-4.726-1.78c-2.003,0-3.401,1.037-3.401,2.529v0.043
				c0,1.427,0.677,2.291,4.417,3.091C379.412,180.3,381.091,181.77,381.091,184.363z M384.838,180.941v-4.597h2.198v12.753h-2.198
				V180.941z M384.715,171.596h1.095h1.369v2.399h-2.464V171.596z M401.164,178.243c-1.232-1.437-2.796-2.161-4.669-2.161
				c-2.947,0-6.002,2.259-6.002,6.027v0.05c0,3.747,3.055,5.98,6.002,5.98c1.866,0,3.408-0.749,4.691-2.276v0.951
				c0,2.687-1.578,4.229-4.33,4.229c-1.686,0-3.257-0.519-4.662-1.549l-0.159-0.115l-1.03,1.751l0.144,0.094
				c1.671,1.167,3.61,1.761,5.735,1.761c2.053,0,3.732-0.594,4.849-1.708c1.088-1.084,1.636-2.604,1.636-4.514v-10.418h-2.205
				V178.243z M396.856,186.15c-2.306,0-4.107-1.773-4.107-4.042v-0.051c0-2.313,1.729-3.988,4.107-3.988
				c2.154,0,4.381,1.503,4.381,4.017v0.047C401.237,184.616,398.96,186.15,396.856,186.15z M418.774,181.222v7.875h-2.197v-7.417
				c0-2.23-1.218-3.563-3.25-3.563c-2.089,0-3.545,1.521-3.545,3.704v7.277h-2.198v-17.861h2.198v6.859
				c0.994-1.333,2.363-2.014,4.071-2.014C416.843,176.081,418.774,178.102,418.774,181.222z M425.41,176.344h3.934v1.988h-3.934
				v7.061c0,1.29,0.605,1.884,1.909,1.884c0.605,0,1.11-0.119,1.722-0.411l0.252-0.126v1.974l-0.094,0.051
				c-0.727,0.374-1.462,0.547-2.313,0.547c-2.378,0-3.682-1.304-3.682-3.678v-7.302h-1.729v-1.988h1.729v-3.743h2.205V176.344z
				 M432.571,187.858v-1.636h2.565v2.875h-2.565V187.858z M448.848,187.015h10.365v2.082h-12.613v-17.145h12.497v2.086h-10.249
				v5.375h9.169v2.082h-9.169V187.015z M481.706,181.247v7.85h-2.205v-7.417c0-2.266-1.102-3.563-3.033-3.563
				c-1.614,0-3.249,1.131-3.249,3.66v7.32h-2.183v-7.472c0-2.198-1.124-3.509-3.005-3.509c-1.902,0-3.278,1.564-3.278,3.725v7.256
				h-2.205v-12.753h2.205v1.704c0.757-0.994,1.881-1.967,3.826-1.967c1.766,0,3.178,0.81,4.006,2.302
				c1.088-1.549,2.514-2.302,4.345-2.302C479.876,176.081,481.706,178.059,481.706,181.247z M492.622,176.081
				c-1.837,0-3.329,0.782-4.568,2.381v-2.118h-2.205v16.593h2.205v-5.85c1.203,1.51,2.738,2.277,4.568,2.277
				c2.962,0,6.103-2.324,6.103-6.629v-0.051C498.725,178.394,495.583,176.081,492.622,176.081z M492.291,178.091
				c2.428,0,4.186,1.942,4.186,4.615v0.051c0,2.706-1.722,4.597-4.186,4.597c-2.118,0-4.309-1.729-4.309-4.619v-0.051
				C487.982,179.846,490.223,178.091,492.291,178.091z M508.156,176.081c-3.733,0-6.651,2.922-6.651,6.654v0.047
				c0,3.7,2.897,6.603,6.6,6.603c3.747,0,6.679-2.918,6.679-6.65v-0.051C514.785,178.981,511.874,176.081,508.156,176.081z
				 M508.156,187.375c-2.472,0-4.402-2.039-4.402-4.64v-0.051c0-2.63,1.873-4.615,4.352-4.615c2.486,0,4.431,2.05,4.431,4.665v0.047
				C512.537,185.401,510.649,187.375,508.156,187.375z M533.381,176.344h2.299l-4.489,12.847h-1.859l-3.206-9.41l-3.228,9.41h-1.888
				l-4.46-12.847h2.342l0.043,0.122l3.091,9.439l3.199-9.612h1.794l0.044,0.122l3.192,9.489L533.381,176.344z M543.59,176.081
				c-3.494,0-6.131,2.864-6.131,6.654s2.738,6.65,6.369,6.65c2.14,0,3.761-0.735,5.238-2.385l0.122-0.133l-1.419-1.265l-0.115,0.122
				c-1.102,1.16-2.306,1.693-3.783,1.693c-2.198,0-3.848-1.502-4.164-3.761h9.799l0.014-0.166c0.022-0.295,0.022-0.49,0.022-0.663
				C549.542,178.794,547.15,176.081,543.59,176.081z M543.54,177.994c2.414,0,3.516,1.938,3.753,3.815h-7.587
				C540.031,179.558,541.588,177.994,543.54,177.994z M560.047,176.128l0.173,0.007v2.342h-0.324c-2.874,0-4.734,2.154-4.734,5.505
				v5.116h-2.205v-12.753h2.205v2.666c1.038-1.823,2.745-2.886,4.662-2.886C559.895,176.124,559.975,176.124,560.047,176.128z
				 M562.972,171.596h0.987h1.484v2.399h-2.472V171.596z M563.094,183.402v-7.057h2.205v12.753h-2.205V183.402z M580.783,181.222
				v7.875h-2.205v-7.417c0-2.23-1.218-3.563-3.25-3.563c-2.082,0-3.537,1.521-3.537,3.704v7.277h-2.205v-12.753h2.205v1.751
				c0.987-1.333,2.356-2.014,4.071-2.014C578.852,176.081,580.783,178.102,580.783,181.222z M594.718,178.243
				c-1.232-1.437-2.796-2.161-4.662-2.161c-2.954,0-6.002,2.259-6.002,6.027v0.05c0,3.747,3.047,5.98,6.002,5.98
				c1.866,0,3.401-0.749,4.691-2.276v0.951c0,2.687-1.578,4.229-4.33,4.229c-1.686,0-3.257-0.519-4.669-1.549l-0.159-0.115
				l-1.023,1.751l0.137,0.094c1.678,1.167,3.61,1.761,5.735,1.761c2.061,0,3.74-0.594,4.857-1.708
				c1.081-1.084,1.628-2.604,1.628-4.514v-10.418h-2.205V178.243z M590.416,186.15c-2.306,0-4.114-1.773-4.114-4.042v-0.051
				c0-2.313,1.729-3.988,4.114-3.988c2.154,0,4.381,1.503,4.381,4.017v0.047C594.797,184.616,592.52,186.15,590.416,186.15z
				 M610.792,186.986h9.453v2.111h-11.701v-17.145h2.248V186.986z M623.379,171.596h1.146h1.318v2.399h-2.464V171.596z
				 M623.502,179.868v-3.523h2.205v12.753h-2.205V179.868z M639.086,176.344h2.378l-0.108,0.252l-5.44,12.595h-1.866l-5.526-12.847
				h2.428l4.056,9.993L639.086,176.344z M649.058,176.081c-3.487,0-6.124,2.864-6.124,6.654s2.738,6.65,6.362,6.65
				c2.147,0,3.765-0.735,5.249-2.385l0.115-0.133l-1.412-1.265l-0.115,0.122c-1.113,1.16-2.309,1.693-3.786,1.693
				c-2.198,0-3.855-1.502-4.164-3.761h9.802l0.014-0.166c0.022-0.295,0.022-0.49,0.022-0.663
				C655.02,178.794,652.628,176.081,649.058,176.081z M649.015,177.994c2.413,0,3.52,1.938,3.757,3.815h-7.59
				C645.506,179.558,647.062,177.994,649.015,177.994z M667.175,185.394v0.047c0,2.331-1.845,3.901-4.589,3.901
				c-1.816,0-3.826-0.72-5.245-1.866l-0.13-0.108l1.146-1.603l0.144,0.112c1.348,1.012,2.796,1.542,4.179,1.542
				c1.434,0,2.392-0.713,2.392-1.783v-0.047c0-1.099-1.283-1.542-2.961-2.017c-1.787-0.505-4.237-1.196-4.237-3.668v-0.051
				c0-2.19,1.816-3.725,4.402-3.725c1.527,0,3.235,0.526,4.554,1.398l0.144,0.094l-1.016,1.693l-0.158-0.101
				c-1.153-0.742-2.45-1.167-3.574-1.167c-1.326,0-2.219,0.652-2.219,1.621v0.047c0,1.027,1.463,1.473,3.012,1.945l0.051,0.018
				C664.704,182.166,667.175,182.911,667.175,185.394z M670.36,187.552v-1.33h2.565v2.875h-2.565V187.552z"/>
		</g>
		<g>
			<path fill="#FFFFFF" d="M204.031,110.004c0,54.982-44.578,99.566-99.576,99.566c-54.989,0-99.567-44.585-99.567-99.566
				c0-54.996,44.578-99.581,99.567-99.581C159.453,10.422,204.031,55.008,204.031,110.004z"/>
			<path fill="#351F65" d="M154.2,196.284c-4.078,2.356-8.336,4.424-12.753,6.196l-31.104-80.372L154.2,196.284z M113.758,123.542
				l42.359,71.64c3.199-1.953,6.268-4.093,9.222-6.376L113.758,123.542z M118.622,208.583l-11.314-73.009l4.995,73.693
				C114.429,209.102,116.54,208.878,118.622,208.583z M120.625,128.665l46.451,58.779c1.743-1.412,3.43-2.875,5.072-4.395
				L120.625,128.665z M120.632,122.771L179.894,175c1.852-2.14,3.61-4.359,5.267-6.65L120.632,122.771z M109.27,75.852
				l11.146-64.168c-1.369-0.223-2.752-0.403-4.143-0.569L109.27,75.852z M108.679,123.952l18.337,83.053
				c4.229-0.98,8.365-2.212,12.371-3.718L108.679,123.952z M203.757,102.583c-0.403-5.541-1.261-10.952-2.536-16.204l-85.034,21.766
				L203.757,102.583z M104.347,75.405l1.852-64.968c-0.584-0.014-1.16-0.043-1.743-0.043c-0.814,0-1.614,0.043-2.414,0.058
				L104.347,75.405z M129.127,112.734l73.902,11.542c0.317-2.19,0.547-4.402,0.713-6.643L129.127,112.734z M123.752,114.139
				l77.08,21.104c0.749-2.875,1.362-5.8,1.852-8.776L123.752,114.139z M114.955,116.056l71.489,50.486
				c3.026-4.373,5.714-8.999,8.019-13.841L114.955,116.056z M117.109,114.608l78.261,36.076c1.924-4.287,3.545-8.733,4.856-13.308
				L117.109,114.608z M108.362,94.052l25.153-79.342c-3.559-1.081-7.205-1.953-10.923-2.637L108.362,94.052z M120.344,100.594
				l72.209-37.077c-1.52-2.875-3.177-5.663-4.964-8.365L120.344,100.594z M199.052,78.806l-67.821,23.2l69.449-17.775
				C200.19,82.401,199.643,80.593,199.052,78.806z M176.248,40.993c-0.915-0.951-1.844-1.88-2.788-2.796l-43.706,46.502
				L176.248,40.993z M100.391,209.498l1.931-64.694l-6.038,64.442C97.646,209.354,99.015,209.448,100.391,209.498z M203.915,115.429
				c0.094-1.801,0.151-3.61,0.151-5.425c0-1.751-0.051-3.487-0.137-5.209l-82.282,5.224L203.915,115.429z M108.412,10.495
				l-2.041,71.604l7.704-71.236C112.202,10.682,110.315,10.567,108.412,10.495z M122.152,127.058l51.596,54.463
				c1.621-1.571,3.192-3.177,4.705-4.849L122.152,127.058z M118.557,104.002l79.789-27.3c-1.369-3.855-2.969-7.594-4.784-11.211
				L118.557,104.002z M114.227,90.982l39.296-67.655c-2.341-1.333-4.741-2.565-7.198-3.711L114.227,90.982z M124.862,94.873
				l61.488-41.559c-1.232-1.773-2.529-3.502-3.869-5.195L124.862,94.873z M113.816,96.098l50.709-65.544
				c-2.911-2.205-5.944-4.244-9.086-6.124L113.816,96.098z M111.302,92.092l33.006-73.384c-2.832-1.239-5.728-2.341-8.689-3.314
				L111.302,92.092z M127.362,89.988l53.736-43.598c-1.074-1.297-2.183-2.558-3.322-3.797L127.362,89.988z M119.444,92.438
				l52.409-55.767c-1.794-1.65-3.667-3.228-5.591-4.755L119.444,92.438z M110.891,144.242l9.922,64.002
				c1.354-0.223,2.709-0.461,4.049-0.742L110.891,144.242z M74.85,126.762l-58.107,30.442c0.67,1.247,1.383,2.479,2.111,3.703
				L74.85,126.762z M86.896,122.007l-66.883,40.781c1.441,2.306,2.962,4.561,4.582,6.729L86.896,122.007z M77.235,132.159
				l-51.277,39.102c0.836,1.074,1.686,2.126,2.563,3.156L77.235,132.159z M87.531,117.619l-75.767,28.813
				c1.182,3.012,2.507,5.944,3.97,8.797L87.531,117.619z M90.765,112.475l-85.3,8.466c0.504,4.575,1.311,9.057,2.406,13.423
				L90.765,112.475z M94.361,122.375l-57.28,60.969c2.846,2.608,5.85,5.051,8.978,7.32L94.361,122.375z M84.418,116.438
				l-75.97,20.066c0.735,2.666,1.558,5.296,2.509,7.868L84.418,116.438z M98.496,132.368l-23.229,72.843
				c2.313,0.713,4.661,1.347,7.046,1.895L98.496,132.368z M67.897,202.646c1.729,0.684,3.509,1.325,5.282,1.909l21.651-67.98
				L67.897,202.646z M99.822,10.509c-4.013,0.18-7.962,0.619-11.845,1.261l14.828,82.692L99.822,10.509z M101.645,128.247
				l-17.177,79.349c3.149,0.641,6.355,1.131,9.604,1.47L101.645,128.247z M104.895,132.699l-2.291,76.856
				c0.62,0.014,1.232,0.051,1.852,0.051c1.895,0,3.777-0.065,5.643-0.173L104.895,132.699z M69.331,112.374l-64.355,2.32
				c0.065,1.354,0.173,2.702,0.288,4.042L69.331,112.374z M29.969,176.088c1.758,1.981,3.602,3.891,5.512,5.728L88.82,125.04
				L29.969,176.088z M95.247,124.954l-47.381,66.993c2.825,1.96,5.757,3.783,8.783,5.447L95.247,124.954z M95.298,129.558
				l-36.688,68.859c2.364,1.225,4.763,2.385,7.227,3.422L95.298,129.558z M85.801,12.159c-3.163,0.605-6.275,1.355-9.323,2.248
				l23.611,77.454L85.801,12.159z M86.291,79.944L54.675,23.737c-1.174,0.685-2.334,1.383-3.473,2.111L86.291,79.944z
				 M94.426,80.866L74.352,15.034c-1.571,0.497-3.134,1.038-4.676,1.614L94.426,80.866z M97.935,96.134L67.623,17.455
				c-3.797,1.513-7.479,3.235-11.024,5.18L97.935,96.134z M89.714,96.22L34.717,38.911c-2.068,2.032-4.049,4.164-5.937,6.369
				L89.714,96.22z M5.098,103.447c-0.144,2.169-0.238,4.352-0.238,6.557c0,0.829,0.043,1.65,0.058,2.479l79.969-2.882L5.098,103.447
				z M88.309,107.648L6.855,90.074c-0.742,3.653-1.261,7.378-1.592,11.168L88.309,107.648z M81.42,98.079L17.485,61.478
				c-1.023,1.83-2.003,3.682-2.911,5.577L81.42,98.079z M85.102,102.237L13.659,69.079c-1.146,2.529-2.191,5.116-3.12,7.76
				L85.102,102.237z M86.039,104.895L9.824,78.935c-0.965,2.932-1.787,5.93-2.478,8.978L86.039,104.895z M92.171,93.072
				L49.337,27.037c-2.306,1.542-4.539,3.178-6.701,4.9L92.171,93.072z M94.145,102.813L27.348,46.967
				c-3.235,3.956-6.16,8.163-8.761,12.587L94.145,102.813z M86.983,90.175L40.907,33.313c-1.578,1.304-3.098,2.666-4.582,4.071
				L86.983,90.175z"/>
		</g>
	</g>
</g>
</svg>
