<?xml version="1.0" encoding="utf-8"?>
<!-- Generator: Adobe Illustrator 24.1.1, SVG Export Plug-In . SVG Version: 6.00 Build 0)  -->
<svg version="1.1" id="Layer_1" xmlns="http://www.w3.org/2000/svg" xmlns:xlink="http://www.w3.org/1999/xlink" x="0px" y="0px"
	 width="616px" height="180px" viewBox="0 0 616 180" enable-background="new 0 0 616 180" xml:space="preserve">
<g>
	<g>
		<path fill="#53565A" d="M598.355,104.9v-0.038c0-3.554,2.88-6.547,6.51-6.547c3.668,0,6.51,2.955,6.51,6.509v0.038
			c0,3.554-2.88,6.548-6.51,6.548C601.201,111.41,598.355,108.453,598.355,104.9z M610.63,104.861v-0.038
			c0-3.179-2.471-5.799-5.764-5.799c-3.255,0-5.761,2.657-5.761,5.837v0.038c0,3.179,2.468,5.799,5.761,5.799
			C608.121,110.699,610.63,108.042,610.63,104.861z M602.134,101.344h3.182c1.607,0,2.766,0.711,2.766,2.245
			c0,1.085-0.597,1.796-1.496,2.094l1.721,2.471h-1.982l-1.461-2.171h-1.048v2.171h-1.683V101.344z M605.202,104.638
			c0.788,0,1.197-0.375,1.197-0.935c0-0.599-0.448-0.899-1.197-0.899h-1.385v1.834H605.202z"/>
	</g>
	<g>
		<g>
			<path fill="#53565A" d="M210.533,70.548h12.773l2.833,6.386h3.595l-11.287-24.946h-2.941l-11.293,24.946h3.455L210.533,70.548z
				 M211.873,67.496l5.062-11.297l5.037,11.297H211.873z M236.988,76.935h-3.259V52.163h3.227l8.645,12.954l8.645-12.954h3.22
				v24.771h-3.328V58.029l-8.346,12.275h-0.457l-0.083-0.127l-8.263-12.119V76.935z M282.371,76.935h-18.25V52.163H282.2v3.084
				h-14.748v7.657h13.192v3.087h-13.192v7.863h14.92V76.935z M290.4,67.541h6.453l7.012,9.394h4.103l-7.501-9.972
				c4.033-0.892,6.339-3.513,6.339-7.317c0-1.95-0.692-3.716-1.956-4.979c-1.613-1.613-4.129-2.503-7.082-2.503h-10.696v24.771
				h3.328V67.541z M290.4,55.282h7.158c3.684,0,5.888,1.671,5.888,4.538c0,2.839-2.325,4.672-5.92,4.672H290.4V55.282z
				 M312.395,66.229V52.163h3.328v24.771h-3.328V66.229z M321.243,64.619c0-7.247,5.5-12.868,12.525-12.868
				c4.821,0,7.476,1.88,9.635,3.916l0.216,0.2l-2.274,2.439l-0.222-0.203c-2.388-2.268-4.598-3.236-7.393-3.236
				c-5.164,0-9.057,4.135-9.057,9.613c0,5.501,3.982,9.756,9.057,9.756c3.347,0,5.462-1.366,7.603-3.411l0.21-0.2l2.21,2.175
				l-0.209,0.216c-2.115,2.144-4.941,4.335-9.877,4.335C326.578,77.351,321.243,71.879,321.243,64.619z M352.188,70.548h12.773
				l2.833,6.386h3.595l-11.287-24.946h-2.941l-11.293,24.946h3.455L352.188,70.548z M353.528,67.496L358.59,56.2l5.037,11.297
				H353.528z M378.643,76.935h-3.259V52.163h3.004l0.089,0.114l14.698,18.693V52.163h3.259v24.771h-2.623l-0.089-0.114
				l-15.079-19.144V76.935z M417.346,70.548h12.767l2.833,6.386h3.595l-11.287-24.946h-2.947L411.02,76.935h3.455L417.346,70.548z
				 M418.68,67.496l5.069-11.297l5.031,11.297H418.68z M438.096,64.619c0-7.247,5.507-12.868,12.525-12.868
				c4.821,0,7.482,1.88,9.635,3.916l0.216,0.2l-2.274,2.439l-0.222-0.203c-2.388-2.268-4.599-3.236-7.387-3.236
				c-5.17,0-9.064,4.135-9.064,9.613c0,5.501,3.982,9.756,9.064,9.756c3.347,0,5.456-1.366,7.596-3.411l0.21-0.2l2.217,2.175
				l-0.209,0.216c-2.115,2.144-4.948,4.335-9.883,4.335C443.438,77.351,438.096,71.879,438.096,64.619z M469.048,70.548h12.773
				l2.833,6.386h3.595l-11.293-24.946h-2.941l-11.287,24.946h3.455L469.048,70.548z M470.388,67.496L475.45,56.2l5.031,11.297
				H470.388z M514.08,64.479c0-7.136-5.532-12.316-13.148-12.316h-8.696v24.771h8.696C508.548,76.935,514.08,71.727,514.08,64.479z
				 M500.933,73.816h-5.367V55.282h5.367c5.723,0,9.718,3.811,9.718,9.337C510.651,70.037,506.655,73.816,500.933,73.816z
				 M537.683,76.935h-18.248V52.163h18.077v3.084h-14.749v7.657h13.192v3.087h-13.192v7.863h14.92V76.935z M545.642,76.935h-3.258
				V52.163h3.22l8.651,12.954l8.644-12.954h3.221v24.771h-3.328V58.029l-8.346,12.275h-0.457l-0.089-0.127l-8.257-12.119V76.935z
				 M580.134,67.166l-10.325-15.003h4.04l0.089,0.13l7.911,11.722l8.06-11.852h3.906l-10.322,14.964v9.807h-3.36V67.166z
				 M216.853,123.594c7.101,0,12.665-5.621,12.665-12.869c0-7.26-5.418-12.735-12.595-12.735c-7.101,0-12.665,5.621-12.665,12.869
				C204.258,118.119,209.676,123.594,216.853,123.594z M216.853,101.112c5.177,0,9.235,4.252,9.235,9.747
				c0,5.481-3.944,9.616-9.165,9.616c-5.266,0-9.229-4.16-9.229-9.75C207.694,105.244,211.626,101.112,216.853,101.112z
				 M237.826,101.522v8.041h13.091v3.087h-13.091v10.531h-3.328V98.406h17.968v3.115H237.826z M278.433,97.99
				c-7.101,0-12.667,5.621-12.667,12.869c0,7.26,5.419,12.735,12.597,12.735c7.101,0,12.665-5.621,12.665-12.869
				C291.029,103.465,285.611,97.99,278.433,97.99z M278.433,120.475c-5.265,0-9.229-4.16-9.229-9.75
				c0-5.481,3.932-9.613,9.159-9.613c5.266,0,9.229,4.164,9.229,9.747C287.592,116.34,283.654,120.475,278.433,120.475z
				 M296.002,98.406v24.774h3.328v-8.53h5.577c4.872,0,9.794-2.541,9.794-8.279c0-4.84-3.671-7.965-9.35-7.965H296.002z
				 M305.008,111.564h-5.678v-10.042h5.818c3.938,0,6.199,1.81,6.199,5.021C311.347,109.544,308.794,111.564,305.008,111.564z
				 M335.28,98.406h3.328v24.774h-3.328V112.3h-13.351v10.88h-3.328V98.406h3.328v10.737h13.351V98.406z M350.587,108.924v-7.403
				h-8.111v-3.115h19.588v3.115h-8.117v21.659h-3.36V108.924z M382.618,98.406h3.328v24.774h-3.328V112.3h-13.357v10.88h-3.328
				V98.406h3.328v10.737h13.357V98.406z M408.568,116.791l2.833,6.39h3.595l-11.287-24.946h-2.941l-11.297,24.946h3.455l2.865-6.39
				H408.568z M407.234,113.742h-10.099l5.062-11.299L407.234,113.742z M421.868,98.406v21.655h13.605v3.119h-16.927V98.406H421.868z
				 M459.717,123.181v-18.909l-8.352,12.278h-0.451l-0.089-0.127l-8.263-12.119v18.877h-3.258V98.406h3.227l8.645,12.954
				l8.651-12.954h3.22v24.774H459.717z M468.025,110.859c0,7.26,5.418,12.735,12.595,12.735c7.101,0,12.665-5.621,12.665-12.869
				c0-7.26-5.418-12.735-12.595-12.735C473.589,97.99,468.025,103.611,468.025,110.859z M480.69,120.475
				c-5.265,0-9.229-4.16-9.229-9.75c0-5.481,3.931-9.613,9.159-9.613c5.177,0,9.235,4.252,9.235,9.747
				C489.856,116.34,485.911,120.475,480.69,120.475z M501.593,120.062h13.605v3.119h-16.934V98.406h3.328V120.062z M541.945,110.725
				c0-7.26-5.418-12.735-12.595-12.735c-7.101,0-12.665,5.621-12.665,12.869c0,7.26,5.412,12.735,12.595,12.735
				C536.381,123.594,541.945,117.973,541.945,110.725z M529.35,120.475c-5.265,0-9.235-4.16-9.235-9.75
				c0-5.481,3.938-9.613,9.165-9.613c5.177,0,9.235,4.252,9.235,9.747C538.515,116.34,534.571,120.475,529.35,120.475z
				 M558.218,123.594c-7.419,0-12.595-5.237-12.595-12.735c0-7.247,5.456-12.869,12.417-12.869c3.773,0,6.441,0.953,9.21,3.284
				l0.229,0.191l-2.153,2.534l-0.229-0.197c-1.601-1.397-3.582-2.69-7.158-2.69c-4.986,0-8.886,4.22-8.886,9.613
				c0,5.901,3.722,9.82,9.267,9.82c2.388,0,4.872-0.845,6.676-2.264v-5.564h-7.355v-3.052h10.582v10.067l-0.108,0.092
				C566.538,121.231,563.153,123.594,558.218,123.594z M580.216,123.181v-9.775l-10.318-14.999h4.04l0.089,0.133l7.905,11.719
				l8.066-11.852h3.9l-10.315,14.967v9.807H580.216z M212.159,144.614h-5.704v15.114h1.988v-5.221h3.436
				c2.972,0,5.97-1.546,5.97-4.999v-0.044C217.85,146.52,215.614,144.614,212.159,144.614z M208.443,146.472h3.582
				c2.433,0,3.817,1.115,3.817,3.059v0.041c0,1.855-1.569,3.099-3.9,3.099h-3.5V146.472z M226.882,148.295l0.146,0.006v2.064h-0.28
				c-2.534,0-4.179,1.899-4.179,4.853v4.51h-1.944v-11.242h1.944v2.35c0.921-1.607,2.42-2.544,4.11-2.544
				C226.749,148.292,226.812,148.292,226.882,148.295z M234.396,148.254c-3.29,0-5.869,2.576-5.869,5.866v0.041
				c0,3.261,2.56,5.821,5.824,5.821c3.303,0,5.888-2.572,5.888-5.862v-0.045C240.24,150.81,237.674,148.254,234.396,148.254z
				 M234.396,158.21c-2.179,0-3.881-1.797-3.881-4.09v-0.045c0-2.318,1.652-4.068,3.836-4.068c2.192,0,3.906,1.807,3.906,4.113
				v0.041C238.258,156.47,236.594,158.21,234.396,158.21z M245.518,148.486h3.468v1.753h-3.468v6.225
				c0,1.137,0.534,1.661,1.683,1.661c0.54,0,0.978-0.105,1.518-0.362l0.222-0.111v1.74l-0.083,0.045
				c-0.635,0.33-1.283,0.483-2.039,0.483c-2.096,0-3.246-1.15-3.246-3.243v-6.437h-1.518v-1.753h1.518v-3.3h1.943V148.486z
				 M256.131,148.254c-3.081,0-5.399,2.525-5.399,5.866c0,3.341,2.414,5.862,5.608,5.862c1.893,0,3.316-0.648,4.618-2.102
				l0.114-0.117l-1.251-1.115l-0.102,0.108c-0.978,1.023-2.033,1.493-3.335,1.493c-1.943,0-3.398-1.324-3.671-3.315h8.638
				l0.006-0.146c0.025-0.26,0.025-0.432,0.025-0.584C261.384,150.645,259.275,148.254,256.131,148.254z M256.093,149.94
				c2.128,0,3.099,1.709,3.309,3.363h-6.688C253,151.318,254.365,149.94,256.093,149.94z M272.876,156.514l1.264,1.188l-0.102,0.114
				c-0.902,1.01-2.242,2.166-4.579,2.166c-3.177,0-5.762-2.61-5.762-5.821v-0.041c0-3.236,2.585-5.866,5.762-5.866
				c2.325,0,3.62,1.064,4.491,1.991l0.101,0.108l-1.296,1.372l-0.114-0.121c-0.788-0.832-1.728-1.598-3.201-1.598
				c-2.102,0-3.755,1.788-3.755,4.068v0.045c0,2.293,1.698,4.09,3.863,4.09c1.181,0,2.236-0.514,3.22-1.581L272.876,156.514z
				 M279.577,148.486h3.468v1.753h-3.468v6.225c0,1.137,0.533,1.661,1.689,1.661c0.534,0,0.972-0.105,1.512-0.362l0.222-0.111v1.74
				l-0.083,0.045c-0.635,0.33-1.283,0.483-2.039,0.483c-2.09,0-3.246-1.15-3.246-3.243v-6.437h-1.518v-1.753h1.518v-3.3h1.944
				V148.486z M285.674,144.3h1.004h1.175v2.115h-2.179V144.3z M285.782,155.415v-6.929h1.943v11.242h-1.943V155.415z
				 M301.375,152.785v6.942h-1.944v-6.539c0-1.966-1.067-3.141-2.852-3.141c-1.842,0-3.131,1.34-3.131,3.265v6.415h-1.944v-11.242
				h1.944v1.543c0.876-1.175,2.077-1.775,3.589-1.775C299.673,148.254,301.375,150.035,301.375,152.785z M313.666,150.159
				c-1.086-1.267-2.464-1.905-4.116-1.905c-2.598,0-5.291,1.991-5.291,5.313v0.044c0,3.303,2.693,5.272,5.291,5.272
				c1.645,0,3.004-0.66,4.135-2.007v0.838c0,2.369-1.391,3.728-3.817,3.728c-1.486,0-2.871-0.458-4.11-1.366l-0.14-0.101
				l-0.908,1.543l0.127,0.083c1.474,1.029,3.176,1.553,5.056,1.553c1.81,0,3.29-0.524,4.275-1.505
				c0.959-0.956,1.442-2.296,1.442-3.979v-9.184h-1.943V150.159z M309.867,157.13c-2.033,0-3.62-1.563-3.62-3.563v-0.045
				c0-2.039,1.525-3.516,3.62-3.516c1.899,0,3.862,1.325,3.862,3.541v0.041C313.729,155.777,311.722,157.13,309.867,157.13z
				 M336.29,155.555v0.045c0,2.553-2.141,4.344-5.208,4.344c-2.357,0-4.313-0.768-6.155-2.41l-0.114-0.105l1.245-1.467l0.121,0.114
				c1.607,1.454,3.049,2.048,4.967,2.048c1.848,0,3.138-0.968,3.138-2.359v-0.041c0-1.217-0.584-1.998-3.722-2.658
				c-3.055-0.667-5.088-1.671-5.088-4.421V148.6c0-2.433,2.109-4.195,5.018-4.195c2.096,0,3.678,0.553,5.297,1.851l0.114,0.095
				l-1.162,1.543l-0.121-0.101c-1.314-1.073-2.642-1.569-4.167-1.569c-1.766,0-2.998,0.914-2.998,2.229v0.038
				c0,1.258,0.597,2.02,3.894,2.725C334.81,151.972,336.29,153.268,336.29,155.555z M339.593,152.538v-4.052h1.937v11.242h-1.937
				V152.538z M339.485,144.3h0.966h1.207v2.115h-2.172V144.3z M353.985,150.159c-1.086-1.267-2.464-1.905-4.116-1.905
				c-2.598,0-5.291,1.991-5.291,5.313v0.044c0,3.303,2.693,5.272,5.291,5.272c1.645,0,3.004-0.66,4.135-2.007v0.838
				c0,2.369-1.391,3.728-3.817,3.728c-1.486,0-2.871-0.458-4.11-1.366l-0.14-0.101l-0.908,1.543l0.127,0.083
				c1.474,1.029,3.182,1.553,5.056,1.553c1.81,0,3.29-0.524,4.274-1.505c0.959-0.956,1.442-2.296,1.442-3.979v-9.184h-1.944V150.159
				z M350.187,157.13c-2.033,0-3.62-1.563-3.62-3.563v-0.045c0-2.039,1.524-3.516,3.62-3.516c1.899,0,3.862,1.325,3.862,3.541v0.041
				C354.049,155.777,352.042,157.13,350.187,157.13z M369.509,152.785v6.942h-1.937v-6.539c0-1.966-1.074-3.141-2.865-3.141
				c-1.842,0-3.125,1.34-3.125,3.265v6.415h-1.937v-15.746h1.937v6.047c0.876-1.175,2.083-1.775,3.589-1.775
				C367.806,148.254,369.509,150.035,369.509,152.785z M375.359,148.486h3.468v1.753h-3.468v6.225c0,1.137,0.534,1.661,1.683,1.661
				c0.533,0,0.978-0.105,1.518-0.362l0.222-0.111v1.74l-0.083,0.045c-0.641,0.33-1.289,0.483-2.039,0.483
				c-2.096,0-3.246-1.15-3.246-3.243v-6.437h-1.524v-1.753h1.524v-3.3h1.944V148.486z M381.672,158.635v-1.442h2.261v2.534h-2.261
				V158.635z M396.02,157.892h9.137v1.835h-11.119v-15.114h11.017v1.839h-9.035v4.738h8.083v1.836h-8.083V157.892z M424.987,152.808
				v6.92h-1.943v-6.539c0-1.998-0.972-3.141-2.674-3.141c-1.423,0-2.864,0.997-2.864,3.227v6.453h-1.925v-6.587
				c0-1.937-0.991-3.093-2.649-3.093c-1.677,0-2.89,1.379-2.89,3.284v6.396h-1.943v-11.242h1.943v1.502
				c0.667-0.876,1.658-1.734,3.373-1.734c1.556,0,2.801,0.714,3.532,2.029c0.959-1.366,2.217-2.029,3.83-2.029
				C423.373,148.254,424.987,149.997,424.987,152.808z M434.609,148.254c-1.62,0-2.934,0.689-4.027,2.099v-1.867h-1.943v14.628
				h1.943v-5.157c1.061,1.331,2.414,2.007,4.027,2.007c2.611,0,5.38-2.048,5.38-5.844v-0.045
				C439.989,150.292,437.22,148.254,434.609,148.254z M434.317,150.026c2.14,0,3.69,1.712,3.69,4.068v0.045
				c0,2.385-1.518,4.052-3.69,4.052c-1.867,0-3.798-1.525-3.798-4.072v-0.045C430.519,151.572,432.494,150.026,434.317,150.026z
				 M448.304,148.254c-3.29,0-5.863,2.576-5.863,5.866v0.041c0,3.261,2.553,5.821,5.818,5.821c3.303,0,5.888-2.572,5.888-5.862
				v-0.045C454.147,150.81,451.581,148.254,448.304,148.254z M448.304,158.21c-2.179,0-3.881-1.797-3.881-4.09v-0.045
				c0-2.318,1.651-4.068,3.836-4.068c2.191,0,3.906,1.807,3.906,4.113v0.041C452.165,156.47,450.501,158.21,448.304,158.21z
				 M470.54,148.486h2.026l-3.957,11.325h-1.639l-2.826-8.295l-2.846,8.295h-1.664l-3.932-11.325h2.064l0.038,0.108l2.725,8.321
				l2.82-8.473h1.581l0.038,0.108l2.814,8.365L470.54,148.486z M479.54,148.254c-3.08,0-5.405,2.525-5.405,5.866
				c0,3.341,2.414,5.862,5.615,5.862c1.886,0,3.315-0.648,4.618-2.102l0.108-0.117l-1.251-1.115l-0.101,0.108
				c-0.972,1.023-2.033,1.493-3.335,1.493c-1.937,0-3.392-1.324-3.671-3.315h8.638l0.013-0.146c0.019-0.26,0.019-0.432,0.019-0.584
				C484.787,150.645,482.678,148.254,479.54,148.254z M479.496,149.94c2.128,0,3.099,1.709,3.309,3.363h-6.688
				C476.403,151.318,477.775,149.94,479.496,149.94z M494.048,148.295l0.152,0.006v2.064h-0.286c-2.534,0-4.173,1.899-4.173,4.853
				v4.51h-1.943v-11.242h1.943v2.35c0.915-1.607,2.42-2.544,4.11-2.544C493.914,148.292,493.984,148.292,494.048,148.295z
				 M496.626,144.3h0.87h1.309v2.115h-2.179V144.3z M496.734,154.707v-6.221h1.944v11.242h-1.944V154.707z M512.328,152.785v6.942
				h-1.944v-6.539c0-1.966-1.074-3.141-2.865-3.141c-1.835,0-3.118,1.34-3.118,3.265v6.415h-1.944v-11.242h1.944v1.543
				c0.87-1.175,2.077-1.775,3.589-1.775C510.625,148.254,512.328,150.035,512.328,152.785z M524.611,150.159
				c-1.086-1.267-2.464-1.905-4.11-1.905c-2.604,0-5.291,1.991-5.291,5.313v0.044c0,3.303,2.686,5.272,5.291,5.272
				c1.645,0,2.998-0.66,4.135-2.007v0.838c0,2.369-1.391,3.728-3.817,3.728c-1.486,0-2.871-0.458-4.116-1.366l-0.14-0.101
				l-0.902,1.543l0.121,0.083c1.48,1.029,3.182,1.553,5.056,1.553c1.817,0,3.297-0.524,4.281-1.505
				c0.953-0.956,1.435-2.296,1.435-3.979v-9.184h-1.944V150.159z M520.82,157.13c-2.033,0-3.627-1.563-3.627-3.563v-0.045
				c0-2.039,1.524-3.516,3.627-3.516c1.899,0,3.862,1.325,3.862,3.541v0.041C524.681,155.777,522.674,157.13,520.82,157.13z
				 M538.782,157.867h8.333v1.861H536.8v-15.114h1.982V157.867z M549.878,144.3h1.01h1.162v2.115h-2.172V144.3z M549.986,151.592
				v-3.106h1.944v11.242h-1.944V151.592z M563.724,148.486h2.096l-0.095,0.222l-4.795,11.103h-1.645l-4.872-11.325h2.141l3.576,8.81
				L563.724,148.486z M572.515,148.254c-3.074,0-5.399,2.525-5.399,5.866c0,3.341,2.414,5.862,5.608,5.862
				c1.893,0,3.319-0.648,4.627-2.102l0.102-0.117l-1.245-1.115l-0.101,0.108c-0.982,1.023-2.036,1.493-3.338,1.493
				c-1.937,0-3.398-1.324-3.671-3.315h8.641l0.013-0.146c0.019-0.26,0.019-0.432,0.019-0.584
				C577.771,150.645,575.662,148.254,572.515,148.254z M572.477,149.94c2.128,0,3.103,1.709,3.312,3.363h-6.691
				C569.384,151.318,570.756,149.94,572.477,149.94z M588.486,156.463v0.041c0,2.055-1.626,3.439-4.046,3.439
				c-1.601,0-3.373-0.635-4.624-1.645l-0.115-0.095l1.01-1.413l0.127,0.099c1.188,0.892,2.465,1.359,3.684,1.359
				c1.264,0,2.109-0.629,2.109-1.572v-0.041c0-0.968-1.131-1.359-2.61-1.778c-1.575-0.445-3.735-1.055-3.735-3.233v-0.045
				c0-1.931,1.601-3.284,3.881-3.284c1.346,0,2.852,0.464,4.014,1.232l0.127,0.083l-0.896,1.493l-0.14-0.089
				c-1.016-0.654-2.16-1.029-3.151-1.029c-1.169,0-1.956,0.575-1.956,1.429v0.041c0,0.905,1.289,1.299,2.655,1.715l0.045,0.016
				C586.308,153.618,588.486,154.275,588.486,156.463z M591.294,158.365v-1.172h2.261v2.534h-2.261V158.365z"/>
		</g>
		<g>
			<path fill="#FFFFFF" d="M180.203,90.003c0,48.469-39.297,87.773-87.781,87.773c-48.475,0-87.773-39.304-87.773-87.773
				c0-48.482,39.297-87.786,87.773-87.786C140.906,2.218,180.203,41.522,180.203,90.003z"/>
			<path fill="#351F65" d="M136.275,166.063c-3.595,2.077-7.349,3.9-11.242,5.462l-27.42-70.852L136.275,166.063z M100.624,101.938
				l37.341,63.154c2.82-1.721,5.526-3.608,8.13-5.621L100.624,101.938z M104.911,176.906l-9.974-64.361l4.403,64.964
				C101.214,177.363,103.076,177.166,104.911,176.906z M106.677,106.454l40.949,51.816c1.537-1.245,3.023-2.534,4.472-3.874
				L106.677,106.454z M106.683,101.258l52.242,46.043c1.632-1.886,3.182-3.843,4.643-5.862L106.683,101.258z M96.667,59.897
				l9.826-56.567c-1.207-0.197-2.426-0.355-3.652-0.502L96.667,59.897z M96.146,102.3l16.165,73.215
				c3.728-0.864,7.374-1.95,10.906-3.277L96.146,102.3z M179.961,83.461c-0.355-4.885-1.112-9.655-2.236-14.285l-74.961,19.188
				L179.961,83.461z M92.327,59.503L93.959,2.23c-0.514-0.013-1.022-0.038-1.537-0.038c-0.718,0-1.423,0.038-2.128,0.051
				L92.327,59.503z M114.172,92.41l65.148,10.175c0.279-1.931,0.483-3.881,0.629-5.856L114.172,92.41z M109.433,93.649l67.95,18.604
				c0.66-2.534,1.2-5.113,1.632-7.736L109.433,93.649z M101.678,95.339l63.02,44.505c2.668-3.855,5.037-7.933,7.069-12.201
				L101.678,95.339z M103.577,94.062l68.991,31.802c1.696-3.779,3.125-7.698,4.281-11.731L103.577,94.062z M95.867,75.941
				L118.04,5.997c-3.138-0.953-6.352-1.721-9.629-2.325L95.867,75.941z M106.429,81.708l63.656-32.685
				c-1.34-2.534-2.801-4.992-4.376-7.374L106.429,81.708z M175.814,62.501l-59.787,20.452l61.223-15.67
				C176.817,65.67,176.335,64.076,175.814,62.501z M155.711,29.167c-0.807-0.838-1.626-1.658-2.458-2.464l-38.529,40.993
				L155.711,29.167z M88.84,177.712l1.702-57.031l-5.323,56.808C86.42,177.585,87.627,177.668,88.84,177.712z M180.101,94.786
				c0.083-1.588,0.133-3.182,0.133-4.783c0-1.543-0.045-3.074-0.121-4.592l-72.535,4.605L180.101,94.786z M95.911,2.281
				l-1.799,63.122l6.792-62.798C99.252,2.446,97.588,2.345,95.911,2.281z M108.023,105.037l45.484,48.012
				c1.429-1.385,2.814-2.801,4.148-4.275L108.023,105.037z M104.854,84.712l70.337-24.066c-1.207-3.398-2.617-6.695-4.217-9.883
				L104.854,84.712z M101.037,73.235l34.641-59.641c-2.064-1.175-4.179-2.261-6.345-3.271L101.037,73.235z M110.412,76.665
				l54.205-36.636c-1.086-1.563-2.23-3.087-3.411-4.579L110.412,76.665z M100.675,77.744l44.703-57.78
				c-2.566-1.944-5.24-3.741-8.009-5.399L100.675,77.744z M98.458,74.213l29.097-64.691c-2.496-1.092-5.049-2.064-7.66-2.922
				L98.458,74.213z M112.615,72.358l47.37-38.434c-0.947-1.143-1.925-2.255-2.928-3.347L112.615,72.358z M105.635,74.518
				l46.201-49.161c-1.581-1.455-3.233-2.846-4.929-4.192L105.635,74.518z M98.096,120.186l8.746,56.421
				c1.194-0.197,2.388-0.407,3.569-0.654L98.096,120.186z M66.324,104.777L15.1,131.612c0.591,1.099,1.22,2.185,1.861,3.265
				L66.324,104.777z M76.943,100.585l-58.96,35.95c1.271,2.033,2.611,4.02,4.04,5.932L76.943,100.585z M68.426,109.534
				l-45.203,34.47c0.737,0.947,1.486,1.874,2.26,2.782L68.426,109.534z M77.502,96.717l-66.792,25.4
				c1.042,2.655,2.21,5.24,3.5,7.755L77.502,96.717z M80.354,92.182L5.158,99.645c0.445,4.033,1.156,7.984,2.121,11.833
				L80.354,92.182z M83.524,100.909l-50.495,53.747c2.509,2.299,5.157,4.453,7.914,6.453L83.524,100.909z M74.758,95.675
				L7.787,113.364c0.648,2.35,1.373,4.668,2.212,6.936L74.758,95.675z M87.169,109.719l-20.477,64.215
				c2.039,0.629,4.109,1.188,6.212,1.67L87.169,109.719z M60.194,171.672c1.525,0.603,3.093,1.168,4.656,1.683l19.086-59.927
				L60.194,171.672z M88.338,2.294C84.8,2.453,81.32,2.84,77.896,3.406l13.071,72.897L88.338,2.294z M89.945,106.085l-15.142,69.95
				c2.776,0.565,5.602,0.997,8.467,1.296L89.945,106.085z M92.81,110.011l-2.02,67.752c0.546,0.013,1.086,0.045,1.633,0.045
				c1.67,0,3.33-0.057,4.975-0.153L92.81,110.011z M61.458,92.093L4.726,94.138c0.057,1.194,0.153,2.382,0.254,3.563L61.458,92.093z
				 M26.76,148.26c1.55,1.747,3.176,3.43,4.859,5.05l47.021-50.051L26.76,148.26z M84.305,103.183L42.537,162.24
				c2.49,1.727,5.075,3.335,7.743,4.802L84.305,103.183z M84.35,107.242l-32.343,60.702c2.084,1.08,4.199,2.102,6.371,3.017
				L84.35,107.242z M75.978,3.748c-2.788,0.534-5.532,1.194-8.219,1.982l20.814,68.28L75.978,3.748z M76.41,63.504L48.539,13.956
				c-1.035,0.604-2.058,1.22-3.061,1.861L76.41,63.504z M83.581,64.317L65.885,6.283c-1.385,0.438-2.763,0.915-4.122,1.423
				L83.581,64.317z M86.674,77.776L59.953,8.417c-3.347,1.334-6.593,2.852-9.718,4.567L86.674,77.776z M79.427,77.852l-48.482-50.52
				c-1.823,1.791-3.57,3.671-5.234,5.615L79.427,77.852z M4.834,84.223c-0.127,1.912-0.21,3.836-0.21,5.78
				c0,0.73,0.038,1.454,0.051,2.185l70.496-2.541L4.834,84.223z M78.188,87.926L6.383,72.435c-0.654,3.22-1.112,6.504-1.404,9.845
				L78.188,87.926z M72.116,79.491L15.754,47.225c-0.902,1.613-1.766,3.246-2.566,4.916L72.116,79.491z M75.362,83.156
				l-62.981-29.23c-1.01,2.23-1.931,4.51-2.75,6.841L75.362,83.156z M76.188,85.5L9,62.615c-0.851,2.585-1.575,5.227-2.185,7.914
				L76.188,85.5z M81.593,75.077l-37.76-58.212c-2.033,1.359-4.002,2.801-5.907,4.319L81.593,75.077z M83.333,83.664L24.449,34.433
				c-2.852,3.487-5.431,7.196-7.724,11.096L83.333,83.664z M77.02,72.524L36.401,22.397c-1.391,1.15-2.731,2.35-4.04,3.589
				L77.02,72.524z"/>
		</g>
	</g>
</g>
</svg>
