<?xml version="1.0" encoding="utf-8"?>
<!-- Generator: Adobe Illustrator 24.1.1, SVG Export Plug-In . SVG Version: 6.00 Build 0)  -->
<svg version="1.1" id="Layer_1" xmlns="http://www.w3.org/2000/svg" xmlns:xlink="http://www.w3.org/1999/xlink" x="0px" y="0px"
	 width="214px" height="70px" viewBox="0 0 214 70" enable-background="new 0 0 214 70" xml:space="preserve">
<g>
	<rect x="2.199" y="2" fill="#FFFFFF" stroke="#000000" stroke-miterlimit="10" width="46.565" height="66"/>
	<path fill="#8A0304" d="M4.389,43.907v19.467c0,1.529,1.24,2.769,2.769,2.769h36.657c1.529,0,2.769-1.24,2.769-2.769V43.905
		L4.389,43.907z"/>
	<path fill="#EC1C24" d="M33.112,32.291c2.062-1.801,4.072-4.75,3.819-8.004c-0.296-3.519-3.046-9.444-5.15-14.155
		c-1.757-3.932-3.263-7.186-3.263-7.186s1.514,5.742-4.254,12.511c-1.733,2.034-4.15,4.476-6.373,7.156
		c-0.893,1.295-4.255,5.3-0.056,9.705c3.01,3.158,7.7,5.342,7.7,5.342S29.148,36.217,33.112,32.291"/>
	<linearGradient id="SVGID_1_" gradientUnits="userSpaceOnUse" x1="26.1654" y1="10.7759" x2="26.1654" y2="36.5713">
		<stop  offset="0" style="stop-color:#F5EA16"/>
		<stop  offset="1" style="stop-color:#F16E22"/>
	</linearGradient>
	<path fill="url(#SVGID_1_)" d="M25.534,36.571c0,0,7.458-3.423,7.759-10.88c0.262-6.477-3.988-14.916-3.988-14.916
		s1.04,5.255-4.807,11.414c-5.463,5.756-6.969,7.543-3.92,11.151C22.21,35.273,25.534,36.571,25.534,36.571z"/>
	<path fill="#8A0304" d="M43.815,3.595H31.272c2.492,3.083,8.793,10.712,8.656,18.769C39.82,33.7,27.584,37.382,25.534,38.229
		c-1.053-0.418-6.893-2.864-10.118-6.903c-4.75-5.951,1.263-12.452,6.629-18.775c3.733-4.398,4.984-7.639,5.372-8.956H7.158
		c-1.529,0-2.769,1.24-2.769,2.769v32.906c0.633,0.256,2.166,0.808,3.597,0.808c5.272,0,6.403-1.305,11.397-0.8
		c3.633,0.367,6.151,3.454,6.151,3.454s2.767-3.367,6.499-3.628c3.732-0.261,5.219,0.538,9.5,0.887
		c2.402,0.196,3.672-0.264,5.05-0.775V6.364C46.584,4.834,45.345,3.595,43.815,3.595z"/>
	<g>
		<path fill="#FFFFFF" d="M5.662,54.5v-3.56h0.137c0.141,1.156,0.305,1.996,0.492,2.523c0.187,0.526,0.411,0.789,0.671,0.789
			c0.157,0,0.285-0.08,0.384-0.24c0.099-0.16,0.148-0.373,0.148-0.638c0-0.313-0.061-0.666-0.184-1.06
			c-0.122-0.394-0.328-0.889-0.617-1.485c-0.057-0.114-0.138-0.282-0.245-0.502c-0.506-1.005-0.758-1.783-0.758-2.335
			c0-0.522,0.116-0.964,0.349-1.325c0.232-0.361,0.512-0.541,0.838-0.541c0.144,0,0.278,0.039,0.4,0.116
			c0.122,0.077,0.243,0.201,0.363,0.37l0.471-0.475h0.089v3.323H8.064c-0.104-1.016-0.246-1.784-0.426-2.305
			c-0.181-0.521-0.392-0.781-0.634-0.781c-0.138,0-0.247,0.066-0.327,0.199c-0.08,0.132-0.12,0.315-0.12,0.546
			c0,0.254,0.057,0.55,0.172,0.889c0.115,0.339,0.345,0.854,0.69,1.546c0.009,0.018,0.022,0.044,0.038,0.077
			c0.675,1.365,1.013,2.405,1.013,3.119c0,0.534-0.117,0.961-0.351,1.281c-0.234,0.32-0.544,0.48-0.93,0.48
			c-0.179,0-0.341-0.042-0.488-0.127c-0.146-0.085-0.28-0.215-0.403-0.392L5.757,54.5H5.662z"/>
		<path fill="#FFFFFF" d="M8.78,54.4v-0.16h0.353v-7.844H8.78v-0.16h3.212L12.04,49.3h-0.137c-0.17-1.306-0.336-2.117-0.499-2.432
			c-0.163-0.315-0.437-0.472-0.82-0.472h-0.292v3.743c0.264-0.051,0.46-0.23,0.589-0.535c0.129-0.305,0.203-0.771,0.221-1.397h0.137
			v4.079h-0.137c-0.019-0.629-0.093-1.097-0.221-1.402c-0.129-0.305-0.325-0.482-0.589-0.53v3.886h0.311
			c0.355,0,0.623-0.205,0.805-0.616c0.182-0.41,0.347-1.245,0.495-2.503h0.137L11.993,54.4H8.78z"/>
		<path fill="#FFFFFF" d="M12.925,47.075v5.89c0,0.453,0.041,0.764,0.122,0.936c0.082,0.171,0.224,0.284,0.429,0.339v0.16h-1.272
			v-0.16c0.204-0.055,0.346-0.168,0.426-0.339c0.08-0.171,0.12-0.483,0.12-0.936v-6.569h-0.405v-0.16h1.573l0.551,2.545
			c0.006,0.029,0.016,0.075,0.028,0.138c0.251,1.174,0.435,2.145,0.551,2.915h0.066v-4.162c0-0.46-0.039-0.773-0.118-0.938
			c-0.079-0.166-0.218-0.278-0.419-0.337v-0.16h1.262v0.16c-0.204,0.059-0.345,0.171-0.424,0.337
			c-0.078,0.166-0.118,0.478-0.118,0.938V54.4h-0.876l-1.041-5.211c-0.066-0.328-0.131-0.665-0.195-1.013
			c-0.064-0.348-0.128-0.715-0.191-1.101H12.925z"/>
		<path fill="#FFFFFF" d="M15.93,54.4v-0.16h0.353v-7.844H15.93v-0.16h1.592c0.666,0,1.136,0.3,1.411,0.9
			c0.275,0.6,0.412,1.662,0.412,3.185c0,1.52-0.137,2.58-0.412,3.18c-0.275,0.6-0.745,0.9-1.411,0.9H15.93z M17.442,54.185h0.212
			c0.195,0,0.327-0.052,0.398-0.155c0.071-0.103,0.106-0.346,0.106-0.729v-0.099v-5.769c0-0.449-0.035-0.727-0.106-0.834
			c-0.071-0.107-0.203-0.16-0.398-0.16h-0.212V54.185z"/>
		<path fill="#FFFFFF" d="M19.496,54.4v-0.16c0.261-0.022,0.452-0.453,0.575-1.292l0.014-0.094l0.966-6.619h0.735l0.914,8.004h0.33
			v0.16h-1.851v-0.16h0.353l-0.16-1.479h-1.093c-0.035,0.21-0.059,0.385-0.073,0.524c-0.014,0.14-0.021,0.263-0.021,0.37
			c0,0.217,0.032,0.369,0.097,0.455c0.064,0.086,0.177,0.13,0.337,0.13v0.16H19.496z M21.351,52.545l-0.438-4.124l-0.608,4.124
			H21.351z"/>
		<path fill="#FFFFFF" d="M26.593,46.396h-0.316v-0.16h1.272v8.004h0.32v0.16h-1.253l-0.061-0.431
			c-0.082,0.18-0.174,0.314-0.276,0.4c-0.102,0.086-0.219,0.13-0.351,0.13c-0.333,0-0.577-0.243-0.732-0.729
			c-0.155-0.486-0.233-1.251-0.233-2.296c0-1.042,0.078-1.809,0.235-2.302c0.157-0.493,0.4-0.74,0.73-0.74
			c0.132,0,0.253,0.045,0.363,0.135c0.11,0.09,0.21,0.225,0.301,0.406V46.396z M25.976,53.539v0.094
			c0.003,0.21,0.018,0.341,0.045,0.395c0.027,0.053,0.076,0.08,0.148,0.08c0.104,0,0.2-0.112,0.29-0.337
			c0.089-0.224,0.134-0.489,0.134-0.795v-3.064c0-0.305-0.045-0.569-0.134-0.789c-0.09-0.221-0.186-0.331-0.29-0.331
			c-0.072,0-0.122,0.024-0.151,0.072c-0.028,0.048-0.042,0.145-0.042,0.293v0.193V53.539z"/>
		<path fill="#FFFFFF" d="M29.236,51.497v1.932c0,0.339,0.031,0.564,0.094,0.676c0.063,0.112,0.17,0.168,0.32,0.168
			c0.276,0,0.506-0.184,0.69-0.552s0.282-0.854,0.294-1.457h0.174c-0.019,0.721-0.137,1.274-0.356,1.659
			c-0.218,0.385-0.52,0.577-0.907,0.577c-0.449,0-0.787-0.254-1.013-0.762c-0.226-0.508-0.339-1.262-0.339-2.263
			c0-1.008,0.111-1.767,0.334-2.277c0.223-0.51,0.556-0.765,0.999-0.765c0.43,0,0.759,0.251,0.987,0.754
			c0.228,0.502,0.341,1.234,0.341,2.194v0.116H29.236z M29.236,49.438v1.855h0.579v-1.855c0-0.328-0.021-0.541-0.064-0.64
			c-0.042-0.099-0.117-0.149-0.224-0.149c-0.107,0-0.182,0.047-0.226,0.141C29.258,48.883,29.236,49.099,29.236,49.438z"/>
		<path fill="#FFFFFF" d="M32.778,46.396v-0.16h1.7v0.16h-0.283l0.598,5.393l0.56-4.306c0.013-0.099,0.022-0.196,0.028-0.29
			c0.006-0.094,0.009-0.179,0.009-0.257c0-0.184-0.029-0.316-0.087-0.398c-0.058-0.081-0.159-0.129-0.304-0.143l-0.005-0.16h1.022
			v0.16c-0.226,0.015-0.385,0.375-0.476,1.082c-0.006,0.052-0.011,0.09-0.014,0.116l-0.9,6.806h-0.711l-0.909-8.004H32.778z"/>
		<path fill="#FFFFFF" d="M36.07,54.4v-0.16h0.353v-7.844H36.07v-0.16h1.87v0.16h-0.358v7.844h0.358v0.16H36.07z"/>
		<path fill="#FFFFFF" d="M38.213,54.4v-0.16h0.353v-7.844h-0.353v-0.16h1.592c0.666,0,1.136,0.3,1.411,0.9
			c0.275,0.6,0.412,1.662,0.412,3.185c0,1.52-0.137,2.58-0.412,3.18c-0.275,0.6-0.745,0.9-1.411,0.9H38.213z M39.725,54.185h0.212
			c0.195,0,0.327-0.052,0.398-0.155c0.071-0.103,0.106-0.346,0.106-0.729v-0.099v-5.769c0-0.449-0.035-0.727-0.106-0.834
			c-0.071-0.107-0.203-0.16-0.398-0.16h-0.212V54.185z"/>
		<path fill="#FFFFFF" d="M41.778,54.4v-0.16c0.261-0.022,0.452-0.453,0.575-1.292l0.014-0.094l0.966-6.619h0.735l0.914,8.004h0.33
			v0.16H43.46v-0.16h0.353l-0.16-1.479H42.56c-0.035,0.21-0.059,0.385-0.073,0.524c-0.014,0.14-0.021,0.263-0.021,0.37
			c0,0.217,0.032,0.369,0.097,0.455c0.064,0.086,0.177,0.13,0.337,0.13v0.16H41.778z M43.634,52.545l-0.438-4.124l-0.608,4.124
			H43.634z"/>
		<path fill="#FFFFFF" d="M7.669,63.816v-0.155h0.364v-7.59H7.669v-0.155h1.547c0.692,0,1.178,0.167,1.457,0.499
			c0.28,0.333,0.42,0.914,0.42,1.744c0,0.822-0.139,1.402-0.417,1.739c-0.278,0.336-0.752,0.505-1.421,0.505H9.226v3.258h0.466
			v0.155H7.669z M9.226,56.114v4.081h0.218c0.2,0,0.337-0.05,0.41-0.149c0.073-0.1,0.109-0.335,0.109-0.705v-0.107v-2.158
			c0-0.434-0.036-0.703-0.109-0.807c-0.073-0.103-0.209-0.155-0.41-0.155H9.226z"/>
		<path fill="#FFFFFF" d="M11.787,56.071h-0.364v-0.155h1.925v0.155H12.98v6.682c0,0.374,0.034,0.617,0.102,0.729
			s0.186,0.168,0.354,0.168c0.304,0,0.526-0.149,0.667-0.446c0.141-0.297,0.211-0.782,0.211-1.455v-4.444
			c0-0.445-0.041-0.748-0.124-0.908c-0.082-0.16-0.227-0.269-0.434-0.326v-0.155h1.3v0.155c-0.207,0.057-0.352,0.166-0.434,0.326
			c-0.082,0.16-0.124,0.463-0.124,0.908v4.706c0,0.673-0.107,1.158-0.32,1.455c-0.213,0.297-0.556,0.446-1.028,0.446
			c-0.32,0-0.592-0.073-0.817-0.219c-0.225-0.146-0.373-0.345-0.444-0.598c-0.036-0.121-0.061-0.26-0.078-0.417
			c-0.016-0.157-0.024-0.376-0.024-0.657v-0.438V56.071z"/>
		<path fill="#FFFFFF" d="M15.118,63.816v-0.155h0.364v-7.59h-0.364v-0.155h1.717c0.592,0,1.032,0.16,1.321,0.481
			c0.289,0.32,0.434,0.807,0.434,1.458c0,0.513-0.101,0.923-0.303,1.231c-0.202,0.308-0.484,0.482-0.846,0.521v0.128
			c0.401,0.11,0.7,0.335,0.897,0.673c0.197,0.338,0.296,0.799,0.296,1.383c0,0.641-0.15,1.139-0.451,1.493
			c-0.301,0.354-0.724,0.532-1.271,0.532H15.118z M16.675,59.559h0.218c0.2,0,0.337-0.051,0.41-0.152
			c0.073-0.102,0.109-0.337,0.109-0.708v-0.102v-1.522c0-0.434-0.036-0.703-0.109-0.807c-0.073-0.103-0.209-0.155-0.41-0.155h-0.218
			V59.559z M16.675,63.608h0.218c0.2,0,0.337-0.05,0.41-0.15c0.073-0.1,0.109-0.335,0.109-0.705v-0.096v-1.928
			c0-0.434-0.036-0.703-0.109-0.807c-0.073-0.103-0.209-0.155-0.41-0.155h-0.218V63.608z"/>
		<path fill="#FFFFFF" d="M19.032,63.816v-0.155h0.364v-7.59h-0.364v-0.155h1.925v0.155h-0.369v7.59h0.32
			c0.365,0,0.642-0.199,0.829-0.596c0.187-0.397,0.357-1.204,0.509-2.422h0.141l-0.048,3.173H19.032z"/>
		<path fill="#FFFFFF" d="M22.756,63.816v-0.155h0.364v-7.59h-0.364v-0.155h1.925v0.155h-0.369v7.59h0.369v0.155H22.756z"/>
		<path fill="#FFFFFF" d="M25.021,63.912v-3.445h0.141c0.145,1.118,0.314,1.932,0.507,2.441c0.192,0.509,0.423,0.764,0.691,0.764
			c0.162,0,0.293-0.077,0.395-0.232c0.102-0.155,0.153-0.361,0.153-0.617c0-0.303-0.063-0.644-0.189-1.025
			c-0.126-0.381-0.338-0.86-0.635-1.437c-0.058-0.11-0.142-0.272-0.252-0.486c-0.521-0.972-0.781-1.725-0.781-2.259
			c0-0.506,0.12-0.933,0.359-1.282c0.239-0.349,0.527-0.523,0.863-0.523c0.149,0,0.286,0.037,0.412,0.112
			c0.126,0.075,0.251,0.194,0.373,0.358l0.485-0.459h0.092v3.215h-0.141c-0.107-0.983-0.253-1.726-0.439-2.23
			c-0.186-0.504-0.403-0.756-0.652-0.756c-0.142,0-0.255,0.064-0.337,0.192c-0.082,0.128-0.124,0.304-0.124,0.529
			c0,0.246,0.059,0.532,0.177,0.86c0.118,0.328,0.355,0.826,0.71,1.496c0.01,0.018,0.023,0.043,0.039,0.075
			c0.695,1.321,1.043,2.327,1.043,3.018c0,0.516-0.12,0.929-0.361,1.239c-0.241,0.31-0.56,0.465-0.958,0.465
			c-0.184,0-0.352-0.041-0.502-0.123c-0.15-0.082-0.289-0.208-0.415-0.379l-0.558,0.491H25.021z"/>
		<path fill="#FFFFFF" d="M28.231,63.816v-0.155h0.364v-7.59h-0.364v-0.155h1.785v0.155h-0.228v3.488h0.737v-3.488h-0.228v-0.155
			h1.794v0.155h-0.364v7.59h0.364v0.155h-1.794v-0.155h0.228v-3.894h-0.737v3.894h0.228v0.155H28.231z"/>
		<path fill="#FFFFFF" d="M32.373,63.816v-0.155h0.364v-7.59h-0.364v-0.155h3.307l0.048,2.964h-0.141
			c-0.175-1.264-0.346-2.048-0.514-2.353c-0.168-0.304-0.449-0.457-0.844-0.457h-0.301v3.621c0.272-0.05,0.474-0.222,0.606-0.518
			c0.133-0.296,0.208-0.746,0.228-1.351h0.141v3.947h-0.141c-0.019-0.609-0.095-1.061-0.228-1.357
			c-0.133-0.295-0.335-0.466-0.606-0.513v3.76h0.32c0.365,0,0.642-0.199,0.829-0.596c0.187-0.397,0.357-1.204,0.509-2.422h0.141
			l-0.048,3.173H32.373z"/>
		<path fill="#FFFFFF" d="M37.654,63.672h0.466v0.144h-2.022v-0.144h0.364v-7.6h-0.364v-0.155h1.547
			c0.698,0,1.189,0.148,1.472,0.443c0.283,0.296,0.424,0.805,0.424,1.528c0,0.584-0.089,1.01-0.267,1.279
			c-0.178,0.269-0.503,0.476-0.975,0.622v0.123c0.459,0.103,0.781,0.312,0.965,0.625c0.184,0.313,0.276,0.853,0.276,1.618v1.015
			c0,0.132,0.019,0.227,0.056,0.286c0.037,0.059,0.095,0.088,0.172,0.088c0.107,0,0.188-0.085,0.245-0.256
			c0.057-0.171,0.085-0.418,0.085-0.742h0.141c0,0.025,0.002,0.059,0.005,0.102c0.003,0.043,0.005,0.075,0.005,0.096
			c0,0.399-0.076,0.694-0.228,0.884c-0.152,0.19-0.388,0.286-0.708,0.286c-0.323,0-0.556-0.099-0.698-0.296
			c-0.142-0.198-0.213-0.528-0.213-0.991v-1.784c0-0.377-0.049-0.62-0.148-0.726c-0.099-0.107-0.297-0.171-0.594-0.192
			L37.654,63.672z M37.654,56.114v3.6h0.218c0.2,0,0.337-0.051,0.41-0.152c0.073-0.102,0.109-0.339,0.109-0.713v-0.096v-1.677
			c0-0.434-0.036-0.703-0.109-0.807c-0.073-0.103-0.209-0.155-0.41-0.155H37.654z"/>
		<path fill="#FFFFFF" d="M40.296,63.912v-3.445h0.141c0.145,1.118,0.314,1.932,0.507,2.441c0.192,0.509,0.423,0.764,0.691,0.764
			c0.162,0,0.293-0.077,0.395-0.232c0.102-0.155,0.153-0.361,0.153-0.617c0-0.303-0.063-0.644-0.189-1.025
			c-0.126-0.381-0.338-0.86-0.635-1.437c-0.058-0.11-0.142-0.272-0.252-0.486c-0.521-0.972-0.781-1.725-0.781-2.259
			c0-0.506,0.12-0.933,0.359-1.282c0.239-0.349,0.527-0.523,0.863-0.523c0.149,0,0.286,0.037,0.412,0.112
			c0.126,0.075,0.251,0.194,0.373,0.358l0.485-0.459h0.092v3.215H42.77c-0.107-0.983-0.253-1.726-0.439-2.23
			c-0.186-0.504-0.403-0.756-0.652-0.756c-0.142,0-0.255,0.064-0.337,0.192c-0.082,0.128-0.124,0.304-0.124,0.529
			c0,0.246,0.059,0.532,0.177,0.86c0.118,0.328,0.355,0.826,0.71,1.496c0.01,0.018,0.023,0.043,0.039,0.075
			c0.695,1.321,1.043,2.327,1.043,3.018c0,0.516-0.12,0.929-0.361,1.239c-0.241,0.31-0.56,0.465-0.958,0.465
			c-0.184,0-0.352-0.041-0.502-0.123c-0.15-0.082-0.289-0.208-0.415-0.379l-0.558,0.491H40.296z"/>
	</g>
	<g>
		<path fill="#999999" d="M54.136,35.335v1.197c0,1.679,0.293,2.881,0.88,3.606c0.586,0.724,1.496,1.086,2.727,1.086
			c1.215,0,2.128-0.388,2.74-1.165c0.612-0.787,0.918-1.837,0.918-3.149c0-1.218-0.147-2.11-0.44-2.677
			c-0.293-0.567-0.788-1.023-1.483-1.37l-3.984-1.937c-1.374-0.682-2.279-1.512-2.715-2.488c-0.427-0.976-0.641-2.173-0.641-3.59
			c0-1.931,0.494-3.521,1.483-4.771c0.997-1.249,2.283-1.874,3.859-1.874c1.776,0,3.138,0.551,4.085,1.653
			c0.955,1.092,1.433,2.435,1.433,4.031c0,0.368-0.013,0.74-0.038,1.118h-2.2c0.025-0.252,0.038-0.541,0.038-0.866
			c-0.017-0.924-0.297-1.737-0.842-2.441c-0.545-0.714-1.265-1.071-2.162-1.071c-1.207,0-2.086,0.357-2.639,1.071
			c-0.545,0.703-0.817,1.785-0.817,3.243c0,1.627,0.637,2.75,1.91,3.369l3.507,1.685c1.5,0.735,2.514,1.559,3.042,2.472
			c0.536,0.913,0.804,2.178,0.804,3.795c0,2.215-0.503,3.999-1.508,5.353c-1.006,1.354-2.493,2.031-4.462,2.031
			c-1.751,0-3.138-0.593-4.16-1.779c-1.022-1.186-1.533-3.039-1.533-5.558v-0.976H54.136z"/>
		<path fill="#999999" d="M66.743,43.019V18.834h9.577v2.425H68.88v7.998h6.976v2.425H68.88v8.912h7.504v2.425H66.743z"/>
		<path fill="#999999" d="M79.689,18.834h3.507l6.146,21.917V18.834h2.137v24.184h-3.507l-6.146-22.011v22.011h-2.137V18.834z"/>
		<path fill="#999999" d="M95.538,43.019V18.834h5.342c2.212,0,3.871,0.829,4.977,2.488c1.114,1.659,1.672,4.797,1.672,9.415
			c0,3.968-0.507,7.007-1.521,9.116c-1.014,2.11-2.631,3.165-4.852,3.165H95.538z M97.675,40.594h3.381
			c1.475,0,2.556-0.703,3.243-2.11c0.687-1.407,1.031-3.978,1.031-7.715c0-3.117-0.314-5.479-0.943-7.085
			c-0.628-1.616-1.768-2.425-3.419-2.425h-3.293V40.594z"/>
		<path fill="#999999" d="M109.427,43.019l5.43-24.184h2.841l5.43,24.184h-2.376l-1.483-6.928h-6.083l-1.383,6.928H109.427z
			 M113.7,33.666h5.053l-2.526-13.037L113.7,33.666z"/>
		<path fill="#999999" d="M138.763,27.179v-8.345h2.036v24.184h-1.973v-2.551c-0.377,0.987-0.817,1.737-1.32,2.251
			c-0.503,0.514-1.236,0.772-2.2,0.772c-1.324,0-2.355-0.687-3.092-2.063c-0.729-1.386-1.094-4.13-1.094-8.235
			c0-2.467,0.369-4.503,1.106-6.109c0.737-1.616,1.793-2.425,3.167-2.425C136.794,24.66,137.916,25.5,138.763,27.179z
			 M133.22,34.138c0,2.782,0.214,4.676,0.641,5.684c0.436,1.008,1.139,1.512,2.112,1.512c0.871,0,1.554-0.493,2.049-1.48
			c0.494-0.997,0.742-2.309,0.742-3.936v-2.299c0-2.383-0.222-4.109-0.666-5.18c-0.444-1.081-1.152-1.622-2.124-1.622
			C134.137,26.817,133.22,29.257,133.22,34.138z"/>
		<path fill="#999999" d="M145.99,34.249v1.338c0,2.236,0.239,3.753,0.716,4.55c0.486,0.798,1.123,1.197,1.91,1.197
			c0.762,0,1.353-0.309,1.772-0.929c0.419-0.63,0.641-1.464,0.666-2.504c0-0.315,0.008-0.603,0.025-0.866h1.848v0.614
			c0,1.648-0.377,3.034-1.131,4.157c-0.746,1.123-1.827,1.685-3.243,1.685c-3.109,0-4.663-3.138-4.663-9.416
			c0-2.907,0.398-5.201,1.194-6.88c0.796-1.69,1.944-2.535,3.444-2.535c1.617,0,2.769,0.656,3.456,1.968
			c0.695,1.312,1.043,3.852,1.043,7.621H145.99z M150.93,32.154c0-2.152-0.218-3.579-0.654-4.283
			c-0.427-0.703-0.98-1.055-1.659-1.055c-0.947,0-1.613,0.415-1.998,1.244c-0.386,0.829-0.595,2.194-0.628,4.094H150.93z"/>
		<path fill="#999999" d="M167.797,41.129l4.575-22.295h2.376l-5.631,24.184h-2.639l-5.631-24.184h2.376L167.797,41.129z"/>
		<path fill="#999999" d="M177.5,18.834h2.137v24.184H177.5V18.834z"/>
		<path fill="#999999" d="M184.212,43.019V18.834h5.342c2.212,0,3.871,0.829,4.977,2.488c1.114,1.659,1.672,4.797,1.672,9.415
			c0,3.968-0.507,7.007-1.521,9.116c-1.014,2.11-2.631,3.165-4.852,3.165H184.212z M186.349,40.594h3.381
			c1.475,0,2.556-0.703,3.243-2.11c0.687-1.407,1.031-3.978,1.031-7.715c0-3.117-0.314-5.479-0.943-7.085
			c-0.628-1.616-1.768-2.425-3.419-2.425h-3.293V40.594z"/>
		<path fill="#999999" d="M198.101,43.019l5.43-24.184h2.841l5.43,24.184h-2.376l-1.483-6.928h-6.083l-1.383,6.928H198.101z
			 M202.374,33.666h5.053L204.9,20.629L202.374,33.666z"/>
	</g>
	<g>
		<g>
			<path fill="#8A0304" d="M53.771,35.064v1.197c0,1.679,0.293,2.881,0.88,3.606c0.586,0.724,1.496,1.086,2.727,1.086
				c1.215,0,2.128-0.388,2.74-1.165c0.612-0.787,0.918-1.837,0.918-3.149c0-1.218-0.147-2.11-0.44-2.677
				c-0.293-0.567-0.788-1.023-1.483-1.37l-3.984-1.937c-1.374-0.682-2.279-1.512-2.715-2.488c-0.427-0.976-0.641-2.173-0.641-3.59
				c0-1.931,0.494-3.521,1.483-4.771c0.997-1.249,2.283-1.874,3.859-1.874c1.776,0,3.138,0.551,4.085,1.653
				c0.955,1.092,1.433,2.435,1.433,4.031c0,0.368-0.013,0.74-0.038,1.118h-2.2c0.025-0.252,0.038-0.541,0.038-0.866
				c-0.017-0.924-0.297-1.737-0.842-2.441c-0.545-0.714-1.265-1.071-2.162-1.071c-1.207,0-2.086,0.357-2.639,1.071
				c-0.545,0.703-0.817,1.785-0.817,3.243c0,1.627,0.637,2.75,1.91,3.369l3.507,1.685c1.5,0.735,2.514,1.559,3.042,2.472
				c0.536,0.913,0.804,2.178,0.804,3.795c0,2.215-0.503,3.999-1.508,5.353c-1.006,1.354-2.493,2.031-4.462,2.031
				c-1.751,0-3.138-0.593-4.16-1.779c-1.022-1.186-1.533-3.039-1.533-5.558v-0.976H53.771z"/>
			<path fill="#8A0304" d="M66.377,42.748V18.563h9.577v2.425h-7.441v7.998h6.976v2.425h-6.976v8.912h7.504v2.425H66.377z"/>
			<path fill="#8A0304" d="M79.323,18.563h3.507l6.146,21.917V18.563h2.137v24.184h-3.507L81.46,20.736v22.011h-2.137V18.563z"/>
			<path fill="#8A0304" d="M95.173,42.748V18.563h5.342c2.212,0,3.871,0.829,4.977,2.488c1.114,1.659,1.672,4.797,1.672,9.415
				c0,3.968-0.507,7.007-1.521,9.116c-1.014,2.11-2.631,3.165-4.852,3.165H95.173z M97.309,40.323h3.381
				c1.475,0,2.556-0.703,3.243-2.11c0.687-1.407,1.031-3.978,1.031-7.715c0-3.117-0.314-5.479-0.943-7.085
				c-0.628-1.616-1.768-2.425-3.419-2.425h-3.293V40.323z"/>
			<path fill="#8A0304" d="M109.061,42.748l5.43-24.184h2.841l5.43,24.184h-2.376l-1.483-6.928h-6.083l-1.383,6.928H109.061z
				 M113.335,33.395h5.053l-2.526-13.037L113.335,33.395z"/>
			<path fill="#8A0304" d="M138.397,26.908v-8.345h2.036v24.184h-1.973v-2.551c-0.377,0.987-0.817,1.737-1.32,2.251
				c-0.503,0.514-1.236,0.772-2.2,0.772c-1.324,0-2.355-0.687-3.092-2.063c-0.729-1.386-1.094-4.13-1.094-8.235
				c0-2.467,0.369-4.503,1.106-6.109c0.737-1.616,1.793-2.425,3.167-2.425C136.428,24.389,137.551,25.229,138.397,26.908z
				 M132.854,33.868c0,2.782,0.214,4.676,0.641,5.684c0.436,1.008,1.139,1.512,2.112,1.512c0.871,0,1.554-0.493,2.049-1.48
				c0.494-0.997,0.742-2.309,0.742-3.936v-2.299c0-2.383-0.222-4.109-0.666-5.18c-0.444-1.081-1.152-1.622-2.124-1.622
				C133.772,26.546,132.854,28.987,132.854,33.868z"/>
			<path fill="#8A0304" d="M145.624,33.978v1.338c0,2.236,0.239,3.753,0.716,4.55c0.486,0.798,1.123,1.197,1.91,1.197
				c0.762,0,1.353-0.309,1.772-0.929c0.419-0.63,0.641-1.464,0.666-2.504c0-0.315,0.008-0.603,0.025-0.866h1.848v0.614
				c0,1.648-0.377,3.034-1.131,4.157c-0.746,1.123-1.827,1.685-3.243,1.685c-3.109,0-4.663-3.138-4.663-9.416
				c0-2.907,0.398-5.201,1.194-6.88c0.796-1.69,1.944-2.535,3.444-2.535c1.617,0,2.769,0.656,3.456,1.968
				c0.695,1.312,1.043,3.852,1.043,7.621H145.624z M150.564,31.884c0-2.152-0.218-3.579-0.654-4.283
				c-0.427-0.703-0.98-1.055-1.659-1.055c-0.947,0-1.613,0.415-1.998,1.244c-0.386,0.829-0.595,2.194-0.628,4.094H150.564z"/>
			<path fill="#8A0304" d="M167.431,40.858l4.575-22.295h2.376l-5.631,24.184h-2.639l-5.631-24.184h2.376L167.431,40.858z"/>
			<path fill="#8A0304" d="M177.134,18.563h2.137v24.184h-2.137V18.563z"/>
			<path fill="#8A0304" d="M183.846,42.748V18.563h5.342c2.212,0,3.871,0.829,4.977,2.488c1.114,1.659,1.672,4.797,1.672,9.415
				c0,3.968-0.507,7.007-1.521,9.116c-1.014,2.11-2.631,3.165-4.852,3.165H183.846z M185.983,40.323h3.381
				c1.475,0,2.556-0.703,3.243-2.11c0.687-1.407,1.031-3.978,1.031-7.715c0-3.117-0.314-5.479-0.943-7.085
				c-0.628-1.616-1.768-2.425-3.419-2.425h-3.293V40.323z"/>
			<path fill="#8A0304" d="M197.735,42.748l5.43-24.184h2.841l5.43,24.184h-2.376l-1.483-6.928h-6.083l-1.383,6.928H197.735z
				 M202.008,33.395h5.053l-2.526-13.037L202.008,33.395z"/>
		</g>
	</g>
	<g>
		<path fill="#1481A3" d="M52.065,14.566V3.864h5.309v1.073H53.25v3.539h3.867V9.55H53.25v3.943h4.159v1.073H52.065z"/>
		<path fill="#1481A3" d="M63.053,7.557V3.864h1.129v10.702h-1.094v-1.129c-0.209,0.437-0.453,0.769-0.732,0.996
			c-0.279,0.228-0.685,0.341-1.219,0.341c-0.734,0-1.305-0.304-1.714-0.913c-0.404-0.613-0.606-1.828-0.606-3.644
			c0-1.091,0.204-1.993,0.613-2.703c0.409-0.715,0.994-1.073,1.756-1.073C61.961,6.442,62.583,6.814,63.053,7.557z M59.98,10.636
			c0,1.231,0.118,2.069,0.355,2.515c0.241,0.446,0.632,0.669,1.17,0.669c0.483,0,0.862-0.218,1.136-0.655
			c0.274-0.441,0.411-1.022,0.411-1.742v-1.017c0-1.054-0.123-1.818-0.369-2.292c-0.246-0.478-0.639-0.718-1.177-0.718
			C60.489,7.397,59.98,8.477,59.98,10.636z"/>
		<path fill="#1481A3" d="M66.306,3.878h1.129v1.435h-1.129V3.878z M66.306,6.651h1.129v7.915h-1.129V6.651z"/>
		<path fill="#1481A3" d="M68.591,7.606V6.651h1.094V4.533h1.129v2.118h1.338v0.954h-1.338v5.393c0,0.242,0.03,0.404,0.091,0.488
			c0.065,0.084,0.228,0.125,0.488,0.125h0.725v0.954h-1.254c-0.46,0-0.771-0.093-0.934-0.279c-0.163-0.19-0.244-0.523-0.244-0.996
			V7.606H68.591z"/>
		<path fill="#1481A3" d="M73.141,10.316c0-1.259,0.237-2.218,0.711-2.877c0.478-0.664,1.187-0.996,2.125-0.996
			c0.906,0,1.596,0.337,2.069,1.01c0.478,0.669,0.718,1.612,0.718,2.829c0,1.5-0.216,2.624-0.648,3.372
			c-0.427,0.748-1.133,1.122-2.118,1.122c-1.013,0-1.742-0.344-2.188-1.031C73.364,13.052,73.141,11.909,73.141,10.316z
			 M74.305,10.685c0,1.087,0.13,1.881,0.39,2.383c0.265,0.502,0.685,0.753,1.261,0.753c0.604,0,1.029-0.262,1.275-0.787
			c0.246-0.525,0.369-1.307,0.369-2.348c0-1.171-0.128-2.011-0.383-2.522c-0.255-0.511-0.678-0.766-1.268-0.766
			c-0.562,0-0.978,0.251-1.247,0.752C74.437,8.651,74.305,9.496,74.305,10.685z"/>
		<path fill="#1481A3" d="M80.714,14.566V6.651h1.094v1.24c0.409-0.966,1.101-1.449,2.076-1.449c0.102,0,0.202,0.005,0.3,0.014
			v1.122c-0.098-0.028-0.256-0.042-0.474-0.042c-0.59,0-1.05,0.195-1.379,0.585c-0.325,0.39-0.488,0.908-0.488,1.554v4.891H80.714z"
			/>
		<path fill="#1481A3" d="M85.327,3.878h1.129v1.435h-1.129V3.878z M85.327,6.651h1.129v7.915h-1.129V6.651z"/>
		<path fill="#1481A3" d="M88.225,8.783V8.504c0-1.375,0.785-2.062,2.355-2.062c0.711,0,1.249,0.172,1.616,0.516
			c0.372,0.344,0.557,0.799,0.557,1.366v4.912c0,0.339,0.153,0.509,0.46,0.509c0.074,0,0.151-0.005,0.23-0.014v0.815
			c-0.135,0.056-0.307,0.084-0.516,0.084c-0.409,0-0.697-0.088-0.864-0.265c-0.163-0.181-0.251-0.492-0.265-0.934
			c-0.167,0.4-0.423,0.725-0.766,0.975c-0.339,0.246-0.697,0.369-1.073,0.369c-1.366,0-2.048-0.759-2.048-2.278
			c0-0.98,0.42-1.644,1.261-1.993l2.048-0.829c0.181-0.074,0.309-0.163,0.383-0.265c0.074-0.102,0.111-0.309,0.111-0.62
			c0-0.604-0.109-0.987-0.327-1.15c-0.218-0.163-0.534-0.244-0.948-0.244c-0.432,0-0.739,0.088-0.92,0.265
			c-0.181,0.177-0.272,0.458-0.272,0.843v0.279H88.225z M91.625,10.274c-0.395,0.242-0.987,0.518-1.777,0.829
			c-0.516,0.214-0.773,0.69-0.773,1.428c0,0.859,0.376,1.289,1.129,1.289c0.409,0,0.748-0.153,1.017-0.46
			c0.269-0.311,0.404-0.685,0.404-1.122V10.274z"/>
		<path fill="#1481A3" d="M94.83,14.566V3.864h1.129v10.702H94.83z"/>
	</g>
	<g>
		<path fill="#5F34A3" d="M51.899,59.345h1.329l1.532,5.979l1.524-5.979h1.329v6.803H56.86v-6.325l-1.656,6.325h-0.895l-1.656-6.325
			v6.325h-0.753V59.345z"/>
		<path fill="#5F34A3" d="M59.154,59.345h0.753v6.803h-0.753V59.345z"/>
		<path fill="#5F34A3" d="M60.872,66.148l1.913-6.803h1.001l1.913,6.803h-0.837l-0.523-1.949h-2.144l-0.487,1.949H60.872z
			 M62.378,63.517h1.781l-0.89-3.667L62.378,63.517z"/>
		<path fill="#5F34A3" d="M66.519,59.345h1.329l1.532,5.979l1.524-5.979h1.329v6.803H71.48v-6.325l-1.656,6.325h-0.895l-1.656-6.325
			v6.325h-0.753V59.345z"/>
		<path fill="#5F34A3" d="M73.774,59.345h0.753v6.803h-0.753V59.345z"/>
		<path fill="#5F34A3" d="M76.122,67.082c0.292-0.068,0.438-0.38,0.438-0.935h-0.438v-0.921h0.824v0.912
			c0,0.732-0.275,1.184-0.824,1.355V67.082z"/>
		<path fill="#5F34A3" d="M80.604,66.148v-6.803h3.162v0.682h-2.409v2.215h2.232v0.682h-2.232v3.224H80.604z"/>
		<path fill="#5F34A3" d="M84.714,59.345h0.753v6.121h2.764v0.682h-3.517V59.345z"/>
		<path fill="#5F34A3" d="M89.037,62.494c0-1.089,0.184-1.916,0.554-2.48c0.372-0.564,0.936-0.846,1.692-0.846
			c0.732,0,1.284,0.26,1.656,0.779c0.372,0.52,0.558,1.416,0.558,2.688c0,1.414-0.189,2.383-0.567,2.905
			c-0.378,0.523-0.927,0.784-1.648,0.784c-0.815,0-1.394-0.279-1.736-0.837C89.207,64.93,89.037,63.932,89.037,62.494z
			 M89.812,62.542c0,1.181,0.103,1.993,0.31,2.436c0.207,0.443,0.592,0.664,1.156,0.664c0.558,0,0.937-0.227,1.138-0.682
			c0.204-0.455,0.306-1.268,0.306-2.44c0-1.781-0.493-2.671-1.479-2.671C90.289,59.849,89.812,60.747,89.812,62.542z"/>
		<path fill="#5F34A3" d="M99.131,66.148h-0.895c-0.083-0.307-0.139-0.585-0.168-0.833c-0.03-0.248-0.044-0.502-0.044-0.762
			c0-0.481-0.105-0.831-0.314-1.05c-0.21-0.221-0.495-0.332-0.855-0.332h-1.289v2.976h-0.753v-6.803h1.785
			c0.856,0,1.441,0.161,1.754,0.483c0.316,0.319,0.474,0.763,0.474,1.333c0,0.945-0.443,1.488-1.329,1.63
			c0.464,0.059,0.778,0.186,0.943,0.381c0.168,0.192,0.26,0.478,0.275,0.859c0.012,0.34,0.06,0.83,0.146,1.471
			c0.053,0.307,0.143,0.469,0.27,0.487V66.148z M98.05,61.24c0-0.809-0.475-1.214-1.426-1.214h-1.059v2.463h1.183
			C97.616,62.489,98.05,62.073,98.05,61.24z"/>
		<path fill="#5F34A3" d="M100.473,59.345h0.753v6.803h-0.753V59.345z"/>
		<path fill="#5F34A3" d="M102.838,66.148v-6.803h1.882c0.78,0,1.364,0.233,1.754,0.7c0.393,0.467,0.589,1.349,0.589,2.649
			c0,1.116-0.179,1.971-0.536,2.564c-0.357,0.593-0.927,0.89-1.71,0.89H102.838z M103.591,65.466h1.191
			c0.52,0,0.901-0.198,1.143-0.593c0.242-0.396,0.363-1.119,0.363-2.17c0-0.877-0.111-1.541-0.332-1.993
			c-0.221-0.455-0.623-0.682-1.205-0.682h-1.16V65.466z"/>
		<path fill="#5F34A3" d="M107.732,66.148l1.913-6.803h1.001l1.913,6.803h-0.837l-0.523-1.949h-2.144l-0.487,1.949H107.732z
			 M109.238,63.517h1.781l-0.89-3.667L109.238,63.517z"/>
	</g>
	<g>
		<path d="M51.926,55.774v-9.004h2.491c1.032,0,1.805,0.309,2.321,0.926c0.52,0.617,0.78,1.786,0.78,3.505
			c0,1.477-0.237,2.608-0.709,3.394c-0.473,0.786-1.227,1.178-2.263,1.178H51.926z M52.923,54.872H54.5
			c0.688,0,1.192-0.262,1.512-0.785c0.32-0.524,0.481-1.481,0.481-2.872c0-1.161-0.147-2.04-0.44-2.638
			c-0.293-0.602-0.825-0.903-1.594-0.903h-1.536V54.872z"/>
		<path d="M59.142,46.782h0.95v1.208h-0.95V46.782z M59.142,49.115h0.95v6.659h-0.95V49.115z"/>
		<path d="M63.638,55.018l1.495-5.903h0.979l-1.97,6.659h-1.038l-1.97-6.659h0.979L63.638,55.018z"/>
		<path d="M67.138,46.782h0.95v1.208h-0.95V46.782z M67.138,49.115h0.95v6.659h-0.95V49.115z"/>
		<path d="M70.379,53.793c0,0.434,0.074,0.768,0.223,1.002c0.152,0.234,0.455,0.352,0.909,0.352c0.852,0,1.278-0.371,1.278-1.114
			c0-0.297-0.096-0.528-0.287-0.692c-0.188-0.168-0.524-0.338-1.008-0.51c-0.84-0.293-1.381-0.586-1.624-0.879
			c-0.242-0.293-0.363-0.66-0.363-1.102c0-0.625,0.188-1.1,0.563-1.424c0.375-0.324,0.848-0.486,1.419-0.486
			c1.364,0,2.046,0.656,2.046,1.969H72.63c0-0.383-0.072-0.672-0.217-0.868c-0.145-0.199-0.428-0.299-0.85-0.299
			c-0.719,0-1.079,0.34-1.079,1.02c0,0.254,0.082,0.469,0.246,0.645c0.168,0.176,0.572,0.387,1.213,0.633
			c0.75,0.289,1.241,0.567,1.471,0.832c0.234,0.266,0.352,0.61,0.352,1.032c0,0.664-0.213,1.172-0.639,1.524
			c-0.422,0.348-0.952,0.522-1.589,0.522c-0.637,0-1.141-0.166-1.512-0.498c-0.367-0.336-0.551-0.778-0.551-1.325v-0.334H70.379z"/>
		<path d="M75.133,46.782h0.95v1.208h-0.95V46.782z M75.133,49.115h0.95v6.659h-0.95V49.115z"/>
		<path d="M77.548,52.199c0-1.059,0.199-1.866,0.598-2.421c0.402-0.559,0.998-0.838,1.788-0.838c0.762,0,1.342,0.283,1.741,0.85
			c0.402,0.563,0.604,1.356,0.604,2.38c0,1.262-0.182,2.208-0.545,2.837c-0.36,0.629-0.953,0.944-1.782,0.944
			c-0.852,0-1.465-0.289-1.841-0.868C77.735,54.5,77.548,53.539,77.548,52.199z M78.527,52.509c0,0.914,0.109,1.583,0.328,2.005
			c0.223,0.422,0.576,0.633,1.061,0.633c0.508,0,0.866-0.221,1.073-0.662c0.207-0.442,0.311-1.1,0.311-1.975
			c0-0.985-0.108-1.692-0.322-2.122c-0.215-0.43-0.571-0.645-1.067-0.645c-0.473,0-0.823,0.211-1.049,0.633
			C78.638,50.798,78.527,51.509,78.527,52.509z M79.277,48.283l1.043-1.688h1.301l-1.548,1.688H79.277z"/>
		<path d="M83.814,55.774v-6.659h0.92v0.762c0.426-0.625,0.991-0.938,1.694-0.938c0.52,0,0.918,0.143,1.196,0.428
			c0.281,0.285,0.422,0.721,0.422,1.307v5.1h-0.95v-4.83c0-0.801-0.324-1.202-0.973-1.202c-0.395,0-0.721,0.135-0.979,0.405
			c-0.254,0.27-0.381,0.614-0.381,1.032v4.596H83.814z"/>
		<path d="M93.627,52.914v0.446c0,0.625,0.137,1.073,0.41,1.342c0.273,0.27,0.698,0.404,1.272,0.404
			c0.567,0,0.993-0.144,1.278-0.434c0.285-0.293,0.428-0.684,0.428-1.172c0-0.453-0.068-0.786-0.205-0.997
			c-0.137-0.211-0.367-0.381-0.692-0.51l-1.858-0.721c-0.641-0.254-1.063-0.563-1.266-0.926c-0.199-0.363-0.299-0.809-0.299-1.337
			c0-0.719,0.231-1.311,0.692-1.776c0.465-0.465,1.065-0.698,1.8-0.698c0.828,0,1.463,0.205,1.905,0.615
			c0.445,0.407,0.668,0.907,0.668,1.501c0,0.137-0.006,0.276-0.018,0.416h-1.026c0.012-0.094,0.018-0.201,0.018-0.322
			c-0.008-0.344-0.139-0.647-0.393-0.909c-0.254-0.266-0.59-0.399-1.008-0.399c-0.563,0-0.973,0.133-1.231,0.399
			c-0.254,0.262-0.381,0.664-0.381,1.208c0,0.606,0.297,1.024,0.891,1.254l1.635,0.627c0.699,0.274,1.172,0.58,1.419,0.92
			c0.25,0.34,0.375,0.811,0.375,1.413c0,0.825-0.234,1.489-0.703,1.993c-0.469,0.504-1.163,0.756-2.081,0.756
			c-0.817,0-1.463-0.221-1.94-0.662c-0.477-0.442-0.715-1.131-0.715-2.069v-0.363H93.627z"/>
		<path d="M100.115,52.509v0.498c0,0.832,0.111,1.397,0.334,1.694c0.227,0.297,0.524,0.446,0.891,0.446
			c0.356,0,0.631-0.115,0.827-0.346c0.195-0.234,0.299-0.545,0.311-0.932c0-0.117,0.004-0.225,0.012-0.322h0.862v0.229
			c0,0.614-0.176,1.129-0.528,1.548c-0.348,0.418-0.852,0.627-1.512,0.627c-1.45,0-2.175-1.168-2.175-3.505
			c0-1.082,0.186-1.936,0.557-2.562c0.371-0.629,0.907-0.944,1.606-0.944c0.754,0,1.292,0.244,1.612,0.733
			c0.324,0.489,0.486,1.434,0.486,2.837H100.115z M102.419,51.73c0-0.801-0.102-1.332-0.305-1.594
			c-0.199-0.262-0.457-0.393-0.774-0.393c-0.442,0-0.752,0.154-0.932,0.463c-0.18,0.309-0.278,0.817-0.293,1.524H102.419z"/>
		<path d="M104.822,55.774v-6.659h0.92v0.762c0.426-0.625,0.991-0.938,1.694-0.938c0.52,0,0.918,0.143,1.196,0.428
			c0.281,0.285,0.422,0.721,0.422,1.307v5.1h-0.95v-4.83c0-0.801-0.324-1.202-0.973-1.202c-0.395,0-0.721,0.135-0.979,0.405
			c-0.254,0.27-0.381,0.614-0.381,1.032v4.596H104.822z"/>
		<path d="M114.078,49.877v-3.107h0.95v9.004h-0.92v-0.95c-0.176,0.367-0.381,0.647-0.615,0.838
			c-0.234,0.191-0.576,0.287-1.026,0.287c-0.618,0-1.098-0.256-1.442-0.768c-0.34-0.516-0.51-1.538-0.51-3.066
			c0-0.918,0.172-1.676,0.516-2.274c0.344-0.602,0.836-0.903,1.477-0.903C113.16,48.94,113.683,49.252,114.078,49.877z
			 M111.493,52.468c0,1.036,0.1,1.741,0.299,2.116c0.203,0.375,0.531,0.563,0.985,0.563c0.406,0,0.725-0.184,0.955-0.551
			c0.231-0.371,0.346-0.86,0.346-1.465v-0.856c0-0.887-0.104-1.53-0.311-1.928c-0.207-0.402-0.537-0.604-0.991-0.604
			C111.921,49.743,111.493,50.651,111.493,52.468z"/>
		<path d="M116.587,50.909v-0.234c0-1.157,0.66-1.735,1.981-1.735c0.598,0,1.051,0.145,1.36,0.434
			c0.313,0.289,0.469,0.672,0.469,1.149v4.133c0,0.285,0.129,0.428,0.387,0.428c0.062,0,0.127-0.004,0.193-0.012v0.686
			c-0.113,0.047-0.258,0.07-0.434,0.07c-0.344,0-0.586-0.074-0.727-0.223c-0.137-0.152-0.211-0.414-0.223-0.785
			c-0.141,0.336-0.356,0.61-0.645,0.821c-0.285,0.207-0.586,0.311-0.903,0.311c-1.149,0-1.723-0.639-1.723-1.917
			c0-0.824,0.354-1.383,1.061-1.676l1.723-0.698c0.152-0.062,0.26-0.137,0.322-0.223c0.062-0.086,0.094-0.26,0.094-0.522
			c0-0.508-0.092-0.83-0.275-0.967c-0.184-0.137-0.449-0.205-0.797-0.205c-0.363,0-0.621,0.074-0.774,0.223
			s-0.229,0.385-0.229,0.709v0.234H116.587z M119.447,52.163c-0.332,0.203-0.83,0.436-1.495,0.698
			c-0.434,0.18-0.651,0.58-0.651,1.202c0,0.723,0.317,1.084,0.95,1.084c0.344,0,0.629-0.129,0.856-0.387
			c0.227-0.262,0.34-0.576,0.34-0.944V52.163z"/>
		<path d="M128.41,49.877v-3.107h0.95v9.004h-0.92v-0.95c-0.176,0.367-0.381,0.647-0.615,0.838
			c-0.234,0.191-0.576,0.287-1.026,0.287c-0.617,0-1.098-0.256-1.442-0.768c-0.34-0.516-0.51-1.538-0.51-3.066
			c0-0.918,0.172-1.676,0.516-2.274c0.344-0.602,0.836-0.903,1.477-0.903C127.492,48.94,128.015,49.252,128.41,49.877z
			 M125.825,52.468c0,1.036,0.1,1.741,0.299,2.116c0.203,0.375,0.531,0.563,0.985,0.563c0.406,0,0.725-0.184,0.955-0.551
			c0.231-0.371,0.346-0.86,0.346-1.465v-0.856c0-0.887-0.104-1.53-0.311-1.928c-0.207-0.402-0.537-0.604-0.991-0.604
			C126.253,49.743,125.825,50.651,125.825,52.468z"/>
		<path d="M131.78,52.509v0.498c0,0.832,0.111,1.397,0.334,1.694c0.227,0.297,0.524,0.446,0.891,0.446
			c0.356,0,0.631-0.115,0.827-0.346c0.195-0.234,0.299-0.545,0.311-0.932c0-0.117,0.004-0.225,0.012-0.322h0.862v0.229
			c0,0.614-0.176,1.129-0.528,1.548c-0.348,0.418-0.852,0.627-1.512,0.627c-1.45,0-2.175-1.168-2.175-3.505
			c0-1.082,0.186-1.936,0.557-2.562c0.371-0.629,0.907-0.944,1.606-0.944c0.754,0,1.292,0.244,1.612,0.733
			c0.324,0.489,0.486,1.434,0.486,2.837H131.78z M134.084,51.73c0-0.801-0.102-1.332-0.305-1.594
			c-0.199-0.262-0.457-0.393-0.774-0.393c-0.442,0-0.752,0.154-0.932,0.463c-0.18,0.309-0.278,0.817-0.293,1.524H134.084z"/>
		<path d="M141.95,55.071l2.134-8.3h1.108l-2.626,9.004h-1.231l-2.626-9.004h1.108L141.95,55.071z"/>
		<path d="M146.153,46.782h0.95v1.208h-0.95V46.782z M146.153,49.115h0.95v6.659h-0.95V49.115z"/>
		<path d="M152.085,49.877v-3.107h0.95v9.004h-0.92v-0.95c-0.176,0.367-0.381,0.647-0.615,0.838
			c-0.234,0.191-0.576,0.287-1.026,0.287c-0.617,0-1.098-0.256-1.442-0.768c-0.34-0.516-0.51-1.538-0.51-3.066
			c0-0.918,0.172-1.676,0.516-2.274c0.344-0.602,0.836-0.903,1.477-0.903C151.167,48.94,151.691,49.252,152.085,49.877z
			 M149.5,52.468c0,1.036,0.1,1.741,0.299,2.116c0.203,0.375,0.531,0.563,0.985,0.563c0.406,0,0.725-0.184,0.955-0.551
			c0.231-0.371,0.346-0.86,0.346-1.465v-0.856c0-0.887-0.104-1.53-0.311-1.928c-0.207-0.402-0.537-0.604-0.991-0.604
			C149.928,49.743,149.5,50.651,149.5,52.468z"/>
		<path d="M154.594,50.909v-0.234c0-1.157,0.66-1.735,1.981-1.735c0.598,0,1.051,0.145,1.36,0.434
			c0.313,0.289,0.469,0.672,0.469,1.149v4.133c0,0.285,0.129,0.428,0.387,0.428c0.062,0,0.127-0.004,0.193-0.012v0.686
			c-0.113,0.047-0.258,0.07-0.434,0.07c-0.344,0-0.586-0.074-0.727-0.223c-0.137-0.152-0.211-0.414-0.223-0.785
			c-0.141,0.336-0.356,0.61-0.645,0.821c-0.285,0.207-0.586,0.311-0.903,0.311c-1.149,0-1.723-0.639-1.723-1.917
			c0-0.824,0.354-1.383,1.061-1.676l1.723-0.698c0.152-0.062,0.26-0.137,0.322-0.223c0.062-0.086,0.094-0.26,0.094-0.522
			c0-0.508-0.092-0.83-0.275-0.967c-0.184-0.137-0.449-0.205-0.797-0.205c-0.363,0-0.621,0.074-0.774,0.223
			s-0.229,0.385-0.229,0.709v0.234H154.594z M157.455,52.163c-0.332,0.203-0.83,0.436-1.495,0.698
			c-0.434,0.18-0.651,0.58-0.651,1.202c0,0.723,0.317,1.084,0.95,1.084c0.344,0,0.629-0.129,0.856-0.387
			c0.227-0.262,0.34-0.576,0.34-0.944V52.163z"/>
		<path d="M163.316,46.771h2.386c1.008,0,1.731,0.223,2.169,0.668c0.442,0.442,0.662,1.059,0.662,1.852
			c0,0.875-0.229,1.542-0.686,1.999c-0.457,0.457-1.262,0.686-2.415,0.686h-1.12v3.798h-0.997V46.771z M164.313,47.673v3.4h0.996
			c0.891,0,1.479-0.139,1.764-0.416c0.289-0.277,0.434-0.715,0.434-1.313c0-0.578-0.147-1-0.44-1.266
			c-0.293-0.27-0.858-0.404-1.694-0.404H164.313z"/>
		<path d="M169.887,49.115h0.95v5.182c0,0.274,0.062,0.485,0.188,0.633c0.125,0.145,0.354,0.217,0.686,0.217
			c0.359,0,0.676-0.137,0.95-0.41c0.277-0.277,0.416-0.746,0.416-1.407v-4.215h0.95v6.659h-0.95v-0.95
			c-0.313,0.75-0.87,1.125-1.671,1.125c-1.012,0-1.518-0.578-1.518-1.735V49.115z"/>
		<path d="M175.872,55.774v-9.004h0.95v3.107c0.117-0.277,0.307-0.502,0.569-0.674c0.262-0.176,0.555-0.264,0.879-0.264
			c0.707,0,1.237,0.285,1.589,0.856c0.352,0.567,0.528,1.313,0.528,2.239c0,1.286-0.16,2.261-0.481,2.925
			c-0.317,0.66-0.856,0.991-1.618,0.991c-0.715,0-1.233-0.344-1.553-1.032v0.856H175.872z M176.822,52.591v0.41
			c0,0.848,0.117,1.419,0.352,1.712c0.238,0.289,0.555,0.434,0.95,0.434c0.504,0,0.844-0.24,1.02-0.721
			c0.176-0.484,0.264-1.188,0.264-2.11c0-1.715-0.434-2.573-1.301-2.573c-0.461,0-0.791,0.188-0.991,0.563
			c-0.195,0.375-0.293,1-0.293,1.876V52.591z"/>
		<path d="M181.833,55.774v-9.004h0.95v9.004H181.833z"/>
		<path d="M184.5,46.782h0.95v1.208h-0.95V46.782z M184.5,49.115h0.95v6.659h-0.95V49.115z"/>
		<path d="M187.742,53.793c0,0.434,0.074,0.768,0.223,1.002c0.152,0.234,0.455,0.352,0.909,0.352c0.852,0,1.278-0.371,1.278-1.114
			c0-0.297-0.096-0.528-0.287-0.692c-0.188-0.168-0.524-0.338-1.008-0.51c-0.84-0.293-1.381-0.586-1.624-0.879
			c-0.242-0.293-0.363-0.66-0.363-1.102c0-0.625,0.188-1.1,0.563-1.424c0.375-0.324,0.848-0.486,1.419-0.486
			c1.364,0,2.046,0.656,2.046,1.969h-0.903c0-0.383-0.072-0.672-0.217-0.868c-0.145-0.199-0.428-0.299-0.85-0.299
			c-0.719,0-1.079,0.34-1.079,1.02c0,0.254,0.082,0.469,0.246,0.645c0.168,0.176,0.572,0.387,1.213,0.633
			c0.75,0.289,1.241,0.567,1.471,0.832c0.234,0.266,0.352,0.61,0.352,1.032c0,0.664-0.213,1.172-0.639,1.524
			c-0.422,0.348-0.952,0.522-1.589,0.522c-0.637,0-1.141-0.166-1.512-0.498c-0.367-0.336-0.551-0.778-0.551-1.325v-0.334H187.742z"
			/>
		<path d="M192.508,46.771h0.95v3.107c0.426-0.625,0.981-0.938,1.665-0.938c0.547,0,0.953,0.145,1.219,0.434
			c0.266,0.289,0.399,0.723,0.399,1.301v5.1h-0.95v-4.83c0-0.801-0.324-1.202-0.973-1.202c-0.445,0-0.784,0.141-1.014,0.422
			c-0.231,0.281-0.346,0.619-0.346,1.014v4.596h-0.95V46.771z"/>
		<path d="M199.131,52.509v0.498c0,0.832,0.111,1.397,0.334,1.694c0.227,0.297,0.524,0.446,0.891,0.446
			c0.356,0,0.631-0.115,0.827-0.346c0.195-0.234,0.299-0.545,0.311-0.932c0-0.117,0.004-0.225,0.012-0.322h0.862v0.229
			c0,0.614-0.176,1.129-0.528,1.548c-0.348,0.418-0.852,0.627-1.512,0.627c-1.45,0-2.175-1.168-2.175-3.505
			c0-1.082,0.186-1.936,0.557-2.562c0.371-0.629,0.907-0.944,1.606-0.944c0.754,0,1.292,0.244,1.612,0.733
			c0.324,0.489,0.486,1.434,0.486,2.837H199.131z M201.435,51.73c0-0.801-0.102-1.332-0.305-1.594
			c-0.199-0.262-0.457-0.393-0.774-0.393c-0.442,0-0.752,0.154-0.932,0.463c-0.18,0.309-0.278,0.817-0.293,1.524H201.435z"/>
		<path d="M203.944,55.774v-6.659h0.92v1.043c0.344-0.813,0.926-1.219,1.747-1.219c0.086,0,0.17,0.004,0.252,0.012v0.944
			c-0.082-0.023-0.215-0.035-0.399-0.035c-0.496,0-0.883,0.164-1.161,0.492c-0.274,0.328-0.41,0.764-0.41,1.307v4.115H203.944z"/>
		<path d="M208.399,53.793c0,0.434,0.074,0.768,0.223,1.002c0.152,0.234,0.455,0.352,0.909,0.352c0.852,0,1.278-0.371,1.278-1.114
			c0-0.297-0.096-0.528-0.287-0.692c-0.188-0.168-0.524-0.338-1.008-0.51c-0.84-0.293-1.381-0.586-1.624-0.879
			c-0.242-0.293-0.363-0.66-0.363-1.102c0-0.625,0.188-1.1,0.563-1.424c0.375-0.324,0.848-0.486,1.419-0.486
			c1.364,0,2.046,0.656,2.046,1.969h-0.903c0-0.383-0.072-0.672-0.217-0.868c-0.145-0.199-0.428-0.299-0.85-0.299
			c-0.719,0-1.079,0.34-1.079,1.02c0,0.254,0.082,0.469,0.246,0.645c0.168,0.176,0.572,0.387,1.213,0.633
			c0.75,0.289,1.241,0.567,1.471,0.832c0.234,0.266,0.352,0.61,0.352,1.032c0,0.664-0.213,1.172-0.639,1.524
			c-0.422,0.348-0.952,0.522-1.589,0.522c-0.637,0-1.141-0.166-1.512-0.498c-0.367-0.336-0.551-0.778-0.551-1.325v-0.334H208.399z"
			/>
	</g>
</g>
</svg>
