<?xml version="1.0" encoding="utf-8"?>
<!-- Generator: Adobe Illustrator 24.1.1, SVG Export Plug-In . SVG Version: 6.00 Build 0)  -->
<svg version="1.1" id="Layer_1" xmlns="http://www.w3.org/2000/svg" xmlns:xlink="http://www.w3.org/1999/xlink" x="0px" y="0px"
	 width="396px" height="125px" viewBox="0 0 396 125" enable-background="new 0 0 396 125" xml:space="preserve">
<g>
	<g>
		<path fill="#53565A" d="M386.947,77.556v-0.025c0-2.313,1.874-4.26,4.237-4.26c2.387,0,4.237,1.923,4.237,4.236v0.025
			c0,2.313-1.874,4.261-4.237,4.261C388.798,81.792,386.947,79.868,386.947,77.556z M394.934,77.531v-0.025
			c0-2.069-1.608-3.774-3.751-3.774c-2.118,0-3.749,1.729-3.749,3.798v0.025c0,2.069,1.606,3.774,3.749,3.774
			C393.302,81.329,394.934,79.6,394.934,77.531z M389.406,75.242h2.071c1.046,0,1.8,0.463,1.8,1.461
			c0,0.706-0.389,1.169-0.973,1.363l1.12,1.608h-1.29l-0.951-1.413h-0.682v1.413h-1.095V75.242z M391.402,77.385
			c0.513,0,0.779-0.244,0.779-0.609c0-0.39-0.291-0.585-0.779-0.585h-0.901v1.193H391.402z"/>
	</g>
	<g>
		<path fill="#53565A" d="M134.574,55.202h8.312l1.843,4.156h2.339l-7.345-16.233h-1.914l-7.349,16.233h2.248L134.574,55.202z
			 M135.446,53.216l3.294-7.351l3.278,7.351H135.446z M151.789,59.358h-2.12v-16.12h2.1l5.625,8.43l5.625-8.43h2.096v16.12h-2.166
			V47.055l-5.431,7.988h-0.298l-0.054-0.083l-5.377-7.886V59.358z M181.322,59.358h-11.876v-16.12h11.764v2.007h-9.597v4.983h8.585
			v2.009h-8.585v5.117h9.709V59.358z M186.547,53.245h4.199l4.563,6.113h2.67l-4.881-6.489c2.625-0.581,4.125-2.286,4.125-4.762
			c0-1.269-0.451-2.418-1.273-3.24c-1.05-1.05-2.687-1.629-4.609-1.629h-6.96v16.12h2.166V53.245z M186.547,45.267h4.658
			c2.397,0,3.831,1.087,3.831,2.953c0,1.848-1.513,3.04-3.852,3.04h-4.637V45.267z M200.86,52.391v-9.153h2.166v16.12h-2.166V52.391
			z M206.618,51.343c0-4.716,3.579-8.374,8.151-8.374c3.137,0,4.865,1.223,6.27,2.548l0.141,0.13l-1.48,1.587l-0.145-0.132
			c-1.554-1.476-2.992-2.106-4.811-2.106c-3.36,0-5.894,2.691-5.894,6.256c0,3.58,2.592,6.349,5.894,6.349
			c2.178,0,3.555-0.889,4.948-2.219l0.136-0.13l1.438,1.416l-0.136,0.141c-1.376,1.395-3.216,2.821-6.427,2.821
			C210.09,59.628,206.618,56.067,206.618,51.343z M226.755,55.202h8.312l1.843,4.156h2.339l-7.345-16.233h-1.914l-7.349,16.233
			h2.249L226.755,55.202z M227.627,53.216l3.294-7.351l3.278,7.351H227.627z M243.97,59.358h-2.12v-16.12h1.955l0.058,0.074
			l9.564,12.164V43.238h2.12v16.12h-1.707l-0.058-0.074l-9.812-12.458V59.358z M269.156,55.202h8.308l1.843,4.156h2.34
			l-7.345-16.233h-1.918l-7.345,16.233h2.248L269.156,55.202z M270.024,53.216l3.298-7.351l3.274,7.351H270.024z M282.659,51.343
			c0-4.716,3.583-8.374,8.151-8.374c3.137,0,4.869,1.223,6.27,2.548l0.141,0.13l-1.48,1.587l-0.145-0.132
			c-1.554-1.476-2.993-2.106-4.807-2.106c-3.365,0-5.898,2.691-5.898,6.256c0,3.58,2.592,6.349,5.898,6.349
			c2.178,0,3.55-0.889,4.943-2.219l0.137-0.13l1.442,1.416l-0.136,0.141c-1.376,1.395-3.22,2.821-6.431,2.821
			C286.136,59.628,282.659,56.067,282.659,51.343z M302.801,55.202h8.312l1.843,4.156h2.339l-7.349-16.233h-1.914l-7.345,16.233
			h2.249L302.801,55.202z M303.673,53.216l3.294-7.351l3.274,7.351H303.673z M332.106,51.252c0-4.644-3.6-8.014-8.556-8.014h-5.659
			v16.12h5.659C328.505,59.358,332.106,55.968,332.106,51.252z M323.55,57.328h-3.493V45.267h3.493c3.724,0,6.324,2.48,6.324,6.076
			C329.874,54.869,327.274,57.328,323.55,57.328z M347.465,59.358H335.59v-16.12h11.763v2.007h-9.598v4.983h8.585v2.009h-8.585
			v5.117h9.709V59.358z M352.644,59.358h-2.12v-16.12h2.096l5.629,8.43l5.625-8.43h2.096v16.12h-2.166V47.055l-5.431,7.988h-0.298
			l-0.058-0.083l-5.373-7.886V59.358z M375.089,53.001l-6.719-9.763h2.629l0.058,0.085l5.148,7.628l5.245-7.713h2.542l-6.717,9.738
			v6.382h-2.186V53.001z M138.687,89.721c4.621,0,8.242-3.658,8.242-8.374c0-4.724-3.526-8.287-8.196-8.287
			c-4.621,0-8.242,3.658-8.242,8.374C130.49,86.158,134.016,89.721,138.687,89.721z M138.687,75.091c3.369,0,6.01,2.767,6.01,6.343
			c0,3.567-2.567,6.258-5.964,6.258c-3.427,0-6.006-2.707-6.006-6.345C132.727,77.78,135.285,75.091,138.687,75.091z
			 M152.335,75.358v5.233h8.519v2.009h-8.519v6.853h-2.166V73.33h11.693v2.027H152.335z M178.76,73.059
			c-4.621,0-8.243,3.658-8.243,8.374c0,4.724,3.527,8.287,8.197,8.287c4.621,0,8.242-3.658,8.242-8.374
			C186.956,76.622,183.43,73.059,178.76,73.059z M178.76,87.691c-3.426,0-6.006-2.707-6.006-6.345c0-3.567,2.559-6.256,5.96-6.256
			c3.427,0,6.006,2.709,6.006,6.343C184.72,85,182.157,87.691,178.76,87.691z M190.192,73.33v16.122h2.166v-5.551h3.629
			c3.17,0,6.373-1.653,6.373-5.388c0-3.15-2.389-5.183-6.084-5.183H190.192z M196.053,81.892h-3.695v-6.535h3.786
			c2.563,0,4.034,1.178,4.034,3.267C200.178,80.578,198.517,81.892,196.053,81.892z M215.752,73.33h2.166v16.122h-2.166v-7.08
			h-8.688v7.08h-2.166V73.33h2.166v6.987h8.688V73.33z M225.713,80.175v-4.817h-5.278V73.33h12.747v2.027H227.9v14.094h-2.186
			V80.175z M246.557,73.33h2.166v16.122h-2.166v-7.08h-8.692v7.08H235.7V73.33h2.166v6.987h8.692V73.33z M263.444,85.294
			l1.843,4.158h2.34l-7.345-16.233h-1.914l-7.351,16.233h2.248l1.864-4.158H263.444z M262.576,83.31h-6.572l3.294-7.353
			L262.576,83.31z M272.099,73.33v14.092h8.853v2.029h-11.015V73.33H272.099z M296.729,89.452V77.147l-5.435,7.99H291l-0.058-0.083
			l-5.377-7.886v12.284h-2.12V73.33h2.1l5.625,8.43l5.629-8.43h2.096v16.122H296.729z M302.135,81.433
			c0,4.724,3.526,8.287,8.196,8.287c4.621,0,8.242-3.658,8.242-8.374c0-4.724-3.526-8.287-8.196-8.287
			C305.756,73.059,302.135,76.717,302.135,81.433z M310.377,87.691c-3.426,0-6.005-2.707-6.005-6.345
			c0-3.567,2.558-6.256,5.96-6.256c3.369,0,6.01,2.767,6.01,6.343C316.341,85,313.775,87.691,310.377,87.691z M323.98,87.422h8.853
			v2.029h-11.019V73.33h2.166V87.422z M350.238,81.346c0-4.724-3.526-8.287-8.196-8.287c-4.621,0-8.242,3.658-8.242,8.374
			c0,4.724,3.522,8.287,8.196,8.287C346.617,89.721,350.238,86.063,350.238,81.346z M342.042,87.691c-3.426,0-6.01-2.707-6.01-6.345
			c0-3.567,2.563-6.256,5.964-6.256c3.369,0,6.01,2.767,6.01,6.343C348.006,85,345.439,87.691,342.042,87.691z M360.828,89.721
			c-4.828,0-8.196-3.408-8.196-8.287c0-4.716,3.551-8.374,8.081-8.374c2.455,0,4.191,0.62,5.993,2.137l0.149,0.124l-1.401,1.649
			l-0.149-0.128c-1.042-0.909-2.331-1.75-4.658-1.75c-3.245,0-5.782,2.746-5.782,6.256c0,3.84,2.422,6.39,6.03,6.39
			c1.554,0,3.17-0.55,4.344-1.474v-3.621h-4.786v-1.986h6.886v6.551l-0.07,0.06C366.242,88.183,364.039,89.721,360.828,89.721z
			 M375.143,89.452v-6.361l-6.714-9.761h2.629l0.058,0.087l5.144,7.626l5.249-7.713h2.538l-6.712,9.74v6.382H375.143z"/>
		<g>
			<path fill="#FFFFFF" d="M114.837,67.862c0,31.541-25.572,57.117-57.123,57.117c-31.545,0-57.118-25.577-57.118-57.117
				c0-31.549,25.572-57.126,57.118-57.126C89.264,10.736,114.837,36.313,114.837,67.862z"/>
			<path fill="#351F65" d="M86.251,117.357c-2.339,1.352-4.782,2.538-7.316,3.555L61.092,74.806L86.251,117.357z M63.051,75.628
				l24.3,41.097c1.835-1.12,3.596-2.348,5.291-3.658L63.051,75.628z M65.841,124.413l-6.49-41.882l2.865,42.275
				C63.436,124.711,64.647,124.582,65.841,124.413z M66.99,78.567l26.647,33.719c1-0.81,1.967-1.649,2.91-2.521L66.99,78.567z
				 M66.994,75.186l33.996,29.962c1.062-1.228,2.071-2.501,3.021-3.815L66.994,75.186z M60.476,48.27l6.394-36.811
				c-0.785-0.128-1.579-0.231-2.377-0.327L60.476,48.27z M60.137,75.864l10.519,47.644c2.426-0.562,4.799-1.269,7.097-2.133
				L60.137,75.864z M114.68,63.605c-0.231-3.179-0.723-6.283-1.455-9.296L64.444,66.795L114.68,63.605z M57.652,48.014l1.062-37.27
				c-0.335-0.008-0.665-0.025-1-0.025c-0.467,0-0.926,0.025-1.385,0.033L57.652,48.014z M71.868,69.428l42.395,6.621
				c0.182-1.256,0.314-2.525,0.409-3.811L71.868,69.428z M68.784,70.234l44.218,12.106c0.43-1.649,0.781-3.327,1.062-5.034
				L68.784,70.234z M63.737,71.334l41.01,28.962c1.736-2.509,3.278-5.162,4.6-7.94L63.737,71.334z M64.973,70.503l44.895,20.695
				c1.104-2.459,2.034-5.01,2.786-7.634L64.973,70.503z M59.955,58.711l14.429-45.516c-2.042-0.62-4.133-1.12-6.266-1.513
				L59.955,58.711z M66.829,62.464l41.423-21.27c-0.872-1.649-1.823-3.249-2.848-4.799L66.829,62.464z M111.981,49.965
				L73.074,63.274l39.84-10.197C112.634,52.027,112.32,50.99,111.981,49.965z M98.899,28.273c-0.525-0.546-1.058-1.079-1.6-1.604
				L72.227,53.346L98.899,28.273z M55.383,124.938l1.108-37.113l-3.464,36.968C53.808,124.855,54.594,124.909,55.383,124.938z
				 M114.771,70.974c0.054-1.033,0.087-2.071,0.087-3.112c0-1.004-0.029-2-0.079-2.988L67.577,67.87L114.771,70.974z M59.984,10.777
				l-1.171,41.076l4.42-40.865C62.158,10.885,61.076,10.819,59.984,10.777z M67.866,77.645l29.598,31.243
				c0.93-0.901,1.831-1.823,2.699-2.782L67.866,77.645z M65.804,64.419l45.772-15.661c-0.785-2.211-1.703-4.356-2.744-6.431
				L65.804,64.419z M63.32,56.95l22.543-38.811c-1.343-0.765-2.72-1.471-4.129-2.129L63.32,56.95z M69.421,59.182l35.273-23.841
				c-0.707-1.017-1.451-2.009-2.219-2.98L69.421,59.182z M63.084,59.885l29.09-37.6c-1.67-1.265-3.41-2.435-5.212-3.513
				L63.084,59.885z M61.642,57.587l18.935-42.097c-1.624-0.711-3.286-1.343-4.985-1.901L61.642,57.587z M70.855,56.38l30.826-25.01
				c-0.616-0.744-1.252-1.467-1.905-2.178L70.855,56.38z M66.312,57.785l30.065-31.991c-1.029-0.947-2.104-1.852-3.207-2.728
				L66.312,57.785z M61.406,87.503l5.692,36.716c0.777-0.128,1.554-0.265,2.323-0.426L61.406,87.503z M40.731,77.476L7.397,94.939
				c0.385,0.715,0.794,1.422,1.211,2.124L40.731,77.476z M47.641,74.748L9.273,98.142c0.827,1.323,1.699,2.616,2.629,3.86
				L47.641,74.748z M42.099,80.571l-29.415,22.431c0.479,0.616,0.967,1.219,1.47,1.81L42.099,80.571z M48.005,72.231L4.541,88.76
				c0.678,1.728,1.438,3.41,2.277,5.047L48.005,72.231z M49.861,69.28L0.927,74.136c0.289,2.625,0.752,5.196,1.38,7.7L49.861,69.28z
				 M51.923,74.959l-32.859,34.976c1.633,1.496,3.356,2.898,5.15,4.199L51.923,74.959z M46.219,71.553L2.639,83.064
				c0.422,1.529,0.894,3.038,1.439,4.513L46.219,71.553z M54.296,80.691L40.97,122.479c1.327,0.409,2.674,0.773,4.042,1.087
				L54.296,80.691z M36.742,121.007c0.992,0.393,2.013,0.76,3.03,1.095l12.42-38.997L36.742,121.007z M55.056,10.786
				c-2.302,0.103-4.567,0.355-6.795,0.723l8.506,47.437L55.056,10.786z M56.102,78.327l-9.854,45.52
				c1.806,0.368,3.646,0.649,5.51,0.843L56.102,78.327z M57.966,80.882l-1.314,44.089c0.356,0.008,0.707,0.029,1.062,0.029
				c1.087,0,2.167-0.037,3.237-0.099L57.966,80.882z M37.565,69.222L0.646,70.553c0.037,0.777,0.099,1.55,0.165,2.319L37.565,69.222
				z M14.985,105.772c1.008,1.137,2.066,2.232,3.162,3.286l30.599-32.57L14.985,105.772z M52.432,76.438l-27.18,38.431
				c1.62,1.124,3.303,2.17,5.039,3.125L52.432,76.438z M52.461,79.08l-21.047,39.502c1.356,0.703,2.732,1.368,4.146,1.963
				L52.461,79.08z M47.013,11.732c-1.814,0.347-3.6,0.777-5.348,1.29l13.545,44.433L47.013,11.732z M47.294,50.618L29.157,18.374
				c-0.674,0.393-1.339,0.794-1.992,1.211L47.294,50.618z M51.961,51.147L40.445,13.381c-0.901,0.285-1.798,0.595-2.683,0.926
				L51.961,51.147z M53.974,59.905L36.585,14.77c-2.178,0.868-4.29,1.856-6.324,2.972L53.974,59.905z M49.258,59.955L17.708,27.079
				c-1.186,1.166-2.323,2.389-3.406,3.654L49.258,59.955z M0.717,64.1c-0.083,1.244-0.136,2.497-0.136,3.761
				c0,0.475,0.025,0.946,0.033,1.422l45.875-1.653L0.717,64.1z M48.451,66.51L1.725,56.429c-0.426,2.096-0.723,4.232-0.913,6.407
				L48.451,66.51z M44.5,61.021L7.823,40.024c-0.587,1.05-1.149,2.112-1.67,3.199L44.5,61.021z M46.612,63.406L5.628,44.385
				c-0.657,1.451-1.257,2.935-1.79,4.451L46.612,63.406z M47.15,64.931L3.428,50.039c-0.554,1.682-1.025,3.402-1.422,5.15
				L47.15,64.931z M50.667,58.149L26.095,20.267c-1.323,0.885-2.604,1.823-3.844,2.811L50.667,58.149z M51.8,63.737L13.481,31.7
				c-1.856,2.269-3.534,4.683-5.026,7.221L51.8,63.737z M47.691,56.487l-26.432-32.62c-0.905,0.748-1.777,1.529-2.629,2.335
				L47.691,56.487z"/>
		</g>
	</g>
</g>
</svg>
