<?xml version="1.0" encoding="utf-8"?>
<!-- Generator: Adobe Illustrator 24.1.1, SVG Export Plug-In . SVG Version: 6.00 Build 0)  -->
<svg version="1.1" id="Layer_1" xmlns="http://www.w3.org/2000/svg" xmlns:xlink="http://www.w3.org/1999/xlink" x="0px" y="0px"
	 width="150px" height="48px" viewBox="0 0 150 48" enable-background="new 0 0 150 48" xml:space="preserve">
<g>
	<rect x="0.619" y="0.5" fill="#FFFFFF" stroke="#000000" stroke-miterlimit="10" width="33.16" height="47"/>
	<path fill="#8A0304" d="M2.179,30.343v13.863c0,1.089,0.883,1.972,1.972,1.972h26.105c1.089,0,1.972-0.883,1.972-1.972V30.342
		L2.179,30.343z"/>
	<path fill="#EC1C24" d="M22.633,22.071c1.468-1.282,2.899-3.383,2.72-5.7c-0.211-2.506-2.169-6.725-3.668-10.08
		c-1.251-2.8-2.323-5.117-2.323-5.117s1.078,4.089-3.03,8.909c-1.234,1.448-2.955,3.188-4.538,5.096
		c-0.636,0.922-3.03,3.774-0.04,6.911c2.144,2.249,5.483,3.804,5.483,3.804S19.81,24.866,22.633,22.071"/>
	<linearGradient id="SVGID_1_" gradientUnits="userSpaceOnUse" x1="17.6859" y1="6.7495" x2="17.6859" y2="25.119">
		<stop  offset="0" style="stop-color:#F5EA16"/>
		<stop  offset="1" style="stop-color:#F16E22"/>
	</linearGradient>
	<path fill="url(#SVGID_1_)" d="M17.237,25.119c0,0,5.311-2.438,5.526-7.748c0.187-4.612-2.84-10.622-2.84-10.622
		s0.74,3.742-3.423,8.128c-3.891,4.099-4.963,5.371-2.792,7.941C14.869,24.194,17.237,25.119,17.237,25.119z"/>
	<path fill="#8A0304" d="M30.255,1.636h-8.932c1.775,2.196,6.262,7.628,6.164,13.366c-0.077,8.073-8.79,10.694-10.25,11.297
		c-0.75-0.297-4.909-2.039-7.205-4.916c-3.383-4.238,0.899-8.867,4.721-13.37c2.659-3.132,3.549-5.44,3.826-6.378H4.15
		c-1.089,0-1.972,0.883-1.972,1.972V27.04c0.451,0.182,1.542,0.575,2.562,0.575c3.754,0,4.56-0.929,8.116-0.57
		c2.587,0.261,4.38,2.46,4.38,2.46s1.97-2.398,4.628-2.584c2.658-0.186,3.716,0.383,6.765,0.632c1.711,0.14,2.615-0.188,3.596-0.552
		V3.607C32.227,2.518,31.344,1.636,30.255,1.636z"/>
	<g>
		<path fill="#FFFFFF" d="M3.085,37.886v-2.535h0.097c0.101,0.823,0.217,1.422,0.35,1.796c0.133,0.375,0.292,0.562,0.478,0.562
			c0.112,0,0.203-0.057,0.273-0.171c0.07-0.114,0.106-0.265,0.106-0.454c0-0.223-0.044-0.474-0.131-0.755
			c-0.087-0.28-0.234-0.633-0.439-1.057c-0.04-0.081-0.098-0.201-0.174-0.358c-0.36-0.715-0.54-1.27-0.54-1.663
			c0-0.372,0.083-0.687,0.248-0.943c0.165-0.257,0.364-0.385,0.597-0.385c0.103,0,0.198,0.028,0.285,0.083
			c0.087,0.055,0.173,0.143,0.258,0.263l0.335-0.338h0.064v2.366H4.796c-0.074-0.723-0.175-1.27-0.304-1.641
			C4.364,32.285,4.213,32.1,4.041,32.1c-0.098,0-0.176,0.047-0.233,0.142c-0.057,0.094-0.086,0.224-0.086,0.389
			c0,0.181,0.041,0.392,0.122,0.633c0.082,0.241,0.245,0.608,0.491,1.101c0.007,0.013,0.016,0.031,0.027,0.055
			c0.481,0.972,0.721,1.713,0.721,2.221c0,0.38-0.083,0.684-0.25,0.912c-0.167,0.228-0.387,0.342-0.662,0.342
			c-0.127,0-0.243-0.03-0.347-0.09c-0.104-0.06-0.2-0.153-0.287-0.279l-0.386,0.362H3.085z"/>
		<path fill="#FFFFFF" d="M5.306,37.815v-0.114h0.252v-5.586H5.306v-0.114h2.287l0.034,2.182H7.529
			c-0.121-0.93-0.239-1.508-0.356-1.732c-0.116-0.224-0.311-0.336-0.584-0.336H6.382v2.665c0.188-0.037,0.328-0.164,0.419-0.381
			c0.092-0.218,0.144-0.549,0.158-0.995h0.097v2.905H6.959c-0.013-0.448-0.066-0.781-0.158-0.998
			c-0.092-0.217-0.231-0.343-0.419-0.377v2.768h0.221c0.253,0,0.444-0.146,0.574-0.438c0.13-0.292,0.247-0.886,0.352-1.783h0.097
			l-0.034,2.335H5.306z"/>
		<path fill="#FFFFFF" d="M8.257,32.599v4.194c0,0.322,0.029,0.544,0.087,0.666c0.058,0.122,0.16,0.202,0.305,0.242v0.114H7.744
			v-0.114c0.145-0.039,0.247-0.12,0.304-0.242c0.057-0.122,0.086-0.344,0.086-0.666v-4.678H7.845v-0.114h1.12l0.392,1.812
			c0.004,0.021,0.011,0.054,0.02,0.098c0.179,0.836,0.31,1.528,0.392,2.076h0.047v-2.964c0-0.328-0.028-0.55-0.084-0.668
			c-0.056-0.118-0.155-0.198-0.299-0.24v-0.114h0.899v0.114c-0.145,0.042-0.246,0.122-0.302,0.24s-0.084,0.341-0.084,0.668v4.792
			H9.324l-0.741-3.711c-0.047-0.233-0.093-0.474-0.139-0.721c-0.046-0.248-0.091-0.509-0.136-0.784H8.257z"/>
		<path fill="#FFFFFF" d="M10.397,37.815v-0.114h0.252v-5.586h-0.252v-0.114h1.134c0.474,0,0.809,0.214,1.005,0.641
			c0.196,0.427,0.293,1.183,0.293,2.268c0,1.082-0.098,1.837-0.293,2.264c-0.196,0.427-0.531,0.641-1.005,0.641H10.397z
			 M11.474,37.662h0.151c0.139,0,0.233-0.037,0.283-0.11c0.05-0.073,0.075-0.246,0.075-0.519v-0.071v-4.108
			c0-0.32-0.025-0.518-0.075-0.594c-0.05-0.076-0.145-0.114-0.283-0.114h-0.151V37.662z"/>
		<path fill="#FFFFFF" d="M12.936,37.815v-0.114c0.186-0.016,0.322-0.322,0.409-0.92l0.01-0.067l0.688-4.713h0.523l0.651,5.7h0.235
			v0.114h-1.318v-0.114h0.252l-0.114-1.054h-0.778c-0.025,0.149-0.042,0.274-0.052,0.373c-0.01,0.1-0.015,0.187-0.015,0.263
			c0,0.155,0.023,0.263,0.069,0.324c0.046,0.062,0.126,0.092,0.24,0.092v0.114H12.936z M14.258,36.494l-0.312-2.937l-0.433,2.937
			H14.258z"/>
		<path fill="#FFFFFF" d="M17.991,32.115h-0.225v-0.114h0.906v5.7H18.9v0.114h-0.892l-0.044-0.307
			c-0.058,0.128-0.124,0.223-0.196,0.285c-0.073,0.062-0.156,0.092-0.25,0.092c-0.237,0-0.411-0.173-0.522-0.519
			c-0.111-0.346-0.166-0.891-0.166-1.635c0-0.742,0.056-1.288,0.168-1.639c0.112-0.351,0.285-0.527,0.52-0.527
			c0.094,0,0.18,0.032,0.258,0.096c0.078,0.064,0.15,0.161,0.215,0.289V32.115z M17.551,37.202v0.067
			c0.002,0.149,0.013,0.243,0.032,0.281c0.019,0.038,0.054,0.057,0.106,0.057c0.074,0,0.143-0.08,0.206-0.24
			c0.064-0.16,0.096-0.349,0.096-0.566v-2.182c0-0.217-0.032-0.405-0.096-0.562c-0.064-0.157-0.133-0.236-0.206-0.236
			c-0.051,0-0.087,0.017-0.107,0.051c-0.02,0.034-0.03,0.104-0.03,0.208v0.138V37.202z"/>
		<path fill="#FFFFFF" d="M19.872,35.748v1.376c0,0.241,0.022,0.402,0.067,0.482c0.045,0.08,0.121,0.12,0.228,0.12
			c0.197,0,0.361-0.131,0.491-0.393s0.201-0.608,0.21-1.038h0.124c-0.013,0.514-0.098,0.907-0.253,1.181
			c-0.155,0.274-0.371,0.411-0.646,0.411c-0.32,0-0.56-0.181-0.721-0.543c-0.161-0.362-0.242-0.899-0.242-1.612
			c0-0.718,0.079-1.259,0.238-1.622c0.159-0.363,0.396-0.544,0.711-0.544c0.306,0,0.541,0.179,0.703,0.537
			c0.162,0.358,0.243,0.879,0.243,1.563v0.083H19.872z M19.872,34.281v1.321h0.413v-1.321c0-0.233-0.015-0.385-0.045-0.456
			c-0.03-0.071-0.083-0.106-0.159-0.106c-0.076,0-0.13,0.033-0.161,0.1C19.888,33.886,19.872,34.04,19.872,34.281z"/>
		<path fill="#FFFFFF" d="M22.395,32.115v-0.114h1.211v0.114h-0.201l0.426,3.841l0.399-3.066c0.009-0.071,0.016-0.14,0.02-0.206
			c0.004-0.067,0.007-0.128,0.007-0.183c0-0.131-0.021-0.225-0.062-0.283c-0.041-0.058-0.114-0.092-0.216-0.102l-0.003-0.114h0.728
			v0.114c-0.161,0.01-0.274,0.267-0.339,0.77c-0.004,0.037-0.008,0.064-0.01,0.083l-0.641,4.847h-0.506l-0.647-5.7H22.395z"/>
		<path fill="#FFFFFF" d="M24.739,37.815v-0.114h0.252v-5.586h-0.252v-0.114h1.332v0.114h-0.255v5.586h0.255v0.114H24.739z"/>
		<path fill="#FFFFFF" d="M26.265,37.815v-0.114h0.252v-5.586h-0.252v-0.114h1.134c0.474,0,0.809,0.214,1.005,0.641
			c0.196,0.427,0.293,1.183,0.293,2.268c0,1.082-0.098,1.837-0.293,2.264c-0.196,0.427-0.531,0.641-1.005,0.641H26.265z
			 M27.342,37.662h0.151c0.139,0,0.233-0.037,0.283-0.11c0.05-0.073,0.075-0.246,0.075-0.519v-0.071v-4.108
			c0-0.32-0.025-0.518-0.075-0.594c-0.05-0.076-0.145-0.114-0.283-0.114h-0.151V37.662z"/>
		<path fill="#FFFFFF" d="M28.804,37.815v-0.114c0.186-0.016,0.322-0.322,0.409-0.92l0.01-0.067l0.688-4.713h0.523l0.651,5.7h0.235
			v0.114h-1.318v-0.114h0.252l-0.114-1.054h-0.778c-0.025,0.149-0.042,0.274-0.052,0.373c-0.01,0.1-0.015,0.187-0.015,0.263
			c0,0.155,0.023,0.263,0.069,0.324c0.046,0.062,0.126,0.092,0.24,0.092v0.114H28.804z M30.126,36.494l-0.312-2.937l-0.433,2.937
			H30.126z"/>
		<path fill="#FFFFFF" d="M4.515,44.52v-0.11h0.259v-5.405H4.515v-0.11h1.102c0.493,0,0.839,0.119,1.038,0.356
			c0.199,0.237,0.299,0.651,0.299,1.242c0,0.586-0.099,0.998-0.297,1.238C6.458,41.97,6.12,42.09,5.644,42.09H5.623v2.32h0.332v0.11
			H4.515z M5.623,39.036v2.906h0.155c0.143,0,0.24-0.035,0.292-0.106s0.078-0.238,0.078-0.502v-0.076V39.72
			c0-0.309-0.026-0.501-0.078-0.574c-0.052-0.073-0.149-0.11-0.292-0.11H5.623z"/>
		<path fill="#FFFFFF" d="M7.447,39.005H7.187v-0.11h1.371v0.11H8.296v4.758c0,0.266,0.024,0.439,0.072,0.519
			c0.048,0.08,0.132,0.12,0.252,0.12c0.216,0,0.375-0.106,0.475-0.318c0.1-0.212,0.15-0.557,0.15-1.036v-3.165
			c0-0.317-0.029-0.533-0.088-0.647c-0.059-0.114-0.162-0.191-0.309-0.232v-0.11h0.926v0.11c-0.147,0.041-0.25,0.118-0.309,0.232
			c-0.059,0.114-0.088,0.33-0.088,0.647v3.351c0,0.479-0.076,0.825-0.228,1.036c-0.152,0.212-0.396,0.318-0.732,0.318
			c-0.228,0-0.422-0.052-0.582-0.156c-0.16-0.104-0.265-0.246-0.316-0.426c-0.025-0.086-0.044-0.185-0.055-0.297
			c-0.012-0.112-0.017-0.267-0.017-0.468v-0.312V39.005z"/>
		<path fill="#FFFFFF" d="M9.819,44.52v-0.11h0.259v-5.405H9.819v-0.11h1.222c0.421,0,0.735,0.114,0.941,0.342
			c0.206,0.228,0.309,0.574,0.309,1.038c0,0.365-0.072,0.657-0.216,0.877c-0.144,0.219-0.345,0.343-0.603,0.371v0.091
			c0.285,0.079,0.498,0.238,0.639,0.479c0.14,0.241,0.211,0.569,0.211,0.985c0,0.456-0.107,0.811-0.321,1.063
			c-0.214,0.252-0.516,0.378-0.905,0.378H9.819z M10.928,41.489h0.155c0.143,0,0.24-0.036,0.292-0.108
			c0.052-0.072,0.078-0.24,0.078-0.504v-0.072V39.72c0-0.309-0.026-0.501-0.078-0.574c-0.052-0.073-0.149-0.11-0.292-0.11h-0.155
			V41.489z M10.928,44.372h0.155c0.143,0,0.24-0.036,0.292-0.107c0.052-0.071,0.078-0.238,0.078-0.502v-0.068v-1.373
			c0-0.309-0.026-0.501-0.078-0.574c-0.052-0.074-0.149-0.11-0.292-0.11h-0.155V44.372z"/>
		<path fill="#FFFFFF" d="M12.606,44.52v-0.11h0.259v-5.405h-0.259v-0.11h1.371v0.11h-0.262v5.405h0.228
			c0.26,0,0.457-0.141,0.591-0.424c0.133-0.283,0.254-0.858,0.363-1.725h0.1l-0.035,2.259H12.606z"/>
		<path fill="#FFFFFF" d="M15.258,44.52v-0.11h0.259v-5.405h-0.259v-0.11h1.371v0.11h-0.262v5.405h0.262v0.11H15.258z"/>
		<path fill="#FFFFFF" d="M16.871,44.589v-2.453h0.1c0.104,0.796,0.224,1.376,0.361,1.738c0.137,0.363,0.301,0.544,0.492,0.544
			c0.115,0,0.209-0.055,0.281-0.165c0.072-0.11,0.109-0.257,0.109-0.439c0-0.216-0.045-0.459-0.135-0.73
			c-0.09-0.271-0.241-0.612-0.452-1.023c-0.041-0.079-0.101-0.194-0.18-0.346c-0.371-0.692-0.556-1.228-0.556-1.609
			c0-0.36,0.085-0.664,0.256-0.913c0.17-0.248,0.375-0.373,0.615-0.373c0.106,0,0.204,0.027,0.294,0.08
			c0.09,0.053,0.178,0.138,0.266,0.255l0.345-0.327h0.066v2.29h-0.1c-0.076-0.7-0.18-1.229-0.312-1.588
			c-0.132-0.359-0.287-0.538-0.465-0.538c-0.101,0-0.181,0.046-0.24,0.137c-0.059,0.091-0.088,0.217-0.088,0.376
			c0,0.175,0.042,0.379,0.126,0.612c0.084,0.233,0.253,0.588,0.506,1.065c0.007,0.013,0.016,0.03,0.028,0.053
			c0.495,0.941,0.742,1.657,0.742,2.149c0,0.368-0.086,0.662-0.257,0.882c-0.172,0.221-0.399,0.331-0.682,0.331
			c-0.131,0-0.25-0.029-0.357-0.087c-0.107-0.058-0.205-0.148-0.295-0.27l-0.397,0.35H16.871z"/>
		<path fill="#FFFFFF" d="M19.157,44.52v-0.11h0.259v-5.405h-0.259v-0.11h1.271v0.11h-0.162v2.484h0.525v-2.484h-0.162v-0.11h1.278
			v0.11h-0.259v5.405h0.259v0.11h-1.278v-0.11h0.162v-2.773h-0.525v2.773h0.162v0.11H19.157z"/>
		<path fill="#FFFFFF" d="M22.106,44.52v-0.11h0.259v-5.405h-0.259v-0.11h2.355l0.035,2.111h-0.1
			c-0.124-0.9-0.246-1.459-0.366-1.676c-0.12-0.217-0.32-0.325-0.601-0.325h-0.214v2.579c0.193-0.035,0.337-0.158,0.432-0.369
			c0.094-0.21,0.148-0.531,0.162-0.962h0.1v2.811h-0.1c-0.014-0.434-0.068-0.756-0.162-0.966c-0.094-0.21-0.238-0.332-0.432-0.365
			v2.678h0.228c0.26,0,0.457-0.141,0.591-0.424c0.133-0.283,0.254-0.858,0.363-1.725h0.1l-0.035,2.259H22.106z"/>
		<path fill="#FFFFFF" d="M25.867,44.418h0.332v0.103h-1.44v-0.103h0.259v-5.412h-0.259v-0.11h1.102
			c0.497,0,0.847,0.105,1.048,0.316c0.201,0.21,0.302,0.573,0.302,1.088c0,0.416-0.063,0.72-0.19,0.911
			c-0.127,0.192-0.358,0.339-0.694,0.443v0.087c0.327,0.074,0.556,0.222,0.687,0.445c0.131,0.223,0.197,0.607,0.197,1.153v0.723
			c0,0.094,0.013,0.162,0.04,0.203c0.026,0.042,0.067,0.063,0.123,0.063c0.076,0,0.134-0.061,0.174-0.183
			c0.04-0.122,0.06-0.298,0.06-0.529h0.1c0,0.018,0.001,0.042,0.003,0.072c0.002,0.03,0.003,0.053,0.003,0.068
			c0,0.284-0.054,0.494-0.162,0.63c-0.108,0.136-0.276,0.203-0.504,0.203c-0.23,0-0.396-0.07-0.497-0.211
			c-0.101-0.141-0.152-0.376-0.152-0.706v-1.27c0-0.269-0.035-0.441-0.105-0.517c-0.07-0.076-0.211-0.122-0.423-0.137L25.867,44.418
			z M25.867,39.036v2.564h0.155c0.143,0,0.24-0.036,0.292-0.108c0.052-0.072,0.078-0.242,0.078-0.508v-0.068V39.72
			c0-0.309-0.026-0.501-0.078-0.574c-0.052-0.073-0.149-0.11-0.292-0.11H25.867z"/>
		<path fill="#FFFFFF" d="M27.749,44.589v-2.453h0.1c0.104,0.796,0.224,1.376,0.361,1.738c0.137,0.363,0.301,0.544,0.492,0.544
			c0.115,0,0.209-0.055,0.281-0.165c0.072-0.11,0.109-0.257,0.109-0.439c0-0.216-0.045-0.459-0.135-0.73
			c-0.09-0.271-0.241-0.612-0.452-1.023c-0.041-0.079-0.101-0.194-0.18-0.346c-0.371-0.692-0.556-1.228-0.556-1.609
			c0-0.36,0.085-0.664,0.256-0.913c0.17-0.248,0.375-0.373,0.615-0.373c0.106,0,0.204,0.027,0.294,0.08
			c0.09,0.053,0.178,0.138,0.266,0.255l0.345-0.327h0.066v2.29h-0.1c-0.076-0.7-0.18-1.229-0.312-1.588
			c-0.132-0.359-0.287-0.538-0.465-0.538c-0.101,0-0.181,0.046-0.24,0.137c-0.059,0.091-0.088,0.217-0.088,0.376
			c0,0.175,0.042,0.379,0.126,0.612c0.084,0.233,0.253,0.588,0.506,1.065c0.007,0.013,0.016,0.03,0.028,0.053
			c0.495,0.941,0.742,1.657,0.742,2.149c0,0.368-0.086,0.662-0.257,0.882c-0.172,0.221-0.399,0.331-0.682,0.331
			c-0.131,0-0.25-0.029-0.357-0.087c-0.107-0.058-0.205-0.148-0.295-0.27l-0.397,0.35H27.749z"/>
	</g>
	<g>
		<path fill="#999999" d="M37.605,24.239v0.852c0,1.196,0.209,2.052,0.627,2.568c0.418,0.516,1.065,0.774,1.942,0.774
			c0.865,0,1.516-0.276,1.951-0.83c0.435-0.561,0.653-1.308,0.653-2.242c0-0.867-0.104-1.502-0.313-1.906
			c-0.209-0.404-0.561-0.729-1.056-0.975l-2.837-1.379c-0.979-0.486-1.623-1.076-1.933-1.772c-0.304-0.695-0.456-1.547-0.456-2.556
			c0-1.375,0.352-2.508,1.056-3.397c0.71-0.889,1.626-1.334,2.748-1.334c1.265,0,2.235,0.392,2.909,1.177
			c0.68,0.778,1.02,1.734,1.02,2.87c0,0.262-0.009,0.527-0.027,0.796h-1.566c0.018-0.179,0.027-0.385,0.027-0.617
			c-0.012-0.658-0.212-1.237-0.6-1.738c-0.388-0.508-0.901-0.762-1.54-0.762c-0.859,0-1.486,0.254-1.88,0.762
			c-0.388,0.501-0.582,1.271-0.582,2.31c0,1.159,0.453,1.958,1.36,2.399l2.497,1.2c1.068,0.523,1.79,1.11,2.166,1.76
			c0.382,0.65,0.573,1.551,0.573,2.702c0,1.577-0.358,2.848-1.074,3.812c-0.716,0.964-1.775,1.446-3.177,1.446
			c-1.247,0-2.235-0.422-2.963-1.267c-0.728-0.845-1.092-2.164-1.092-3.958v-0.695H37.605z"/>
		<path fill="#999999" d="M46.582,29.71V12.488h6.82v1.727h-5.299v5.696h4.968v1.727h-4.968v6.346h5.343v1.727H46.582z"/>
		<path fill="#999999" d="M55.801,12.488h2.497l4.377,15.608V12.488h1.522V29.71H61.7l-4.377-15.675V29.71h-1.522V12.488z"/>
		<path fill="#999999" d="M67.088,29.71V12.488h3.804c1.575,0,2.757,0.591,3.544,1.772c0.794,1.181,1.19,3.416,1.19,6.705
			c0,2.826-0.361,4.99-1.083,6.492c-0.722,1.502-1.874,2.254-3.455,2.254H67.088z M68.61,27.983h2.408
			c1.05,0,1.82-0.501,2.309-1.502c0.489-1.002,0.734-2.833,0.734-5.494c0-2.22-0.224-3.902-0.671-5.046
			c-0.448-1.151-1.259-1.727-2.435-1.727H68.61V27.983z"/>
		<path fill="#999999" d="M76.978,29.71l3.867-17.222h2.023l3.867,17.222h-1.692l-1.056-4.933h-4.332L78.67,29.71H76.978z
			 M80.022,23.05h3.598l-1.799-9.284L80.022,23.05z"/>
		<path fill="#999999" d="M97.869,18.431v-5.943h1.45V29.71h-1.405v-1.816c-0.269,0.703-0.582,1.237-0.94,1.603
			c-0.358,0.366-0.88,0.549-1.566,0.549c-0.943,0-1.677-0.489-2.202-1.469c-0.519-0.987-0.779-2.941-0.779-5.864
			c0-1.757,0.262-3.207,0.788-4.35c0.525-1.151,1.277-1.727,2.256-1.727C96.467,16.637,97.266,17.235,97.869,18.431z M93.922,23.386
			c0,1.981,0.152,3.33,0.456,4.048c0.31,0.718,0.811,1.076,1.504,1.076c0.621,0,1.107-0.351,1.459-1.054
			c0.352-0.71,0.528-1.644,0.528-2.803v-1.637c0-1.697-0.158-2.926-0.474-3.689c-0.316-0.77-0.821-1.155-1.513-1.155
			C94.575,18.173,93.922,19.911,93.922,23.386z"/>
		<path fill="#999999" d="M103.016,23.465v0.953c0,1.592,0.17,2.672,0.51,3.24c0.346,0.568,0.8,0.852,1.36,0.852
			c0.543,0,0.964-0.22,1.262-0.661c0.298-0.449,0.457-1.043,0.474-1.783c0-0.224,0.006-0.43,0.018-0.617h1.316v0.437
			c0,1.174-0.269,2.16-0.806,2.96c-0.531,0.8-1.301,1.2-2.309,1.2c-2.214,0-3.321-2.235-3.321-6.705c0-2.07,0.283-3.704,0.85-4.9
			c0.567-1.203,1.384-1.805,2.452-1.805c1.152,0,1.972,0.467,2.461,1.402c0.495,0.934,0.743,2.743,0.743,5.427H103.016z
			 M106.533,21.974c0-1.532-0.155-2.549-0.465-3.05c-0.304-0.501-0.698-0.751-1.181-0.751c-0.674,0-1.149,0.295-1.423,0.886
			c-0.275,0.591-0.424,1.562-0.448,2.915H106.533z"/>
		<path fill="#999999" d="M118.545,28.365l3.258-15.877h1.692l-4.01,17.222h-1.88l-4.01-17.222h1.692L118.545,28.365z"/>
		<path fill="#999999" d="M125.455,12.488h1.522V29.71h-1.522V12.488z"/>
		<path fill="#999999" d="M130.234,29.71V12.488h3.804c1.575,0,2.757,0.591,3.544,1.772c0.794,1.181,1.19,3.416,1.19,6.705
			c0,2.826-0.361,4.99-1.083,6.492c-0.722,1.502-1.874,2.254-3.455,2.254H130.234z M131.756,27.983h2.408
			c1.05,0,1.82-0.501,2.309-1.502c0.489-1.002,0.734-2.833,0.734-5.494c0-2.22-0.224-3.902-0.671-5.046
			c-0.448-1.151-1.259-1.727-2.435-1.727h-2.345V27.983z"/>
		<path fill="#999999" d="M140.125,29.71l3.867-17.222h2.023l3.867,17.222h-1.692l-1.056-4.933h-4.332l-0.985,4.933H140.125z
			 M143.168,23.05h3.598l-1.799-9.284L143.168,23.05z"/>
	</g>
	<g>
		<g>
			<path fill="#8A0304" d="M37.344,24.046v0.852c0,1.196,0.209,2.052,0.627,2.568c0.418,0.516,1.065,0.774,1.942,0.774
				c0.865,0,1.516-0.276,1.951-0.83c0.435-0.561,0.653-1.308,0.653-2.242c0-0.867-0.104-1.502-0.313-1.906
				c-0.209-0.404-0.561-0.729-1.056-0.975l-2.837-1.379c-0.979-0.486-1.623-1.076-1.933-1.772c-0.304-0.695-0.456-1.547-0.456-2.556
				c0-1.375,0.352-2.508,1.056-3.397c0.71-0.889,1.626-1.334,2.748-1.334c1.265,0,2.235,0.392,2.909,1.177
				c0.68,0.778,1.02,1.734,1.02,2.87c0,0.262-0.009,0.527-0.027,0.796h-1.566c0.018-0.179,0.027-0.385,0.027-0.617
				c-0.012-0.658-0.212-1.237-0.6-1.738c-0.388-0.508-0.901-0.762-1.54-0.762c-0.859,0-1.486,0.254-1.88,0.762
				c-0.388,0.501-0.582,1.271-0.582,2.31c0,1.159,0.453,1.958,1.36,2.399l2.497,1.2c1.068,0.523,1.79,1.11,2.166,1.76
				c0.382,0.65,0.573,1.551,0.573,2.702c0,1.577-0.358,2.848-1.074,3.812c-0.716,0.964-1.775,1.446-3.177,1.446
				c-1.247,0-2.235-0.422-2.963-1.267c-0.728-0.845-1.092-2.164-1.092-3.958v-0.695H37.344z"/>
			<path fill="#8A0304" d="M46.322,29.517V12.295h6.82v1.727h-5.299v5.696h4.968v1.727h-4.968v6.346h5.343v1.727H46.322z"/>
			<path fill="#8A0304" d="M55.541,12.295h2.497l4.377,15.608V12.295h1.522v17.222h-2.497l-4.377-15.675v15.675h-1.522V12.295z"/>
			<path fill="#8A0304" d="M66.827,29.517V12.295h3.804c1.575,0,2.757,0.591,3.544,1.772c0.794,1.181,1.19,3.416,1.19,6.705
				c0,2.826-0.361,4.99-1.083,6.492c-0.722,1.502-1.874,2.254-3.455,2.254H66.827z M68.349,27.791h2.408
				c1.05,0,1.82-0.501,2.309-1.502c0.489-1.002,0.734-2.833,0.734-5.494c0-2.22-0.224-3.902-0.671-5.046
				c-0.448-1.151-1.259-1.727-2.435-1.727h-2.345V27.791z"/>
			<path fill="#8A0304" d="M76.718,29.517l3.867-17.222h2.023l3.867,17.222h-1.692l-1.056-4.933h-4.332l-0.985,4.933H76.718z
				 M79.761,22.857h3.598l-1.799-9.284L79.761,22.857z"/>
			<path fill="#8A0304" d="M97.608,18.238v-5.943h1.45v17.222h-1.405v-1.816c-0.269,0.703-0.582,1.237-0.94,1.603
				c-0.358,0.366-0.88,0.549-1.566,0.549c-0.943,0-1.677-0.489-2.202-1.469c-0.519-0.987-0.779-2.941-0.779-5.864
				c0-1.757,0.262-3.207,0.788-4.35c0.525-1.151,1.277-1.727,2.256-1.727C96.206,16.444,97.006,17.042,97.608,18.238z
				 M93.661,23.194c0,1.981,0.152,3.33,0.456,4.048c0.31,0.718,0.811,1.076,1.504,1.076c0.621,0,1.107-0.351,1.459-1.054
				c0.352-0.71,0.528-1.644,0.528-2.803v-1.637c0-1.697-0.158-2.926-0.474-3.689c-0.316-0.77-0.821-1.155-1.513-1.155
				C94.315,17.98,93.661,19.718,93.661,23.194z"/>
			<path fill="#8A0304" d="M102.755,23.272v0.953c0,1.592,0.17,2.672,0.51,3.24c0.346,0.568,0.8,0.852,1.36,0.852
				c0.543,0,0.964-0.22,1.262-0.661c0.298-0.449,0.457-1.043,0.474-1.783c0-0.224,0.006-0.43,0.018-0.617h1.316v0.437
				c0,1.174-0.269,2.16-0.806,2.96c-0.531,0.8-1.301,1.2-2.309,1.2c-2.214,0-3.321-2.235-3.321-6.705c0-2.07,0.283-3.704,0.85-4.9
				c0.567-1.203,1.384-1.805,2.452-1.805c1.152,0,1.972,0.467,2.461,1.402c0.495,0.934,0.743,2.743,0.743,5.427H102.755z
				 M106.273,21.781c0-1.532-0.155-2.549-0.465-3.05c-0.304-0.501-0.698-0.751-1.181-0.751c-0.674,0-1.149,0.295-1.423,0.886
				c-0.275,0.591-0.424,1.562-0.448,2.915H106.273z"/>
			<path fill="#8A0304" d="M118.284,28.172l3.258-15.877h1.692l-4.01,17.222h-1.88l-4.01-17.222h1.692L118.284,28.172z"/>
			<path fill="#8A0304" d="M125.194,12.295h1.522v17.222h-1.522V12.295z"/>
			<path fill="#8A0304" d="M129.974,29.517V12.295h3.804c1.575,0,2.757,0.591,3.544,1.772c0.794,1.181,1.19,3.416,1.19,6.705
				c0,2.826-0.361,4.99-1.083,6.492c-0.722,1.502-1.874,2.254-3.455,2.254H129.974z M131.495,27.791h2.408
				c1.05,0,1.82-0.501,2.309-1.502c0.489-1.002,0.734-2.833,0.734-5.494c0-2.22-0.224-3.902-0.671-5.046
				c-0.448-1.151-1.259-1.727-2.435-1.727h-2.345V27.791z"/>
			<path fill="#8A0304" d="M139.864,29.517l3.867-17.222h2.023l3.867,17.222h-1.692l-1.056-4.933h-4.332l-0.985,4.933H139.864z
				 M142.907,22.857h3.598l-1.799-9.284L142.907,22.857z"/>
		</g>
	</g>
	<g>
		<path fill="#1481A3" d="M36.13,9.448V1.828h3.781v0.764h-2.937v2.52h2.754v0.764h-2.754v2.808h2.962v0.764H36.13z"/>
		<path fill="#1481A3" d="M43.954,4.457v-2.63h0.804v7.621h-0.779V8.645c-0.149,0.311-0.322,0.548-0.521,0.709
			C43.26,9.516,42.97,9.597,42.59,9.597c-0.523,0-0.93-0.217-1.221-0.65c-0.288-0.437-0.432-1.301-0.432-2.595
			c0-0.777,0.146-1.419,0.437-1.925c0.291-0.509,0.708-0.764,1.25-0.764C43.177,3.663,43.62,3.928,43.954,4.457z M41.766,6.65
			c0,0.877,0.084,1.474,0.253,1.791c0.172,0.318,0.45,0.476,0.834,0.476c0.344,0,0.614-0.155,0.809-0.466
			c0.195-0.314,0.293-0.728,0.293-1.24V6.487c0-0.751-0.088-1.295-0.263-1.632c-0.175-0.341-0.455-0.511-0.838-0.511
			C42.128,4.343,41.766,5.112,41.766,6.65z"/>
		<path fill="#1481A3" d="M46.271,1.838h0.804V2.86h-0.804V1.838z M46.271,3.812h0.804v5.636h-0.804V3.812z"/>
		<path fill="#1481A3" d="M47.898,4.492v-0.68h0.779V2.304h0.804v1.508h0.953v0.68h-0.953v3.84c0,0.172,0.021,0.288,0.065,0.347
			c0.046,0.06,0.162,0.089,0.347,0.089h0.516v0.68h-0.893c-0.327,0-0.549-0.066-0.665-0.198c-0.116-0.136-0.174-0.372-0.174-0.709
			V4.492H47.898z"/>
		<path fill="#1481A3" d="M51.138,6.422c0-0.896,0.169-1.579,0.506-2.049c0.341-0.473,0.845-0.71,1.513-0.71
			c0.645,0,1.136,0.24,1.474,0.719c0.341,0.476,0.511,1.148,0.511,2.014c0,1.068-0.154,1.869-0.461,2.401
			c-0.304,0.533-0.807,0.799-1.508,0.799c-0.721,0-1.24-0.245-1.558-0.734C51.297,8.37,51.138,7.557,51.138,6.422z M51.967,6.685
			c0,0.774,0.093,1.34,0.278,1.697c0.189,0.357,0.488,0.536,0.898,0.536c0.43,0,0.733-0.187,0.908-0.561
			c0.175-0.374,0.263-0.931,0.263-1.672c0-0.834-0.091-1.432-0.273-1.796c-0.182-0.364-0.483-0.546-0.903-0.546
			c-0.4,0-0.696,0.179-0.888,0.536C52.061,5.236,51.967,5.838,51.967,6.685z"/>
		<path fill="#1481A3" d="M56.531,9.448V3.812h0.779v0.883c0.291-0.688,0.784-1.032,1.479-1.032c0.073,0,0.144,0.003,0.213,0.01
			v0.799c-0.069-0.02-0.182-0.03-0.337-0.03c-0.42,0-0.748,0.139-0.982,0.417c-0.232,0.278-0.347,0.647-0.347,1.106v3.483H56.531z"
			/>
		<path fill="#1481A3" d="M59.816,1.838h0.804V2.86h-0.804V1.838z M59.816,3.812h0.804v5.636h-0.804V3.812z"/>
		<path fill="#1481A3" d="M61.88,5.33V5.132c0-0.979,0.559-1.469,1.677-1.469c0.506,0,0.89,0.122,1.151,0.367
			c0.265,0.245,0.397,0.569,0.397,0.972v3.498c0,0.241,0.109,0.362,0.327,0.362c0.053,0,0.107-0.003,0.164-0.01v0.58
			c-0.096,0.04-0.218,0.06-0.367,0.06c-0.291,0-0.496-0.063-0.615-0.189c-0.116-0.129-0.179-0.351-0.189-0.665
			c-0.119,0.285-0.301,0.516-0.546,0.695c-0.241,0.175-0.496,0.263-0.764,0.263c-0.972,0-1.459-0.541-1.459-1.622
			c0-0.698,0.299-1.171,0.898-1.419l1.459-0.59c0.129-0.053,0.22-0.116,0.273-0.189c0.053-0.073,0.079-0.22,0.079-0.442
			c0-0.43-0.078-0.703-0.233-0.819c-0.156-0.116-0.38-0.174-0.675-0.174c-0.308,0-0.526,0.063-0.655,0.189
			c-0.129,0.126-0.194,0.326-0.194,0.6V5.33H61.88z M64.301,6.392c-0.281,0.172-0.703,0.369-1.265,0.59
			C62.669,7.135,62.485,7.474,62.485,8c0,0.612,0.268,0.918,0.804,0.918c0.291,0,0.533-0.109,0.724-0.328
			c0.192-0.222,0.288-0.488,0.288-0.799V6.392z"/>
		<path fill="#1481A3" d="M66.583,9.448V1.828h0.804v7.621H66.583z"/>
	</g>
	<g>
		<path fill="#5F34A3" d="M36.011,41.336h0.946l1.091,4.258l1.085-4.258h0.946v4.845h-0.536v-4.504l-1.18,4.504h-0.637l-1.18-4.504
			v4.504h-0.536V41.336z"/>
		<path fill="#5F34A3" d="M41.178,41.336h0.536v4.845h-0.536V41.336z"/>
		<path fill="#5F34A3" d="M42.402,46.181l1.363-4.845h0.713l1.363,4.845h-0.596l-0.372-1.388h-1.527l-0.347,1.388H42.402z
			 M43.474,44.307h1.268l-0.634-2.612L43.474,44.307z"/>
		<path fill="#5F34A3" d="M46.423,41.336h0.946l1.091,4.258l1.085-4.258h0.946v4.845h-0.536v-4.504l-1.18,4.504h-0.637l-1.18-4.504
			v4.504h-0.536V41.336z"/>
		<path fill="#5F34A3" d="M51.589,41.336h0.536v4.845h-0.536V41.336z"/>
		<path fill="#5F34A3" d="M53.261,46.846c0.208-0.048,0.312-0.27,0.312-0.666h-0.312v-0.656h0.587v0.65
			c0,0.521-0.196,0.843-0.587,0.965V46.846z"/>
		<path fill="#5F34A3" d="M56.453,46.181v-4.845h2.252v0.486h-1.716v1.577h1.59v0.486h-1.59v2.296H56.453z"/>
		<path fill="#5F34A3" d="M59.38,41.336h0.536v4.359h1.968v0.486H59.38V41.336z"/>
		<path fill="#5F34A3" d="M62.458,43.579c0-0.776,0.131-1.365,0.394-1.766c0.265-0.402,0.667-0.602,1.205-0.602
			c0.521,0,0.915,0.185,1.18,0.555c0.265,0.37,0.397,1.008,0.397,1.915c0,1.007-0.135,1.697-0.404,2.069
			c-0.269,0.372-0.66,0.558-1.173,0.558c-0.58,0-0.992-0.199-1.236-0.596C62.579,45.314,62.458,44.603,62.458,43.579z M63.01,43.614
			c0,0.841,0.074,1.419,0.221,1.735c0.147,0.315,0.422,0.473,0.823,0.473c0.397,0,0.668-0.162,0.811-0.486
			c0.145-0.324,0.218-0.903,0.218-1.738c0-1.268-0.351-1.902-1.053-1.902C63.35,41.696,63.01,42.335,63.01,43.614z"/>
		<path fill="#5F34A3" d="M69.646,46.181h-0.637c-0.059-0.219-0.099-0.416-0.12-0.593c-0.021-0.177-0.032-0.357-0.032-0.543
			c0-0.343-0.075-0.592-0.224-0.747c-0.149-0.158-0.352-0.237-0.609-0.237h-0.918v2.12h-0.536v-4.845h1.271
			c0.61,0,1.026,0.115,1.249,0.344c0.225,0.227,0.337,0.544,0.337,0.949c0,0.673-0.315,1.06-0.946,1.161
			c0.33,0.042,0.554,0.132,0.672,0.271c0.12,0.137,0.185,0.341,0.196,0.612c0.008,0.242,0.043,0.591,0.104,1.047
			c0.038,0.219,0.102,0.334,0.192,0.347V46.181z M68.877,42.686c0-0.576-0.339-0.864-1.016-0.864h-0.754v1.754h0.842
			C68.568,43.576,68.877,43.279,68.877,42.686z"/>
		<path fill="#5F34A3" d="M70.602,41.336h0.536v4.845h-0.536V41.336z"/>
		<path fill="#5F34A3" d="M72.286,46.181v-4.845h1.34c0.555,0,0.971,0.166,1.249,0.498c0.28,0.332,0.419,0.961,0.419,1.886
			c0,0.795-0.127,1.404-0.382,1.826c-0.254,0.423-0.66,0.634-1.217,0.634H72.286z M72.822,45.695h0.848
			c0.37,0,0.641-0.141,0.814-0.423c0.172-0.282,0.259-0.797,0.259-1.545c0-0.625-0.079-1.098-0.237-1.419
			c-0.158-0.324-0.444-0.486-0.858-0.486h-0.826V45.695z"/>
		<path fill="#5F34A3" d="M75.771,46.181l1.363-4.845h0.713l1.363,4.845h-0.596l-0.372-1.388h-1.527l-0.347,1.388H75.771z
			 M76.844,44.307h1.268l-0.634-2.612L76.844,44.307z"/>
	</g>
	<g>
		<path d="M36.031,38.794v-6.412h1.774c0.735,0,1.286,0.22,1.653,0.66c0.37,0.44,0.555,1.272,0.555,2.496
			c0,1.052-0.168,1.858-0.505,2.417c-0.337,0.559-0.874,0.839-1.611,0.839H36.031z M36.741,38.151h1.123
			c0.49,0,0.849-0.186,1.077-0.559c0.228-0.373,0.342-1.055,0.342-2.045c0-0.826-0.104-1.453-0.313-1.878
			c-0.209-0.429-0.587-0.643-1.135-0.643h-1.094V38.151z"/>
		<path d="M41.169,32.391h0.676v0.86h-0.676V32.391z M41.169,34.052h0.676v4.742h-0.676V34.052z"/>
		<path d="M44.371,38.255l1.064-4.203h0.697l-1.403,4.742h-0.739l-1.403-4.742h0.697L44.371,38.255z"/>
		<path d="M46.863,32.391h0.676v0.86h-0.676V32.391z M46.863,34.052h0.676v4.742h-0.676V34.052z"/>
		<path d="M49.171,37.383c0,0.309,0.053,0.547,0.159,0.714c0.109,0.167,0.324,0.25,0.647,0.25c0.607,0,0.91-0.264,0.91-0.793
			c0-0.211-0.068-0.376-0.205-0.493c-0.134-0.12-0.373-0.241-0.718-0.363c-0.598-0.209-0.984-0.417-1.156-0.626
			c-0.173-0.209-0.259-0.47-0.259-0.785c0-0.445,0.134-0.783,0.401-1.014c0.267-0.231,0.604-0.346,1.01-0.346
			c0.971,0,1.457,0.467,1.457,1.403h-0.643c0-0.273-0.052-0.479-0.154-0.618c-0.103-0.142-0.305-0.213-0.605-0.213
			c-0.512,0-0.768,0.242-0.768,0.726c0,0.181,0.058,0.334,0.175,0.459c0.12,0.125,0.408,0.276,0.864,0.451
			c0.534,0.206,0.884,0.404,1.048,0.593c0.167,0.189,0.25,0.434,0.25,0.735c0,0.473-0.152,0.835-0.455,1.085
			c-0.301,0.248-0.678,0.371-1.131,0.371c-0.454,0-0.813-0.118-1.077-0.355c-0.262-0.239-0.392-0.554-0.392-0.943v-0.238H49.171z"/>
		<path d="M52.557,32.391h0.676v0.86h-0.676V32.391z M52.557,34.052h0.676v4.742h-0.676V34.052z"/>
		<path d="M54.277,36.248c0-0.754,0.142-1.329,0.426-1.724c0.287-0.398,0.711-0.597,1.273-0.597c0.543,0,0.956,0.202,1.24,0.605
			c0.287,0.401,0.43,0.966,0.43,1.695c0,0.899-0.129,1.572-0.388,2.02c-0.256,0.448-0.679,0.672-1.269,0.672
			c-0.607,0-1.044-0.206-1.311-0.618C54.41,37.887,54.277,37.202,54.277,36.248z M54.974,36.469c0,0.651,0.078,1.127,0.234,1.428
			c0.159,0.301,0.41,0.451,0.756,0.451c0.362,0,0.616-0.157,0.764-0.472c0.147-0.314,0.221-0.783,0.221-1.407
			c0-0.701-0.077-1.205-0.23-1.511c-0.153-0.306-0.406-0.459-0.76-0.459c-0.337,0-0.586,0.15-0.747,0.451
			C55.053,35.25,54.974,35.756,54.974,36.469z M55.508,33.459l0.743-1.202h0.927l-1.102,1.202H55.508z"/>
		<path d="M58.739,38.794v-4.742h0.655v0.543c0.303-0.445,0.705-0.668,1.206-0.668c0.37,0,0.654,0.102,0.852,0.305
			c0.2,0.203,0.301,0.513,0.301,0.931v3.632h-0.676v-3.44c0-0.57-0.231-0.856-0.693-0.856c-0.281,0-0.513,0.096-0.697,0.288
			c-0.181,0.192-0.271,0.437-0.271,0.735v3.273H58.739z"/>
		<path d="M65.727,36.757v0.317c0,0.445,0.097,0.764,0.292,0.956c0.195,0.192,0.497,0.288,0.906,0.288
			c0.403,0,0.707-0.103,0.91-0.309c0.203-0.209,0.305-0.487,0.305-0.835c0-0.323-0.049-0.559-0.146-0.71
			c-0.097-0.15-0.262-0.271-0.493-0.363l-1.323-0.513c-0.456-0.181-0.757-0.401-0.902-0.66c-0.142-0.259-0.213-0.576-0.213-0.952
			c0-0.512,0.164-0.934,0.493-1.265c0.331-0.331,0.758-0.497,1.282-0.497c0.59,0,1.042,0.146,1.357,0.438
			c0.317,0.289,0.476,0.646,0.476,1.069c0,0.097-0.004,0.196-0.013,0.296h-0.731c0.008-0.067,0.013-0.143,0.013-0.23
			c-0.006-0.245-0.099-0.461-0.28-0.647c-0.181-0.189-0.42-0.284-0.718-0.284c-0.401,0-0.693,0.095-0.877,0.284
			c-0.181,0.186-0.271,0.473-0.271,0.86c0,0.431,0.211,0.729,0.634,0.893l1.165,0.447c0.498,0.195,0.835,0.413,1.01,0.655
			c0.178,0.242,0.267,0.577,0.267,1.006c0,0.587-0.167,1.06-0.501,1.419c-0.334,0.359-0.828,0.538-1.482,0.538
			c-0.582,0-1.042-0.157-1.382-0.472c-0.34-0.314-0.509-0.806-0.509-1.474v-0.259H65.727z"/>
		<path d="M70.347,36.469v0.355c0,0.593,0.079,0.995,0.238,1.206c0.161,0.212,0.373,0.317,0.634,0.317
			c0.253,0,0.449-0.082,0.589-0.246c0.139-0.167,0.213-0.388,0.221-0.664c0-0.084,0.003-0.16,0.008-0.23h0.614v0.163
			c0,0.437-0.125,0.804-0.376,1.102c-0.248,0.298-0.607,0.447-1.077,0.447c-1.032,0-1.549-0.832-1.549-2.496
			c0-0.771,0.132-1.379,0.397-1.824c0.264-0.448,0.646-0.672,1.144-0.672c0.537,0,0.92,0.174,1.148,0.522
			c0.231,0.348,0.346,1.021,0.346,2.02H70.347z M71.988,35.914c0-0.57-0.072-0.949-0.217-1.135c-0.142-0.186-0.326-0.28-0.551-0.28
			c-0.314,0-0.536,0.11-0.664,0.33c-0.128,0.22-0.198,0.582-0.209,1.085H71.988z"/>
		<path d="M73.699,38.794v-4.742h0.655v0.543c0.303-0.445,0.705-0.668,1.206-0.668c0.37,0,0.654,0.102,0.852,0.305
			c0.2,0.203,0.301,0.513,0.301,0.931v3.632h-0.676v-3.44c0-0.57-0.231-0.856-0.693-0.856c-0.281,0-0.513,0.096-0.697,0.288
			c-0.181,0.192-0.271,0.437-0.271,0.735v3.273H73.699z"/>
		<path d="M80.29,34.594v-2.212h0.676v6.412h-0.655v-0.676c-0.125,0.262-0.271,0.461-0.438,0.597
			c-0.167,0.136-0.411,0.205-0.731,0.205c-0.44,0-0.782-0.182-1.027-0.547c-0.242-0.367-0.363-1.095-0.363-2.183
			c0-0.654,0.122-1.194,0.367-1.62c0.245-0.429,0.595-0.643,1.052-0.643C79.636,33.927,80.009,34.149,80.29,34.594z M78.45,36.44
			c0,0.737,0.071,1.24,0.213,1.507c0.145,0.267,0.378,0.401,0.701,0.401c0.289,0,0.516-0.131,0.68-0.392
			c0.164-0.264,0.246-0.612,0.246-1.044v-0.609c0-0.632-0.074-1.089-0.221-1.373c-0.148-0.287-0.383-0.43-0.705-0.43
			C78.754,34.498,78.45,35.146,78.45,36.44z"/>
		<path d="M82.077,35.329v-0.167c0-0.824,0.47-1.236,1.411-1.236c0.426,0,0.749,0.103,0.968,0.309
			c0.223,0.206,0.334,0.479,0.334,0.818v2.943c0,0.203,0.092,0.305,0.275,0.305c0.044,0,0.09-0.003,0.138-0.008v0.488
			c-0.081,0.033-0.184,0.05-0.309,0.05c-0.245,0-0.417-0.053-0.518-0.159c-0.097-0.108-0.15-0.295-0.159-0.559
			c-0.1,0.239-0.253,0.434-0.459,0.584c-0.203,0.147-0.417,0.221-0.643,0.221c-0.818,0-1.227-0.455-1.227-1.365
			c0-0.587,0.252-0.985,0.756-1.194l1.227-0.497c0.109-0.044,0.185-0.097,0.23-0.159c0.044-0.061,0.067-0.185,0.067-0.371
			c0-0.362-0.065-0.591-0.196-0.689c-0.131-0.097-0.32-0.146-0.568-0.146c-0.259,0-0.442,0.053-0.551,0.159
			c-0.109,0.106-0.163,0.274-0.163,0.505v0.167H82.077z M84.114,36.222c-0.237,0.145-0.591,0.31-1.064,0.497
			c-0.309,0.128-0.463,0.413-0.463,0.856c0,0.515,0.225,0.772,0.676,0.772c0.245,0,0.448-0.092,0.609-0.276
			c0.161-0.186,0.242-0.41,0.242-0.672V36.222z"/>
		<path d="M90.496,34.594v-2.212h0.676v6.412h-0.655v-0.676c-0.125,0.262-0.271,0.461-0.438,0.597
			c-0.167,0.136-0.411,0.205-0.731,0.205c-0.44,0-0.782-0.182-1.027-0.547c-0.242-0.367-0.363-1.095-0.363-2.183
			c0-0.654,0.122-1.194,0.367-1.62c0.245-0.429,0.595-0.643,1.052-0.643C89.842,33.927,90.215,34.149,90.496,34.594z M88.656,36.44
			c0,0.737,0.071,1.24,0.213,1.507c0.145,0.267,0.378,0.401,0.701,0.401c0.289,0,0.516-0.131,0.68-0.392
			c0.164-0.264,0.246-0.612,0.246-1.044v-0.609c0-0.632-0.074-1.089-0.221-1.373c-0.148-0.287-0.383-0.43-0.705-0.43
			C88.96,34.498,88.656,35.146,88.656,36.44z"/>
		<path d="M92.897,36.469v0.355c0,0.593,0.079,0.995,0.238,1.206c0.161,0.212,0.373,0.317,0.634,0.317
			c0.253,0,0.449-0.082,0.589-0.246c0.139-0.167,0.213-0.388,0.221-0.664c0-0.084,0.003-0.16,0.008-0.23h0.614v0.163
			c0,0.437-0.125,0.804-0.376,1.102c-0.248,0.298-0.607,0.447-1.077,0.447c-1.032,0-1.549-0.832-1.549-2.496
			c0-0.771,0.132-1.379,0.397-1.824c0.264-0.448,0.646-0.672,1.144-0.672c0.537,0,0.92,0.174,1.148,0.522
			c0.231,0.348,0.346,1.021,0.346,2.02H92.897z M94.537,35.914c0-0.57-0.072-0.949-0.217-1.135c-0.142-0.186-0.326-0.28-0.551-0.28
			c-0.315,0-0.536,0.11-0.664,0.33c-0.128,0.22-0.198,0.582-0.209,1.085H94.537z"/>
		<path d="M100.139,38.293l1.519-5.911h0.789l-1.87,6.412h-0.877l-1.87-6.412h0.789L100.139,38.293z"/>
		<path d="M103.132,32.391h0.676v0.86h-0.676V32.391z M103.132,34.052h0.676v4.742h-0.676V34.052z"/>
		<path d="M107.356,34.594v-2.212h0.676v6.412h-0.655v-0.676c-0.125,0.262-0.271,0.461-0.438,0.597
			c-0.167,0.136-0.411,0.205-0.731,0.205c-0.44,0-0.782-0.182-1.027-0.547c-0.242-0.367-0.363-1.095-0.363-2.183
			c0-0.654,0.122-1.194,0.367-1.62c0.245-0.429,0.595-0.643,1.052-0.643C106.702,33.927,107.075,34.149,107.356,34.594z
			 M105.515,36.44c0,0.737,0.071,1.24,0.213,1.507c0.145,0.267,0.378,0.401,0.701,0.401c0.289,0,0.516-0.131,0.68-0.392
			c0.164-0.264,0.246-0.612,0.246-1.044v-0.609c0-0.632-0.074-1.089-0.221-1.373c-0.148-0.287-0.383-0.43-0.705-0.43
			C105.82,34.498,105.515,35.146,105.515,36.44z"/>
		<path d="M109.143,35.329v-0.167c0-0.824,0.47-1.236,1.411-1.236c0.426,0,0.749,0.103,0.968,0.309
			c0.223,0.206,0.334,0.479,0.334,0.818v2.943c0,0.203,0.092,0.305,0.275,0.305c0.044,0,0.09-0.003,0.138-0.008v0.488
			c-0.081,0.033-0.184,0.05-0.309,0.05c-0.245,0-0.417-0.053-0.518-0.159c-0.097-0.108-0.15-0.295-0.159-0.559
			c-0.1,0.239-0.253,0.434-0.459,0.584c-0.203,0.147-0.417,0.221-0.643,0.221c-0.818,0-1.227-0.455-1.227-1.365
			c0-0.587,0.252-0.985,0.756-1.194l1.227-0.497c0.109-0.044,0.185-0.097,0.23-0.159c0.044-0.061,0.067-0.185,0.067-0.371
			c0-0.362-0.065-0.591-0.196-0.689c-0.131-0.097-0.32-0.146-0.568-0.146c-0.259,0-0.442,0.053-0.551,0.159
			c-0.109,0.106-0.163,0.274-0.163,0.505v0.167H109.143z M111.18,36.222c-0.237,0.145-0.591,0.31-1.064,0.497
			c-0.309,0.128-0.463,0.413-0.463,0.856c0,0.515,0.225,0.772,0.676,0.772c0.245,0,0.448-0.092,0.609-0.276
			c0.161-0.186,0.242-0.41,0.242-0.672V36.222z"/>
		<path d="M115.354,32.382h1.699c0.718,0,1.233,0.159,1.544,0.476c0.314,0.314,0.472,0.754,0.472,1.319
			c0,0.623-0.163,1.098-0.488,1.423c-0.326,0.326-0.899,0.488-1.72,0.488h-0.797v2.705h-0.71V32.382z M116.064,33.025v2.421h0.71
			c0.634,0,1.053-0.099,1.256-0.296c0.206-0.198,0.309-0.509,0.309-0.935c0-0.412-0.104-0.712-0.313-0.902
			c-0.209-0.192-0.611-0.288-1.206-0.288H116.064z"/>
		<path d="M120.033,34.052h0.676v3.69c0,0.195,0.044,0.345,0.134,0.451c0.089,0.103,0.252,0.154,0.488,0.154
			c0.256,0,0.481-0.097,0.676-0.292c0.198-0.198,0.296-0.532,0.296-1.002v-3.001h0.676v4.742h-0.676v-0.676
			c-0.223,0.534-0.619,0.801-1.19,0.801c-0.721,0-1.081-0.412-1.081-1.236V34.052z"/>
		<path d="M124.295,38.794v-6.412h0.676v2.212c0.083-0.198,0.218-0.357,0.405-0.48c0.186-0.125,0.395-0.188,0.626-0.188
			c0.504,0,0.881,0.203,1.131,0.609c0.25,0.404,0.376,0.935,0.376,1.595c0,0.916-0.114,1.61-0.342,2.083
			c-0.225,0.47-0.609,0.705-1.152,0.705c-0.509,0-0.878-0.245-1.106-0.735v0.609H124.295z M124.972,36.527v0.292
			c0,0.604,0.083,1.01,0.25,1.219c0.17,0.206,0.395,0.309,0.676,0.309c0.359,0,0.601-0.171,0.726-0.513
			c0.125-0.345,0.188-0.846,0.188-1.503c0-1.222-0.309-1.832-0.927-1.832c-0.328,0-0.563,0.134-0.705,0.401
			c-0.139,0.267-0.209,0.712-0.209,1.336V36.527z"/>
		<path d="M128.54,38.794v-6.412h0.676v6.412H128.54z"/>
		<path d="M130.44,32.391h0.676v0.86h-0.676V32.391z M130.44,34.052h0.676v4.742h-0.676V34.052z"/>
		<path d="M132.748,37.383c0,0.309,0.053,0.547,0.159,0.714c0.109,0.167,0.324,0.25,0.647,0.25c0.607,0,0.91-0.264,0.91-0.793
			c0-0.211-0.068-0.376-0.205-0.493c-0.134-0.12-0.373-0.241-0.718-0.363c-0.598-0.209-0.984-0.417-1.156-0.626
			c-0.173-0.209-0.259-0.47-0.259-0.785c0-0.445,0.134-0.783,0.401-1.014c0.267-0.231,0.604-0.346,1.01-0.346
			c0.971,0,1.457,0.467,1.457,1.403h-0.643c0-0.273-0.052-0.479-0.154-0.618c-0.103-0.142-0.305-0.213-0.605-0.213
			c-0.512,0-0.768,0.242-0.768,0.726c0,0.181,0.058,0.334,0.175,0.459c0.12,0.125,0.408,0.276,0.864,0.451
			c0.534,0.206,0.884,0.404,1.048,0.593c0.167,0.189,0.25,0.434,0.25,0.735c0,0.473-0.152,0.835-0.455,1.085
			c-0.301,0.248-0.678,0.371-1.131,0.371c-0.454,0-0.813-0.118-1.077-0.355c-0.262-0.239-0.392-0.554-0.392-0.943v-0.238H132.748z"
			/>
		<path d="M136.142,32.382h0.676v2.212c0.303-0.445,0.698-0.668,1.185-0.668c0.39,0,0.679,0.103,0.868,0.309
			c0.189,0.206,0.284,0.515,0.284,0.927v3.632h-0.676v-3.44c0-0.57-0.231-0.856-0.693-0.856c-0.317,0-0.558,0.1-0.722,0.301
			c-0.164,0.2-0.246,0.441-0.246,0.722v3.273h-0.676V32.382z"/>
		<path d="M140.859,36.469v0.355c0,0.593,0.079,0.995,0.238,1.206c0.161,0.212,0.373,0.317,0.634,0.317
			c0.253,0,0.449-0.082,0.589-0.246c0.139-0.167,0.213-0.388,0.221-0.664c0-0.084,0.003-0.16,0.008-0.23h0.614v0.163
			c0,0.437-0.125,0.804-0.376,1.102c-0.248,0.298-0.607,0.447-1.077,0.447c-1.032,0-1.549-0.832-1.549-2.496
			c0-0.771,0.132-1.379,0.397-1.824c0.264-0.448,0.646-0.672,1.144-0.672c0.537,0,0.92,0.174,1.148,0.522
			c0.231,0.348,0.346,1.021,0.346,2.02H140.859z M142.499,35.914c0-0.57-0.072-0.949-0.217-1.135
			c-0.142-0.186-0.326-0.28-0.551-0.28c-0.314,0-0.536,0.11-0.664,0.33c-0.128,0.22-0.198,0.582-0.209,1.085H142.499z"/>
		<path d="M144.286,38.794v-4.742h0.655v0.743c0.245-0.579,0.66-0.868,1.244-0.868c0.061,0,0.121,0.003,0.179,0.008v0.672
			c-0.058-0.017-0.153-0.025-0.284-0.025c-0.353,0-0.629,0.117-0.826,0.351c-0.195,0.234-0.292,0.544-0.292,0.931v2.93H144.286z"/>
		<path d="M147.458,37.383c0,0.309,0.053,0.547,0.159,0.714c0.109,0.167,0.324,0.25,0.647,0.25c0.607,0,0.91-0.264,0.91-0.793
			c0-0.211-0.068-0.376-0.205-0.493c-0.134-0.12-0.373-0.241-0.718-0.363c-0.598-0.209-0.984-0.417-1.156-0.626
			c-0.173-0.209-0.259-0.47-0.259-0.785c0-0.445,0.134-0.783,0.401-1.014c0.267-0.231,0.604-0.346,1.01-0.346
			c0.971,0,1.457,0.467,1.457,1.403h-0.643c0-0.273-0.052-0.479-0.154-0.618c-0.103-0.142-0.305-0.213-0.605-0.213
			c-0.512,0-0.768,0.242-0.768,0.726c0,0.181,0.058,0.334,0.175,0.459c0.12,0.125,0.408,0.276,0.864,0.451
			c0.534,0.206,0.884,0.404,1.048,0.593c0.167,0.189,0.25,0.434,0.25,0.735c0,0.473-0.152,0.835-0.455,1.085
			c-0.301,0.248-0.678,0.371-1.131,0.371c-0.454,0-0.813-0.118-1.077-0.355c-0.262-0.239-0.392-0.554-0.392-0.943v-0.238H147.458z"
			/>
	</g>
</g>
</svg>
