<?xml version="1.0" encoding="utf-8"?>
<!-- Generator: Adobe Illustrator 24.1.1, SVG Export Plug-In . SVG Version: 6.00 Build 0)  -->
<svg version="1.1" id="Layer_1" xmlns="http://www.w3.org/2000/svg" xmlns:xlink="http://www.w3.org/1999/xlink" x="0px" y="0px"
	 width="474px" height="140px" viewBox="0 0 474 140" enable-background="new 0 0 474 140" xml:space="preserve">
<g>
	<g>
		<path fill="#53565A" d="M457.178,81.298V81.27c0-2.695,2.184-4.965,4.937-4.965c2.781,0,4.937,2.241,4.937,4.936v0.029
			c0,2.695-2.184,4.966-4.937,4.966C459.336,86.235,457.178,83.993,457.178,81.298z M466.486,81.27v-0.029
			c0-2.411-1.874-4.397-4.371-4.397c-2.468,0-4.369,2.014-4.369,4.426v0.029c0,2.411,1.871,4.397,4.369,4.397
			C464.583,85.696,466.486,83.681,466.486,81.27z M460.044,78.602h2.413c1.219,0,2.098,0.539,2.098,1.703
			c0,0.822-0.453,1.362-1.134,1.588l1.305,1.874h-1.503l-1.108-1.646h-0.795v1.646h-1.276V78.602z M462.37,81.1
			c0.597,0,0.908-0.284,0.908-0.709c0-0.454-0.34-0.682-0.908-0.682h-1.05V81.1H462.37z"/>
	</g>
	<g>
		<path fill="#53565A" d="M163.09,55.25h9.686l2.148,4.843h2.726l-8.559-18.917h-2.23l-8.564,18.917h2.62L163.09,55.25z
			 M164.107,52.935l3.839-8.566l3.819,8.566H164.107z M183.151,60.093h-2.471V41.308h2.447l6.555,9.823l6.555-9.823h2.442v18.784
			h-2.524V45.756l-6.329,9.308h-0.347l-0.063-0.096l-6.266-9.19V60.093z M217.566,60.093h-13.839V41.308h13.709v2.339h-11.184v5.806
			h10.004v2.341h-10.004v5.963h11.314V60.093z M223.654,52.969h4.894l5.317,7.123h3.111l-5.688-7.562
			c3.058-0.677,4.807-2.664,4.807-5.549c0-1.479-0.525-2.818-1.483-3.776c-1.223-1.223-3.131-1.898-5.37-1.898h-8.111v18.784h2.524
			V52.969z M223.654,43.673h5.428c2.794,0,4.465,1.267,4.465,3.441c0,2.153-1.763,3.543-4.489,3.543h-5.404V43.673z M240.333,51.974
			V41.308h2.524v18.784h-2.524V51.974z M247.042,50.753c0-5.496,4.171-9.758,9.498-9.758c3.656,0,5.669,1.426,7.307,2.969
			l0.164,0.152l-1.724,1.85l-0.169-0.154c-1.811-1.72-3.487-2.454-5.606-2.454c-3.916,0-6.868,3.136-6.868,7.29
			c0,4.171,3.02,7.398,6.868,7.398c2.538,0,4.142-1.035,5.765-2.586l0.159-0.152l1.676,1.65l-0.159,0.164
			c-1.604,1.626-3.747,3.287-7.49,3.287C251.088,60.408,247.042,56.259,247.042,50.753z M270.508,55.25h9.686l2.148,4.843h2.726
			l-8.559-18.917h-2.23l-8.564,18.917h2.62L270.508,55.25z M271.524,52.935l3.839-8.566l3.82,8.566H271.524z M290.569,60.093h-2.471
			V41.308h2.278l0.068,0.087l11.145,14.175V41.308h2.471v18.784h-1.989l-0.067-0.087l-11.434-14.517V60.093z M319.918,55.25h9.681
			l2.148,4.843h2.726l-8.559-18.917h-2.235l-8.559,18.917h2.62L319.918,55.25z M320.929,52.935l3.844-8.566l3.815,8.566H320.929z
			 M335.653,50.753c0-5.496,4.176-9.758,9.498-9.758c3.656,0,5.674,1.426,7.307,2.969l0.164,0.152l-1.724,1.85l-0.168-0.154
			c-1.811-1.72-3.487-2.454-5.602-2.454c-3.921,0-6.873,3.136-6.873,7.29c0,4.171,3.02,7.398,6.873,7.398
			c2.538,0,4.137-1.035,5.76-2.586l0.159-0.152l1.681,1.65l-0.159,0.164c-1.604,1.626-3.752,3.287-7.495,3.287
			C339.704,60.408,335.653,56.259,335.653,50.753z M359.124,55.25h9.686l2.148,4.843h2.726l-8.564-18.917h-2.23l-8.559,18.917h2.62
			L359.124,55.25z M360.14,52.935l3.839-8.566l3.815,8.566H360.14z M393.272,50.647c0-5.411-4.195-9.339-9.97-9.339h-6.594v18.784
			h6.594C389.077,60.093,393.272,56.143,393.272,50.647z M383.302,57.728h-4.07V43.673h4.07c4.339,0,7.369,2.89,7.369,7.08
			C390.671,54.862,387.642,57.728,383.302,57.728z M411.17,60.093h-13.838V41.308h13.708v2.339h-11.184v5.806h10.004v2.341h-10.004
			v5.963h11.314V60.093z M417.205,60.093h-2.471V41.308h2.442l6.56,9.823l6.555-9.823h2.442v18.784h-2.524V45.756l-6.329,9.308
			h-0.347l-0.067-0.096l-6.261-9.19V60.093z M443.361,52.685l-7.829-11.377h3.063l0.068,0.099l5.999,8.889l6.112-8.988h2.962
			l-7.827,11.348v7.437h-2.548V52.685z M167.883,95.474c5.385,0,9.604-4.263,9.604-9.758c0-5.505-4.108-9.657-9.551-9.657
			c-5.385,0-9.604,4.263-9.604,9.758C158.332,91.322,162.44,95.474,167.883,95.474z M167.883,78.426
			c3.925,0,7.003,3.225,7.003,7.391c0,4.156-2.991,7.292-6.95,7.292c-3.993,0-6.998-3.155-6.998-7.393
			C160.937,81.559,163.919,78.426,167.883,78.426z M183.787,78.737v6.097h9.927v2.341h-9.927v7.986h-2.524V76.375h13.626v2.362
			H183.787z M214.579,76.059c-5.385,0-9.605,4.263-9.605,9.758c0,5.505,4.11,9.657,9.552,9.657c5.385,0,9.604-4.263,9.604-9.758
			C224.131,80.211,220.022,76.059,214.579,76.059z M214.579,93.109c-3.993,0-6.998-3.155-6.998-7.393c0-4.156,2.981-7.29,6.945-7.29
			c3.993,0,6.998,3.157,6.998,7.391C221.525,89.974,218.539,93.109,214.579,93.109z M227.902,76.375v18.786h2.524v-6.468h4.229
			c3.694,0,7.427-1.927,7.427-6.278c0-3.67-2.784-6.04-7.09-6.04H227.902z M234.731,86.352h-4.306v-7.615h4.412
			c2.986,0,4.701,1.373,4.701,3.807C239.538,84.82,237.602,86.352,234.731,86.352z M257.687,76.375h2.524v18.786h-2.524v-8.251
			h-10.124v8.251h-2.524V76.375h2.524v8.142h10.124V76.375z M269.294,84.351v-5.613h-6.151v-2.362h14.854v2.362h-6.155v16.424
			h-2.548V84.351z M293.584,76.375h2.524v18.786h-2.524v-8.251h-10.129v8.251h-2.524V76.375h2.524v8.142h10.129V76.375z
			 M313.261,90.316l2.148,4.845h2.726l-8.559-18.917h-2.23l-8.566,18.917h2.62l2.172-4.845H313.261z M312.25,88.004h-7.658
			l3.839-8.568L312.25,88.004z M323.347,76.375v16.421h10.317v2.365h-12.836V76.375H323.347z M352.048,95.161V80.823l-6.333,9.31
			h-0.342l-0.068-0.096l-6.266-9.19v14.315h-2.471V76.375h2.447l6.555,9.823l6.56-9.823h2.442v18.786H352.048z M358.348,85.817
			c0,5.505,4.108,9.657,9.551,9.657c5.385,0,9.604-4.263,9.604-9.758c0-5.505-4.108-9.657-9.551-9.657
			C362.567,76.059,358.348,80.322,358.348,85.817z M367.952,93.109c-3.993,0-6.998-3.155-6.998-7.393c0-4.156,2.981-7.29,6.945-7.29
			c3.925,0,7.003,3.225,7.003,7.391C374.902,89.974,371.911,93.109,367.952,93.109z M383.803,92.796h10.317v2.365h-12.841V76.375
			h2.524V92.796z M414.402,85.716c0-5.505-4.108-9.657-9.551-9.657c-5.385,0-9.604,4.263-9.604,9.758
			c0,5.505,4.104,9.657,9.551,9.657C410.183,95.474,414.402,91.212,414.402,85.716z M404.851,93.109
			c-3.993,0-7.003-3.155-7.003-7.393c0-4.156,2.986-7.29,6.95-7.29c3.925,0,7.003,3.225,7.003,7.391
			C411.801,89.974,408.81,93.109,404.851,93.109z M426.742,95.474c-5.626,0-9.551-3.971-9.551-9.657
			c0-5.496,4.138-9.758,9.416-9.758c2.861,0,4.884,0.723,6.984,2.49l0.173,0.145l-1.633,1.922l-0.173-0.149
			c-1.214-1.059-2.716-2.04-5.428-2.04c-3.781,0-6.738,3.2-6.738,7.29c0,4.475,2.823,7.446,7.027,7.446
			c1.811,0,3.694-0.641,5.062-1.717v-4.219h-5.577v-2.314h8.024v7.634l-0.082,0.07C433.051,93.682,430.484,95.474,426.742,95.474z
			 M443.423,95.161v-7.412l-7.824-11.374h3.063l0.067,0.101l5.994,8.886l6.117-8.987h2.957l-7.822,11.35v7.437H443.423z"/>
		<g>
			<path fill="#FFFFFF" d="M140.091,70.002c0,36.754-29.799,66.558-66.565,66.558c-36.759,0-66.559-29.804-66.559-66.558
				c0-36.764,29.799-66.568,66.559-66.568C110.291,3.434,140.091,33.238,140.091,70.002z"/>
			<path fill="#351F65" d="M106.78,127.679c-2.726,1.575-5.572,2.958-8.525,4.142L77.462,78.094L106.78,127.679z M79.745,79.053
				l28.316,47.89c2.139-1.305,4.19-2.736,6.165-4.263L79.745,79.053z M82.996,135.901l-7.563-48.805l3.339,49.263
				C80.193,136.248,81.605,136.099,82.996,135.901z M84.335,82.477l31.052,39.293c1.165-0.944,2.293-1.922,3.391-2.938
				L84.335,82.477z M84.34,78.537l39.615,34.914c1.238-1.431,2.413-2.914,3.521-4.446L84.34,78.537z M76.745,47.173l7.451-42.895
				c-0.915-0.149-1.84-0.27-2.769-0.381L76.745,47.173z M76.35,79.327l12.258,55.519c2.827-0.655,5.592-1.479,8.27-2.485
				L76.35,79.327z M139.907,65.042c-0.27-3.704-0.843-7.321-1.695-10.832L81.369,68.76L139.907,65.042z M73.454,46.874l1.238-43.43
				c-0.39-0.01-0.775-0.029-1.165-0.029c-0.544,0-1.079,0.029-1.614,0.038L73.454,46.874z M90.019,71.828l49.402,7.716
				c0.212-1.464,0.366-2.943,0.477-4.441L90.019,71.828z M86.426,72.767l51.527,14.107c0.501-1.922,0.91-3.877,1.238-5.866
				L86.426,72.767z M80.545,74.048l47.789,33.749c2.023-2.923,3.819-6.016,5.361-9.252L80.545,74.048z M81.985,73.08l52.316,24.116
				c1.286-2.866,2.37-5.838,3.246-8.896L81.985,73.08z M76.138,59.339L92.952,6.3c-2.379-0.722-4.816-1.305-7.302-1.763
				L76.138,59.339z M84.147,63.712l48.27-24.786c-1.016-1.922-2.124-3.786-3.319-5.592L84.147,63.712z M136.762,49.147
				L91.425,64.656l46.426-11.882C137.523,51.551,137.157,50.342,136.762,49.147z M121.518,23.87
				c-0.612-0.636-1.233-1.257-1.864-1.869L90.438,53.087L121.518,23.87z M70.809,136.513L72.1,93.266l-4.036,43.078
				C68.975,136.416,69.89,136.479,70.809,136.513z M140.014,73.629c0.063-1.204,0.101-2.413,0.101-3.627
				c0-1.17-0.034-2.331-0.091-3.482l-55.004,3.492L140.014,73.629z M76.171,3.482l-1.364,47.866l5.15-47.62
				C78.705,3.607,77.443,3.531,76.171,3.482z M85.356,81.403l34.491,36.408c1.084-1.05,2.134-2.124,3.145-3.242L85.356,81.403z
				 M82.953,65.99l53.337-18.25c-0.915-2.577-1.984-5.077-3.198-7.494L82.953,65.99z M80.058,57.287l26.269-45.226
				c-1.565-0.891-3.169-1.715-4.811-2.481L80.058,57.287z M87.167,59.888l41.104-27.781c-0.824-1.185-1.691-2.341-2.586-3.473
				L87.167,59.888z M79.784,60.707l33.898-43.815c-1.946-1.474-3.974-2.837-6.074-4.094L79.784,60.707z M78.103,58.029
				l22.064-49.056c-1.893-0.828-3.829-1.565-5.809-2.215L78.103,58.029z M88.839,56.622l35.921-29.144
				c-0.718-0.867-1.459-1.71-2.22-2.538L88.839,56.622z M83.546,58.26l35.035-37.279c-1.199-1.103-2.451-2.158-3.738-3.179
				L83.546,58.26z M77.828,92.89l6.632,42.785c0.905-0.149,1.811-0.308,2.707-0.496L77.828,92.89z M53.735,81.205l-38.844,20.35
				c0.448,0.833,0.925,1.657,1.411,2.476L53.735,81.205z M61.788,78.027l-44.71,27.261c0.963,1.541,1.98,3.049,3.063,4.499
				L61.788,78.027z M55.33,84.813l-34.277,26.139c0.559,0.718,1.127,1.421,1.713,2.11L55.33,84.813z M62.212,75.093L11.564,94.354
				c0.79,2.013,1.676,3.974,2.654,5.881L62.212,75.093z M64.375,71.654L7.353,77.314c0.337,3.059,0.877,6.054,1.609,8.973
				L64.375,71.654z M66.778,78.272l-38.291,40.757c1.903,1.744,3.911,3.376,6.001,4.894L66.778,78.272z M60.131,74.303L9.347,87.717
				c0.491,1.782,1.041,3.54,1.677,5.26L60.131,74.303z M69.543,84.953l-15.528,48.694c1.546,0.477,3.116,0.901,4.71,1.267
				L69.543,84.953z M49.087,131.932c1.156,0.457,2.346,0.886,3.531,1.276l14.473-45.443L49.087,131.932z M70.429,3.492
				c-2.683,0.12-5.322,0.414-7.918,0.843l9.912,55.278L70.429,3.492z M71.648,82.198l-11.483,53.044
				c2.105,0.429,4.248,0.756,6.42,0.982L71.648,82.198z M73.82,85.174l-1.532,51.377c0.414,0.01,0.824,0.034,1.238,0.034
				c1.267,0,2.525-0.043,3.773-0.116L73.82,85.174z M50.046,71.587L7.025,73.138c0.043,0.905,0.116,1.806,0.193,2.702L50.046,71.587
				z M23.734,114.179c1.175,1.325,2.408,2.601,3.684,3.829l35.656-37.954L23.734,114.179z M67.371,79.997L35.698,124.78
				c1.888,1.31,3.848,2.529,5.871,3.641L67.371,79.997z M67.404,83.074l-24.526,46.031c1.58,0.819,3.184,1.594,4.831,2.288
				L67.404,83.074z M61.056,4.595C58.942,5,56.861,5.5,54.824,6.098l15.784,51.777L61.056,4.595z M61.384,49.908L40.249,12.335
				c-0.785,0.458-1.561,0.925-2.322,1.411L61.384,49.908z M66.821,50.525L53.403,6.517c-1.05,0.332-2.095,0.694-3.126,1.079
				L66.821,50.525z M69.167,60.731L48.904,8.135c-2.538,1.011-4.999,2.162-7.369,3.463L69.167,60.731z M63.672,60.788l-36.764-38.31
				c-1.382,1.358-2.707,2.784-3.969,4.258L63.672,60.788z M7.107,65.619c-0.096,1.45-0.159,2.909-0.159,4.383
				c0,0.554,0.029,1.103,0.039,1.657l53.458-1.927L7.107,65.619z M62.732,68.427L8.282,56.68c-0.496,2.442-0.843,4.932-1.064,7.466
				L62.732,68.427z M58.128,62.031l-42.74-24.468c-0.684,1.223-1.339,2.461-1.946,3.728L58.128,62.031z M60.589,64.81L12.83,42.645
				c-0.766,1.691-1.464,3.42-2.086,5.187L60.589,64.81z M61.215,66.588L10.267,49.234c-0.645,1.96-1.194,3.964-1.657,6.001
				L61.215,66.588z M65.314,58.684L36.68,14.541c-1.541,1.031-3.034,2.124-4.479,3.275L65.314,58.684z M66.634,65.196L21.981,27.863
				c-2.162,2.644-4.118,5.457-5.857,8.414L66.634,65.196z M61.846,56.748L31.045,18.736c-1.055,0.872-2.071,1.782-3.063,2.721
				L61.846,56.748z"/>
		</g>
	</g>
</g>
</svg>
