<?xml version="1.0" encoding="utf-8"?>
<!-- Generator: Adobe Illustrator 15.1.0, SVG Export Plug-In . SVG Version: 6.00 Build 0)  -->
<!DOCTYPE svg PUBLIC "-//W3C//DTD SVG 1.1//EN" "http://www.w3.org/Graphics/SVG/1.1/DTD/svg11.dtd">
<svg version="1.1" id="Layer_1" xmlns="http://www.w3.org/2000/svg" xmlns:xlink="http://www.w3.org/1999/xlink" x="0px" y="0px"
	 width="200px" height="200px" viewBox="0 0 200 200" enable-background="new 0 0 200 200" xml:space="preserve">
<g>
	<path fill="#FFFFFF" d="M129.813,50.307c0.15-0.386-0.037-0.823-0.426-0.974l-14.439-5.654l4.162-1.824
		c0.379-0.167,0.553-0.613,0.389-0.997c-0.082-0.182-0.227-0.324-0.416-0.396c-0.186-0.073-0.391-0.069-0.576,0.013l-5.826,2.557
		c-0.084,0.037-0.166,0.095-0.244,0.175c-0.063,0.067-0.117,0.148-0.15,0.239c-0.035,0.091-0.053,0.189-0.053,0.298
		c0.004,0.095,0.023,0.19,0.063,0.279l2.541,5.829c0.162,0.372,0.621,0.551,0.988,0.389c0.381-0.166,0.557-0.612,0.391-0.993
		l-1.816-4.163l14.438,5.652C129.223,50.888,129.66,50.694,129.813,50.307z"/>
	<path fill="#FFFFFF" d="M102.584,56.401l12.938,5.065c1.869,0.731,3.98-0.196,4.715-2.066l3.01-7.697
		c0.008-0.018,0.09-0.221,0.008-0.411c-0.066-0.157-0.234-0.288-0.498-0.393c-0.199-0.077-0.48-0.151-0.672-0.055
		c-0.16,0.084-0.223,0.267-0.223,0.267l-3.025,7.74c-0.428,1.098-1.672,1.641-2.764,1.212l-12.938-5.065
		c-1.094-0.429-1.636-1.67-1.206-2.767l7.103-18.139c0.43-1.095,1.668-1.638,2.762-1.21l12.938,5.065
		c1.094,0.43,1.637,1.669,1.207,2.765l-1.207,3.088l-0.021,0.037c0,0-0.082,0.153-0.029,0.304c0.057,0.155,0.254,0.304,0.557,0.423
		c0.203,0.079,0.482,0.154,0.672,0.059c0.168-0.079,0.223-0.269,0.225-0.271l1.207-3.091c0.73-1.871-0.191-3.985-2.059-4.718
		l-12.938-5.065c-1.867-0.73-3.979,0.196-4.713,2.067l-7.102,18.138C99.797,53.555,100.719,55.671,102.584,56.401z"/>
	<path fill="#FFFFFF" d="M146.766,65.154c-0.322-0.143-0.707,0.008-0.85,0.333s0.004,0.707,0.33,0.851l10.1,4.449
		c0.322,0.144,0.707-0.005,0.85-0.329c0.145-0.327-0.004-0.71-0.33-0.854L146.766,65.154z"/>
	<path fill="#FFFFFF" d="M148.457,61.317c-0.326-0.143-0.707,0.005-0.852,0.331c-0.143,0.326,0.006,0.709,0.33,0.854l10.1,4.449
		c0.324,0.144,0.707-0.006,0.852-0.332s-0.004-0.709-0.332-0.852L148.457,61.317z"/>
	<path fill="#FFFFFF" d="M162.928,61.711l-14.426-6.356c-1.387-0.61-3.012,0.02-3.623,1.406l-7.629,17.313
		c-0.609,1.386,0.021,3.012,1.406,3.623l10.146,4.468c0.258,2.716,1.934,5.216,4.605,6.394c3.932,1.732,8.525-0.051,10.258-3.983
		c1.645-3.735,0.115-8.06-3.416-9.969l4.082-9.271C164.945,63.946,164.314,62.322,162.928,61.711z M160.84,82.472
		c0.307,0.134,0.445,0.491,0.311,0.794c-0.135,0.307-0.49,0.445-0.799,0.311l-3.518-1.549l-1.621,3.685
		c-0.135,0.307-0.496,0.447-0.801,0.313c-0.305-0.136-0.443-0.496-0.311-0.801l1.623-3.685l-3.326-1.467
		c-0.307-0.135-0.445-0.493-0.311-0.799c0.133-0.304,0.492-0.442,0.799-0.309l3.328,1.468l1.477-3.354
		c0.135-0.305,0.492-0.442,0.799-0.31c0.305,0.136,0.445,0.493,0.309,0.8l-1.477,3.352L160.84,82.472z M163.152,64.812l-4.088,9.274
		c-3.781-1.303-7.996,0.486-9.637,4.214c-0.354,0.802-0.553,1.628-0.629,2.453l-9.619-4.24c-0.736-0.324-1.07-1.186-0.746-1.919
		l7.629-17.312c0.322-0.734,1.182-1.068,1.918-0.745l14.426,6.355C163.141,63.216,163.475,64.078,163.152,64.812z"/>
	<path fill="#FFFFFF" d="M166.359,173.281l10.379-21.121c0.227-0.461,0.01-1.029-0.482-1.273l-3.996-1.963
		c0.121,0.479,0.105,0.953,0.043,1.322l3.248,1.6l-10.166,20.691l-19.191-9.43l10.166-20.693l3.24,1.592
		c0.25-0.277,0.621-0.58,1.072-0.775l-3.984-1.957c-0.496-0.244-1.076-0.066-1.305,0.395l-10.377,21.121
		c-0.229,0.461-0.012,1.031,0.482,1.273l19.57,9.615C165.551,173.92,166.133,173.742,166.359,173.281z"/>
	<path fill="#FFFFFF" d="M162.309,165.592c0.189,0.092,0.416,0.014,0.506-0.174c0.094-0.188,0.018-0.414-0.172-0.506l-6.516-3.203
		c-0.188-0.09-0.414-0.014-0.506,0.172c-0.092,0.189-0.014,0.416,0.172,0.508L162.309,165.592z"/>
	<path fill="#FFFFFF" d="M165.527,164.615c0.094-0.188,0.02-0.414-0.168-0.508l-8.387-4.119c-0.188-0.092-0.414-0.014-0.506,0.174
		c-0.094,0.188-0.018,0.416,0.17,0.508l8.385,4.119C165.211,164.883,165.438,164.805,165.527,164.615z"/>
	<path fill="#FFFFFF" d="M151.869,157.172l-1.426,2.9c-0.115,0.238-0.018,0.527,0.225,0.645l2.893,1.422
		c0.24,0.119,0.531,0.021,0.648-0.219l1.277-2.596l1.582-0.965c0.229-0.139,0.299-0.438,0.162-0.664
		c-0.141-0.229-0.436-0.303-0.664-0.162l-1.283,0.777l-2.766-1.359C152.275,156.834,151.986,156.934,151.869,157.172z
		 M151.527,160.061l0.334-0.678l0.139,0.912L151.527,160.061z M153.555,161.059l-0.508-0.25l0.898-0.549L153.555,161.059z
		 M154.303,158.908l-1.402,0.852l-0.25-1.631c-0.004-0.012-0.008-0.027-0.01-0.037L154.303,158.908z"/>
	<path fill="#FFFFFF" d="M167.143,156.611c0.094-0.188,0.018-0.416-0.172-0.51l-6.516-3.201c-0.186-0.092-0.414-0.014-0.508,0.176
		c-0.092,0.188-0.012,0.414,0.176,0.506l6.516,3.201C166.828,156.877,167.053,156.799,167.143,156.611z"/>
	<path fill="#FFFFFF" d="M158.5,153.188l1.422-2.895c0.119-0.24,0.02-0.531-0.221-0.65l-2.895-1.424
		c-0.24-0.115-0.531-0.016-0.65,0.225l-1.422,2.895c-0.115,0.238-0.018,0.531,0.223,0.648l2.893,1.424
		C158.094,153.525,158.381,153.424,158.5,153.188z"/>
	<path fill="#FFFFFF" d="M170.652,156.199c0.09-0.189,0.012-0.418-0.172-0.51l-9.178-4.51c-0.189-0.094-0.418-0.014-0.51,0.176
		c-0.092,0.186-0.014,0.414,0.174,0.506l9.178,4.512C170.332,156.463,170.559,156.385,170.652,156.199z"/>
	<path fill="#FFFFFF" d="M170.389,146.869c-0.24-0.121-0.84-0.414-2.275-1.121l0.416-0.842c0.016-0.029,0.037-0.059,0.057-0.09
		c0.014-0.033,0.023-0.066,0.037-0.1l0.02-0.043l-0.004-0.002c0.225-0.633-0.049-1.346-0.664-1.648
		c-0.621-0.301-1.35-0.086-1.715,0.482l-0.002-0.002l-0.02,0.037c-0.018,0.035-0.041,0.061-0.059,0.094
		c-0.018,0.031-0.023,0.064-0.035,0.102l-0.416,0.842c-1.436-0.709-2.043-1.006-2.285-1.125c-1.412-0.693-3.76,1.816-3.76,1.816
		l11.563,5.682C171.246,150.951,171.801,147.563,170.389,146.869z M167.994,144.525c-0.166,0.338-0.574,0.479-0.912,0.313
		c-0.34-0.166-0.477-0.576-0.313-0.914c0.168-0.338,0.576-0.475,0.912-0.311C168.021,143.779,168.16,144.188,167.994,144.525z"/>
	<path fill="#FFFFFF" d="M31.941,28.962l11.844,16.482c0.752,1.05,2.187,1.317,3.188,0.597l1.217-0.874
		c1.005-0.722,1.21-2.167,0.458-3.217L36.806,25.468c-0.753-1.048-2.187-1.311-3.189-0.59l-1.219,0.875
		C31.397,26.474,31.189,27.914,31.941,28.962z M33.313,27.019l1.213-0.872c0.335-0.242,0.814-0.153,1.064,0.196l11.841,16.481
		c0.251,0.351,0.182,0.833-0.151,1.073l-1.215,0.872C45.73,45.009,45.252,44.92,45,44.57L33.16,28.088
		C32.909,27.74,32.979,27.257,33.313,27.019z"/>
	<path fill="#FFFFFF" d="M28.155,56.243c0.563,0.784,1.479,1.208,2.449,1.125l0.063-0.007c0.466-0.076,0.895-0.248,1.245-0.502
		c0.383-0.272,0.688-0.652,0.878-1.093l4.126-15.013c0.409-0.864,0.312-1.893-0.256-2.682c-0.567-0.79-1.511-1.21-2.442-1.101
		L18.68,36.091c-0.929,0.055-1.805,0.641-2.239,1.562c-0.386,0.893-0.28,1.896,0.284,2.681L28.155,56.243z M34.479,38.325
		c0.436-0.052,0.856,0.137,1.122,0.507s0.31,0.829,0.114,1.245l-3.929,14.649L19.32,37.377L34.479,38.325z"/>
	<path fill="#FFFFFF" d="M87.459,82.415l-10.423-1.127c-0.234-0.025-0.445,0.141-0.471,0.373c-0.025,0.231,0.146,0.439,0.381,0.466
		l10.423,1.125c0.234,0.024,0.442-0.143,0.468-0.374C87.861,82.646,87.693,82.441,87.459,82.415z"/>
	<path fill="#FFFFFF" d="M82.757,84.367l-5.983-0.647c-0.235-0.023-0.445,0.141-0.471,0.372c-0.025,0.229,0.146,0.438,0.381,0.463
		l5.982,0.646c0.237,0.026,0.447-0.143,0.472-0.369C83.163,84.6,82.994,84.392,82.757,84.367z"/>
	<path fill="#FFFFFF" d="M67.271,92.574l21.83,2.358c0.006,0.001,0.012,0,0.02,0.003c0.276,0.029,0.53-0.17,0.56-0.445
		c0.02-0.17-0.055-0.335-0.18-0.438l-0.213-0.292c-0.833-1.136-0.664-2.697,0.392-3.63l0.351-0.309
		c0.042-0.038,0.071-0.079,0.102-0.123c0.004-0.014,0.008-0.023,0.013-0.034c0.023-0.046,0.036-0.092,0.046-0.14
		c0-0.009,0.005-0.014,0.006-0.025l0.624-5.766c1.382,0.07,2.595-0.945,2.746-2.345c0.15-1.397-0.817-2.65-2.184-2.877l0.481-4.442
		c0.241-2.216-1.396-4.22-3.643-4.46l-11.989-1.296c-0.279-0.031-0.531,0.169-0.561,0.443l-1.995,18.453l-1.645-0.178l1.993-18.454
		c0.03-0.273-0.174-0.522-0.454-0.553l-2.913-0.314c-2.04-0.222-3.878,1.237-4.096,3.248l-0.521,4.818
		c-1.367-0.05-2.562,0.958-2.711,2.344c-0.15,1.387,0.801,2.626,2.147,2.87l-0.896,8.289C64.405,90.917,65.613,92.395,67.271,92.574
		z M78.38,69.558l2.702,0.292l-0.583,5.399l-1.006-1.24c-0.056-0.065-0.131-0.106-0.215-0.115c-0.086-0.011-0.166,0.013-0.234,0.066
		l-1.249,0.998L78.38,69.558z M76.63,69.367l1.123,0.123l-0.665,6.15c-0.014,0.127,0.046,0.243,0.163,0.313
		c0.119,0.058,0.264,0.045,0.353-0.032l1.599-1.276l1.291,1.588c0.055,0.067,0.13,0.107,0.213,0.117
		c0.038,0.006,0.075,0.001,0.128-0.01c0.122-0.034,0.208-0.141,0.223-0.271l0.664-6.152l6.393,0.691
		c1.689,0.183,2.922,1.686,2.743,3.353l-0.496,4.585c-1.058,0.25-1.895,1.134-2.018,2.278s0.504,2.187,1.483,2.656l-0.585,5.411
		L74.69,87.32L76.63,69.367z M67.812,87.588l20.757,2.241c-0.336,0.229-0.659,0.885-0.77,1.582l-18.211-1.968
		c-0.28-0.03-0.53,0.167-0.56,0.441c-0.03,0.277,0.172,0.522,0.452,0.553L87.642,92.4c-0.041,0.587,0.171,1.052,0.496,1.42
		L67.38,91.578c-1.102-0.119-1.901-1.103-1.779-2.238C65.718,88.254,66.709,87.468,67.812,87.588z"/>
	<path fill="#FFFFFF" d="M75.285,66.927l8.982,0.97c-0.016-2.296-1.736-4.263-4.056-4.513
		C77.893,63.132,75.795,64.688,75.285,66.927z"/>
	<path fill="#FFFFFF" d="M54.029,109.504c-0.133-0.18-0.385-0.215-0.562-0.082l-7.905,5.893c-0.178,0.133-0.214,0.387-0.082,0.566
		c0.133,0.178,0.385,0.211,0.562,0.08l7.905-5.896C54.125,109.932,54.163,109.682,54.029,109.504z"/>
	<path fill="#FFFFFF" d="M52.064,113.891c-0.134-0.18-0.388-0.217-0.565-0.084l-4.54,3.385c-0.176,0.131-0.214,0.387-0.081,0.564
		c0.134,0.178,0.386,0.213,0.563,0.082l4.538-3.387C52.157,114.32,52.195,114.068,52.064,113.891z"/>
	<path fill="#FFFFFF" d="M35.234,108.324c-0.158-0.211-0.459-0.256-0.673-0.1l-2.211,1.65c-1.544,1.154-1.863,3.354-0.707,4.906
		l10.54,14.135c0.941,1.264,2.733,1.525,3.991,0.588l16.554-12.346c0.007-0.004,0.009-0.01,0.016-0.012
		c0.21-0.156,0.258-0.457,0.098-0.67c-0.1-0.135-0.253-0.201-0.407-0.193l-0.335-0.068c-1.313-0.262-2.213-1.467-2.088-2.799
		l0.038-0.445c0.005-0.053,0-0.102-0.011-0.15c-0.004-0.01-0.01-0.02-0.013-0.029c-0.013-0.047-0.033-0.086-0.061-0.129
		c-0.003-0.008-0.005-0.014-0.011-0.02l-8.876-11.906c-1.272-1.712-3.701-2.065-5.406-0.795l-9.094,6.781
		c-0.213,0.158-0.252,0.459-0.095,0.67l10.614,14.238l-1.25,0.932L35.234,108.324z M40.914,104.689l3.107,4.164l-1.498-0.223
		c-0.084-0.012-0.156,0.008-0.224,0.055c-0.063,0.049-0.104,0.115-0.117,0.197l-0.211,1.5l-3.107-4.168L40.914,104.689z
		 M37.539,107.207l0.851-0.637l3.541,4.748c0.074,0.096,0.187,0.143,0.313,0.113c0.121-0.035,0.212-0.137,0.223-0.246l0.271-1.924
		l1.921,0.289c0.078,0.012,0.154-0.008,0.22-0.055c0.029-0.023,0.053-0.047,0.082-0.088c0.063-0.104,0.054-0.234-0.022-0.334
		l-3.539-4.748l4.846-3.613c1.285-0.956,3.108-0.688,4.068,0.596l8.589,11.52l-11.035,8.23L37.539,107.207z M59.049,113.916
		c-0.081,0.377,0.12,1.043,0.497,1.604l-13.813,10.299c-0.21,0.16-0.256,0.457-0.096,0.67c0.159,0.213,0.458,0.258,0.669,0.102
		l13.778-10.275c0.352,0.439,0.797,0.629,1.26,0.678l-15.743,11.742c-0.836,0.623-2.022,0.447-2.677-0.428
		c-0.626-0.838-0.453-2.025,0.382-2.648L59.049,113.916z"/>
	<path fill="#FFFFFF" d="M173.598,112.891l-2.15-1.773l0.311-2.039c-0.016-0.273-0.188-0.625-0.389-0.791l-5.43-4.484
		c-0.201-0.166-0.582-0.27-0.85-0.23l-1.941,0.689l-1.564-1.293l0.813-0.985c0.121-0.146,0.1-0.358-0.045-0.478l-1.645-1.359
		c-0.143-0.119-0.357-0.1-0.479,0.046l-0.813,0.986l-0.799-0.659c-0.438-0.36-1.08-0.299-1.441,0.139l-12.314,14.912
		c-0.721,0.871-0.596,2.16,0.273,2.879l15.77,13.023c0.871,0.719,2.16,0.596,2.881-0.277l10.357-12.543
		C175.584,116.906,175.338,114.33,173.598,112.891z M173.02,117.973l-10.709,12.971l-16.908-13.965l12.521-15.164l14.887,12.293
		C173.91,115.018,173.844,116.977,173.02,117.973z"/>
	<path fill="#FFFFFF" d="M156.332,113.252c-1.725,2.088-1.426,5.184,0.662,6.912c2.09,1.723,5.186,1.43,6.908-0.66
		c1.729-2.09,1.432-5.184-0.658-6.908C161.154,110.869,158.059,111.162,156.332,113.252z M161.939,117.822
		c-0.816,0.992-2.281,1.129-3.27,0.313c-0.992-0.818-1.131-2.281-0.313-3.271c0.818-0.988,2.279-1.129,3.27-0.311
		C162.617,115.369,162.758,116.832,161.939,117.822z"/>
	<circle fill="#FFFFFF" cx="157.955" cy="105.478" r="1.333"/>
	<path fill="#FFFFFF" d="M95.349,23.489c-0.874-0.495-1.818,0.159-1.818,0.159l-9.11,6.965c0,0-2.208-0.986-5.289,0.749l8.055,4.407
		c0.958-2.32-0.345-3.8-0.345-3.8l8.828-6.875C95.669,25.095,96.236,23.995,95.349,23.489z"/>
	<polygon fill="#FFFFFF" points="72.974,37.975 73.579,38.649 73.729,38.519 73.133,37.836 	"/>
	<path fill="#FFFFFF" d="M77.37,32.162c-0.907,0.452-1.919,0.976-3.02,1.566c-3.028,1.745-5.21,3.481-6.482,5.158
		c-1.274,1.676-2.079,3.198-2.389,4.52c-0.318,1.342-0.214,2.831,0.311,4.425l0.061,0.189l3.622,1.631l-0.165-0.865
		c-0.283-1.459-0.249-2.8,0.1-3.984c0.147-0.496,0.312-0.968,0.496-1.408c-0.156,0.673-0.255,1.325-0.293,1.949
		c-0.075,1.171,0.021,2.565,0.295,4.144l0.043,0.251l3.168,1.22l-0.295-0.912c-0.352-1.079-0.338-2.217,0.035-3.381
		c0.299-0.937,0.659-1.815,1.074-2.629c-0.014,0.048-0.029,0.097-0.042,0.145c-0.415,1.438-0.652,2.689-0.703,3.715
		c-0.056,1.037,0.068,2.112,0.369,3.197l0.061,0.223l3.184,1.185l-0.359-0.943c-0.395-1.032-0.427-2.159-0.098-3.352
		c0.296-1.074,0.684-2.09,1.156-3.029c-0.322,1.407-0.484,2.675-0.487,3.771c-0.005,1.131,0.157,2.368,0.487,3.675l0.056,0.233
		l3.585,1.271l-0.125-0.765c-0.283-1.711-0.323-3.312-0.116-4.764c0.204-1.459,0.692-3.18,1.45-5.109
		c0.75-1.918,2.061-3.969,3.896-6.099l0.365-0.423l-9.025-4.91L77.37,32.162z M81.497,43.164c-0.785,2-1.288,3.785-1.507,5.316
		c-0.185,1.321-0.182,2.756,0.014,4.276l-1.678-0.595c-0.273-1.147-0.408-2.231-0.404-3.22c0.004-1.061,0.169-2.301,0.492-3.691
		c0.317-1.378,0.949-2.846,1.871-4.363l-0.754-0.502c-1.118,1.476-1.99,2.788-2.593,3.898c-0.618,1.128-1.112,2.367-1.479,3.686
		c-0.288,1.045-0.334,2.052-0.141,3.008l-0.941-0.353c-0.233-0.915-0.328-1.821-0.281-2.693c0.048-0.955,0.274-2.136,0.671-3.508
		c0.394-1.369,1.141-2.945,2.216-4.686l-0.733-0.53c-1.174,1.353-2.084,2.575-2.704,3.639c-0.623,1.065-1.145,2.259-1.56,3.548
		c-0.333,1.039-0.418,2.063-0.25,3.056l-0.972-0.374c-0.229-1.405-0.312-2.644-0.245-3.682c0.072-1.094,0.337-2.284,0.795-3.545
		c0.414-1.143,1.148-2.193,2.182-3.127l-0.607-0.671c-0.217,0.189-0.524,0.467-0.933,0.834c-0.631,0.564-1.27,1.331-1.897,2.275
		c-0.631,0.951-1.146,2.092-1.528,3.393c-0.318,1.087-0.405,2.281-0.255,3.56L66.6,47.357c-0.42-1.364-0.497-2.626-0.231-3.751
		c0.283-1.198,1.031-2.604,2.228-4.179c1.197-1.577,3.285-3.23,6.196-4.909c0.994-0.533,1.924-1.017,2.769-1.438l7.631,4.152
		C83.475,39.289,82.233,41.28,81.497,43.164z"/>
	<polygon fill="#FFFFFF" points="72.986,37.991 73.274,38.314 73.174,38.199 	"/>
	<path fill="#FFFFFF" d="M71.02,32.654c0.153,0.346,0.563,0.503,0.916,0.347l0.354-0.157c0.352-0.155,0.51-0.564,0.355-0.91
		l-5.144-11.601c-0.153-0.347-0.561-0.503-0.912-0.348l-0.354,0.157c-0.354,0.156-0.512,0.564-0.358,0.911L71.02,32.654z"/>
	<path fill="#FFFFFF" d="M64.104,40.777c0.153,0.346,0.563,0.501,0.913,0.346l0.355-0.157c0.351-0.156,0.51-0.563,0.357-0.909
		l-5.145-11.603c-0.153-0.347-0.563-0.501-0.913-0.346l-0.355,0.158c-0.351,0.155-0.511,0.562-0.356,0.908L64.104,40.777z"/>
	<path fill="#FFFFFF" d="M67.271,36.256c0.154,0.347,0.562,0.503,0.913,0.348l0.356-0.157c0.35-0.155,0.508-0.563,0.354-0.91
		l-5.144-11.6c-0.154-0.348-0.562-0.503-0.911-0.348l-0.357,0.158c-0.351,0.155-0.509,0.562-0.354,0.909L67.271,36.256z"/>
	<path fill="#FFFFFF" d="M143.33,46.542c0.232,0.233,0.641,0.242,0.879,0l10.158-10.161l10.146,10.16
		c0.242,0.234,0.658,0.233,0.889,0c0.246-0.245,0.246-0.646,0-0.892L155.25,35.5l10.152-10.16c0.121-0.119,0.184-0.274,0.184-0.439
		c0-0.167-0.063-0.324-0.184-0.442c-0.238-0.238-0.652-0.237-0.889-0.001l-10.146,10.159l-10.156-10.158
		c-0.236-0.238-0.645-0.237-0.881-0.001c-0.244,0.244-0.242,0.644,0.002,0.893l10.152,10.15L143.33,45.649
		C143.084,45.895,143.084,46.296,143.33,46.542z"/>
	<path fill="#FFFFFF" d="M113.865,110.973h12.072c1.039,0,1.998-0.809,2.18-1.836l2.025-15.888c0.086-0.522-0.039-1.021-0.355-1.398
		c-0.32-0.384-0.789-0.593-1.324-0.593h-17.664c-0.533,0-1.004,0.209-1.32,0.595c-0.316,0.383-0.439,0.885-0.344,1.396l2.535,15.892
		C111.863,110.172,112.826,110.973,113.865,110.973z M110.225,92.476c0.133-0.156,0.332-0.242,0.574-0.242h17.664
		c0.242,0,0.447,0.086,0.58,0.246c0.131,0.158,0.182,0.378,0.141,0.616l-2.021,15.881c-0.105,0.551-0.662,1.02-1.225,1.02h-12.072
		c-0.566,0-1.137-0.473-1.238-1.016l-2.535-15.894C110.049,92.853,110.096,92.635,110.225,92.476z"/>
	<path fill="#FFFFFF" d="M115.693,107.516c0.537-0.02,0.957-0.527,0.936-1.145l-1.17-10.569c-0.023-0.613-0.473-1.098-1.006-1.082
		c-0.539,0.018-0.955,0.525-0.936,1.143l1.168,10.571C114.709,107.047,115.16,107.531,115.693,107.516z"/>
	<path fill="#FFFFFF" d="M119.734,107.543c0.533-0.047,0.928-0.574,0.881-1.188L120.59,95.72c-0.047-0.617-0.518-1.073-1.059-1.03
		c-0.533,0.048-0.924,0.579-0.877,1.19l0.021,10.64C118.725,107.133,119.201,107.59,119.734,107.543z"/>
	<path fill="#FFFFFF" d="M123.535,107.516c0.535,0.016,0.986-0.469,1.008-1.082l1.17-10.571c0.02-0.617-0.396-1.125-0.936-1.143
		c-0.535-0.016-0.982,0.469-1.008,1.082l-1.17,10.569C122.58,106.988,122.998,107.496,123.535,107.516z"/>
	<path fill="#FFFFFF" d="M125.408,80.412c-0.549,0.288-0.727,1.03-0.4,1.666l9.613,15.391c0.326,0.63,1.033,0.907,1.58,0.623
		c0.547-0.285,0.729-1.031,0.396-1.663l-3.596-5.76l1.836-1.225c0.211-0.141,0.271-0.43,0.131-0.645l-1.914-2.926
		c-0.139-0.215-0.424-0.273-0.637-0.131l-1.762,1.172l-3.67-5.879C126.658,80.405,125.955,80.125,125.408,80.412z"/>
	<path fill="#FFFFFF" d="M111.965,81.001c3.1,1.815,3.492,4.556,3.492,4.556l-2.502,1.153l6.307,3.13l2.605-7.363l-2.5,1.211
		c0,0-1.586-5.301-7.752-5.694c-6.166-0.391-7.855,3.485-7.855,3.485S108.863,79.188,111.965,81.001z"/>
	<path fill="#FFFFFF" d="M25.916,90.059c0,0.396,0.534,0.714,1.191,0.714h24.283c0.657,0,1.191-0.317,1.191-0.714
		c0-0.392-0.534-0.712-1.191-0.712H27.107C26.45,89.347,25.916,89.667,25.916,90.059z"/>
	<path fill="#FFFFFF" d="M46.414,72.542l-4.755-5.054L27.308,81.007l4.756,5.054L46.414,72.542z M41.626,68.604l3.674,3.904
		L32.097,84.946l-3.676-3.906L41.626,68.604z"/>
	<polygon fill="#FFFFFF" points="25.916,87.081 31.666,86.434 26.911,81.382 	"/>
	<path fill="#FFFFFF" d="M44.582,64.734l-2.524,2.377l4.756,5.054l2.523-2.378c0.93-0.874,0.971-2.348,0.099-3.272l-1.581-1.681
		C46.979,63.903,45.511,63.858,44.582,64.734z"/>
	<path fill="#FFFFFF" d="M82.356,11.666c7.38,0,13.622-4.93,15.626-11.666H96.02c-1.938,5.691-7.322,9.8-13.663,9.8
		C76.02,9.8,70.633,5.691,68.693,0h-1.957C68.74,6.736,74.981,11.666,82.356,11.666z"/>
	<path fill="#FFFFFF" d="M82.356,2.72c0.518,0,0.935-0.415,0.935-0.933V0h-1.867v1.787C81.424,2.305,81.845,2.72,82.356,2.72z"/>
	<path fill="#FFFFFF" d="M21.801,14.622l8.024-8.045v5.102c0,0.703,0.57,1.273,1.271,1.273c0.694,0,1.259-0.57,1.259-1.273V3.523
		l-0.085-0.438l-0.242-0.402l-0.411-0.301l-0.472-0.115l-8.207-0.005c-0.694,0-1.257,0.565-1.257,1.261
		c0,0.701,0.563,1.272,1.257,1.272h5.099l-8.024,8.035c-0.236,0.23-0.37,0.555-0.37,0.891c0,0.338,0.134,0.662,0.369,0.89
		C20.49,15.092,21.32,15.097,21.801,14.622z"/>
	<path fill="#FFFFFF" d="M37.495,12.916c0.436,0,0.789-0.355,0.789-0.793V5.717l0.124,0.125l8.898,8.92
		c0.138,0.134,0.338,0.213,0.547,0.213c0.215,0,0.421-0.082,0.563-0.225c0.146-0.142,0.228-0.338,0.228-0.548
		c0-0.212-0.08-0.404-0.226-0.547l-9.026-9.038h6.401c0.428,0,0.777-0.354,0.777-0.789c0-0.43-0.35-0.778-0.777-0.778h-8.272
		L37.2,3.114l-0.268,0.179l-0.146,0.235l-0.072,0.351l0.005,8.244C36.719,12.561,37.067,12.916,37.495,12.916z"/>
	<path fill="#FFFFFF" d="M115.418,12.607h3.48l8.342,9.63c0.373,0.318,0.844,0.493,1.326,0.493c0.313,0,0.611-0.07,0.887-0.205
		c0.727-0.349,1.195-1.105,1.195-1.929V0h-1.576v20.597c0,0.199-0.113,0.383-0.297,0.471c-0.166,0.083-0.379,0.056-0.531-0.071
		l-8.777-10.003h-1.814c-0.281,0-0.506-0.233-0.506-0.52v-5.28c0-0.285,0.225-0.518,0.506-0.518h1.814L123.57,0h-2.021l-2.65,3.062
		h-3.48c-1.148,0-2.082,0.956-2.082,2.132v5.28C113.336,11.651,114.27,12.607,115.418,12.607z"/>
	<path fill="#FFFFFF" d="M135.156,7.834c0,1.749-0.537,3.413-1.551,4.813c-0.27,0.374-0.232,0.904,0.086,1.231l0.176,0.179
		c0.172,0.177,0.404,0.276,0.648,0.276l0.066-0.004c0.27-0.021,0.514-0.156,0.672-0.375c1.299-1.781,1.986-3.897,1.986-6.121
		c0-2.388-0.775-4.624-2.244-6.465c-0.164-0.205-0.408-0.332-0.666-0.344h-0.01c-0.297,0-0.516,0.095-0.689,0.274l-0.174,0.178
		c-0.336,0.341-0.361,0.886-0.061,1.261C134.549,4.195,135.156,5.956,135.156,7.834z"/>
	<path fill="#FFFFFF" d="M137.063,16.925c-0.43,0.525-0.398,1.304,0.076,1.789l0.17,0.175c0.244,0.248,0.574,0.388,0.916,0.388
		c0.018,0,0.037,0,0.053-0.002c0.363-0.016,0.699-0.185,0.938-0.468c2.521-3.064,3.91-6.961,3.91-10.973
		c0-2.754-0.66-5.432-1.877-7.834h-3.279c1.504,2.309,2.332,5.024,2.332,7.834C140.301,11.154,139.15,14.383,137.063,16.925z"/>
	<path fill="#FFFFFF" d="M164.008,3h8.648c0.383,0,0.693-0.313,0.693-0.696c0-0.382-0.311-0.691-0.693-0.691h-8.648
		c-0.381,0-0.691,0.31-0.691,0.691C163.316,2.687,163.627,3,164.008,3z"/>
	<path fill="#FFFFFF" d="M159.783,8.175l0.074,0.052v5.939l5.85-3.569l0.063,0.012c0.893,0.143,1.73,0.213,2.563,0.213
		c7.086,0,12.926-4.757,13.6-10.821h-1.398c-0.678,5.298-5.887,9.434-12.201,9.434c-0.938,0-1.91-0.104-2.891-0.31l-4.283,2.584
		l0.057-4.244c-2.861-1.761-4.695-4.486-5.08-7.464h-1.395C155.096,3.199,156.883,6.132,159.783,8.175z"/>
	<path fill="#FFFFFF" d="M82.356,179.055c-8.987,0-16.303,7.316-16.303,16.305c0,1.613,0.244,3.168,0.683,4.641h1.957
		c-0.497-1.459-0.779-3.016-0.779-4.641c0-7.963,6.48-14.443,14.442-14.443c7.966,0,14.441,6.48,14.441,14.443
		c0,1.625-0.282,3.182-0.778,4.641h1.963c0.438-1.473,0.683-3.027,0.683-4.641C98.665,186.371,91.35,179.055,82.356,179.055z"/>
	<path fill="#FFFFFF" d="M88.785,194.426h-5.494v-5.496c0-0.514-0.417-0.934-0.935-0.934c-0.512,0-0.933,0.42-0.933,0.934v5.496
		h-5.497c-0.512,0-0.933,0.42-0.933,0.934c0,0.516,0.421,0.932,0.933,0.932h5.497V200h1.867v-3.709h5.494
		c0.519,0,0.933-0.416,0.933-0.932C89.718,194.846,89.304,194.426,88.785,194.426z"/>
	<path fill="#FFFFFF" d="M47.382,185.971c-0.339,0-0.656,0.133-0.896,0.371l-8.023,8.041v-5.109c0-0.695-0.571-1.258-1.271-1.258
		c-0.693,0-1.258,0.563-1.258,1.258v8.168l0.097,0.484c0.124,0.309,0.374,0.559,0.725,0.695l0.388,0.078l8.195,0.006
		c0.701,0,1.27-0.564,1.27-1.264s-0.568-1.27-1.27-1.27h-5.097l8.035-8.039c0.491-0.492,0.491-1.295,0-1.791
		C48.037,186.104,47.719,185.971,47.382,185.971z M47.929,187.789l-8.873,8.873h6.282c0.429,0,0.779,0.35,0.779,0.779
		c0,0.428-0.351,0.773-0.779,0.773h-8.121l-0.322-0.063c-0.186-0.074-0.335-0.223-0.396-0.367l-0.075-0.367v-8.145
		c0-0.422,0.347-0.766,0.769-0.766c0.43,0,0.781,0.344,0.781,0.766v6.293l8.86-8.877c0.293-0.295,0.805-0.291,1.096-0.002
		C48.229,186.992,48.229,187.486,47.929,187.789z"/>
	<path fill="#FFFFFF" d="M30.771,188.049c-0.434,0-0.788,0.35-0.788,0.779v6.41l-9.024-9.041c-0.141-0.146-0.334-0.227-0.544-0.227
		s-0.405,0.082-0.549,0.229c-0.143,0.143-0.223,0.348-0.223,0.564c0,0.211,0.077,0.408,0.212,0.549l8.907,8.912l0.124,0.123h-6.397
		c-0.437,0-0.792,0.354-0.792,0.789c0,0.43,0.355,0.781,0.792,0.781l8.231,0.004l0.351-0.074l0.235-0.145l0.178-0.27l0.065-0.32
		v-8.285C31.549,188.398,31.2,188.049,30.771,188.049z"/>
	<path fill="#FFFFFF" d="M129.457,193.141c-0.719-0.348-1.605-0.23-2.217,0.287L121.549,200h2.021l4.674-5.328
		c0.148-0.127,0.357-0.16,0.541-0.07c0.176,0.086,0.287,0.27,0.287,0.469V200h1.576v-4.93
		C130.648,194.246,130.18,193.488,129.457,193.141z"/>
	<path fill="#FFFFFF" d="M138.012,196.094c-0.375-0.012-0.703,0.133-0.953,0.391l-0.17,0.174c-0.482,0.494-0.508,1.289-0.051,1.814
		c0.416,0.48,0.787,0.996,1.131,1.527h3.279c-0.627-1.234-1.391-2.402-2.307-3.461C138.703,196.268,138.365,196.105,138.012,196.094
		z"/>
	<path fill="#FFFFFF" d="M174.385,196.395h-12.109c-0.381,0-0.693,0.313-0.693,0.697c0,0.381,0.313,0.691,0.693,0.691h12.109
		c0.381,0,0.691-0.311,0.691-0.691C175.076,196.707,174.766,196.395,174.385,196.395z"/>
	<path fill="#FFFFFF" d="M168.332,186.832c-7.535,0-13.666,5.381-13.666,11.996c0,0.395,0.031,0.785,0.074,1.172h1.395
		c-0.051-0.387-0.082-0.777-0.082-1.172c0-5.848,5.508-10.602,12.279-10.602c6.773,0,12.281,4.754,12.281,10.602
		c0,0.395-0.029,0.785-0.08,1.172h1.398c0.043-0.387,0.068-0.777,0.068-1.172C182,192.213,175.869,186.832,168.332,186.832z"/>
	<path fill="#FFFFFF" d="M197.645,11.575c0,1.702,0.957,3.169,2.355,3.947V7.628C198.602,8.406,197.645,9.873,197.645,11.575z"/>
	<path fill="#FFFFFF" d="M195.594,30.336l0.43,0.218c1.303,0.661,2.758,1.658,3.977,2.552v-1.181
		c-1.014-0.724-2.096-1.439-3.121-1.996c1.053-2.009,2.084-3.875,3.121-5.694v-1.912c-1.4,2.393-2.771,4.874-4.184,7.588
		L195.594,30.336z"/>
	<path fill="#FFFFFF" d="M199.094,16.101c-0.33-0.182-0.658-0.362-0.775-0.433c-2.244-1.319-4.508-1.988-6.736-1.988
		c-3.797,0-7.182,1.911-9.789,5.526c-0.572,0.797-0.664,1.669-0.26,2.46c0.471,0.919,1.539,1.535,2.654,1.535
		c0.924,0,1.732-0.418,2.281-1.18c1.738-2.412,3.914-3.352,6.445-2.765c-1.314,2.301-2.516,4.643-4.268,8.088
		c-1.191,2.346-3.635,4.713-6.41,4.714c-0.887,0-1.754-0.242-2.582-0.724c-0.506-0.292-1.029-0.441-1.557-0.441
		c-1.268,0-2.436,0.918-2.777,2.181c-0.32,1.199,0.197,2.359,1.346,3.025c1.805,1.045,3.76,1.574,5.813,1.574
		c3.498,0,6.875-1.558,9.104-4.18c0.021,0.008,0.041,0.014,0.061,0.021c2.521,0.869,5.871,3.233,6.809,3.997
		c0.393,0.32,0.963,1.333,1.549,2.506v-2.002c-0.346-0.576-0.662-1.009-0.949-1.241c-1.139-0.929-4.508-3.265-7.096-4.158
		c-0.102-0.037-0.195-0.078-0.283-0.127l-0.35-0.187l-0.246,0.312c-2.016,2.532-5.309,4.107-8.598,4.107
		c-1.885,0-3.678-0.485-5.334-1.444c-1.117-0.646-1.004-1.583-0.904-1.958c0.197-0.732,0.898-1.477,1.857-1.477
		c0.357,0,0.721,0.106,1.078,0.314c0.977,0.563,2.004,0.852,3.061,0.852c2.793,0,5.641-2.056,7.26-5.233
		c1.877-3.697,3.121-6.119,4.549-8.575l0.299-0.514l-0.566-0.18c-3.166-1-5.967,0.024-8.082,2.958
		c-0.467,0.649-1.078,0.786-1.508,0.786c-0.756,0-1.5-0.42-1.809-1.021c-0.236-0.464-0.174-0.972,0.186-1.469
		c2.422-3.358,5.539-5.132,9.018-5.132c2.057,0,4.16,0.625,6.254,1.858c0.125,0.072,0.457,0.255,0.799,0.443
		c0.344,0.191,0.693,0.385,0.818,0.458c0.184,0.108,0.363,0.178,0.547,0.273v-1.06c-0.021-0.013-0.043-0.02-0.064-0.032
		C199.807,16.495,199.447,16.297,199.094,16.101z"/>
	<path fill="#FFFFFF" d="M198.486,56.964l-13.805,4.684c-0.238,0.081-0.455,0.263-0.58,0.487l-6.016,11.043
		c-0.133,0.245-0.156,0.543-0.064,0.819l6.305,18.578c0.182,0.536,0.768,0.826,1.305,0.644l12.246-4.155
		c0.537-0.182,0.824-0.769,0.643-1.304c-0.182-0.538-0.768-0.828-1.305-0.646l-11.271,3.826l-5.898-17.382l0.285-0.002
		c0.031,0,0.098-0.022,0.137-0.035l6.432-2.183c0.539-0.183,0.828-0.77,0.646-1.306l-2.186-6.443l12.814-4.349L200,64.622v-6.405
		l-0.207-0.61C199.611,57.069,199.023,56.781,198.486,56.964z"/>
	<path fill="#FFFFFF" d="M198.199,82.886c0.223,0.659,0.939,1.013,1.598,0.789L200,83.605v-2.659l-1.014,0.344
		C198.328,81.514,197.975,82.229,198.199,82.886z"/>
	<path fill="#FFFFFF" d="M194.184,107.797l-11.422,14.188c-0.818,1.455-0.338,3.158,1.066,3.793L200,130.109v-23.324l-1.785-0.479
		C196.809,105.674,195,106.344,194.184,107.797z"/>
	<path fill="#FFFFFF" d="M185.676,129.697c-0.186-0.059-0.387-0.074-0.594-0.008c-0.482,0.16-0.756,0.648-0.611,1.092
		c0.096,0.281,0.344,0.463,0.631,0.529l-0.008,0.018L200,135.326v-1.789l-14.322-3.85L185.676,129.697z"/>
	<path fill="#FFFFFF" d="M187.447,135.09c-0.193-0.072-0.418-0.09-0.639-0.016c-0.482,0.156-0.756,0.645-0.611,1.09
		c0.098,0.297,0.367,0.484,0.676,0.539l-0.008,0.014L200,140.238v-1.789l-12.547-3.371L187.447,135.09z"/>
	<path fill="#FFFFFF" d="M186.947,174.213l3.729-7.172c0.27-0.521,0.066-1.164-0.455-1.438c-0.521-0.27-1.166-0.066-1.438,0.455
		l-3.779,7.271c-1.762,3.393-1.316,5.994,1.252,7.328L200,187.801v-4.27l-10.725-5.572
		C187.094,176.826,186.076,175.889,186.947,174.213z"/>
	<path fill="#FFFFFF" d="M197.391,170.4c-0.176-0.545-0.795-0.867-1.34-0.695c-0.559,0.18-0.869,0.781-0.693,1.34l2.406,7.602
		c0.084,0.27,0.273,0.496,0.52,0.625c0.252,0.133,0.549,0.154,0.809,0.066l0.908-0.287v-5.393l-0.984,1.895L197.391,170.4z"/>
	<path fill="#FFFFFF" d="M3.918,23.237c3.795,0,7.178-1.908,9.779-5.519c0.574-0.797,0.666-1.671,0.262-2.46
		c-0.473-0.92-1.539-1.538-2.656-1.538c-0.918,0-1.729,0.421-2.279,1.181C6.711,18.112,3.584,18.684,0,16.604v1.06
		c3.836,2.008,7.305,1.253,9.795-2.206c0.467-0.65,1.078-0.786,1.508-0.786c0.76,0,1.502,0.419,1.811,1.019
		c0.236,0.464,0.172,0.973-0.188,1.471c-2.414,3.354-5.533,5.126-9.008,5.126c-1.047,0-2.123-0.165-3.193-0.491l-0.359-0.108
		L0.178,22.01C0.117,22.111,0.059,22.22,0,22.322v1.912c0.27-0.473,0.537-0.961,0.809-1.425C1.852,23.094,2.895,23.237,3.918,23.237
		z"/>
	<path fill="#FFFFFF" d="M6.818,11.575c0-2.51-2.053-4.545-4.586-4.545C1.418,7.03,0.664,7.259,0,7.628v7.895
		c0.664,0.369,1.418,0.598,2.232,0.598C4.766,16.12,6.818,14.085,6.818,11.575z"/>
	<path fill="#FFFFFF" d="M2.154,44.584c0.467,0.958,1.328,1.506,2.357,1.506c1.008,0,1.992-0.532,2.506-1.356
		c0.467-0.744,0.496-1.621,0.082-2.467c-0.238-0.488-0.51-1.072-0.799-1.703c-1.217-2.633-2.732-5.91-4.061-6.957
		C1.594,33.096,0.816,32.508,0,31.925v1.181c0.635,0.465,1.223,0.909,1.65,1.247c1.15,0.906,2.672,4.202,3.785,6.608
		c0.297,0.639,0.568,1.23,0.809,1.723c0.338,0.693,0.17,1.226-0.031,1.547c-0.34,0.545-1.023,0.909-1.701,0.909
		c-0.383,0-1.09-0.127-1.504-0.972c-0.246-0.505-0.533-1.128-0.842-1.797C1.346,40.588,0.625,39.059,0,38.017v2.002
		c0.449,0.899,0.908,1.892,1.303,2.75C1.615,43.444,1.906,44.074,2.154,44.584z"/>
	<path fill="#FFFFFF" d="M2.65,69.236c0.539-0.183,0.828-0.768,0.646-1.305L0,58.217v6.405l1.348,3.971
		C1.529,69.13,2.115,69.418,2.65,69.236z"/>
	<path fill="#FFFFFF" d="M7.273,87.146c0.223,0.657,0.939,1.01,1.598,0.787c0.658-0.224,1.012-0.939,0.787-1.597L7.83,80.948
		l5.125-1.738c0.656-0.223,1.01-0.938,0.787-1.599c-0.223-0.656-0.941-1.009-1.598-0.786l-5.123,1.738l-1.828-5.387
		c-0.223-0.657-0.939-1.012-1.598-0.788s-1.012,0.94-0.787,1.598l1.826,5.387L0,80.946v2.659l5.445-1.848L7.273,87.146z"/>
	<path fill="#FFFFFF" d="M5.996,129.152l11.426-14.191c0.813-1.457,0.336-3.154-1.072-3.791L0,106.785v23.324l1.967,0.527
		C3.373,131.273,5.18,130.605,5.996,129.152z"/>
	<path fill="#FFFFFF" d="M5.902,136.248c0.98-0.32,1.859-0.994,2.416-1.936l11.377-14.131l-0.014-0.01
		c0.18-0.219,0.26-0.498,0.172-0.771c-0.146-0.441-0.654-0.672-1.137-0.514c-0.191,0.064-0.334,0.184-0.447,0.326l-0.012-0.008
		L6.832,133.391l-0.086,0.125c-0.287,0.508-0.742,0.9-1.287,1.102c-0.531,0.195-1.051,0.186-1.504-0.018L0,133.537v1.789
		l3.162,0.848C4.031,136.541,5.008,136.543,5.902,136.248z"/>
	<path fill="#FFFFFF" d="M7.678,141.643H7.68c1.008-0.334,1.881-1.037,2.412-1.939l11.379-14.129l-0.016-0.014
		c0.188-0.219,0.273-0.508,0.184-0.785c-0.146-0.443-0.656-0.672-1.139-0.51c-0.197,0.063-0.346,0.188-0.459,0.338l-0.01-0.006
		L8.607,138.781l-0.088,0.125c-0.297,0.531-0.795,0.941-1.365,1.131H7.152c-0.49,0.162-0.996,0.145-1.424-0.049L0,138.449v1.789
		l4.936,1.322C5.777,141.918,6.744,141.947,7.678,141.643z"/>
	<path fill="#FFFFFF" d="M14.035,178.127c-0.52-0.27-1.164-0.066-1.438,0.457l-3.664,7.055c-0.873,1.678-2.219,1.383-4.402,0.248
		L0,183.531v4.27l4.057,2.109c2.568,1.332,4.953,0.201,6.715-3.189l3.719-7.154C14.762,179.045,14.559,178.398,14.035,178.127z"/>
	<path fill="#FFFFFF" d="M7.385,175.596c-0.172-0.545-0.791-0.865-1.334-0.693l-5.145,1.631L9,160.955
		c0.271-0.521,0.068-1.166-0.453-1.438s-1.164-0.068-1.436,0.455L0,173.658v5.393l6.689-2.117
		C7.25,176.758,7.563,176.156,7.385,175.596z"/>
	<path fill="#FFFFFF" d="M131.041,149.475c0.699,0.699,1.836,0.699,2.535,0l12.566-12.566c0.699-0.699,0.699-1.834,0-2.533
		l-1.758-1.756l-12.031,12.033l-9.045-9.043l9.014-9.012l3.004,3.004l-6.008,6.008l3.035,3.033l9.027-9.029l-7.758-7.756
		c-0.699-0.699-1.834-0.699-2.533,0l-12.566,12.566c-0.697,0.699-0.697,1.836,0,2.533L131.041,149.475z"/>
	<path fill="#FFFFFF" d="M123.619,185.641c0-0.355-0.289-0.648-0.646-0.648h-4.293l4.404-4.406l-0.918-0.912l-4.4,4.395l0.025-4.26
		c0-0.357-0.293-0.645-0.65-0.645c-0.355,0-0.648,0.287-0.648,0.645v5.832c0,0.189,0.082,0.348,0.207,0.451
		c0.117,0.123,0.281,0.193,0.461,0.193h5.813C123.33,186.285,123.619,186,123.619,185.641z"/>
	<path fill="#FFFFFF" d="M138.965,177.506v-11.949c0-0.496-0.199-0.938-0.531-1.219c-0.326-0.332-0.779-0.525-1.242-0.525h-11.918
		c-0.957,0-1.736,0.785-1.736,1.744c0,0.961,0.779,1.744,1.736,1.744h7.805l-8.609,8.609l2.459,2.467l8.596-8.596l-0.033,7.725
		c0,0.963,0.779,1.742,1.742,1.742C138.188,179.248,138.965,178.469,138.965,177.506z M136.314,177.506l0.041-9.73l-9.428,9.43
		l-1.289-1.295l9.439-9.438h-9.805c-0.502,0-0.908-0.412-0.908-0.916c0-0.506,0.406-0.916,0.908-0.916h11.918
		c0.244,0,0.479,0.1,0.676,0.303c0.18,0.15,0.271,0.361,0.271,0.613v11.949c0,0.504-0.408,0.914-0.906,0.914
		C136.725,178.42,136.314,178.01,136.314,177.506z"/>
	<path fill="#FFFFFF" d="M105.563,121.531c0.094,0.053,0.219,0.037,0.324-0.047c0.109-0.078,0.184-0.209,0.199-0.344l-0.234-4.797
		c0.012-0.133-0.035-0.252-0.125-0.305c-0.094-0.053-0.219-0.035-0.324,0.047l-4.27,2.203c-0.055,0.039-0.103,0.094-0.134,0.15
		c-0.037,0.063-0.059,0.129-0.064,0.191c-0.017,0.139,0.033,0.252,0.123,0.305l2.274-0.316l-10.638,18.473l-0.867-2.125
		c-0.093-0.053-0.217-0.037-0.325,0.047c-0.107,0.076-0.183,0.209-0.198,0.342l0.234,4.797c-0.016,0.135,0.034,0.252,0.128,0.305
		c0.091,0.053,0.216,0.037,0.323-0.043l4.271-2.205c0.057-0.037,0.101-0.092,0.134-0.148c0.035-0.063,0.061-0.127,0.063-0.195
		c0.018-0.133-0.031-0.252-0.123-0.305l-2.271,0.32l10.637-18.473L105.563,121.531z"/>
	<path fill="#FFFFFF" d="M71.428,128.807l13.158,7.576c0.92,0.531,2.097,0.219,2.623-0.695l10.151-17.629l-1.8-7.867l-10.073-5.801
		c-0.92-0.531-2.1-0.215-2.624,0.697l-12.151,21.1C70.186,127.102,70.507,128.275,71.428,128.807z M72.117,126.994l12.148-21.1
		c0.083-0.143,0.272-0.193,0.418-0.109l9.063,5.219l-2.324,4.035c-0.223,0.387-0.085,0.877,0.306,1.104l3.657,2.105l-9.576,16.629
		c-0.084,0.146-0.273,0.197-0.42,0.111l-13.159-7.576C72.085,127.328,72.033,127.139,72.117,126.994z"/>
	<path fill="#FFFFFF" d="M90.569,120.807c0.274,0.158,0.642,0.045,0.815-0.258s0.087-0.674-0.187-0.83l-8.674-4.996
		c-0.275-0.158-0.639-0.047-0.813,0.256c-0.174,0.301-0.091,0.676,0.186,0.836L90.569,120.807z"/>
	<path fill="#FFFFFF" d="M89.06,123.432c0.274,0.156,0.641,0.041,0.814-0.26c0.175-0.303,0.088-0.674-0.187-0.832l-8.673-4.996
		c-0.275-0.158-0.64-0.043-0.814,0.26c-0.173,0.301-0.091,0.674,0.186,0.834L89.06,123.432z"/>
	<path fill="#FFFFFF" d="M82.983,123.424c0.276,0.158,0.64,0.043,0.814-0.26c0.173-0.301,0.09-0.674-0.186-0.834l-4.107-2.365
		c-0.276-0.156-0.641-0.041-0.813,0.26c-0.175,0.303-0.091,0.674,0.185,0.834L82.983,123.424z"/>
	<path fill="#FFFFFF" d="M69.669,154.615c0.393,0.822,1.229,1.303,2.131,1.234c0.132-0.008,0.263-0.029,0.396-0.064
		c0.76-0.205,1.349-0.803,1.542-1.563c0.096-0.361,0.09-0.742-0.007-1.105c-0.097-0.359-0.281-0.688-0.541-0.947l-0.061-0.064
		c-0.547-0.518-1.328-0.719-2.06-0.523c-1.157,0.311-1.848,1.504-1.537,2.662C69.567,154.375,69.614,154.5,69.669,154.615z"/>
	<path fill="#FFFFFF" d="M84.253,168.193c0.053-0.01,0.105-0.025,0.156-0.045c1.408-0.475,2.197-1.955,1.816-3.375l-3.668-13.68
		c-0.398-1.486-1.93-2.369-3.419-1.969l-1.441,0.385l-0.429-1.602c-0.479-1.785-2.323-2.85-4.107-2.369l-13.299,3.566
		c-1.55,0.414-2.592,1.875-2.479,3.469c0.018,0.209,0.054,0.424,0.111,0.639l4.676,17.434c0.479,1.785,2.319,2.85,4.104,2.369
		L84.253,168.193z M79.538,150.615c0.665-0.18,1.352,0.219,1.529,0.879l3.668,13.678c0.152,0.564-0.113,1.166-0.631,1.43
		c-0.053,0.035-0.141,0.076-0.252,0.104l-1.916,0.516l0.078-0.484c0.076-0.471,0.051-0.939-0.072-1.395l-3.846-14.34L79.538,150.615
		z M62.844,165.273l-0.393,0.467l-3.468-12.928c-0.085-0.316-0.078-0.652,0.014-0.971c0.164-0.602,0.648-1.082,1.264-1.248
		l13.301-3.566c0.961-0.258,1.954,0.316,2.213,1.281L79,160.334c0,0-1.186,1.711-2.946,1.838c-3.758,0.268-6.537-3.346-9.023-2.5
		C64.702,160.463,64.019,163.879,62.844,165.273z"/>
	<path fill="#FFFFFF" d="M117.902,152.918l0.602-0.631c0.938-0.982,0.938-2.584,0-3.568l-3.695-3.881
		c-0.496-0.496-1.094-0.76-1.73-0.76c-0.652,0-1.309,0.285-1.754,0.762l-0.574,0.604c-0.684-0.352-1.613-0.207-2.141,0.346
		l-10.505,11.023l-1.879,6.449l-4.35,4.561l5.951,3.586l3.119-3.271l6.046-1.902l10.609-11.1
		C118.16,154.549,118.277,153.637,117.902,152.918z M100.749,166.637l-3.039-3.189l1.623-5.113l6.288,6.598L100.749,166.637z
		 M116.539,154.113l-9.594,10.07l-6.917-7.254l9.644-10.117c0.125-0.131,0.355-0.133,0.48,0l6.387,6.707
		C116.691,153.678,116.691,153.953,116.539,154.113z M116.938,151.797l-5.105-5.355l0.555-0.576c0.348-0.371,1.012-0.371,1.363,0
		l3.695,3.877c0.398,0.418,0.398,1.102,0,1.523L116.938,151.797z"/>
	<path fill="#FFFFFF" d="M36.114,169.104c0.242-0.047,0.484-0.088,0.725-0.127c0.56-0.094,1.141-0.188,1.688-0.367l1.324-0.4
		l0.755-0.291c0.663-0.23,1.281-0.563,1.777-0.826l1.06-0.596l2.018,2.43c0.17,0.205,0.438,0.285,0.691,0.207
		c0.083-0.025,0.157-0.066,0.222-0.119c0.13-0.107,0.215-0.268,0.233-0.438l0.726-7.854c0.016-0.174-0.036-0.342-0.146-0.473
		c-0.11-0.133-0.268-0.217-0.439-0.232l-7.854-0.729c-0.26-0.023-0.51,0.111-0.632,0.344c-0.124,0.232-0.092,0.514,0.076,0.717
		l1.932,2.326l-0.073,0.063l-0.563,0.398c-0.295,0.217-0.598,0.441-0.986,0.645l-0.741,0.428l-0.811,0.365
		c-0.359,0.186-0.74,0.309-1.148,0.439c-0.211,0.07-0.433,0.141-0.65,0.223c-0.193,0.039-0.385,0.086-0.581,0.135
		c-0.466,0.109-0.951,0.227-1.423,0.268c-0.577,0.098-1.117,0.115-1.688,0.135c-0.172,0.002-0.345,0.01-0.519,0.014
		c-0.167-0.01-0.338-0.02-0.508-0.027c-0.58-0.035-1.128-0.066-1.654-0.172c-0.557-0.066-1.036-0.193-1.545-0.33
		c-0.195-0.053-0.39-0.105-0.583-0.15c-0.221-0.09-0.444-0.166-0.664-0.244c-0.436-0.152-0.847-0.299-1.197-0.49l-0.894-0.434
		l-0.766-0.469c-0.47-0.264-0.844-0.553-1.209-0.836l-1.013-0.838l-0.811-0.762c-0.249-0.234-0.646-0.225-0.884-0.004
		c-0.248,0.229-0.279,0.611-0.068,0.879l1.065,1.348l0.588,0.611c0.345,0.359,0.734,0.768,1.233,1.156l0.727,0.609l0.909,0.627
		c0.409,0.309,0.896,0.568,1.364,0.818c0.211,0.111,0.429,0.229,0.643,0.35c0.023,0.018,0.049,0.025,0.074,0.039
		c0.19,0.076,0.384,0.16,0.577,0.246c0.562,0.242,1.142,0.494,1.776,0.67c0.628,0.229,1.333,0.373,2.013,0.518l0.502,0.105
		c0.02,0.004,0.042,0.008,0.063,0.012l0.508,0.059c0.696,0.086,1.417,0.17,2.147,0.156c0.637,0.041,1.294-0.016,1.927-0.072
		c0.21-0.016,0.418-0.035,0.628-0.049C36.061,169.113,36.089,169.109,36.114,169.104z"/>
	<path fill="#FFFFFF" d="M20.827,160.234l0.786,0.736l0.944,0.783l0.292-0.242c-3.691-4.477-3.068-11.102,1.398-14.813
		c4.478-3.717,11.121-3.104,14.84,1.377c2.465,2.967,3.014,6.881,1.808,10.268l1.677,0.156c1.211-3.838,0.524-8.191-2.232-11.512
		c-4.309-5.188-12.031-5.904-17.22-1.596c-4.294,3.566-5.516,9.469-3.367,14.34C20.144,159.783,20.522,159.949,20.827,160.234z"/>
	<path fill="#FFFFFF" d="M35.949,149.484l-4.962,4.121l-3.514-4.232c-0.311-0.373-0.869-0.426-1.244-0.115
		c-0.374,0.311-0.425,0.869-0.114,1.244l4.079,4.912c0.309,0.371,0.866,0.424,1.241,0.113l5.642-4.686
		c0.375-0.311,0.426-0.869,0.117-1.24C36.882,149.225,36.324,149.172,35.949,149.484z"/>
</g>
</svg>
