<?xml version="1.0" encoding="utf-8"?>
<!-- Generator: Adobe Illustrator 15.1.0, SVG Export Plug-In . SVG Version: 6.00 Build 0)  -->
<!DOCTYPE svg PUBLIC "-//W3C//DTD SVG 1.1//EN" "http://www.w3.org/Graphics/SVG/1.1/DTD/svg11.dtd">
<svg version="1.1" id="Layer_1" xmlns="http://www.w3.org/2000/svg" xmlns:xlink="http://www.w3.org/1999/xlink" x="0px" y="0px"
	 width="300px" height="300px" viewBox="100 100 300 300" enable-background="new 100 100 300 300" xml:space="preserve">
<g>
	<path fill="#FFFFFF" d="M294.719,175.46c0.225-0.579-0.057-1.235-0.639-1.46l-21.66-8.481l6.244-2.737
		c0.567-0.25,0.828-0.919,0.582-1.496c-0.123-0.272-0.34-0.486-0.623-0.595c-0.279-0.11-0.586-0.104-0.864,0.02l-8.739,3.835
		c-0.125,0.056-0.248,0.142-0.365,0.262c-0.094,0.101-0.176,0.223-0.227,0.359c-0.053,0.136-0.078,0.284-0.078,0.447
		c0.006,0.142,0.035,0.286,0.094,0.419l3.811,8.744c0.243,0.558,0.933,0.826,1.483,0.583c0.57-0.249,0.835-0.919,0.586-1.49
		l-2.725-6.245l21.656,8.479C293.834,176.331,294.49,176.042,294.719,175.46z"/>
	<path fill="#FFFFFF" d="M253.875,184.602l19.406,7.599c2.805,1.097,5.971-0.295,7.072-3.1l4.516-11.546
		c0.012-0.026,0.135-0.331,0.012-0.617c-0.1-0.236-0.352-0.432-0.748-0.589c-0.299-0.116-0.72-0.227-1.008-0.082
		c-0.239,0.126-0.334,0.4-0.334,0.4l-4.537,11.61c-0.642,1.646-2.508,2.461-4.146,1.818l-19.407-7.598
		c-1.639-0.644-2.453-2.505-1.809-4.15l10.654-27.208c0.645-1.642,2.502-2.457,4.143-1.815l19.406,7.598
		c1.64,0.645,2.455,2.503,1.811,4.147l-1.811,4.632l-0.033,0.056c0,0-0.123,0.229-0.043,0.455c0.084,0.233,0.381,0.456,0.834,0.634
		c0.305,0.119,0.725,0.231,1.009,0.087c0.252-0.119,0.334-0.403,0.337-0.406l1.811-4.636c1.096-2.807-0.287-5.978-3.087-7.076
		l-19.406-7.599c-2.801-1.096-5.968,0.294-7.069,3.101l-10.652,27.207C249.695,180.332,251.078,183.506,253.875,184.602z"/>
	<path fill="#FFFFFF" d="M320.148,197.731c-0.484-0.213-1.061,0.012-1.275,0.5c-0.213,0.488,0.006,1.061,0.496,1.276l15.148,6.674
		c0.484,0.215,1.061-0.007,1.275-0.494c0.216-0.491-0.006-1.065-0.496-1.281L320.148,197.731z"/>
	<path fill="#FFFFFF" d="M322.686,191.976c-0.489-0.213-1.061,0.007-1.277,0.497c-0.214,0.489,0.009,1.063,0.494,1.28l15.15,6.674
		c0.486,0.215,1.061-0.009,1.277-0.498s-0.006-1.063-0.498-1.277L322.686,191.976z"/>
	<path fill="#FFFFFF" d="M344.391,192.566l-21.639-9.535c-2.08-0.916-4.518,0.03-5.434,2.11l-11.443,25.969
		c-0.914,2.078,0.031,4.517,2.109,5.435l15.219,6.702c0.388,4.074,2.9,7.824,6.909,9.59c5.897,2.599,12.788-0.076,15.387-5.975
		c2.467-5.603,0.173-12.089-5.124-14.953l6.123-13.907C347.418,195.919,346.471,193.483,344.391,192.566z M341.26,223.707
		c0.46,0.2,0.668,0.737,0.465,1.191c-0.201,0.46-0.734,0.667-1.197,0.465l-5.277-2.323l-2.432,5.527
		c-0.201,0.46-0.744,0.67-1.201,0.468c-0.457-0.204-0.664-0.744-0.465-1.201l2.435-5.526l-4.989-2.2
		c-0.46-0.203-0.668-0.74-0.466-1.198c0.199-0.456,0.738-0.664,1.198-0.462l4.992,2.201l2.215-5.03
		c0.202-0.458,0.738-0.664,1.197-0.465c0.458,0.204,0.668,0.74,0.463,1.2l-2.215,5.027L341.26,223.707z M344.729,197.217
		l-6.133,13.912c-5.672-1.954-11.994,0.729-14.455,6.321c-0.53,1.203-0.828,2.442-0.943,3.68l-14.428-6.36
		c-1.105-0.487-1.605-1.778-1.119-2.878l11.443-25.967c0.482-1.102,1.771-1.603,2.877-1.118l21.638,9.533
		C344.711,194.824,345.212,196.117,344.729,197.217z"/>
	<path fill="#FFFFFF" d="M349.539,359.921l15.567-31.681c0.34-0.691,0.015-1.545-0.724-1.911l-5.994-2.944
		c0.182,0.718,0.158,1.43,0.064,1.984l4.872,2.398l-15.249,31.037l-28.787-14.145l15.248-31.039l4.861,2.388
		c0.375-0.416,0.932-0.87,1.608-1.163l-5.977-2.936c-0.743-0.366-1.614-0.1-1.957,0.592l-15.565,31.682
		c-0.342,0.691-0.018,1.547,0.724,1.91l29.356,14.423C348.326,360.879,349.199,360.612,349.539,359.921z"/>
	<path fill="#FFFFFF" d="M343.463,348.387c0.283,0.138,0.623,0.021,0.758-0.261c0.141-0.281,0.027-0.621-0.258-0.759l-9.773-4.805
		c-0.281-0.135-0.621-0.021-0.759,0.258c-0.138,0.284-0.021,0.624,0.259,0.762L343.463,348.387z"/>
	<path fill="#FFFFFF" d="M348.291,346.922c0.14-0.281,0.029-0.621-0.252-0.762l-12.581-6.179c-0.281-0.138-0.62-0.021-0.759,0.261
		c-0.141,0.281-0.026,0.625,0.255,0.762l12.577,6.18C347.816,347.324,348.156,347.207,348.291,346.922z"/>
	<path fill="#FFFFFF" d="M327.803,335.758l-2.138,4.35c-0.173,0.358-0.026,0.791,0.337,0.967l4.339,2.133
		c0.36,0.18,0.797,0.033,0.973-0.328l1.915-3.893l2.373-1.447c0.344-0.209,0.449-0.656,0.244-0.996
		c-0.212-0.343-0.654-0.454-0.996-0.243l-1.926,1.166l-4.148-2.039C328.412,335.25,327.979,335.4,327.803,335.758z M327.291,340.09
		l0.5-1.016l0.209,1.367L327.291,340.09z M330.332,341.588l-0.762-0.375l1.348-0.824L330.332,341.588z M331.453,338.362
		l-2.104,1.277l-0.375-2.446c-0.006-0.018-0.012-0.041-0.014-0.056L331.453,338.362z"/>
	<path fill="#FFFFFF" d="M350.713,334.916c0.141-0.281,0.027-0.623-0.258-0.764l-9.773-4.803c-0.278-0.137-0.621-0.02-0.762,0.264
		c-0.138,0.281-0.018,0.621,0.264,0.76l9.773,4.801C350.242,335.314,350.578,335.197,350.713,334.916z"/>
	<path fill="#FFFFFF" d="M337.75,329.781l2.133-4.342c0.179-0.361,0.029-0.797-0.332-0.976l-4.342-2.136
		c-0.359-0.174-0.796-0.023-0.975,0.337l-2.133,4.341c-0.174,0.358-0.027,0.797,0.334,0.973l4.338,2.137
		C337.141,330.287,337.57,330.136,337.75,329.781z"/>
	<path fill="#FFFFFF" d="M355.978,334.299c0.136-0.285,0.018-0.627-0.258-0.765l-13.767-6.765c-0.283-0.141-0.627-0.021-0.764,0.264
		c-0.138,0.278-0.021,0.621,0.261,0.759l13.767,6.768C355.497,334.693,355.837,334.576,355.978,334.299z"/>
	<path fill="#FFFFFF" d="M355.582,320.303c-0.36-0.182-1.26-0.62-3.412-1.682l0.624-1.262c0.023-0.044,0.056-0.088,0.085-0.135
		c0.021-0.051,0.036-0.1,0.056-0.15l0.03-0.063l-0.007-0.003c0.338-0.949-0.073-2.019-0.996-2.473
		c-0.932-0.451-2.024-0.129-2.571,0.724l-0.004-0.003l-0.029,0.056c-0.026,0.053-0.062,0.091-0.088,0.14
		c-0.025,0.047-0.035,0.098-0.053,0.152l-0.623,1.264c-2.154-1.064-3.064-1.51-3.428-1.688c-2.119-1.04-5.641,2.725-5.641,2.725
		l17.345,8.522C356.869,326.426,357.701,321.344,355.582,320.303z M351.99,316.787c-0.248,0.508-0.861,0.718-1.367,0.469
		c-0.51-0.249-0.715-0.863-0.469-1.371c0.252-0.507,0.863-0.712,1.367-0.465C352.031,315.668,352.24,316.281,351.99,316.787z"/>
	<path fill="#FFFFFF" d="M147.912,143.443l17.766,24.724c1.128,1.575,3.28,1.976,4.783,0.895l1.825-1.311
		c1.507-1.082,1.815-3.25,0.687-4.825l-17.764-24.724c-1.129-1.572-3.28-1.965-4.785-0.885l-1.828,1.313
		C147.096,139.71,146.784,141.871,147.912,143.443z M149.969,140.527l1.819-1.308c0.502-0.363,1.222-0.23,1.597,0.294l17.761,24.722
		c0.376,0.526,0.272,1.25-0.227,1.61l-1.822,1.308c-0.501,0.359-1.219,0.226-1.597-0.299l-17.76-24.724
		C149.364,141.61,149.467,140.885,149.969,140.527z"/>
	<path fill="#FFFFFF" d="M142.233,184.365c0.845,1.176,2.217,1.812,3.673,1.688l0.094-0.01c0.699-0.114,1.342-0.372,1.868-0.753
		c0.574-0.409,1.033-0.979,1.317-1.639l6.189-22.519c0.614-1.296,0.467-2.838-0.384-4.022c-0.851-1.185-2.266-1.815-3.664-1.65
		l-23.307-1.321c-1.394,0.083-2.708,0.961-3.359,2.342c-0.578,1.339-0.421,2.844,0.426,4.021L142.233,184.365z M151.719,157.488
		c0.653-0.078,1.285,0.205,1.683,0.76c0.398,0.555,0.464,1.244,0.171,1.868l-5.893,21.974l-18.7-26.025L151.719,157.488z"/>
	<path fill="#FFFFFF" d="M231.188,223.623l-15.634-1.69c-0.352-0.038-0.667,0.211-0.706,0.56c-0.038,0.347,0.219,0.659,0.571,0.699
		l15.634,1.688c0.352,0.037,0.664-0.214,0.702-0.561C231.792,223.97,231.54,223.662,231.188,223.623z"/>
	<path fill="#FFFFFF" d="M224.135,226.551l-8.975-0.972c-0.353-0.035-0.668,0.211-0.706,0.558c-0.038,0.342,0.22,0.657,0.571,0.694
		l8.974,0.97c0.355,0.04,0.671-0.213,0.707-0.554C224.745,226.899,224.491,226.587,224.135,226.551z"/>
	<path fill="#FFFFFF" d="M200.907,238.861l32.745,3.538c0.009,0.001,0.018,0,0.029,0.004c0.415,0.044,0.796-0.255,0.84-0.667
		c0.029-0.255-0.083-0.502-0.27-0.657l-0.319-0.438c-1.25-1.703-0.996-4.045,0.587-5.445l0.525-0.462
		c0.063-0.057,0.106-0.119,0.152-0.185c0.006-0.021,0.012-0.035,0.019-0.051c0.036-0.069,0.054-0.137,0.069-0.209
		c0-0.013,0.007-0.02,0.009-0.038l0.936-8.648c2.073,0.105,3.892-1.418,4.119-3.517c0.226-2.097-1.226-3.976-3.275-4.315
		l0.722-6.664c0.362-3.324-2.093-6.33-5.463-6.69l-17.984-1.944c-0.419-0.047-0.797,0.253-0.84,0.665l-2.993,27.68l-2.466-0.266
		l2.99-27.681c0.045-0.41-0.261-0.784-0.681-0.829l-4.37-0.472c-3.06-0.333-5.817,1.856-6.144,4.872l-0.781,7.228
		c-2.051-0.075-3.842,1.437-4.066,3.516c-0.226,2.08,1.201,3.939,3.221,4.305l-1.343,12.434
		C196.608,236.375,198.42,238.591,200.907,238.861z M217.57,204.336l4.053,0.438l-0.875,8.099l-1.509-1.86
		c-0.083-0.099-0.196-0.16-0.322-0.173c-0.129-0.016-0.249,0.019-0.352,0.1l-1.874,1.497L217.57,204.336z M214.945,204.051
		l1.685,0.185l-0.998,9.226c-0.021,0.19,0.069,0.365,0.245,0.47c0.179,0.087,0.396,0.067,0.529-0.048l2.398-1.915l1.937,2.382
		c0.082,0.101,0.195,0.162,0.319,0.176c0.057,0.009,0.113,0.001,0.192-0.014c0.183-0.051,0.312-0.211,0.334-0.406l0.996-9.229
		l9.589,1.037c2.534,0.274,4.383,2.529,4.115,5.029l-0.744,6.877c-1.586,0.375-2.842,1.7-3.026,3.417
		c-0.185,1.717,0.756,3.28,2.225,3.984l-0.877,8.117l-21.826-2.358L214.945,204.051z M201.717,231.381l31.135,3.362
		c-0.504,0.342-0.989,1.327-1.154,2.373l-27.316-2.951c-0.42-0.045-0.795,0.25-0.839,0.663c-0.045,0.416,0.258,0.784,0.678,0.829
		l27.241,2.944c-0.062,0.88,0.256,1.577,0.744,2.13l-31.137-3.363c-1.653-0.179-2.852-1.654-2.669-3.358
		C198.576,232.38,200.063,231.201,201.717,231.381z"/>
	<path fill="#FFFFFF" d="M212.928,200.39l13.474,1.455c-0.023-3.444-2.604-6.395-6.083-6.77
		C216.838,194.698,213.692,197.032,212.928,200.39z"/>
	<path fill="#FFFFFF" d="M181.044,264.256c-0.199-0.27-0.578-0.322-0.843-0.123l-11.857,8.838c-0.267,0.199-0.321,0.58-0.123,0.85
		c0.199,0.268,0.577,0.316,0.842,0.121l11.858-8.846C181.188,264.896,181.245,264.521,181.044,264.256z"/>
	<path fill="#FFFFFF" d="M178.097,270.836c-0.201-0.27-0.582-0.324-0.849-0.125l-6.81,5.076c-0.263,0.196-0.321,0.58-0.122,0.847
		c0.2,0.267,0.579,0.319,0.845,0.122l6.807-5.08C178.236,271.48,178.292,271.102,178.097,270.836z"/>
	<path fill="#FFFFFF" d="M152.852,262.486c-0.238-0.316-0.688-0.385-1.009-0.148l-3.316,2.475c-2.316,1.732-2.795,5.031-1.061,7.359
		l15.81,21.202c1.412,1.896,4.1,2.288,5.987,0.882l24.83-18.519c0.01-0.006,0.013-0.014,0.023-0.017
		c0.315-0.235,0.387-0.687,0.146-1.005c-0.149-0.203-0.379-0.303-0.611-0.29l-0.502-0.103c-1.969-0.393-3.319-2.2-3.132-4.198
		l0.057-0.668c0.007-0.079,0-0.152-0.016-0.226c-0.006-0.015-0.014-0.029-0.02-0.044c-0.019-0.07-0.05-0.129-0.09-0.193
		c-0.004-0.012-0.007-0.02-0.016-0.029l-13.314-17.859c-1.909-2.568-5.552-3.099-8.109-1.192l-13.641,10.172
		c-0.319,0.237-0.378,0.688-0.142,1.005l15.921,21.357l-1.875,1.398L152.852,262.486z M161.371,257.035l4.661,6.244l-2.247-0.334
		c-0.126-0.018-0.234,0.012-0.335,0.082c-0.095,0.074-0.155,0.174-0.176,0.297l-0.316,2.25l-4.662-6.252L161.371,257.035z
		 M156.309,260.811l1.276-0.955l5.312,7.121c0.112,0.145,0.28,0.215,0.47,0.17c0.182-0.053,0.318-0.205,0.334-0.369l0.408-2.885
		l2.881,0.434c0.117,0.018,0.232-0.012,0.33-0.082c0.043-0.035,0.079-0.07,0.123-0.133c0.094-0.155,0.081-0.352-0.033-0.5
		l-5.309-7.123l7.269-5.42c1.928-1.434,4.663-1.032,6.103,0.895l12.883,17.279l-16.553,12.346L156.309,260.811z M188.573,270.873
		c-0.122,0.566,0.18,1.564,0.746,2.406l-20.72,15.447c-0.315,0.24-0.384,0.687-0.144,1.006c0.239,0.318,0.687,0.387,1.003,0.152
		l20.667-15.413c0.527,0.659,1.195,0.943,1.889,1.017L168.4,293.102c-1.254,0.935-3.034,0.67-4.015-0.642
		c-0.939-1.257-0.68-3.038,0.573-3.973L188.573,270.873z"/>
	<path fill="#FFFFFF" d="M360.396,269.336l-3.226-2.66l0.466-3.059c-0.022-0.411-0.281-0.938-0.583-1.188l-8.145-6.727
		c-0.302-0.249-0.873-0.404-1.274-0.346l-2.912,1.035l-2.347-1.939l1.219-1.479c0.182-0.219,0.149-0.537-0.067-0.715l-2.467-2.04
		c-0.214-0.179-0.536-0.149-0.718,0.069l-1.219,1.479l-1.197-0.989c-0.656-0.54-1.621-0.448-2.162,0.209l-18.473,22.367
		c-1.081,1.308-0.893,3.24,0.41,4.318l23.654,19.536c1.308,1.078,3.24,0.893,4.322-0.416l15.536-18.814
		C363.375,275.359,363.006,271.494,360.396,269.336z M359.528,276.959l-16.063,19.456l-25.362-20.947l18.781-22.745l22.331,18.439
		C360.864,272.525,360.765,275.465,359.528,276.959z"/>
	<path fill="#FFFFFF" d="M334.498,269.877c-2.588,3.133-2.139,7.775,0.992,10.369c3.135,2.584,7.779,2.145,10.363-0.99
		c2.592-3.135,2.146-7.775-0.988-10.363C341.73,266.303,337.088,266.742,334.498,269.877z M342.908,276.733
		c-1.225,1.487-3.421,1.692-4.904,0.468c-1.487-1.227-1.695-3.422-0.469-4.906c1.229-1.482,3.42-1.693,4.905-0.467
		C343.926,273.053,344.137,275.248,342.908,276.733z"/>
	<path fill="#FFFFFF" d="M338.473,259.488c0.703-0.852,0.584-2.109-0.266-2.814c-0.854-0.703-2.115-0.58-2.815,0.27
		c-0.706,0.85-0.583,2.111,0.267,2.814C336.508,260.459,337.77,260.338,338.473,259.488z"/>
	<path fill="#FFFFFF" d="M243.023,135.234c-1.311-0.743-2.728,0.239-2.728,0.239L226.63,145.92c0,0-3.312-1.48-7.934,1.124
		l12.082,6.611c1.437-3.48-0.517-5.7-0.517-5.7l13.242-10.313C243.503,137.642,244.354,135.993,243.023,135.234z"/>
	<polygon fill="#FFFFFF" points="209.46,156.962 210.369,157.974 210.592,157.777 209.699,156.754 	"/>
	<path fill="#FFFFFF" d="M216.055,148.243c-1.36,0.678-2.878,1.463-4.529,2.35c-4.542,2.618-7.815,5.222-9.724,7.737
		c-1.912,2.514-3.119,4.797-3.583,6.779c-0.478,2.013-0.321,4.247,0.465,6.637l0.091,0.284l5.433,2.446l-0.248-1.298
		c-0.425-2.188-0.374-4.2,0.149-5.977c0.221-0.744,0.467-1.451,0.744-2.112c-0.234,1.009-0.382,1.988-0.439,2.924
		c-0.113,1.756,0.033,3.848,0.442,6.215l0.064,0.376l4.752,1.83l-0.442-1.368c-0.527-1.619-0.507-3.326,0.053-5.071
		c0.448-1.405,0.989-2.724,1.612-3.943c-0.021,0.072-0.044,0.145-0.063,0.217c-0.623,2.157-0.979,4.034-1.055,5.572
		c-0.083,1.556,0.103,3.169,0.554,4.796l0.09,0.334l4.775,1.776l-0.539-1.415c-0.592-1.549-0.64-3.239-0.146-5.028
		c0.444-1.611,1.025-3.135,1.734-4.543c-0.483,2.111-0.727,4.012-0.731,5.657c-0.007,1.696,0.236,3.552,0.731,5.512l0.083,0.35
		l5.377,1.908l-0.188-1.147c-0.425-2.566-0.485-4.967-0.174-7.145c0.306-2.188,1.039-4.77,2.175-7.664
		c1.125-2.877,3.09-5.953,5.844-9.148l0.548-0.634l-13.536-7.365L216.055,148.243z M222.246,164.746
		c-1.178,3-1.932,5.678-2.26,7.975c-0.276,1.981-0.272,4.134,0.021,6.415l-2.517-0.892c-0.41-1.722-0.612-3.348-0.606-4.83
		c0.006-1.591,0.253-3.451,0.738-5.538c0.476-2.067,1.424-4.269,2.807-6.545l-1.131-0.753c-1.677,2.213-2.986,4.182-3.889,5.848
		c-0.927,1.692-1.669,3.551-2.218,5.528c-0.432,1.567-0.501,3.077-0.211,4.512l-1.413-0.529c-0.35-1.373-0.492-2.732-0.421-4.04
		c0.072-1.433,0.411-3.203,1.006-5.262c0.59-2.054,1.711-4.417,3.324-7.028l-1.1-0.795c-1.761,2.028-3.126,3.863-4.056,5.458
		c-0.935,1.599-1.717,3.388-2.339,5.322c-0.5,1.559-0.627,3.093-0.375,4.583l-1.458-0.561c-0.344-2.108-0.467-3.965-0.368-5.522
		c0.108-1.641,0.505-3.426,1.192-5.317c0.621-1.713,1.723-3.29,3.272-4.69l-0.912-1.006c-0.326,0.284-0.787,0.7-1.399,1.251
		c-0.946,0.847-1.904,1.997-2.846,3.413c-0.946,1.427-1.719,3.137-2.292,5.088c-0.478,1.63-0.608,3.422-0.382,5.34l-2.514-1.134
		c-0.63-2.046-0.746-3.939-0.347-5.626c0.425-1.798,1.547-3.906,3.341-6.268c1.796-2.366,4.928-4.846,9.294-7.364
		c1.491-0.8,2.886-1.525,4.153-2.157l11.446,6.229C225.212,158.934,223.35,161.92,222.246,164.746z"/>
	<polygon fill="#FFFFFF" points="209.479,156.987 209.912,157.472 209.761,157.299 	"/>
	<path fill="#FFFFFF" d="M206.529,148.981c0.23,0.519,0.844,0.754,1.374,0.52l0.53-0.236c0.527-0.232,0.765-0.846,0.533-1.365
		l-7.715-17.4c-0.229-0.521-0.84-0.754-1.368-0.521l-0.532,0.236c-0.53,0.234-0.768,0.847-0.538,1.367L206.529,148.981z"/>
	<path fill="#FFFFFF" d="M196.156,161.166c0.23,0.519,0.844,0.751,1.37,0.519l0.533-0.236c0.526-0.234,0.765-0.845,0.537-1.364
		l-7.717-17.404c-0.23-0.52-0.844-0.751-1.37-0.518l-0.534,0.237c-0.525,0.233-0.766,0.843-0.535,1.363L196.156,161.166z"/>
	<path fill="#FFFFFF" d="M200.905,154.384c0.232,0.52,0.843,0.754,1.37,0.521l0.535-0.236c0.524-0.233,0.762-0.845,0.531-1.365
		l-7.715-17.399c-0.231-0.521-0.842-0.754-1.367-0.521l-0.537,0.238c-0.525,0.232-0.763,0.842-0.532,1.364L200.905,154.384z"/>
	<path fill="#FFFFFF" d="M314.994,169.813c0.35,0.35,0.961,0.363,1.318,0l15.238-15.242l15.219,15.24
		c0.363,0.352,0.988,0.35,1.334,0c0.369-0.368,0.369-0.97,0-1.337l-15.229-15.224l15.229-15.24c0.182-0.179,0.275-0.412,0.275-0.659
		c0-0.25-0.094-0.487-0.275-0.664c-0.357-0.358-0.979-0.356-1.334-0.001l-15.219,15.239l-15.234-15.237
		c-0.355-0.358-0.967-0.356-1.322-0.001c-0.365,0.366-0.363,0.965,0.004,1.339l15.229,15.226l-15.232,15.224
		C314.625,168.841,314.625,169.444,314.994,169.813z"/>
	<path fill="#FFFFFF" d="M270.797,266.459h18.109c1.559,0,2.996-1.213,3.27-2.754l3.037-23.832c0.129-0.784-0.059-1.53-0.533-2.098
		c-0.48-0.575-1.184-0.889-1.986-0.889h-26.496c-0.8,0-1.506,0.313-1.98,0.892c-0.475,0.574-0.66,1.327-0.516,2.095l3.803,23.837
		C267.795,265.258,269.238,266.459,270.797,266.459z M265.338,238.713c0.199-0.234,0.498-0.363,0.861-0.363h26.495
		c0.362,0,0.671,0.129,0.87,0.369c0.196,0.237,0.272,0.567,0.211,0.925l-3.032,23.821c-0.159,0.826-0.993,1.529-1.837,1.529h-18.109
		c-0.85,0-1.705-0.709-1.857-1.523l-3.803-23.84C265.072,239.278,265.143,238.952,265.338,238.713z"/>
	<path fill="#FFFFFF" d="M273.539,261.273c0.807-0.029,1.436-0.791,1.404-1.717l-1.756-15.854c-0.035-0.919-0.709-1.646-1.509-1.623
		c-0.809,0.026-1.433,0.788-1.403,1.714l1.752,15.857C272.063,260.57,272.74,261.297,273.539,261.273z"/>
	<path fill="#FFFFFF" d="M279.602,261.314c0.799-0.07,1.391-0.862,1.32-1.782l-0.037-15.953c-0.07-0.926-0.776-1.61-1.588-1.545
		c-0.8,0.072-1.386,0.869-1.315,1.786l0.033,15.959C278.087,260.699,278.801,261.385,279.602,261.314z"/>
	<path fill="#FFFFFF" d="M285.303,261.273c0.803,0.023,1.479-0.703,1.512-1.623l1.755-15.857c0.029-0.926-0.595-1.688-1.403-1.714
		c-0.803-0.023-1.474,0.704-1.512,1.623l-1.756,15.854C283.869,260.482,284.496,261.244,285.303,261.273z"/>
	<path fill="#FFFFFF" d="M288.112,220.618c-0.823,0.432-1.09,1.545-0.601,2.499l14.42,23.086c0.488,0.945,1.549,1.361,2.369,0.935
		c0.82-0.428,1.094-1.547,0.596-2.495l-5.395-8.64l2.754-1.837c0.316-0.211,0.408-0.644,0.197-0.966l-2.871-4.388
		c-0.209-0.322-0.637-0.411-0.955-0.196l-2.643,1.758l-5.506-8.818C289.987,220.607,288.932,220.188,288.112,220.618z"/>
	<path fill="#FFFFFF" d="M267.947,221.501c4.648,2.724,5.238,6.833,5.238,6.833l-3.754,1.729l9.461,4.695l3.908-11.045l-3.75,1.816
		c0,0-2.379-7.951-11.629-8.542c-9.248-0.586-11.783,5.228-11.783,5.228S263.295,218.781,267.947,221.501z"/>
	<path fill="#FFFFFF" d="M138.874,235.087c0,0.594,0.801,1.071,1.787,1.071h36.425c0.986,0,1.788-0.476,1.788-1.071
		c0-0.587-0.801-1.068-1.788-1.068h-36.425C139.675,234.02,138.874,234.5,138.874,235.087z"/>
	<path fill="#FFFFFF" d="M169.621,208.813l-7.132-7.581l-21.527,20.278l7.134,7.58L169.621,208.813z M162.439,202.906l5.511,5.857
		l-19.805,18.656l-5.513-5.859L162.439,202.906z"/>
	<polygon fill="#FFFFFF" points="138.874,230.622 147.499,229.65 140.367,222.073 	"/>
	<path fill="#FFFFFF" d="M166.873,197.102l-3.787,3.565l7.134,7.581l3.785-3.567c1.395-1.311,1.457-3.521,0.148-4.908l-2.372-2.521
		C170.469,195.854,168.266,195.788,166.873,197.102z"/>
	<path fill="#FFFFFF" d="M223.534,117.499c11.07,0,20.433-7.395,23.439-17.499h-2.944c-2.907,8.538-10.983,14.7-20.495,14.7
		c-9.505,0-17.585-6.163-20.495-14.7h-2.936C203.11,110.104,212.472,117.499,223.534,117.499z"/>
	<path fill="#FFFFFF" d="M223.534,104.079c0.776,0,1.402-0.623,1.402-1.399V100h-2.801v2.681
		C222.136,103.457,222.767,104.079,223.534,104.079z"/>
	<path fill="#FFFFFF" d="M132.701,121.933l12.037-12.067v7.653c0,1.055,0.855,1.91,1.907,1.91c1.042,0,1.888-0.855,1.888-1.91
		v-12.233l-0.127-0.657l-0.362-0.604l-0.617-0.451l-0.707-0.173l-12.312-0.007c-1.042,0-1.885,0.848-1.885,1.891
		c0,1.052,0.843,1.909,1.885,1.909h7.648l-12.037,12.053c-0.354,0.346-0.555,0.832-0.555,1.336c0,0.507,0.201,0.993,0.554,1.334
		C130.735,122.637,131.98,122.646,132.701,121.933z"/>
	<path fill="#FFFFFF" d="M156.243,119.374c0.653,0,1.184-0.534,1.184-1.189v-9.61l0.186,0.188l13.348,13.38
		c0.207,0.201,0.507,0.319,0.82,0.319c0.322,0,0.631-0.123,0.845-0.337c0.22-0.212,0.341-0.507,0.341-0.822
		c0-0.318-0.12-0.606-0.338-0.82l-13.54-13.557h9.602c0.642,0,1.166-0.531,1.166-1.184c0-0.644-0.524-1.167-1.166-1.167h-12.408
		l-0.482,0.098l-0.401,0.268l-0.22,0.353l-0.108,0.525l0.007,12.366C155.078,118.84,155.601,119.374,156.243,119.374z"/>
	<path fill="#FFFFFF" d="M273.127,118.912h5.221l12.512,14.444c0.561,0.478,1.266,0.74,1.989,0.74c0.469,0,0.917-0.106,1.33-0.308
		c1.09-0.523,1.793-1.658,1.793-2.893V100h-2.364v30.895c0,0.299-0.17,0.574-0.445,0.706c-0.248,0.125-0.568,0.083-0.797-0.106
		l-13.166-15.004h-2.721c-0.422,0-0.76-0.35-0.76-0.779v-7.921c0-0.428,0.338-0.776,0.76-0.776h2.721l6.156-7.013h-3.033
		l-3.975,4.593h-5.221c-1.723,0-3.123,1.434-3.123,3.198v7.92C270.004,117.477,271.404,118.912,273.127,118.912z"/>
	<path fill="#FFFFFF" d="M302.734,111.751c0,2.624-0.807,5.12-2.326,7.221c-0.404,0.561-0.35,1.356,0.129,1.847l0.264,0.268
		c0.258,0.265,0.605,0.415,0.973,0.415l0.1-0.006c0.404-0.031,0.77-0.234,1.008-0.563c1.947-2.671,2.979-5.846,2.979-9.182
		c0-3.581-1.162-6.936-3.365-9.697c-0.246-0.308-0.613-0.498-0.999-0.515h-0.015c-0.445,0-0.773,0.142-1.034,0.412l-0.261,0.266
		c-0.504,0.511-0.542,1.329-0.091,1.891C301.822,106.293,302.734,108.934,302.734,111.751z"/>
	<path fill="#FFFFFF" d="M305.594,125.387c-0.645,0.788-0.598,1.956,0.113,2.684l0.256,0.262c0.365,0.372,0.861,0.582,1.373,0.582
		c0.027,0,0.057,0,0.08-0.003c0.544-0.023,1.049-0.277,1.406-0.702c3.781-4.596,5.865-10.441,5.865-16.459
		c0-4.131-0.99-8.147-2.816-11.751h-4.918c2.256,3.462,3.498,7.537,3.498,11.751C310.451,116.731,308.725,121.574,305.594,125.387z"
		/>
	<path fill="#FFFFFF" d="M346.012,104.5h12.972c0.574,0,1.04-0.471,1.04-1.045c0-0.573-0.466-1.037-1.04-1.037h-12.972
		c-0.571,0-1.037,0.464-1.037,1.037C344.975,104.029,345.439,104.5,346.012,104.5z"/>
	<path fill="#FFFFFF" d="M339.674,112.262l0.112,0.077v8.91l8.774-5.354l0.094,0.017c1.338,0.213,2.596,0.319,3.844,0.319
		c10.628,0,19.388-7.135,20.398-16.231h-2.098c-1.017,7.947-8.83,14.15-18.301,14.15c-1.406,0-2.865-0.155-4.336-0.464l-6.426,3.876
		l0.086-6.366c-4.293-2.642-7.043-6.73-7.621-11.196h-2.092C332.643,104.799,335.324,109.198,339.674,112.262z"/>
	<path fill="#FFFFFF" d="M223.534,368.581c-13.48,0-24.454,10.975-24.454,24.458c0,2.419,0.366,4.752,1.024,6.961h2.936
		c-0.746-2.188-1.168-4.523-1.168-6.961c0-11.944,9.72-21.665,21.664-21.665c11.949,0,21.662,9.721,21.662,21.665
		c0,2.438-0.423,4.772-1.167,6.961h2.944c0.657-2.209,1.024-4.541,1.024-6.961C247.998,379.556,237.024,368.581,223.534,368.581z"/>
	<path fill="#FFFFFF" d="M233.177,391.638h-8.241v-8.244c0-0.771-0.625-1.4-1.401-1.4c-0.768,0-1.399,0.63-1.399,1.4v8.244h-8.246
		c-0.768,0-1.399,0.63-1.399,1.4c0,0.773,0.631,1.397,1.399,1.397h8.246v5.563h2.801v-5.563h8.241c0.778,0,1.399-0.625,1.399-1.397
		C234.576,392.268,233.955,391.638,233.177,391.638z"/>
	<path fill="#FFFFFF" d="M171.073,378.955c-0.508,0-0.984,0.199-1.343,0.558l-12.035,12.062v-7.664c0-1.042-0.857-1.887-1.908-1.887
		c-1.04,0-1.887,0.844-1.887,1.887v12.253l0.145,0.727c0.186,0.462,0.561,0.837,1.087,1.042l0.581,0.117l12.293,0.009
		c1.052,0,1.904-0.846,1.904-1.895s-0.853-1.905-1.904-1.905h-7.645l12.053-12.059c0.737-0.737,0.737-1.942,0-2.687
		C172.056,379.154,171.578,378.955,171.073,378.955z M171.893,381.683l-13.31,13.311h9.423c0.643,0,1.169,0.524,1.169,1.168
		c0,0.642-0.526,1.161-1.169,1.161h-12.182l-0.484-0.094c-0.278-0.111-0.502-0.334-0.594-0.551l-0.113-0.551V383.91
		c0-0.633,0.52-1.147,1.152-1.147c0.645,0,1.172,0.515,1.172,1.147v9.439l13.291-13.315c0.439-0.441,1.207-0.437,1.644-0.003
		C172.344,380.487,172.344,381.229,171.893,381.683z"/>
	<path fill="#FFFFFF" d="M146.155,382.072c-0.65,0-1.182,0.524-1.182,1.169v9.615l-13.537-13.562c-0.211-0.22-0.501-0.34-0.816-0.34
		c-0.315,0-0.608,0.123-0.823,0.343c-0.214,0.214-0.334,0.521-0.334,0.847c0,0.316,0.116,0.612,0.318,0.823l13.361,13.368
		l0.186,0.185h-9.596c-0.655,0-1.188,0.53-1.188,1.184c0,0.645,0.533,1.172,1.188,1.172l12.347,0.006l0.526-0.111l0.353-0.217
		l0.266-0.404l0.099-0.48v-12.428C147.323,382.597,146.8,382.072,146.155,382.072z"/>
	<path fill="#FFFFFF" d="M294.186,389.71c-1.078-0.521-2.408-0.345-3.326,0.432l-8.537,9.857h3.033l7.011-7.992
		c0.223-0.189,0.536-0.239,0.812-0.105c0.264,0.129,0.431,0.404,0.431,0.703v7.395h2.364v-7.395
		C295.973,391.368,295.27,390.231,294.186,389.71z"/>
	<path fill="#FFFFFF" d="M307.018,394.14c-0.563-0.018-1.055,0.199-1.43,0.586l-0.256,0.262c-0.724,0.74-0.762,1.934-0.076,2.721
		c0.624,0.721,1.182,1.494,1.696,2.291h4.919c-0.94-1.852-2.086-3.604-3.461-5.191C308.055,394.4,307.547,394.157,307.018,394.14z"
		/>
	<path fill="#FFFFFF" d="M361.576,394.591h-18.163c-0.571,0-1.04,0.469-1.04,1.046c0,0.571,0.469,1.037,1.04,1.037h18.163
		c0.571,0,1.038-0.466,1.038-1.037C362.613,395.06,362.147,394.591,361.576,394.591z"/>
	<path fill="#FFFFFF" d="M352.498,380.247c-11.303,0-20.5,8.071-20.5,17.994c0,0.592,0.047,1.178,0.111,1.758h2.092
		c-0.076-0.58-0.123-1.166-0.123-1.758c0-8.771,8.263-15.902,18.42-15.902c10.159,0,18.421,7.131,18.421,15.902
		c0,0.592-0.044,1.178-0.12,1.758h2.098c0.064-0.58,0.103-1.166,0.103-1.758C372.999,388.318,363.803,380.247,352.498,380.247z"/>
	<path fill="#FFFFFF" d="M396.466,117.363c0,2.553,1.436,4.753,3.533,5.921v-11.842C397.901,112.61,396.466,114.81,396.466,117.363z
		"/>
	<path fill="#FFFFFF" d="M393.39,145.504l0.645,0.326c1.954,0.992,4.137,2.488,5.965,3.828v-1.771
		c-1.521-1.085-3.144-2.16-4.682-2.994c1.579-3.013,3.126-5.813,4.682-8.542v-2.868c-2.101,3.589-4.157,7.311-6.275,11.382
		L393.39,145.504z"/>
	<path fill="#FFFFFF" d="M398.64,124.15c-0.495-0.272-0.987-0.543-1.163-0.649c-3.366-1.979-6.762-2.982-10.104-2.982
		c-5.695,0-10.772,2.867-14.684,8.29c-0.858,1.195-0.996,2.503-0.39,3.69c0.706,1.378,2.309,2.303,3.981,2.303
		c1.387,0,2.599-0.627,3.422-1.77c2.607-3.618,5.871-5.027,9.668-4.147c-1.972,3.451-3.773,6.963-6.401,12.132
		c-1.787,3.519-5.452,7.069-9.615,7.071c-1.33,0-2.631-0.363-3.873-1.085c-0.759-0.438-1.543-0.662-2.335-0.662
		c-1.901,0-3.653,1.377-4.166,3.271c-0.48,1.799,0.296,3.539,2.019,4.538c2.707,1.567,5.64,2.361,8.719,2.361
		c5.247,0,10.313-2.336,13.655-6.27c0.032,0.012,0.063,0.021,0.091,0.033c3.782,1.304,8.807,4.85,10.213,5.996
		c0.589,0.48,1.444,2,2.323,3.759v-3.003c-0.519-0.864-0.993-1.513-1.424-1.862c-1.708-1.393-6.762-4.897-10.644-6.237
		c-0.152-0.056-0.293-0.117-0.425-0.19l-0.524-0.28l-0.369,0.468c-3.023,3.799-7.963,6.162-12.896,6.162
		c-2.827,0-5.517-0.728-8.001-2.167c-1.676-0.97-1.506-2.375-1.356-2.938c0.296-1.099,1.348-2.214,2.786-2.214
		c0.537,0,1.081,0.16,1.617,0.472c1.465,0.843,3.006,1.277,4.591,1.277c4.189,0,8.461-3.083,10.89-7.85
		c2.815-5.545,4.682-9.179,6.823-12.863l0.448-0.771l-0.85-0.269c-4.749-1.5-8.95,0.037-12.123,4.437
		c-0.7,0.974-1.617,1.179-2.263,1.179c-1.134,0-2.25-0.63-2.712-1.53c-0.354-0.696-0.261-1.458,0.278-2.203
		c3.633-5.038,8.309-7.698,13.526-7.698c3.085,0,6.24,0.938,9.381,2.788c0.188,0.109,0.686,0.382,1.198,0.665
		c0.516,0.287,1.04,0.577,1.228,0.687c0.275,0.163,0.545,0.266,0.82,0.41v-1.589c-0.032-0.019-0.064-0.029-0.097-0.048
		C399.709,124.743,399.17,124.445,398.64,124.15z"/>
	<path fill="#FFFFFF" d="M397.729,185.446l-20.707,7.025c-0.357,0.122-0.683,0.394-0.87,0.731l-9.023,16.564
		c-0.199,0.368-0.234,0.814-0.097,1.229l9.458,27.867c0.271,0.804,1.151,1.239,1.957,0.965l18.369-6.232
		c0.806-0.272,1.236-1.153,0.963-1.956c-0.272-0.807-1.151-1.242-1.957-0.968l-16.907,5.739l-8.848-26.073l0.428-0.003
		c0.047,0,0.146-0.034,0.205-0.053l9.647-3.274c0.809-0.274,1.242-1.154,0.97-1.958l-3.278-9.665l19.222-6.523l2.739,8.072v-9.607
		l-0.311-0.916C399.416,185.604,398.534,185.172,397.729,185.446z"/>
	<path fill="#FFFFFF" d="M397.298,224.328c0.334,0.989,1.409,1.52,2.396,1.184l0.305-0.104v-3.989l-1.521,0.516
		C397.491,222.271,396.962,223.344,397.298,224.328z"/>
	<path fill="#FFFFFF" d="M391.274,261.695l-17.133,21.281c-1.228,2.183-0.507,4.737,1.6,5.689l24.258,6.498v-34.987l-2.678-0.718
		C395.212,258.512,392.499,259.516,391.274,261.695z"/>
	<path fill="#FFFFFF" d="M378.513,294.545c-0.278-0.087-0.58-0.111-0.891-0.012c-0.724,0.24-1.134,0.973-0.917,1.638
		c0.144,0.422,0.516,0.694,0.946,0.794l-0.012,0.026l22.359,5.997v-2.684l-21.483-5.774L378.513,294.545z"/>
	<path fill="#FFFFFF" d="M381.17,302.635c-0.29-0.109-0.627-0.135-0.958-0.023c-0.724,0.234-1.134,0.967-0.917,1.635
		c0.146,0.445,0.551,0.727,1.014,0.809l-0.012,0.021l19.702,5.282v-2.684l-18.82-5.057L381.17,302.635z"/>
	<path fill="#FFFFFF" d="M380.42,361.318l5.593-10.758c0.404-0.782,0.1-1.746-0.683-2.156c-0.782-0.404-1.749-0.1-2.156,0.684
		l-5.669,10.906c-2.643,5.089-1.975,8.991,1.878,10.992l20.616,10.714v-6.404l-16.087-8.358
		C380.64,365.238,379.113,363.832,380.42,361.318z"/>
	<path fill="#FFFFFF" d="M396.085,355.6c-0.263-0.817-1.191-1.301-2.01-1.043c-0.838,0.27-1.304,1.172-1.04,2.011l3.61,11.402
		c0.126,0.404,0.41,0.744,0.779,0.938c0.378,0.199,0.823,0.232,1.213,0.1l1.362-0.431v-8.089l-1.477,2.842L396.085,355.6z"/>
	<path fill="#FFFFFF" d="M105.877,134.855c5.692,0,10.767-2.862,14.669-8.277c0.862-1.195,0.999-2.506,0.392-3.69
		c-0.709-1.38-2.309-2.307-3.984-2.307c-1.377,0-2.593,0.631-3.419,1.771c-3.469,4.816-8.159,5.673-13.535,2.554v1.59
		c5.754,3.012,10.958,1.879,14.692-3.309c0.7-0.976,1.617-1.179,2.262-1.179c1.14,0,2.253,0.628,2.716,1.527
		c0.354,0.696,0.258,1.459-0.282,2.206c-3.621,5.03-8.3,7.689-13.512,7.689c-1.57,0-3.185-0.248-4.79-0.737l-0.539-0.163
		l-0.282,0.483c-0.09,0.152-0.179,0.314-0.266,0.469v2.868c0.404-0.709,0.806-1.441,1.212-2.137
		C102.777,134.64,104.341,134.855,105.877,134.855z"/>
	<path fill="#FFFFFF" d="M110.228,117.363c0-3.764-3.079-6.817-6.879-6.817c-1.222,0-2.353,0.342-3.349,0.896v11.842
		c0.996,0.554,2.127,0.896,3.349,0.896C107.148,124.18,110.228,121.127,110.228,117.363z"/>
	<path fill="#FFFFFF" d="M103.231,166.876c0.701,1.437,1.992,2.259,3.537,2.259c1.512,0,2.988-0.798,3.759-2.035
		c0.7-1.116,0.744-2.432,0.123-3.7c-0.357-0.732-0.764-1.608-1.198-2.555c-1.826-3.949-4.099-8.866-6.091-10.436
		c-0.971-0.766-2.136-1.648-3.361-2.522v1.771c0.952,0.697,1.834,1.364,2.476,1.871c1.726,1.36,4.008,6.303,5.678,9.913
		c0.445,0.958,0.853,1.846,1.212,2.584c0.507,1.04,0.255,1.838-0.046,2.32c-0.51,0.817-1.536,1.364-2.552,1.364
		c-0.574,0-1.635-0.19-2.256-1.458c-0.369-0.757-0.8-1.692-1.262-2.695c-1.23-2.675-2.311-4.97-3.249-6.532v3.003
		c0.674,1.35,1.363,2.837,1.954,4.125C102.423,165.167,102.86,166.111,103.231,166.876z"/>
	<path fill="#FFFFFF" d="M103.976,203.854c0.809-0.274,1.242-1.151,0.97-1.957L100,187.325v9.608l2.021,5.956
		C102.294,203.695,103.173,204.127,103.976,203.854z"/>
	<path fill="#FFFFFF" d="M110.911,230.719c0.334,0.986,1.409,1.515,2.396,1.181c0.987-0.335,1.517-1.409,1.181-2.395l-2.742-8.083
		l7.688-2.608c0.984-0.334,1.514-1.408,1.181-2.398c-0.334-0.985-1.413-1.513-2.396-1.179l-7.685,2.608l-2.742-8.081
		c-0.334-0.986-1.41-1.517-2.396-1.182c-0.987,0.336-1.518,1.411-1.181,2.396l2.739,8.081l-6.953,2.36v3.989l8.167-2.771
		L110.911,230.719z"/>
	<path fill="#FFFFFF" d="M108.994,293.729l17.138-21.287c1.219-2.187,0.504-4.732-1.608-5.688L100,260.178v34.986l2.95,0.791
		C105.06,296.91,107.77,295.908,108.994,293.729z"/>
	<path fill="#FFFFFF" d="M108.854,304.371c1.471-0.48,2.789-1.49,3.624-2.902l17.065-21.197l-0.02-0.014
		c0.269-0.328,0.389-0.747,0.258-1.158c-0.22-0.662-0.981-1.008-1.705-0.77c-0.288,0.096-0.501,0.275-0.671,0.488l-0.018-0.012
		l-17.139,21.279l-0.129,0.188c-0.431,0.763-1.113,1.351-1.931,1.652c-0.797,0.293-1.576,0.278-2.256-0.026L100,300.305v2.685
		l4.743,1.271C106.047,304.812,107.512,304.814,108.854,304.371z"/>
	<path fill="#FFFFFF" d="M111.516,312.463h0.003c1.512-0.5,2.821-1.555,3.618-2.909l17.068-21.192l-0.023-0.021
		c0.281-0.328,0.41-0.762,0.275-1.178c-0.22-0.664-0.984-1.008-1.708-0.764c-0.296,0.094-0.519,0.281-0.688,0.506l-0.014-0.008
		l-17.136,21.275l-0.132,0.188c-0.445,0.797-1.192,1.412-2.048,1.695h-0.003c-0.736,0.244-1.494,0.217-2.136-0.072L100,307.674
		v2.684l7.403,1.983C108.666,312.877,110.116,312.92,111.516,312.463z"/>
	<path fill="#FFFFFF" d="M121.053,367.189c-0.779-0.404-1.746-0.1-2.156,0.686l-5.496,10.582c-1.31,2.517-3.328,2.074-6.604,0.372
		L100,375.296v6.404l6.085,3.164c3.853,1.998,7.43,0.302,10.072-4.784l5.578-10.731
		C122.142,368.566,121.837,367.597,121.053,367.189z"/>
	<path fill="#FFFFFF" d="M111.077,363.393c-0.258-0.817-1.187-1.298-2.001-1.04l-7.716,2.446l12.14-23.367
		c0.408-0.781,0.103-1.748-0.68-2.156c-0.783-0.406-1.746-0.102-2.154,0.684L100,360.487v8.088l10.035-3.176
		C110.875,365.136,111.344,364.233,111.077,363.393z"/>
	<path fill="#FFFFFF" d="M296.562,324.212c1.048,1.049,2.754,1.049,3.803,0l18.85-18.85c1.049-1.049,1.049-2.751,0-3.8l-2.638-2.635
		l-18.047,18.051l-13.566-13.564l13.52-13.518l4.507,4.506l-9.013,9.013l4.553,4.549l13.541-13.543l-11.637-11.635
		c-1.049-1.049-2.751-1.049-3.8,0l-18.849,18.85c-1.047,1.049-1.047,2.754,0,3.801L296.562,324.212z"/>
	<path fill="#FFFFFF" d="M285.428,378.46c0-0.533-0.434-0.973-0.969-0.973h-6.439l6.606-6.609l-1.377-1.368l-6.601,6.592l0.038-6.39
		c0-0.536-0.439-0.966-0.976-0.966c-0.533,0-0.973,0.431-0.973,0.966v8.748c0,0.285,0.123,0.521,0.311,0.678
		c0.176,0.185,0.422,0.289,0.691,0.289h8.719C284.994,379.427,285.428,378.999,285.428,378.46z"/>
	<path fill="#FFFFFF" d="M308.447,366.258v-17.924c0-0.743-0.299-1.406-0.797-1.828c-0.49-0.498-1.17-0.787-1.863-0.787H287.91
		c-1.436,0-2.605,1.178-2.605,2.615c0,1.441,1.17,2.617,2.605,2.617h11.707l-12.914,12.913l3.688,3.7l12.894-12.893l-0.051,11.586
		c0,1.444,1.17,2.613,2.613,2.613C307.281,368.871,308.447,367.702,308.447,366.258z M304.471,366.258l0.063-14.595l-14.142,14.144
		l-1.935-1.941l14.16-14.156H287.91c-0.754,0-1.363-0.618-1.363-1.375c0-0.758,0.609-1.373,1.363-1.373h17.877
		c0.365,0,0.717,0.148,1.014,0.454c0.27,0.226,0.406,0.542,0.406,0.919v17.924c0,0.757-0.611,1.371-1.359,1.371
		C305.087,367.629,304.471,367.014,304.471,366.258z"/>
	<path fill="#FFFFFF" d="M258.344,282.297c0.141,0.078,0.328,0.055,0.486-0.07c0.164-0.117,0.275-0.313,0.299-0.516l-0.352-7.195
		c0.018-0.199-0.053-0.378-0.188-0.457c-0.141-0.08-0.328-0.053-0.487,0.07l-6.404,3.305c-0.083,0.059-0.153,0.141-0.2,0.226
		c-0.057,0.093-0.088,0.192-0.098,0.287c-0.024,0.208,0.051,0.378,0.186,0.457l3.412-0.475l-15.957,27.709l-1.301-3.188
		c-0.139-0.079-0.325-0.056-0.488,0.07c-0.161,0.114-0.274,0.313-0.297,0.513l0.352,7.195c-0.023,0.201,0.051,0.378,0.192,0.457
		c0.136,0.079,0.324,0.056,0.485-0.064l6.406-3.308c0.085-0.056,0.15-0.138,0.2-0.223c0.053-0.094,0.091-0.19,0.096-0.293
		c0.026-0.199-0.047-0.378-0.185-0.457l-3.407,0.48l15.955-27.709L258.344,282.297z"/>
	<path fill="#FFFFFF" d="M207.141,293.21l19.738,11.364c1.38,0.797,3.145,0.328,3.935-1.043l15.227-26.443l-2.7-11.801l-15.11-8.701
		c-1.38-0.797-3.149-0.322-3.936,1.045l-18.227,31.65C205.278,290.652,205.76,292.412,207.141,293.21z M208.176,290.49
		l18.223-31.648c0.125-0.215,0.408-0.291,0.627-0.164l13.593,7.828l-3.486,6.053c-0.334,0.58-0.127,1.314,0.458,1.655l5.486,3.158
		l-14.364,24.943c-0.126,0.22-0.411,0.296-0.63,0.167l-19.739-11.364C208.127,290.992,208.05,290.707,208.176,290.49z"/>
	<path fill="#FFFFFF" d="M235.854,281.21c0.412,0.237,0.962,0.067,1.223-0.388c0.261-0.453,0.13-1.01-0.279-1.244l-13.011-7.494
		c-0.413-0.238-0.958-0.07-1.22,0.384c-0.261,0.451-0.136,1.013,0.279,1.254L235.854,281.21z"/>
	<path fill="#FFFFFF" d="M233.589,285.146c0.412,0.234,0.961,0.063,1.222-0.389c0.262-0.455,0.132-1.012-0.28-1.248l-13.009-7.494
		c-0.413-0.238-0.959-0.064-1.222,0.389c-0.259,0.451-0.136,1.012,0.278,1.252L233.589,285.146z"/>
	<path fill="#FFFFFF" d="M224.475,285.136c0.415,0.237,0.959,0.063,1.222-0.39c0.259-0.451,0.135-1.011-0.279-1.251l-6.161-3.548
		c-0.415-0.234-0.961-0.062-1.22,0.39c-0.262,0.454-0.136,1.011,0.276,1.251L224.475,285.136z"/>
	<path fill="#FFFFFF" d="M204.503,331.922c0.588,1.234,1.843,1.955,3.196,1.852c0.198-0.012,0.395-0.043,0.593-0.096
		c1.14-0.309,2.023-1.205,2.313-2.344c0.144-0.542,0.135-1.113-0.01-1.658c-0.146-0.539-0.422-1.031-0.812-1.422l-0.091-0.096
		c-0.82-0.777-1.992-1.078-3.089-0.785c-1.736,0.465-2.771,2.256-2.306,3.992C204.351,331.563,204.421,331.75,204.503,331.922z"/>
	<path fill="#FFFFFF" d="M226.379,352.289c0.079-0.014,0.158-0.037,0.234-0.066c2.113-0.713,3.296-2.934,2.725-5.063l-5.502-20.519
		c-0.597-2.23-2.894-3.555-5.128-2.953l-2.162,0.576l-0.644-2.402c-0.719-2.678-3.485-4.273-6.162-3.553l-19.948,5.35
		c-2.325,0.62-3.887,2.813-3.719,5.203c0.026,0.313,0.081,0.635,0.167,0.957l7.013,26.15c0.718,2.678,3.479,4.274,6.157,3.554
		L226.379,352.289z M219.307,325.922c0.998-0.27,2.027,0.328,2.293,1.318l5.502,20.517c0.229,0.847-0.17,1.749-0.946,2.145
		c-0.079,0.053-0.211,0.114-0.378,0.155l-2.874,0.773l0.117-0.727c0.114-0.706,0.076-1.409-0.109-2.092l-5.768-21.51
		L219.307,325.922z M194.265,347.91l-0.588,0.699l-5.202-19.391c-0.127-0.475-0.117-0.979,0.021-1.456
		c0.246-0.902,0.973-1.623,1.896-1.872l19.951-5.35c1.441-0.387,2.931,0.475,3.319,1.922L218.5,340.5c0,0-1.778,2.566-4.42,2.758
		c-5.637,0.4-9.806-5.019-13.535-3.75C197.053,340.693,196.027,345.818,194.265,347.91z"/>
	<path fill="#FFFFFF" d="M276.854,329.377l0.902-0.947c1.406-1.473,1.406-3.875,0-5.352l-5.543-5.821
		c-0.744-0.744-1.641-1.14-2.596-1.14c-0.979,0-1.963,0.428-2.631,1.143l-0.861,0.905c-1.025-0.527-2.42-0.312-3.211,0.519
		l-15.758,16.535l-2.818,9.674l-6.524,6.84l8.927,5.38l4.679-4.907l9.069-2.854l15.913-16.65
		C277.24,331.822,277.416,330.455,276.854,329.377z M251.123,349.955l-4.559-4.785L249,337.5l9.432,9.896L251.123,349.955z
		 M274.809,331.17l-14.391,15.105l-10.375-10.881l14.466-15.176c0.188-0.197,0.533-0.199,0.72,0l9.581,10.061
		C275.037,330.516,275.037,330.93,274.809,331.17z M275.406,327.695l-7.658-8.033l0.832-0.865c0.521-0.557,1.518-0.557,2.045,0
		l5.543,5.816c0.598,0.627,0.598,1.652,0,2.285L275.406,327.695z"/>
	<path fill="#FFFFFF" d="M154.171,353.654c0.363-0.07,0.727-0.131,1.087-0.189c0.839-0.141,1.711-0.281,2.531-0.551l1.987-0.601
		l1.132-0.437c0.995-0.346,1.921-0.844,2.666-1.239l1.589-0.894l3.026,3.645c0.255,0.308,0.658,0.428,1.038,0.311
		c0.125-0.038,0.236-0.1,0.333-0.179c0.195-0.161,0.322-0.401,0.35-0.656l1.088-11.78c0.023-0.262-0.054-0.513-0.219-0.709
		c-0.166-0.199-0.401-0.326-0.659-0.35l-11.78-1.092c-0.39-0.035-0.765,0.166-0.948,0.516c-0.186,0.348-0.137,0.77,0.114,1.074
		l2.897,3.49l-0.11,0.093l-0.845,0.598c-0.442,0.325-0.896,0.663-1.479,0.967l-1.112,0.642l-1.216,0.547
		c-0.539,0.279-1.111,0.463-1.723,0.66c-0.316,0.105-0.649,0.211-0.976,0.334c-0.29,0.059-0.577,0.129-0.872,0.202
		c-0.699,0.164-1.427,0.34-2.134,0.401c-0.866,0.146-1.676,0.173-2.532,0.202c-0.258,0.003-0.517,0.015-0.777,0.021
		c-0.25-0.014-0.507-0.029-0.762-0.041c-0.87-0.053-1.692-0.1-2.481-0.258c-0.835-0.1-1.554-0.289-2.317-0.494
		c-0.292-0.08-0.584-0.159-0.875-0.227c-0.331-0.135-0.667-0.248-0.996-0.365c-0.653-0.229-1.271-0.449-1.796-0.736l-1.34-0.65
		l-1.148-0.703c-0.704-0.396-1.265-0.829-1.813-1.254l-1.52-1.257l-1.215-1.143c-0.374-0.352-0.968-0.337-1.326-0.006
		c-0.372,0.343-0.418,0.917-0.103,1.318l1.599,2.021l0.882,0.918c0.517,0.539,1.102,1.15,1.85,1.734l1.09,0.914l1.364,0.939
		c0.614,0.463,1.343,0.854,2.046,1.228c0.316,0.167,0.644,0.343,0.964,0.524c0.035,0.026,0.073,0.038,0.111,0.059
		c0.286,0.114,0.576,0.24,0.866,0.369c0.842,0.363,1.712,0.741,2.665,1.005c0.942,0.343,2,0.56,3.019,0.776l0.753,0.158
		c0.029,0.007,0.063,0.013,0.094,0.018l0.762,0.088c1.045,0.129,2.125,0.255,3.222,0.234c0.955,0.062,1.941-0.023,2.89-0.108
		c0.315-0.023,0.627-0.053,0.942-0.073C154.09,353.67,154.133,353.664,154.171,353.654z"/>
	<path fill="#FFFFFF" d="M131.241,340.352l1.179,1.104l1.417,1.176l0.438-0.363c-5.538-6.715-4.603-16.652,2.098-22.219
		c6.716-5.575,16.682-4.655,22.26,2.065c3.697,4.45,4.521,10.321,2.711,15.401l2.515,0.234c1.816-5.757,0.787-12.287-3.349-17.267
		c-6.462-7.782-18.047-8.857-25.83-2.395c-6.441,5.35-8.273,14.203-5.051,21.511C130.215,339.674,130.784,339.924,131.241,340.352z"
		/>
	<path fill="#FFFFFF" d="M153.924,324.227l-7.443,6.182l-5.27-6.349c-0.466-0.56-1.304-0.639-1.866-0.173
		c-0.561,0.465-0.637,1.304-0.171,1.865l6.119,7.369c0.462,0.557,1.299,0.635,1.862,0.17l8.462-7.029
		c0.563-0.465,0.638-1.303,0.176-1.86C155.323,323.837,154.486,323.758,153.924,324.227z"/>
</g>
</svg>
