<?xml version="1.0" encoding="utf-8"?>
<!-- Generator: Adobe Illustrator 15.1.0, SVG Export Plug-In . SVG Version: 6.00 Build 0)  -->
<!DOCTYPE svg PUBLIC "-//W3C//DTD SVG 1.1//EN" "http://www.w3.org/Graphics/SVG/1.1/DTD/svg11.dtd">
<svg version="1.1" id="Layer_1" xmlns="http://www.w3.org/2000/svg" xmlns:xlink="http://www.w3.org/1999/xlink" x="0px" y="0px"
	 width="250px" height="250px" viewBox="0 0 100 100" enable-background="new 0 0 100 100" xml:space="preserve">
<g>
	<path fill="#FFFFFF" d="M64.906,25.153c0.075-0.193-0.019-0.412-0.213-0.487l-7.22-2.827l2.081-0.912
		c0.189-0.083,0.276-0.307,0.194-0.499c-0.041-0.091-0.113-0.162-0.208-0.198c-0.093-0.037-0.195-0.035-0.288,0.006l-2.913,1.278
		c-0.042,0.019-0.083,0.047-0.122,0.087c-0.031,0.034-0.059,0.074-0.075,0.12c-0.018,0.045-0.026,0.095-0.026,0.149
		c0.002,0.047,0.012,0.095,0.031,0.14l1.271,2.915c0.081,0.186,0.311,0.275,0.494,0.194c0.19-0.083,0.278-0.306,0.195-0.497
		l-0.908-2.082l7.219,2.826C64.611,25.444,64.83,25.347,64.906,25.153z"/>
	<path fill="#FFFFFF" d="M51.292,28.201l6.469,2.533c0.935,0.366,1.99-0.098,2.357-1.033l1.505-3.849
		c0.004-0.009,0.045-0.11,0.004-0.206c-0.033-0.079-0.117-0.144-0.249-0.196c-0.1-0.039-0.24-0.076-0.336-0.027
		c-0.08,0.042-0.111,0.133-0.111,0.133l-1.513,3.87c-0.214,0.549-0.836,0.82-1.382,0.606l-6.469-2.533
		c-0.547-0.214-0.818-0.835-0.603-1.383l3.551-9.069c0.215-0.547,0.834-0.819,1.381-0.605l6.469,2.533
		c0.547,0.215,0.818,0.834,0.604,1.382L62.365,21.9l-0.011,0.019c0,0-0.041,0.077-0.015,0.152c0.028,0.078,0.127,0.152,0.278,0.211
		c0.102,0.04,0.241,0.077,0.336,0.029c0.084-0.04,0.111-0.134,0.112-0.135l0.604-1.545c0.365-0.936-0.096-1.993-1.029-2.359
		l-6.469-2.533c-0.934-0.365-1.989,0.098-2.356,1.034l-3.551,9.069C49.898,26.777,50.359,27.835,51.292,28.201z"/>
	<path fill="#FFFFFF" d="M73.383,32.577c-0.161-0.071-0.354,0.004-0.425,0.167s0.002,0.354,0.165,0.425l5.05,2.225
		c0.161,0.072,0.354-0.002,0.425-0.165c0.072-0.164-0.002-0.355-0.165-0.427L73.383,32.577z"/>
	<path fill="#FFFFFF" d="M74.229,30.659c-0.163-0.071-0.354,0.002-0.426,0.166c-0.071,0.163,0.003,0.354,0.165,0.427l5.05,2.225
		c0.162,0.072,0.354-0.003,0.426-0.166s-0.002-0.354-0.166-0.426L74.229,30.659z"/>
	<path fill="#FFFFFF" d="M81.464,30.855l-7.213-3.178c-0.693-0.305-1.506,0.01-1.812,0.703l-3.814,8.656
		c-0.305,0.693,0.011,1.506,0.703,1.812l5.073,2.234c0.129,1.358,0.967,2.608,2.303,3.197c1.966,0.866,4.263-0.025,5.129-1.992
		c0.822-1.868,0.058-4.03-1.708-4.984l2.041-4.636C82.473,31.973,82.157,31.161,81.464,30.855z M80.42,41.236
		c0.153,0.067,0.223,0.246,0.155,0.397c-0.067,0.153-0.245,0.223-0.399,0.155l-1.759-0.774l-0.811,1.842
		c-0.067,0.153-0.248,0.224-0.4,0.156c-0.152-0.068-0.222-0.248-0.155-0.4l0.812-1.842l-1.663-0.733
		c-0.153-0.067-0.223-0.247-0.155-0.399c0.066-0.152,0.246-0.221,0.399-0.154l1.664,0.734l0.738-1.677
		c0.067-0.152,0.246-0.221,0.399-0.155c0.152,0.068,0.223,0.247,0.154,0.4l-0.738,1.676L80.42,41.236z M81.576,32.406l-2.044,4.637
		c-1.891-0.651-3.998,0.243-4.818,2.107c-0.177,0.401-0.276,0.814-0.314,1.227l-4.81-2.12c-0.368-0.162-0.535-0.593-0.373-0.959
		l3.814-8.656c0.161-0.367,0.591-0.534,0.959-0.373l7.213,3.178C81.57,31.608,81.737,32.039,81.576,32.406z"/>
	<path fill="#FFFFFF" d="M83.18,86.641l5.189-10.561c0.113-0.23,0.005-0.515-0.241-0.637l-1.998-0.981
		c0.061,0.239,0.053,0.477,0.021,0.661l1.624,0.8l-5.083,10.346l-9.596-4.715l5.083-10.347l1.62,0.796
		c0.125-0.139,0.311-0.29,0.536-0.388l-1.992-0.979c-0.248-0.122-0.538-0.033-0.652,0.197l-5.188,10.561
		c-0.114,0.23-0.006,0.516,0.241,0.637l9.785,4.808C82.775,86.96,83.066,86.871,83.18,86.641z"/>
	<path fill="#FFFFFF" d="M81.154,82.796c0.095,0.046,0.208,0.007,0.253-0.087c0.047-0.094,0.009-0.207-0.086-0.253l-3.258-1.602
		c-0.094-0.045-0.207-0.007-0.253,0.086c-0.046,0.095-0.007,0.208,0.086,0.254L81.154,82.796z"/>
	<path fill="#FFFFFF" d="M82.764,82.308c0.047-0.094,0.01-0.207-0.084-0.254l-4.193-2.06c-0.094-0.046-0.207-0.007-0.253,0.087
		c-0.047,0.094-0.009,0.208,0.085,0.254l4.192,2.06C82.605,82.441,82.719,82.402,82.764,82.308z"/>
	<path fill="#FFFFFF" d="M75.935,78.586l-0.713,1.45c-0.058,0.119-0.009,0.264,0.112,0.322l1.446,0.711
		c0.12,0.06,0.266,0.011,0.324-0.109l0.639-1.298l0.791-0.482c0.114-0.069,0.149-0.219,0.081-0.332
		c-0.07-0.114-0.218-0.151-0.332-0.081l-0.642,0.389l-1.383-0.68C76.138,78.417,75.993,78.467,75.935,78.586z M75.764,80.03
		l0.167-0.339L76,80.147L75.764,80.03z M76.777,80.529l-0.254-0.125l0.449-0.274L76.777,80.529z M77.151,79.454L76.45,79.88
		l-0.125-0.815c-0.002-0.006-0.004-0.014-0.005-0.019L77.151,79.454z"/>
	<path fill="#FFFFFF" d="M83.571,78.306c0.047-0.094,0.009-0.208-0.086-0.255l-3.258-1.601c-0.093-0.046-0.207-0.007-0.254,0.088
		c-0.046,0.094-0.006,0.207,0.088,0.253l3.258,1.601C83.414,78.438,83.526,78.399,83.571,78.306z"/>
	<path fill="#FFFFFF" d="M79.25,76.594l0.711-1.447c0.06-0.12,0.01-0.266-0.11-0.325l-1.447-0.712
		c-0.12-0.058-0.266-0.008-0.325,0.112l-0.711,1.447c-0.058,0.119-0.009,0.266,0.111,0.324l1.446,0.712
		C79.047,76.763,79.19,76.712,79.25,76.594z"/>
	<path fill="#FFFFFF" d="M85.326,78.1c0.045-0.095,0.006-0.209-0.086-0.255l-4.589-2.255c-0.095-0.047-0.209-0.007-0.255,0.088
		c-0.046,0.093-0.007,0.207,0.087,0.253l4.589,2.256C85.166,78.231,85.279,78.192,85.326,78.1z"/>
	<path fill="#FFFFFF" d="M85.194,73.435c-0.12-0.061-0.42-0.207-1.138-0.561l0.208-0.421c0.008-0.015,0.019-0.029,0.028-0.045
		c0.007-0.017,0.012-0.033,0.019-0.05l0.01-0.021l-0.002-0.001c0.112-0.316-0.024-0.673-0.332-0.824
		c-0.311-0.15-0.675-0.043-0.857,0.241l-0.001-0.001l-0.01,0.019c-0.009,0.018-0.021,0.03-0.029,0.047
		c-0.009,0.016-0.012,0.032-0.018,0.051l-0.208,0.421c-0.718-0.354-1.021-0.503-1.143-0.563c-0.706-0.347-1.88,0.908-1.88,0.908
		l5.781,2.841C85.623,75.476,85.9,73.781,85.194,73.435z M83.997,72.263c-0.083,0.169-0.287,0.239-0.456,0.156
		c-0.17-0.083-0.238-0.288-0.156-0.457c0.084-0.169,0.288-0.237,0.456-0.155C84.011,71.89,84.08,72.094,83.997,72.263z"/>
	<path fill="#FFFFFF" d="M15.971,14.481l5.922,8.241c0.376,0.525,1.093,0.659,1.594,0.298l0.608-0.437
		c0.502-0.361,0.605-1.083,0.229-1.608l-5.921-8.241c-0.376-0.524-1.093-0.655-1.595-0.295l-0.609,0.438
		C15.699,13.237,15.595,13.957,15.971,14.481z M16.656,13.509l0.606-0.436c0.167-0.121,0.407-0.077,0.532,0.098l5.92,8.241
		c0.125,0.175,0.091,0.417-0.076,0.537l-0.607,0.436c-0.167,0.12-0.406,0.075-0.532-0.1l-5.92-8.241
		C16.455,13.87,16.489,13.628,16.656,13.509z"/>
	<path fill="#FFFFFF" d="M14.078,28.122c0.282,0.392,0.739,0.604,1.225,0.563l0.031-0.003c0.233-0.038,0.447-0.124,0.623-0.251
		c0.191-0.136,0.344-0.326,0.439-0.546l2.063-7.506c0.205-0.432,0.156-0.946-0.128-1.341c-0.284-0.395-0.755-0.605-1.221-0.55
		l-7.769-0.44c-0.464,0.027-0.902,0.32-1.12,0.781c-0.193,0.446-0.14,0.948,0.142,1.34L14.078,28.122z M17.24,19.163
		c0.218-0.026,0.428,0.068,0.561,0.253s0.155,0.415,0.057,0.623l-1.964,7.325L9.66,18.688L17.24,19.163z"/>
	<path fill="#FFFFFF" d="M43.729,41.208l-5.211-0.563c-0.117-0.013-0.223,0.07-0.235,0.187c-0.013,0.116,0.073,0.22,0.19,0.233
		l5.211,0.563c0.117,0.012,0.221-0.071,0.234-0.187C43.931,41.323,43.847,41.221,43.729,41.208z"/>
	<path fill="#FFFFFF" d="M41.378,42.184l-2.992-0.324c-0.118-0.012-0.223,0.07-0.235,0.186c-0.013,0.114,0.073,0.219,0.19,0.231
		l2.991,0.323c0.119,0.013,0.224-0.071,0.236-0.185C41.582,42.3,41.497,42.196,41.378,42.184z"/>
	<path fill="#FFFFFF" d="M33.636,46.287l10.915,1.179c0.003,0,0.006,0,0.01,0.001c0.138,0.015,0.265-0.085,0.28-0.223
		c0.01-0.085-0.027-0.167-0.09-0.219l-0.106-0.146c-0.417-0.568-0.332-1.349,0.196-1.815l0.175-0.154
		c0.021-0.019,0.036-0.04,0.051-0.062c0.002-0.007,0.004-0.012,0.006-0.017c0.012-0.023,0.018-0.046,0.023-0.07
		c0-0.004,0.002-0.007,0.003-0.013l0.312-2.883c0.691,0.035,1.297-0.473,1.373-1.172c0.075-0.699-0.409-1.325-1.092-1.438
		l0.241-2.221c0.121-1.108-0.698-2.11-1.821-2.23l-5.995-0.648c-0.14-0.016-0.266,0.084-0.28,0.222l-0.998,9.227l-0.822-0.089
		l0.997-9.227c0.015-0.137-0.087-0.261-0.227-0.276l-1.457-0.157c-1.02-0.111-1.939,0.619-2.048,1.624l-0.26,2.409
		c-0.684-0.025-1.281,0.479-1.355,1.172c-0.075,0.693,0.4,1.313,1.074,1.435l-0.448,4.145
		C32.203,45.458,32.807,46.197,33.636,46.287z M39.19,34.779l1.351,0.146l-0.292,2.7l-0.503-0.62
		c-0.028-0.033-0.065-0.053-0.107-0.058c-0.043-0.005-0.083,0.006-0.117,0.033l-0.625,0.499L39.19,34.779z M38.315,34.684
		l0.562,0.062l-0.333,3.075c-0.007,0.063,0.023,0.122,0.082,0.157c0.06,0.029,0.132,0.022,0.176-0.016l0.799-0.638l0.646,0.794
		c0.027,0.034,0.065,0.054,0.106,0.059c0.019,0.003,0.038,0,0.064-0.005c0.061-0.017,0.104-0.07,0.111-0.135l0.332-3.076
		l3.196,0.346c0.845,0.091,1.461,0.843,1.372,1.676l-0.248,2.292c-0.529,0.125-0.947,0.567-1.009,1.139s0.252,1.093,0.742,1.328
		l-0.292,2.706l-7.275-0.786L38.315,34.684z M33.906,43.794l10.378,1.121c-0.168,0.114-0.33,0.442-0.385,0.791l-9.105-0.984
		c-0.14-0.015-0.265,0.083-0.28,0.221c-0.015,0.139,0.086,0.261,0.226,0.276l9.081,0.981c-0.021,0.293,0.085,0.526,0.248,0.71
		L33.69,45.789c-0.551-0.06-0.951-0.551-0.89-1.119C32.859,44.127,33.354,43.734,33.906,43.794z"/>
	<path fill="#FFFFFF" d="M37.643,33.463l4.491,0.485c-0.008-1.148-0.868-2.131-2.028-2.256
		C38.946,31.566,37.897,32.344,37.643,33.463z"/>
	<path fill="#FFFFFF" d="M27.015,54.752c-0.066-0.09-0.192-0.107-0.281-0.041l-3.953,2.946c-0.089,0.066-0.107,0.193-0.041,0.283
		c0.066,0.089,0.192,0.105,0.281,0.04l3.953-2.948C27.063,54.966,27.082,54.841,27.015,54.752z"/>
	<path fill="#FFFFFF" d="M26.032,56.945c-0.067-0.09-0.194-0.108-0.283-0.042l-2.27,1.692c-0.088,0.065-0.107,0.193-0.041,0.282
		c0.067,0.089,0.193,0.106,0.282,0.041l2.269-1.693C26.079,57.16,26.098,57.034,26.032,56.945z"/>
	<path fill="#FFFFFF" d="M17.617,54.162c-0.079-0.105-0.229-0.128-0.336-0.05l-1.105,0.825c-0.772,0.577-0.932,1.677-0.354,2.453
		l5.27,7.067c0.471,0.632,1.367,0.763,1.996,0.294l8.277-6.173c0.003-0.002,0.004-0.005,0.008-0.006
		c0.105-0.078,0.129-0.229,0.049-0.335c-0.05-0.067-0.126-0.101-0.204-0.097l-0.167-0.034c-0.656-0.131-1.106-0.733-1.044-1.399
		l0.019-0.223c0.002-0.026,0-0.051-0.005-0.075c-0.002-0.005-0.005-0.01-0.006-0.015c-0.006-0.023-0.017-0.043-0.03-0.064
		c-0.001-0.004-0.002-0.007-0.005-0.01l-4.438-5.953c-0.636-0.856-1.851-1.033-2.703-0.397l-4.547,3.391
		c-0.106,0.079-0.126,0.229-0.047,0.335l5.307,7.119l-0.625,0.466L17.617,54.162z M20.457,52.345l1.554,2.082l-0.749-0.111
		c-0.042-0.006-0.078,0.004-0.112,0.027c-0.032,0.024-0.052,0.058-0.059,0.099l-0.105,0.75l-1.554-2.084L20.457,52.345z
		 M18.77,53.604l0.425-0.318l1.771,2.374c0.037,0.048,0.093,0.071,0.157,0.057c0.061-0.018,0.106-0.068,0.111-0.123l0.136-0.962
		l0.96,0.145c0.039,0.006,0.077-0.004,0.11-0.027c0.015-0.012,0.026-0.023,0.041-0.044c0.031-0.052,0.027-0.117-0.011-0.167
		l-1.77-2.374l2.423-1.807c0.643-0.478,1.554-0.344,2.034,0.298l4.294,5.76l-5.518,4.115L18.77,53.604z M29.524,56.958
		c-0.041,0.188,0.06,0.521,0.249,0.802l-6.907,5.149c-0.105,0.08-0.128,0.229-0.048,0.335c0.08,0.106,0.229,0.129,0.334,0.051
		l6.889-5.138c0.176,0.22,0.398,0.314,0.63,0.339L22.8,64.367c-0.418,0.312-1.011,0.224-1.338-0.214
		c-0.313-0.419-0.227-1.013,0.191-1.324L29.524,56.958z"/>
	<path fill="#FFFFFF" d="M86.799,56.445l-1.075-0.887l0.155-1.02c-0.008-0.137-0.094-0.313-0.194-0.396l-2.715-2.242
		c-0.101-0.083-0.291-0.135-0.425-0.115l-0.971,0.345l-0.782-0.646l0.406-0.493c0.061-0.073,0.05-0.179-0.022-0.239l-0.822-0.68
		c-0.071-0.06-0.179-0.05-0.239,0.023l-0.406,0.493l-0.399-0.33c-0.219-0.18-0.54-0.149-0.721,0.069l-6.157,7.456
		c-0.36,0.436-0.298,1.08,0.137,1.439l7.885,6.512c0.436,0.359,1.08,0.298,1.44-0.139l5.179-6.271
		C87.792,58.453,87.669,57.165,86.799,56.445z M86.51,58.986l-5.354,6.485l-8.454-6.982l6.261-7.582l7.443,6.146
		C86.955,57.509,86.922,58.488,86.51,58.986z"/>
	<path fill="#FFFFFF" d="M78.166,56.626c-0.862,1.044-0.713,2.592,0.331,3.456c1.045,0.861,2.593,0.715,3.454-0.33
		c0.864-1.045,0.716-2.592-0.329-3.454C80.577,55.435,79.029,55.581,78.166,56.626z M80.97,58.911
		c-0.408,0.496-1.141,0.564-1.635,0.156c-0.496-0.409-0.565-1.141-0.156-1.636c0.409-0.494,1.14-0.564,1.635-0.155
		C81.309,57.685,81.379,58.416,80.97,58.911z"/>
	<circle fill="#FFFFFF" cx="78.978" cy="52.739" r="0.666"/>
	<path fill="#FFFFFF" d="M47.674,11.745c-0.437-0.248-0.909,0.08-0.909,0.08l-4.555,3.482c0,0-1.104-0.493-2.645,0.375l4.027,2.204
		c0.479-1.16-0.172-1.9-0.172-1.9l4.414-3.438C47.834,12.547,48.118,11.998,47.674,11.745z"/>

		<rect x="36.449" y="19.074" transform="matrix(-0.6678 -0.7443 0.7443 -0.6678 46.935 59.1925)" fill="#FFFFFF" width="0.453" height="0.099"/>
	<path fill="#FFFFFF" d="M38.685,16.081c-0.454,0.226-0.959,0.488-1.51,0.783c-1.514,0.873-2.605,1.741-3.241,2.579
		c-0.637,0.838-1.04,1.599-1.194,2.26c-0.159,0.671-0.107,1.416,0.155,2.212l0.03,0.095l1.811,0.815l-0.083-0.433
		c-0.142-0.729-0.125-1.4,0.05-1.992c0.074-0.248,0.156-0.484,0.248-0.704c-0.078,0.336-0.127,0.663-0.146,0.975
		c-0.038,0.585,0.011,1.283,0.147,2.072l0.021,0.125l1.584,0.61l-0.147-0.456c-0.176-0.54-0.169-1.108,0.018-1.69
		c0.149-0.468,0.33-0.908,0.537-1.314c-0.007,0.024-0.015,0.048-0.021,0.072c-0.208,0.719-0.326,1.345-0.352,1.857
		c-0.028,0.519,0.034,1.056,0.185,1.599l0.03,0.111l1.592,0.592l-0.18-0.472c-0.197-0.516-0.213-1.08-0.049-1.676
		c0.148-0.537,0.342-1.045,0.578-1.515c-0.161,0.704-0.242,1.337-0.244,1.886c-0.002,0.565,0.079,1.184,0.244,1.837l0.028,0.117
		l1.792,0.636l-0.063-0.382c-0.142-0.855-0.162-1.656-0.058-2.382c0.102-0.729,0.346-1.59,0.725-2.555
		c0.375-0.959,1.03-1.984,1.948-3.049l0.183-0.211l-4.513-2.455L38.685,16.081z M40.749,21.582c-0.393,1-0.644,1.893-0.753,2.658
		c-0.092,0.661-0.091,1.378,0.007,2.138l-0.839-0.297c-0.137-0.574-0.204-1.116-0.202-1.61c0.002-0.53,0.084-1.15,0.246-1.846
		c0.159-0.689,0.475-1.423,0.936-2.182l-0.377-0.251c-0.559,0.738-0.995,1.394-1.296,1.949c-0.309,0.564-0.556,1.184-0.739,1.843
		c-0.144,0.522-0.167,1.026-0.07,1.504l-0.471-0.176c-0.117-0.458-0.164-0.911-0.141-1.347c0.024-0.478,0.137-1.068,0.335-1.754
		c0.197-0.685,0.57-1.473,1.108-2.343l-0.367-0.265c-0.587,0.676-1.042,1.288-1.352,1.819c-0.312,0.533-0.572,1.129-0.78,1.774
		c-0.167,0.52-0.209,1.031-0.125,1.528l-0.486-0.187c-0.115-0.703-0.156-1.322-0.123-1.841c0.036-0.547,0.168-1.142,0.397-1.772
		c0.207-0.571,0.574-1.097,1.091-1.563l-0.304-0.335c-0.108,0.095-0.262,0.233-0.466,0.417c-0.315,0.282-0.635,0.666-0.949,1.138
		c-0.315,0.476-0.573,1.046-0.764,1.696c-0.159,0.543-0.203,1.141-0.127,1.78L33.3,23.679c-0.21-0.682-0.249-1.313-0.116-1.875
		c0.142-0.599,0.516-1.302,1.114-2.089c0.599-0.789,1.643-1.615,3.098-2.455c0.497-0.267,0.962-0.508,1.384-0.719l3.815,2.076
		C41.737,19.645,41.117,20.64,40.749,21.582z"/>
	<polygon fill="#FFFFFF" points="36.493,18.996 36.637,19.157 36.587,19.1 	"/>
	<path fill="#FFFFFF" d="M35.51,16.327c0.077,0.173,0.281,0.251,0.458,0.173l0.177-0.079c0.176-0.078,0.255-0.282,0.178-0.455
		l-2.572-5.8c-0.077-0.173-0.28-0.251-0.456-0.174l-0.177,0.079c-0.177,0.078-0.256,0.282-0.179,0.456L35.51,16.327z"/>
	<path fill="#FFFFFF" d="M32.052,20.389c0.077,0.173,0.281,0.25,0.457,0.173l0.178-0.079c0.175-0.078,0.255-0.282,0.179-0.455
		l-2.572-5.801c-0.077-0.173-0.281-0.25-0.457-0.173l-0.178,0.079c-0.175,0.078-0.255,0.281-0.178,0.454L32.052,20.389z"/>
	<path fill="#FFFFFF" d="M33.635,18.128c0.077,0.173,0.281,0.251,0.457,0.174l0.178-0.079c0.175-0.078,0.254-0.282,0.177-0.455
		l-2.572-5.8c-0.077-0.174-0.281-0.251-0.456-0.174l-0.179,0.079c-0.175,0.078-0.254,0.281-0.177,0.455L33.635,18.128z"/>
	<path fill="#FFFFFF" d="M71.665,23.271c0.116,0.117,0.32,0.121,0.439,0l5.079-5.081l5.073,5.08c0.121,0.117,0.329,0.117,0.444,0
		c0.123-0.123,0.123-0.323,0-0.446l-5.076-5.075l5.076-5.08c0.061-0.06,0.092-0.137,0.092-0.22c0-0.083-0.031-0.162-0.092-0.221
		c-0.119-0.119-0.326-0.119-0.444,0l-5.073,5.08l-5.078-5.079c-0.118-0.119-0.322-0.119-0.44,0
		c-0.122,0.122-0.121,0.322,0.001,0.446l5.076,5.075l-5.077,5.075C71.542,22.947,71.542,23.148,71.665,23.271z"/>
	<path fill="#FFFFFF" d="M56.933,55.486h6.036c0.52,0,0.999-0.404,1.09-0.918l1.013-7.944c0.043-0.261-0.02-0.51-0.178-0.699
		c-0.16-0.192-0.395-0.296-0.662-0.296h-8.832c-0.267,0-0.502,0.104-0.66,0.297c-0.158,0.191-0.22,0.442-0.172,0.698l1.268,7.946
		C55.932,55.086,56.413,55.486,56.933,55.486z M55.112,46.238c0.066-0.078,0.166-0.121,0.287-0.121h8.832
		c0.121,0,0.224,0.043,0.29,0.123c0.065,0.079,0.091,0.189,0.07,0.308l-1.011,7.94c-0.053,0.275-0.331,0.51-0.612,0.51h-6.036
		c-0.283,0-0.568-0.236-0.619-0.508l-1.268-7.947C55.024,46.426,55.048,46.317,55.112,46.238z"/>
	<path fill="#FFFFFF" d="M57.847,53.758c0.269-0.01,0.479-0.264,0.468-0.572l-0.585-5.285c-0.012-0.307-0.236-0.549-0.503-0.541
		c-0.27,0.009-0.478,0.263-0.468,0.571l0.584,5.286C57.354,53.523,57.58,53.766,57.847,53.758z"/>
	<path fill="#FFFFFF" d="M59.867,53.771c0.267-0.023,0.464-0.287,0.44-0.594l-0.013-5.318c-0.023-0.309-0.259-0.537-0.529-0.515
		c-0.267,0.024-0.462,0.29-0.438,0.595l0.011,5.32C59.362,53.566,59.601,53.795,59.867,53.771z"/>
	<path fill="#FFFFFF" d="M61.768,53.758c0.268,0.008,0.493-0.234,0.504-0.541l0.585-5.286c0.01-0.309-0.198-0.563-0.468-0.571
		c-0.268-0.008-0.491,0.234-0.504,0.541L61.3,53.186C61.29,53.494,61.499,53.748,61.768,53.758z"/>
	<path fill="#FFFFFF" d="M62.704,40.206c-0.274,0.144-0.363,0.515-0.2,0.833l4.807,7.695c0.163,0.315,0.517,0.454,0.79,0.312
		c0.273-0.143,0.364-0.516,0.198-0.832l-1.798-2.88l0.918-0.612c0.105-0.07,0.136-0.215,0.065-0.322l-0.957-1.463
		c-0.069-0.107-0.212-0.137-0.318-0.065l-0.881,0.586l-1.835-2.939C63.329,40.203,62.978,40.063,62.704,40.206z"/>
	<path fill="#FFFFFF" d="M55.982,40.5c1.55,0.908,1.746,2.278,1.746,2.278l-1.251,0.577l3.153,1.565l1.303-3.682l-1.25,0.605
		c0,0-0.793-2.65-3.876-2.847c-3.083-0.195-3.928,1.743-3.928,1.743S54.432,39.594,55.982,40.5z"/>
	<path fill="#FFFFFF" d="M12.958,45.029c0,0.198,0.267,0.357,0.596,0.357h12.142c0.329,0,0.596-0.159,0.596-0.357
		c0-0.196-0.267-0.356-0.596-0.356H13.554C13.225,44.673,12.958,44.833,12.958,45.029z"/>
	<path fill="#FFFFFF" d="M23.207,36.271l-2.377-2.527l-7.176,6.759l2.378,2.527L23.207,36.271z M20.813,34.302l1.837,1.952
		l-6.602,6.219L14.21,40.52L20.813,34.302z"/>
	<polygon fill="#FFFFFF" points="12.958,43.541 15.833,43.217 13.456,40.691 	"/>
	<path fill="#FFFFFF" d="M22.291,32.367l-1.262,1.188l2.378,2.527l1.262-1.189c0.465-0.437,0.485-1.174,0.049-1.636l-0.791-0.84
		C23.49,31.952,22.755,31.929,22.291,32.367z"/>
	<path fill="#FFFFFF" d="M41.178,5.833c3.69,0,6.811-2.465,7.813-5.833H48.01c-0.969,2.846-3.661,4.9-6.832,4.9
		c-3.168,0-5.862-2.054-6.832-4.9h-0.979C34.37,3.368,37.491,5.833,41.178,5.833z"/>
	<path fill="#FFFFFF" d="M41.178,1.36c0.259,0,0.467-0.208,0.467-0.466V0h-0.934v0.894C40.712,1.152,40.922,1.36,41.178,1.36z"/>
	<path fill="#FFFFFF" d="M10.9,7.311l4.012-4.022v2.551c0,0.352,0.285,0.637,0.636,0.637c0.347,0,0.629-0.285,0.629-0.637V1.762
		l-0.042-0.219l-0.121-0.201l-0.206-0.15l-0.236-0.058l-4.104-0.002c-0.347,0-0.628,0.283-0.628,0.63
		c0,0.351,0.281,0.636,0.628,0.636h2.549l-4.012,4.018C9.888,6.531,9.821,6.693,9.821,6.861c0,0.169,0.067,0.331,0.185,0.445
		C10.245,7.546,10.66,7.548,10.9,7.311z"/>
	<path fill="#FFFFFF" d="M18.748,6.458c0.218,0,0.395-0.178,0.395-0.396V2.858l0.062,0.063l4.449,4.46
		c0.069,0.067,0.169,0.106,0.273,0.106c0.107,0,0.21-0.041,0.282-0.112c0.073-0.071,0.114-0.169,0.114-0.274
		c0-0.106-0.04-0.202-0.113-0.273l-4.513-4.519h3.201c0.214,0,0.389-0.177,0.389-0.395c0-0.215-0.175-0.389-0.389-0.389h-4.136
		L18.6,1.557l-0.134,0.089l-0.073,0.118l-0.036,0.175l0.002,4.122C18.359,6.28,18.534,6.458,18.748,6.458z"/>
	<path fill="#FFFFFF" d="M57.709,6.304h1.74l4.171,4.815c0.187,0.159,0.422,0.247,0.663,0.247c0.156,0,0.306-0.035,0.443-0.103
		c0.363-0.174,0.598-0.553,0.598-0.964V0h-0.788v10.298c0,0.1-0.057,0.191-0.148,0.235c-0.083,0.042-0.189,0.028-0.266-0.036
		l-4.389-5.001h-0.907c-0.141,0-0.253-0.117-0.253-0.26v-2.64c0-0.143,0.112-0.259,0.253-0.259h0.907L61.785,0h-1.011l-1.325,1.531
		h-1.74c-0.574,0-1.041,0.478-1.041,1.066v2.64C56.668,5.826,57.135,6.304,57.709,6.304z"/>
	<path fill="#FFFFFF" d="M67.578,3.917c0,0.875-0.269,1.707-0.775,2.407c-0.135,0.187-0.116,0.452,0.043,0.616l0.088,0.089
		c0.086,0.088,0.202,0.138,0.324,0.138l0.033-0.002c0.135-0.01,0.257-0.078,0.336-0.188c0.649-0.891,0.993-1.949,0.993-3.061
		c0-1.194-0.388-2.312-1.122-3.232c-0.082-0.103-0.204-0.166-0.333-0.172H67.16c-0.148,0-0.258,0.047-0.345,0.137l-0.087,0.089
		c-0.168,0.17-0.181,0.443-0.03,0.63C67.274,2.098,67.578,2.978,67.578,3.917z"/>
	<path fill="#FFFFFF" d="M68.531,8.462c-0.215,0.263-0.199,0.652,0.038,0.895l0.085,0.087c0.122,0.124,0.287,0.194,0.458,0.194
		c0.009,0,0.019,0,0.026-0.001c0.182-0.008,0.35-0.092,0.469-0.234c1.261-1.532,1.955-3.48,1.955-5.486
		c0-1.377-0.33-2.716-0.938-3.917h-1.64c0.752,1.154,1.166,2.512,1.166,3.917C70.15,5.577,69.575,7.191,68.531,8.462z"/>
	<path fill="#FFFFFF" d="M82.004,1.5h4.324c0.191,0,0.347-0.157,0.347-0.348c0-0.191-0.155-0.346-0.347-0.346h-4.324
		c-0.19,0-0.346,0.155-0.346,0.346C81.658,1.343,81.813,1.5,82.004,1.5z"/>
	<path fill="#FFFFFF" d="M79.892,4.087l0.037,0.026v2.97l2.925-1.785l0.031,0.006c0.446,0.071,0.865,0.106,1.281,0.106
		c3.543,0,6.463-2.378,6.8-5.411h-0.699c-0.339,2.649-2.943,4.717-6.101,4.717c-0.469,0-0.955-0.052-1.445-0.155l-2.142,1.292
		l0.028-2.122C79.177,2.852,78.26,1.489,78.067,0H77.37C77.548,1.6,78.441,3.066,79.892,4.087z"/>
	<path fill="#FFFFFF" d="M41.178,89.527c-4.494,0-8.151,3.658-8.151,8.152c0,0.807,0.122,1.584,0.341,2.32h0.979
		c-0.249-0.729-0.39-1.508-0.39-2.32c0-3.981,3.24-7.222,7.221-7.222c3.983,0,7.221,3.24,7.221,7.222
		c0,0.813-0.141,1.591-0.389,2.32h0.981c0.219-0.736,0.341-1.514,0.341-2.32C49.333,93.186,45.675,89.527,41.178,89.527z"/>
	<path fill="#FFFFFF" d="M44.393,97.213h-2.747v-2.748c0-0.257-0.208-0.467-0.467-0.467c-0.256,0-0.466,0.21-0.466,0.467v2.748
		h-2.749c-0.256,0-0.466,0.21-0.466,0.467c0,0.258,0.21,0.466,0.466,0.466h2.749V100h0.934v-1.854h2.747
		c0.259,0,0.466-0.208,0.466-0.466C44.859,97.423,44.652,97.213,44.393,97.213z"/>
	<path fill="#FFFFFF" d="M23.691,92.985c-0.169,0-0.328,0.066-0.448,0.186l-4.012,4.021v-2.555c0-0.348-0.286-0.629-0.636-0.629
		c-0.347,0-0.629,0.281-0.629,0.629v4.084l0.048,0.242c0.062,0.154,0.187,0.279,0.362,0.348l0.194,0.039l4.098,0.003
		c0.351,0,0.635-0.282,0.635-0.632s-0.284-0.635-0.635-0.635h-2.548l4.018-4.02c0.246-0.246,0.246-0.647,0-0.896
		C24.019,93.052,23.859,92.985,23.691,92.985z M23.964,93.895l-4.437,4.437h3.141c0.214,0,0.39,0.175,0.39,0.39
		c0,0.214-0.175,0.387-0.39,0.387h-4.061l-0.161-0.031c-0.093-0.037-0.167-0.111-0.198-0.184l-0.038-0.184v-4.072
		c0-0.211,0.173-0.383,0.384-0.383c0.215,0,0.391,0.172,0.391,0.383v3.146l4.43-4.438c0.146-0.147,0.402-0.146,0.548-0.001
		C24.115,93.496,24.115,93.743,23.964,93.895z"/>
	<path fill="#FFFFFF" d="M15.385,94.024c-0.217,0-0.394,0.175-0.394,0.39v3.205l-4.512-4.521c-0.07-0.073-0.167-0.113-0.272-0.113
		s-0.203,0.041-0.274,0.114c-0.071,0.071-0.111,0.174-0.111,0.282c0,0.105,0.039,0.204,0.106,0.274l4.454,4.456l0.062,0.062h-3.199
		c-0.218,0-0.396,0.177-0.396,0.395c0,0.215,0.178,0.391,0.396,0.391l4.116,0.002l0.175-0.037l0.118-0.072l0.089-0.135l0.033-0.16
		v-4.143C15.774,94.199,15.6,94.024,15.385,94.024z"/>
	<path fill="#FFFFFF" d="M64.729,96.57c-0.359-0.174-0.803-0.115-1.108,0.144L60.774,100h1.011l2.337-2.664
		c0.074-0.063,0.179-0.08,0.271-0.035c0.088,0.043,0.144,0.135,0.144,0.234V100h0.788v-2.465
		C65.324,97.123,65.09,96.744,64.729,96.57z"/>
	<path fill="#FFFFFF" d="M69.006,98.047c-0.188-0.006-0.352,0.066-0.477,0.195l-0.085,0.087c-0.241,0.247-0.254,0.645-0.025,0.907
		c0.208,0.24,0.394,0.498,0.565,0.764h1.64c-0.313-0.617-0.695-1.201-1.153-1.73C69.352,98.134,69.183,98.053,69.006,98.047z"/>
	<path fill="#FFFFFF" d="M87.192,98.197h-6.055c-0.19,0-0.347,0.156-0.347,0.349c0,0.19,0.156,0.346,0.347,0.346h6.055
		c0.19,0,0.346-0.155,0.346-0.346C87.538,98.354,87.383,98.197,87.192,98.197z"/>
	<path fill="#FFFFFF" d="M84.166,93.416c-3.768,0-6.833,2.69-6.833,5.998c0,0.197,0.016,0.393,0.037,0.586h0.697
		c-0.025-0.193-0.041-0.389-0.041-0.586c0-2.924,2.754-5.301,6.14-5.301c3.387,0,6.141,2.377,6.141,5.301
		c0,0.197-0.015,0.393-0.04,0.586h0.699C90.987,99.807,91,99.611,91,99.414C91,96.106,87.935,93.416,84.166,93.416z"/>
	<path fill="#FFFFFF" d="M98.822,5.788c0,0.851,0.479,1.584,1.178,1.974V3.814C99.301,4.203,98.822,4.937,98.822,5.788z"/>
	<path fill="#FFFFFF" d="M97.797,15.168l0.215,0.109c0.651,0.331,1.379,0.829,1.988,1.276v-0.59
		c-0.507-0.362-1.048-0.72-1.561-0.998c0.526-1.004,1.042-1.938,1.561-2.847v-0.956c-0.7,1.196-1.386,2.437-2.092,3.794
		L97.797,15.168z"/>
	<path fill="#FFFFFF" d="M99.547,8.05c-0.165-0.091-0.329-0.181-0.388-0.216c-1.122-0.66-2.254-0.994-3.368-0.994
		c-1.898,0-3.591,0.956-4.895,2.763c-0.286,0.398-0.332,0.834-0.13,1.23c0.235,0.459,0.77,0.768,1.327,0.768
		c0.462,0,0.866-0.209,1.141-0.59c0.869-1.206,1.957-1.676,3.223-1.382c-0.657,1.15-1.258,2.321-2.134,4.044
		c-0.596,1.173-1.817,2.356-3.205,2.357c-0.443,0-0.877-0.121-1.291-0.362c-0.253-0.146-0.515-0.221-0.778-0.221
		c-0.634,0-1.218,0.459-1.389,1.09c-0.16,0.6,0.099,1.18,0.673,1.513c0.902,0.522,1.88,0.787,2.906,0.787
		c1.749,0,3.438-0.779,4.552-2.09c0.011,0.004,0.021,0.007,0.03,0.011c1.261,0.435,2.936,1.617,3.404,1.999
		c0.196,0.16,0.481,0.667,0.774,1.253v-1.001c-0.173-0.288-0.331-0.504-0.475-0.621c-0.569-0.464-2.254-1.632-3.548-2.079
		c-0.051-0.019-0.098-0.039-0.142-0.063l-0.175-0.093l-0.123,0.156c-1.008,1.266-2.654,2.054-4.299,2.054
		c-0.942,0-1.839-0.243-2.667-0.722c-0.559-0.323-0.502-0.792-0.452-0.979c0.099-0.366,0.449-0.738,0.929-0.738
		c0.179,0,0.36,0.053,0.539,0.157c0.488,0.281,1.002,0.426,1.53,0.426c1.396,0,2.82-1.028,3.63-2.617
		c0.938-1.849,1.561-3.06,2.274-4.288l0.149-0.257l-0.283-0.09c-1.583-0.5-2.983,0.012-4.041,1.479
		c-0.233,0.325-0.539,0.393-0.754,0.393c-0.378,0-0.75-0.21-0.904-0.51c-0.118-0.232-0.087-0.486,0.093-0.734
		c1.211-1.679,2.77-2.566,4.509-2.566c1.028,0,2.08,0.313,3.127,0.929c0.063,0.036,0.229,0.127,0.399,0.222
		c0.172,0.096,0.347,0.192,0.409,0.229C99.818,8.75,99.908,8.784,100,8.832v-0.53c-0.011-0.006-0.021-0.01-0.032-0.016
		C99.903,8.248,99.724,8.148,99.547,8.05z"/>
	<path fill="#FFFFFF" d="M99.243,28.482l-6.902,2.342c-0.119,0.041-0.228,0.131-0.29,0.244l-3.008,5.521
		c-0.066,0.123-0.078,0.271-0.032,0.41l3.152,9.289c0.091,0.268,0.384,0.413,0.652,0.322l6.123-2.078
		c0.269-0.091,0.412-0.384,0.321-0.652c-0.091-0.269-0.384-0.414-0.652-0.323l-5.636,1.913l-2.949-8.691l0.143-0.001
		c0.016,0,0.049-0.011,0.068-0.018l3.216-1.091c0.27-0.091,0.414-0.385,0.323-0.653l-1.093-3.222l6.407-2.174l0.913,2.69v-3.203
		l-0.104-0.305C99.806,28.535,99.512,28.391,99.243,28.482z"/>
	<path fill="#FFFFFF" d="M99.1,41.443c0.111,0.33,0.47,0.506,0.799,0.395L100,41.803v-1.33l-0.507,0.172
		C99.164,40.757,98.987,41.115,99.1,41.443z"/>
	<path fill="#FFFFFF" d="M97.092,53.898l-5.711,7.094c-0.409,0.728-0.169,1.579,0.533,1.896L100,65.055V53.393l-0.893-0.239
		C98.404,52.837,97.5,53.172,97.092,53.898z"/>
	<path fill="#FFFFFF" d="M92.838,64.849c-0.093-0.029-0.193-0.037-0.297-0.004c-0.241,0.08-0.378,0.324-0.306,0.546
		c0.048,0.141,0.172,0.231,0.315,0.265l-0.004,0.009L100,67.663v-0.895l-7.161-1.925L92.838,64.849z"/>
	<path fill="#FFFFFF" d="M93.724,67.545c-0.097-0.036-0.209-0.045-0.319-0.008c-0.241,0.078-0.378,0.322-0.306,0.545
		c0.049,0.148,0.184,0.242,0.338,0.27l-0.004,0.007L100,70.119v-0.895l-6.273-1.686L93.724,67.545z"/>
	<path fill="#FFFFFF" d="M93.474,87.106l1.864-3.586c0.135-0.261,0.033-0.582-0.228-0.719c-0.261-0.135-0.583-0.033-0.719,0.228
		l-1.89,3.636c-0.881,1.696-0.658,2.997,0.626,3.664L100,93.9v-2.135l-5.362-2.786C93.547,88.413,93.038,87.944,93.474,87.106z"/>
	<path fill="#FFFFFF" d="M98.695,85.2c-0.088-0.272-0.397-0.434-0.67-0.348c-0.279,0.09-0.435,0.391-0.347,0.67l1.203,3.801
		c0.042,0.135,0.137,0.248,0.26,0.313c0.126,0.066,0.274,0.077,0.404,0.033L100,89.525v-2.696l-0.492,0.947L98.695,85.2z"/>
	<path fill="#FFFFFF" d="M1.959,11.619c1.897,0,3.589-0.954,4.89-2.759c0.287-0.398,0.333-0.835,0.131-1.23
		C6.743,7.169,6.21,6.86,5.651,6.86c-0.459,0-0.864,0.21-1.14,0.59C3.355,9.056,1.792,9.342,0,8.302v0.53
		c1.918,1.004,3.652,0.626,4.897-1.103c0.233-0.325,0.539-0.393,0.754-0.393c0.38,0,0.751,0.209,0.905,0.509
		c0.118,0.232,0.086,0.486-0.094,0.735c-1.207,1.677-2.767,2.563-4.504,2.563c-0.523,0-1.062-0.083-1.597-0.246l-0.18-0.054
		l-0.094,0.161C0.059,11.056,0.029,11.11,0,11.161v0.956c0.135-0.236,0.269-0.48,0.404-0.712
		C0.926,11.547,1.447,11.619,1.959,11.619z"/>
	<path fill="#FFFFFF" d="M3.409,5.788c0-1.255-1.026-2.272-2.293-2.272C0.709,3.515,0.332,3.629,0,3.814v3.947
		C0.332,7.946,0.709,8.06,1.116,8.06C2.383,8.06,3.409,7.042,3.409,5.788z"/>
	<path fill="#FFFFFF" d="M1.077,22.292c0.233,0.479,0.664,0.753,1.179,0.753c0.504,0,0.996-0.266,1.253-0.678
		c0.233-0.372,0.248-0.811,0.041-1.233c-0.119-0.244-0.255-0.536-0.399-0.852c-0.608-1.316-1.366-2.955-2.03-3.479
		C0.797,16.548,0.408,16.254,0,15.962v0.59c0.317,0.232,0.611,0.455,0.825,0.624c0.575,0.453,1.336,2.101,1.893,3.304
		c0.148,0.319,0.284,0.615,0.404,0.861c0.169,0.347,0.085,0.613-0.016,0.773c-0.17,0.272-0.512,0.455-0.851,0.455
		c-0.191,0-0.545-0.063-0.752-0.486c-0.123-0.252-0.267-0.564-0.421-0.898C0.673,20.294,0.313,19.529,0,19.008v1.001
		c0.225,0.45,0.454,0.946,0.651,1.375C0.808,21.722,0.953,22.037,1.077,22.292z"/>
	<path fill="#FFFFFF" d="M1.325,34.618c0.27-0.091,0.414-0.384,0.323-0.652L0,29.108v3.203l0.674,1.985
		C0.765,34.565,1.058,34.709,1.325,34.618z"/>
	<path fill="#FFFFFF" d="M3.637,43.573c0.111,0.329,0.47,0.505,0.799,0.394c0.329-0.112,0.506-0.47,0.394-0.798l-0.914-2.694
		l2.563-0.869c0.328-0.111,0.505-0.469,0.394-0.799C6.76,38.478,6.4,38.301,6.072,38.413l-2.562,0.869l-0.914-2.693
		c-0.111-0.329-0.47-0.506-0.799-0.394s-0.506,0.47-0.394,0.799l0.913,2.693L0,40.473v1.33l2.723-0.924L3.637,43.573z"/>
	<path fill="#FFFFFF" d="M2.998,64.576l5.713-7.096c0.406-0.729,0.168-1.577-0.536-1.896L0,53.393v11.662l0.983,0.264
		C1.687,65.637,2.59,65.303,2.998,64.576z"/>
	<path fill="#FFFFFF" d="M2.951,68.124c0.49-0.16,0.93-0.497,1.208-0.968l5.688-7.065l-0.007-0.005
		c0.09-0.109,0.13-0.249,0.086-0.386c-0.073-0.221-0.327-0.336-0.568-0.257c-0.096,0.032-0.167,0.092-0.224,0.163l-0.006-0.004
		l-5.713,7.093l-0.043,0.063c-0.144,0.254-0.371,0.45-0.644,0.551c-0.266,0.098-0.525,0.093-0.752-0.009L0,66.769v0.895l1.581,0.424
		C2.016,68.271,2.504,68.271,2.951,68.124z"/>
	<path fill="#FFFFFF" d="M3.839,70.821L3.839,70.821c0.505-0.167,0.941-0.519,1.207-0.97l5.689-7.064l-0.008-0.007
		c0.094-0.109,0.137-0.254,0.092-0.393c-0.073-0.222-0.328-0.336-0.569-0.255c-0.099,0.031-0.173,0.094-0.229,0.169l-0.005-0.003
		l-5.712,7.092L4.26,69.453c-0.148,0.266-0.397,0.471-0.683,0.565H3.576c-0.245,0.081-0.498,0.072-0.712-0.024L0,69.225v0.895
		l2.468,0.661C2.889,70.959,3.372,70.974,3.839,70.821z"/>
	<path fill="#FFFFFF" d="M7.018,89.063c-0.26-0.135-0.582-0.033-0.719,0.229l-1.832,3.527c-0.437,0.839-1.109,0.691-2.201,0.124
		L0,91.766V93.9l2.028,1.055c1.284,0.666,2.477,0.101,3.357-1.595l1.859-3.577C7.381,89.522,7.279,89.199,7.018,89.063z"/>
	<path fill="#FFFFFF" d="M3.692,87.798c-0.086-0.272-0.396-0.433-0.667-0.347l-2.572,0.815L4.5,80.478
		c0.136-0.261,0.034-0.583-0.227-0.719s-0.582-0.034-0.718,0.228L0,86.829v2.696l3.345-1.059
		C3.625,88.379,3.781,88.078,3.692,87.798z"/>
	<path fill="#FFFFFF" d="M65.521,74.737c0.35,0.35,0.918,0.35,1.268,0l6.283-6.283c0.35-0.35,0.35-0.917,0-1.267l-0.879-0.878
		l-6.016,6.017l-4.522-4.521l4.507-4.506l1.502,1.502l-3.004,3.004l1.518,1.517l4.514-4.515l-3.879-3.878
		c-0.35-0.35-0.917-0.35-1.267,0l-6.283,6.283c-0.349,0.35-0.349,0.918,0,1.267L65.521,74.737z"/>
	<path fill="#FFFFFF" d="M61.81,92.82c0-0.178-0.145-0.324-0.323-0.324H59.34l2.202-2.203l-0.459-0.456l-2.2,2.197l0.013-2.13
		c0-0.179-0.146-0.322-0.325-0.322c-0.178,0-0.324,0.144-0.324,0.322v2.916c0,0.095,0.041,0.174,0.104,0.226
		c0.059,0.062,0.141,0.097,0.23,0.097h2.906C61.665,93.143,61.81,93,61.81,92.82z"/>
	<path fill="#FFFFFF" d="M69.482,88.753v-5.975c0-0.248-0.1-0.469-0.266-0.609c-0.163-0.166-0.39-0.263-0.621-0.263h-5.959
		c-0.479,0-0.868,0.393-0.868,0.872c0,0.48,0.39,0.872,0.868,0.872h3.902l-4.305,4.305l1.229,1.233l4.298-4.298l-0.017,3.862
		c0,0.481,0.39,0.871,0.871,0.871C69.094,89.624,69.482,89.234,69.482,88.753z M68.157,88.753l0.021-4.865l-4.714,4.715
		l-0.645-0.647l4.72-4.719h-4.902c-0.251,0-0.454-0.206-0.454-0.458c0-0.253,0.203-0.458,0.454-0.458h5.959
		c0.122,0,0.239,0.05,0.338,0.151c0.09,0.075,0.136,0.181,0.136,0.307v5.975c0,0.252-0.204,0.457-0.453,0.457
		C68.362,89.21,68.157,89.005,68.157,88.753z"/>
	<path fill="#FFFFFF" d="M52.781,60.766c0.047,0.026,0.109,0.019,0.162-0.023c0.055-0.039,0.092-0.104,0.1-0.172l-0.117-2.398
		c0.006-0.066-0.018-0.126-0.063-0.152c-0.047-0.026-0.109-0.018-0.162,0.023l-2.135,1.102c-0.027,0.02-0.051,0.047-0.067,0.075
		c-0.019,0.031-0.029,0.064-0.032,0.096c-0.008,0.069,0.017,0.126,0.062,0.152l1.137-0.158l-5.319,9.236l-0.434-1.063
		c-0.046-0.026-0.108-0.019-0.163,0.023c-0.054,0.038-0.091,0.104-0.099,0.171l0.117,2.398c-0.008,0.067,0.017,0.126,0.064,0.152
		c0.045,0.026,0.108,0.019,0.162-0.021l2.135-1.103c0.028-0.019,0.05-0.046,0.067-0.074c0.018-0.031,0.03-0.063,0.032-0.098
		c0.009-0.066-0.016-0.126-0.062-0.152l-1.136,0.16l5.318-9.236L52.781,60.766z"/>
	<path fill="#FFFFFF" d="M35.714,64.403l6.579,3.788c0.46,0.266,1.048,0.109,1.312-0.348l5.076-8.814l-0.9-3.934l-5.037-2.9
		c-0.46-0.266-1.05-0.107-1.312,0.349l-6.076,10.55C35.093,63.551,35.253,64.138,35.714,64.403z M36.059,63.497l6.074-10.55
		c0.042-0.071,0.136-0.097,0.209-0.055l4.531,2.609l-1.162,2.018c-0.111,0.193-0.042,0.438,0.153,0.552l1.829,1.053l-4.788,8.314
		c-0.042,0.073-0.137,0.099-0.21,0.056l-6.58-3.788C36.042,63.664,36.017,63.569,36.059,63.497z"/>
	<path fill="#FFFFFF" d="M45.285,60.403c0.137,0.079,0.321,0.022,0.408-0.129s0.043-0.337-0.093-0.415l-4.337-2.498
		c-0.138-0.079-0.319-0.023-0.407,0.128c-0.087,0.15-0.045,0.338,0.093,0.418L45.285,60.403z"/>
	<path fill="#FFFFFF" d="M44.53,61.716c0.137,0.078,0.32,0.021,0.407-0.13c0.087-0.151,0.044-0.337-0.093-0.416l-4.336-2.498
		c-0.138-0.079-0.32-0.021-0.407,0.13c-0.086,0.15-0.045,0.337,0.093,0.417L44.53,61.716z"/>
	<path fill="#FFFFFF" d="M41.492,61.712c0.138,0.079,0.32,0.021,0.407-0.13c0.086-0.15,0.045-0.337-0.093-0.417l-2.054-1.183
		c-0.138-0.078-0.32-0.021-0.407,0.13c-0.087,0.151-0.045,0.337,0.092,0.417L41.492,61.712z"/>
	<path fill="#FFFFFF" d="M34.834,77.308c0.196,0.411,0.614,0.651,1.065,0.617c0.066-0.004,0.131-0.015,0.198-0.032
		c0.38-0.103,0.674-0.401,0.771-0.781c0.048-0.181,0.045-0.371-0.003-0.553c-0.048-0.18-0.141-0.344-0.271-0.474l-0.03-0.032
		c-0.273-0.259-0.664-0.359-1.03-0.262c-0.579,0.155-0.924,0.752-0.769,1.331C34.784,77.188,34.807,77.25,34.834,77.308z"/>
	<path fill="#FFFFFF" d="M42.126,84.097c0.026-0.005,0.053-0.013,0.078-0.022c0.704-0.237,1.099-0.978,0.908-1.688l-1.834-6.84
		c-0.199-0.743-0.965-1.185-1.709-0.984l-0.721,0.192l-0.214-0.801c-0.24-0.893-1.162-1.425-2.054-1.185l-6.649,1.783
		c-0.775,0.207-1.296,0.938-1.24,1.734c0.009,0.104,0.027,0.212,0.056,0.319l2.338,8.717c0.239,0.893,1.16,1.425,2.052,1.185
		L42.126,84.097z M39.769,75.308c0.333-0.09,0.676,0.109,0.765,0.439l1.834,6.839c0.076,0.282-0.057,0.583-0.315,0.715
		c-0.026,0.018-0.07,0.038-0.126,0.052l-0.958,0.258l0.039-0.242c0.038-0.235,0.025-0.47-0.036-0.697l-1.923-7.17L39.769,75.308z
		 M31.422,82.637l-0.196,0.233l-1.734-6.464c-0.042-0.158-0.039-0.326,0.007-0.485c0.082-0.301,0.324-0.541,0.632-0.624l6.65-1.783
		c0.48-0.129,0.977,0.158,1.106,0.641l1.613,6.013c0,0-0.593,0.855-1.473,0.919c-1.879,0.134-3.269-1.673-4.512-1.25
		C32.351,80.231,32.009,81.939,31.422,82.637z"/>
	<path fill="#FFFFFF" d="M58.951,76.459l0.301-0.315c0.469-0.491,0.469-1.292,0-1.784l-1.848-1.94
		c-0.248-0.248-0.547-0.38-0.865-0.38c-0.326,0-0.654,0.143-0.877,0.381l-0.287,0.302c-0.342-0.176-0.807-0.104-1.07,0.173
		l-5.252,5.512l-0.939,3.225l-2.175,2.28l2.976,1.793l1.56-1.636l3.023-0.951l5.305-5.55C59.08,77.274,59.139,76.818,58.951,76.459z
		 M50.375,83.318l-1.52-1.595l0.812-2.557l3.144,3.299L50.375,83.318z M58.27,77.057l-4.797,5.035l-3.458-3.627l4.822-5.059
		c0.063-0.065,0.178-0.066,0.24,0l3.193,3.354C58.346,76.839,58.346,76.977,58.27,77.057z M58.469,75.898l-2.553-2.678l0.277-0.288
		c0.174-0.186,0.506-0.186,0.682,0l1.848,1.938c0.199,0.209,0.199,0.551,0,0.762L58.469,75.898z"/>
	<path fill="#FFFFFF" d="M18.057,84.552c0.121-0.023,0.242-0.044,0.362-0.063c0.28-0.047,0.57-0.094,0.844-0.184l0.662-0.2
		l0.377-0.146c0.332-0.115,0.641-0.281,0.889-0.413l0.53-0.298l1.009,1.215c0.085,0.103,0.219,0.143,0.346,0.104
		c0.042-0.013,0.079-0.033,0.111-0.06c0.065-0.054,0.107-0.134,0.117-0.219l0.363-3.927c0.008-0.087-0.018-0.171-0.073-0.236
		c-0.055-0.066-0.134-0.108-0.22-0.116l-3.927-0.364c-0.13-0.012-0.255,0.056-0.316,0.172c-0.062,0.116-0.046,0.257,0.038,0.358
		l0.966,1.163l-0.037,0.031l-0.282,0.199c-0.147,0.108-0.299,0.221-0.493,0.322l-0.371,0.214l-0.405,0.183
		c-0.18,0.093-0.37,0.154-0.574,0.22c-0.105,0.035-0.216,0.07-0.325,0.111c-0.097,0.02-0.192,0.043-0.291,0.067
		c-0.233,0.055-0.476,0.113-0.711,0.134c-0.289,0.049-0.559,0.058-0.844,0.067c-0.086,0.001-0.172,0.005-0.259,0.007
		c-0.083-0.005-0.169-0.01-0.254-0.014c-0.29-0.018-0.564-0.033-0.827-0.086c-0.278-0.033-0.518-0.097-0.772-0.165
		c-0.098-0.026-0.195-0.053-0.292-0.075c-0.11-0.045-0.222-0.083-0.332-0.122c-0.218-0.076-0.423-0.149-0.599-0.245l-0.447-0.217
		l-0.383-0.234c-0.235-0.132-0.422-0.276-0.604-0.418l-0.506-0.419l-0.405-0.381C9.997,80.4,9.799,80.405,9.68,80.516
		c-0.124,0.114-0.14,0.306-0.034,0.439l0.533,0.674l0.294,0.306c0.172,0.18,0.367,0.384,0.617,0.578l0.363,0.305l0.455,0.313
		c0.205,0.154,0.448,0.284,0.682,0.409c0.105,0.056,0.214,0.114,0.321,0.175c0.012,0.009,0.024,0.013,0.037,0.02
		c0.095,0.038,0.192,0.08,0.289,0.123c0.281,0.121,0.571,0.247,0.888,0.335c0.314,0.114,0.667,0.187,1.006,0.259l0.251,0.053
		c0.01,0.002,0.021,0.004,0.031,0.006l0.254,0.029c0.348,0.043,0.708,0.085,1.074,0.078c0.318,0.021,0.647-0.008,0.963-0.036
		c0.105-0.008,0.209-0.018,0.314-0.024C18.03,84.557,18.044,84.555,18.057,84.552z"/>
	<path fill="#FFFFFF" d="M10.414,80.117l0.393,0.368l0.472,0.392l0.146-0.121c-1.846-2.238-1.534-5.551,0.699-7.406
		c2.239-1.858,5.561-1.552,7.42,0.688c1.232,1.483,1.507,3.44,0.904,5.134l0.838,0.078c0.605-1.919,0.262-4.096-1.116-5.756
		c-2.154-2.594-6.016-2.952-8.61-0.798c-2.147,1.783-2.758,4.734-1.684,7.17C10.072,79.892,10.261,79.975,10.414,80.117z"/>
	<path fill="#FFFFFF" d="M17.975,74.742l-2.481,2.061l-1.757-2.116c-0.155-0.187-0.435-0.213-0.622-0.058
		c-0.187,0.155-0.212,0.435-0.057,0.622l2.04,2.456c0.154,0.186,0.433,0.212,0.621,0.057l2.821-2.343
		c0.188-0.155,0.213-0.435,0.059-0.62C18.441,74.612,18.162,74.586,17.975,74.742z"/>
</g>
</svg>
