<?xml version="1.0" encoding="utf-8"?>
<!-- Generator: Adobe Illustrator 24.1.1, SVG Export Plug-In . SVG Version: 6.00 Build 0)  -->
<svg version="1.1" id="Layer_1" xmlns="http://www.w3.org/2000/svg" xmlns:xlink="http://www.w3.org/1999/xlink" x="0px" y="0px"
	 width="540px" height="170px" viewBox="0 0 540 170" enable-background="new 0 0 540 170" xml:space="preserve">
<g>
	<g>
		<path fill="#53565A" d="M526.275,98.151v-0.034c0-3.137,2.542-5.778,5.746-5.778c3.237,0,5.746,2.608,5.746,5.745v0.034
			c0,3.137-2.542,5.78-5.746,5.78C528.787,103.897,526.275,101.287,526.275,98.151z M537.109,98.117v-0.034
			c0-2.806-2.181-5.118-5.088-5.118c-2.873,0-5.085,2.345-5.085,5.152v0.034c0,2.806,2.178,5.118,5.085,5.118
			C534.895,103.269,537.109,100.924,537.109,98.117z M529.611,95.013h2.809c1.418,0,2.441,0.628,2.441,1.982
			c0,0.957-0.527,1.585-1.32,1.849l1.519,2.181h-1.749l-1.289-1.916h-0.925v1.916h-1.486V95.013z M532.319,97.919
			c0.695,0,1.057-0.331,1.057-0.825c0-0.528-0.395-0.793-1.057-0.793h-1.222v1.619H532.319z"/>
	</g>
	<g>
		<g>
			<path fill="#53565A" d="M183.973,67.831h11.274l2.5,5.637h3.173l-9.962-22.018h-2.596l-9.967,22.018h3.05L183.973,67.831z
				 M185.156,65.138l4.468-9.971l4.446,9.971H185.156z M207.323,73.468h-2.876V51.604h2.848l7.63,11.434l7.63-11.434h2.842v21.864
				h-2.938V56.782l-7.366,10.834h-0.404l-0.073-0.112l-7.293-10.697V73.468z M247.379,73.468h-16.108V51.604h15.956v2.722h-13.017
				v6.758h11.644v2.725h-11.644v6.94h13.168V73.468z M254.466,65.177h5.696l6.189,8.291h3.621l-6.621-8.802
				c3.56-0.788,5.595-3.1,5.595-6.458c0-1.721-0.611-3.28-1.727-4.395c-1.424-1.424-3.644-2.209-6.251-2.209h-9.44v21.864h2.937
				V65.177z M254.466,54.357h6.318c3.251,0,5.197,1.474,5.197,4.006c0,2.506-2.052,4.123-5.225,4.123h-6.29V54.357z M273.88,64.019
				V51.604h2.937v21.864h-2.937V64.019z M281.689,62.598c0-6.397,4.855-11.358,11.055-11.358c4.255,0,6.599,1.659,8.504,3.456
				l0.191,0.177l-2.007,2.153l-0.196-0.179c-2.108-2.001-4.059-2.856-6.525-2.856c-4.558,0-7.994,3.65-7.994,8.485
				c0,4.855,3.515,8.611,7.994,8.611c2.954,0,4.821-1.205,6.711-3.01l0.185-0.177l1.951,1.92l-0.185,0.191
				c-1.867,1.892-4.361,3.826-8.717,3.826C286.398,73.836,281.689,69.006,281.689,62.598z M309.002,67.831h11.274l2.5,5.637h3.173
				l-9.962-22.018h-2.596l-9.968,22.018h3.05L309.002,67.831z M310.184,65.138l4.468-9.971l4.446,9.971H310.184z M332.351,73.468
				h-2.876V51.604h2.652l0.079,0.101l12.972,16.499v-16.6h2.876v21.864h-2.315l-0.078-0.101L332.351,56.47V73.468z M366.512,67.831
				h11.268l2.5,5.637h3.173l-9.962-22.018h-2.601l-9.962,22.018h3.05L366.512,67.831z M367.689,65.138l4.474-9.971l4.44,9.971
				H367.689z M384.827,62.598c0-6.397,4.86-11.358,11.055-11.358c4.255,0,6.604,1.659,8.504,3.456l0.191,0.177l-2.007,2.153
				l-0.196-0.179c-2.108-2.001-4.059-2.856-6.52-2.856c-4.564,0-8,3.65-8,8.485c0,4.855,3.515,8.611,8,8.611
				c2.954,0,4.816-1.205,6.705-3.01l0.185-0.177l1.956,1.92l-0.185,0.191c-1.867,1.892-4.367,3.826-8.723,3.826
				C389.542,73.836,384.827,69.006,384.827,62.598z M412.145,67.831h11.274l2.5,5.637h3.173l-9.968-22.018h-2.596l-9.962,22.018
				h3.05L412.145,67.831z M413.328,65.138l4.468-9.971l4.44,9.971H413.328z M451.892,62.475c0-6.298-4.883-10.87-11.604-10.87
				h-7.675v21.864h7.675C447.009,73.468,451.892,68.871,451.892,62.475z M440.288,70.716h-4.737V54.357h4.737
				c5.051,0,8.577,3.364,8.577,8.241C448.865,67.38,445.339,70.716,440.288,70.716z M472.725,73.468h-16.106V51.604h15.955v2.722
				h-13.017v6.758H471.2v2.725h-11.644v6.94h13.169V73.468z M479.749,73.468h-2.876V51.604h2.842l7.635,11.434l7.63-11.434h2.842
				v21.864h-2.938V56.782l-7.366,10.834h-0.404l-0.078-0.112l-7.288-10.697V73.468z M510.193,64.846l-9.113-13.242h3.566
				l0.079,0.115l6.982,10.346l7.114-10.461h3.448l-9.11,13.208v8.656h-2.966V64.846z M189.551,114.651
				c6.268,0,11.178-4.961,11.178-11.358c0-6.408-4.782-11.24-11.117-11.24c-6.268,0-11.179,4.961-11.179,11.358
				C178.434,109.818,183.216,114.651,189.551,114.651z M189.551,94.808c4.569,0,8.151,3.753,8.151,8.603
				c0,4.838-3.481,8.488-8.089,8.488c-4.648,0-8.146-3.672-8.146-8.606C181.467,98.455,184.937,94.808,189.551,94.808z
				 M208.063,95.17v7.097h11.554v2.725h-11.554v9.295h-2.938V92.42h15.859v2.75H208.063z M243.904,92.052
				c-6.268,0-11.18,4.961-11.18,11.358c0,6.408,4.783,11.24,11.118,11.24c6.268,0,11.179-4.961,11.179-11.358
				C255.021,96.885,250.238,92.052,243.904,92.052z M243.904,111.898c-4.647,0-8.146-3.672-8.146-8.606
				c0-4.838,3.47-8.485,8.084-8.485c4.648,0,8.146,3.675,8.146,8.603C251.988,108.248,248.512,111.898,243.904,111.898z
				 M259.41,92.42v21.866h2.938v-7.529h4.922c4.3,0,8.645-2.243,8.645-7.308c0-4.272-3.24-7.03-8.252-7.03H259.41z M267.36,104.033
				h-5.012V95.17h5.135c3.476,0,5.472,1.598,5.472,4.431C272.954,102.25,270.701,104.033,267.36,104.033z M294.078,92.42h2.938
				v21.866h-2.938v-9.603h-11.784v9.603h-2.937V92.42h2.937v9.477h11.784V92.42z M307.589,101.703V95.17h-7.159v-2.75h17.289v2.75
				h-7.165v19.117h-2.966V101.703z M335.86,92.42h2.938v21.866h-2.938v-9.603h-11.79v9.603h-2.937V92.42h2.937v9.477h11.79V92.42z
				 M358.764,108.647l2.5,5.64h3.173l-9.962-22.018h-2.596l-9.971,22.018h3.05l2.528-5.64H358.764z M357.587,105.956h-8.914
				l4.468-9.973L357.587,105.956z M370.503,92.42v19.114h12.008v2.753h-14.94V92.42H370.503z M403.91,114.286V97.597l-7.372,10.837
				h-0.398l-0.079-0.112l-7.293-10.697v16.661h-2.876V92.42h2.848l7.63,11.434l7.635-11.434h2.842v21.866H403.91z M411.243,103.411
				c0,6.408,4.782,11.24,11.117,11.24c6.268,0,11.178-4.961,11.178-11.358c0-6.408-4.782-11.24-11.117-11.24
				C416.153,92.052,411.243,97.014,411.243,103.411z M422.421,111.898c-4.647,0-8.145-3.672-8.145-8.606
				c0-4.838,3.47-8.485,8.084-8.485c4.569,0,8.151,3.753,8.151,8.603C430.511,108.248,427.029,111.898,422.421,111.898z
				 M440.871,111.534h12.008v2.753h-14.946V92.42h2.938V111.534z M476.486,103.293c0-6.408-4.782-11.24-11.117-11.24
				c-6.268,0-11.178,4.961-11.178,11.358c0,6.408,4.776,11.24,11.117,11.24C471.575,114.651,476.486,109.689,476.486,103.293z
				 M465.369,111.898c-4.647,0-8.151-3.672-8.151-8.606c0-4.838,3.476-8.485,8.089-8.485c4.569,0,8.151,3.753,8.151,8.603
				C473.459,108.248,469.978,111.898,465.369,111.898z M490.849,114.651c-6.548,0-11.117-4.622-11.117-11.24
				c0-6.397,4.816-11.358,10.96-11.358c3.33,0,5.685,0.841,8.129,2.898l0.202,0.168l-1.9,2.237l-0.202-0.174
				c-1.413-1.233-3.162-2.374-6.318-2.374c-4.401,0-7.843,3.725-7.843,8.485c0,5.208,3.285,8.667,8.179,8.667
				c2.108,0,4.3-0.746,5.892-1.999v-4.911h-6.492v-2.694h9.34v8.886l-0.095,0.081C498.193,112.565,495.205,114.651,490.849,114.651z
				 M510.266,114.286v-8.628l-9.107-13.239h3.566l0.078,0.118l6.977,10.343l7.12-10.461h3.442l-9.104,13.211v8.656H510.266z
				 M185.408,133.204h-5.034v13.34h1.755v-4.608h3.033c2.623,0,5.27-1.365,5.27-4.412v-0.039
				C190.431,134.886,188.458,133.204,185.408,133.204z M182.129,134.844h3.162c2.147,0,3.369,0.984,3.369,2.7v0.036
				c0,1.637-1.385,2.736-3.442,2.736h-3.089V134.844z M198.403,136.453l0.129,0.005v1.822h-0.247c-2.237,0-3.689,1.676-3.689,4.283
				v3.98h-1.716v-9.923h1.716v2.074c0.813-1.418,2.136-2.245,3.627-2.245C198.285,136.45,198.342,136.45,198.403,136.453z
				 M205.035,136.416c-2.904,0-5.18,2.273-5.18,5.177v0.036c0,2.879,2.259,5.138,5.141,5.138c2.915,0,5.197-2.27,5.197-5.174v-0.039
				C210.193,138.673,207.928,136.416,205.035,136.416z M205.035,145.204c-1.923,0-3.425-1.586-3.425-3.61v-0.039
				c0-2.046,1.458-3.591,3.386-3.591c1.934,0,3.448,1.595,3.448,3.63v0.036C208.444,143.668,206.975,145.204,205.035,145.204z
				 M214.851,136.621h3.061v1.547h-3.061v5.494c0,1.003,0.471,1.466,1.486,1.466c0.476,0,0.863-0.092,1.34-0.319l0.196-0.098v1.536
				l-0.073,0.039c-0.561,0.291-1.133,0.426-1.8,0.426c-1.85,0-2.865-1.015-2.865-2.862v-5.682h-1.34v-1.547h1.34v-2.913h1.715
				V136.621z M224.219,136.416c-2.719,0-4.765,2.229-4.765,5.177c0,2.949,2.13,5.174,4.95,5.174c1.671,0,2.927-0.572,4.076-1.856
				l0.101-0.104l-1.104-0.984l-0.09,0.095c-0.863,0.903-1.794,1.317-2.943,1.317c-1.715,0-2.999-1.169-3.24-2.926h7.624l0.005-0.129
				c0.022-0.23,0.022-0.381,0.022-0.516C228.855,138.527,226.994,136.416,224.219,136.416z M224.186,137.905
				c1.878,0,2.736,1.508,2.921,2.968h-5.903C221.455,139.121,222.661,137.905,224.186,137.905z M238.998,143.707l1.116,1.049
				l-0.09,0.101c-0.796,0.892-1.979,1.912-4.042,1.912c-2.804,0-5.086-2.304-5.086-5.138v-0.036c0-2.856,2.282-5.177,5.086-5.177
				c2.052,0,3.195,0.939,3.964,1.758l0.09,0.095l-1.144,1.211l-0.101-0.106c-0.695-0.735-1.525-1.41-2.826-1.41
				c-1.856,0-3.315,1.578-3.315,3.591v0.039c0,2.024,1.498,3.61,3.41,3.61c1.043,0,1.973-0.454,2.842-1.396L238.998,143.707z
				 M244.913,136.621h3.061v1.547h-3.061v5.494c0,1.003,0.471,1.466,1.491,1.466c0.471,0,0.858-0.092,1.334-0.319l0.196-0.098v1.536
				l-0.073,0.039c-0.561,0.291-1.132,0.426-1.799,0.426c-1.844,0-2.865-1.015-2.865-2.862v-5.682h-1.34v-1.547h1.34v-2.913h1.716
				V136.621z M250.295,132.927h0.886h1.037v1.867h-1.923V132.927z M250.39,142.737v-6.116h1.715v9.923h-1.715V142.737z
				 M264.153,140.416v6.128h-1.716v-5.771c0-1.735-0.942-2.772-2.517-2.772c-1.626,0-2.764,1.183-2.764,2.882v5.662h-1.716v-9.923
				h1.716v1.362c0.774-1.037,1.833-1.567,3.167-1.567C262.651,136.416,264.153,137.989,264.153,140.416z M275.001,138.098
				c-0.959-1.118-2.175-1.682-3.633-1.682c-2.293,0-4.67,1.758-4.67,4.69v0.039c0,2.915,2.377,4.653,4.67,4.653
				c1.452,0,2.652-0.583,3.649-1.771v0.74c0,2.091-1.228,3.291-3.369,3.291c-1.312,0-2.534-0.404-3.627-1.206l-0.123-0.09
				l-0.802,1.362l0.112,0.073c1.301,0.908,2.803,1.371,4.462,1.371c1.598,0,2.904-0.462,3.773-1.329
				c0.846-0.844,1.272-2.026,1.272-3.512v-8.106h-1.715V138.098z M271.648,144.251c-1.794,0-3.196-1.379-3.196-3.145v-0.039
				c0-1.799,1.346-3.103,3.196-3.103c1.676,0,3.408,1.169,3.408,3.125v0.036C275.057,143.057,273.285,144.251,271.648,144.251z
				 M294.969,142.86v0.039c0,2.253-1.889,3.834-4.597,3.834c-2.08,0-3.807-0.678-5.432-2.127l-0.101-0.092l1.099-1.295l0.107,0.101
				c1.419,1.284,2.691,1.808,4.384,1.808c1.631,0,2.769-0.855,2.769-2.082v-0.036c0-1.074-0.516-1.763-3.285-2.346
				c-2.697-0.589-4.491-1.474-4.491-3.902v-0.039c0-2.147,1.861-3.703,4.429-3.703c1.85,0,3.246,0.488,4.675,1.634l0.101,0.084
				l-1.026,1.362l-0.107-0.09c-1.16-0.947-2.332-1.385-3.677-1.385c-1.559,0-2.646,0.807-2.646,1.968v0.034
				c0,1.11,0.527,1.783,3.437,2.405C293.663,139.699,294.969,140.842,294.969,142.86z M297.885,140.198v-3.577h1.71v9.923h-1.71
				V140.198z M297.789,132.927h0.852h1.065v1.867h-1.917V132.927z M310.588,138.098c-0.959-1.118-2.175-1.682-3.633-1.682
				c-2.293,0-4.67,1.758-4.67,4.69v0.039c0,2.915,2.377,4.653,4.67,4.653c1.452,0,2.652-0.583,3.65-1.771v0.74
				c0,2.091-1.228,3.291-3.369,3.291c-1.312,0-2.534-0.404-3.627-1.206l-0.123-0.09l-0.802,1.362l0.112,0.073
				c1.301,0.908,2.809,1.371,4.462,1.371c1.598,0,2.904-0.462,3.773-1.329c0.846-0.844,1.273-2.026,1.273-3.512v-8.106h-1.716
				V138.098z M307.236,144.251c-1.794,0-3.195-1.379-3.195-3.145v-0.039c0-1.799,1.345-3.103,3.195-3.103
				c1.676,0,3.409,1.169,3.409,3.125v0.036C310.644,143.057,308.873,144.251,307.236,144.251z M324.289,140.416v6.128h-1.71v-5.771
				c0-1.735-0.948-2.772-2.529-2.772c-1.626,0-2.758,1.183-2.758,2.882v5.662h-1.71v-13.898h1.71v5.337
				c0.774-1.037,1.839-1.567,3.167-1.567C322.787,136.416,324.289,137.989,324.289,140.416z M329.453,136.621h3.061v1.547h-3.061
				v5.494c0,1.003,0.471,1.466,1.486,1.466c0.471,0,0.863-0.092,1.34-0.319l0.196-0.098v1.536l-0.073,0.039
				c-0.566,0.291-1.138,0.426-1.799,0.426c-1.85,0-2.865-1.015-2.865-2.862v-5.682h-1.345v-1.547h1.345v-2.913h1.716V136.621z
				 M335.025,145.579v-1.273h1.996v2.237h-1.996V145.579z M347.689,144.924h8.064v1.62h-9.814v-13.34h9.724v1.623h-7.975v4.182
				h7.134v1.62h-7.134V144.924z M373.256,140.436v6.108h-1.715v-5.771c0-1.763-0.858-2.772-2.36-2.772
				c-1.256,0-2.528,0.88-2.528,2.848v5.696h-1.699v-5.814c0-1.71-0.875-2.73-2.338-2.73c-1.48,0-2.551,1.217-2.551,2.898v5.645
				h-1.715v-9.923h1.715v1.326c0.589-0.774,1.463-1.53,2.977-1.53c1.374,0,2.473,0.631,3.117,1.791
				c0.846-1.205,1.956-1.791,3.38-1.791C371.832,136.416,373.256,137.955,373.256,140.436z M381.749,136.416
				c-1.429,0-2.59,0.608-3.554,1.853v-1.648h-1.715v12.911h1.715v-4.552c0.936,1.175,2.13,1.772,3.554,1.772
				c2.304,0,4.748-1.808,4.748-5.158v-0.039C386.497,138.216,384.053,136.416,381.749,136.416z M381.491,137.98
				c1.889,0,3.257,1.511,3.257,3.591v0.039c0,2.105-1.34,3.577-3.257,3.577c-1.648,0-3.353-1.346-3.353-3.594v-0.039
				C378.139,139.345,379.882,137.98,381.491,137.98z M393.836,136.416c-2.904,0-5.175,2.273-5.175,5.177v0.036
				c0,2.879,2.254,5.138,5.135,5.138c2.915,0,5.197-2.27,5.197-5.174v-0.039C398.993,138.673,396.729,136.416,393.836,136.416z
				 M393.836,145.204c-1.923,0-3.425-1.586-3.425-3.61v-0.039c0-2.046,1.458-3.591,3.386-3.591c1.934,0,3.448,1.595,3.448,3.63
				v0.036C397.244,143.668,395.775,145.204,393.836,145.204z M413.463,136.621h1.788l-3.493,9.996h-1.446l-2.495-7.322l-2.512,7.322
				h-1.469l-3.47-9.996h1.822l0.034,0.095l2.405,7.344l2.489-7.479h1.396l0.034,0.095l2.483,7.383L413.463,136.621z
				 M421.406,136.416c-2.719,0-4.771,2.229-4.771,5.177c0,2.949,2.13,5.174,4.956,5.174c1.665,0,2.926-0.572,4.076-1.856
				l0.095-0.104l-1.104-0.984l-0.09,0.095c-0.858,0.903-1.794,1.317-2.943,1.317c-1.71,0-2.994-1.169-3.24-2.926h7.624l0.011-0.129
				c0.017-0.23,0.017-0.381,0.017-0.516C426.037,138.527,424.176,136.416,421.406,136.416z M421.367,137.905
				c1.878,0,2.736,1.508,2.921,2.968h-5.903C418.637,139.121,419.848,137.905,421.367,137.905z M434.211,136.453l0.134,0.005v1.822
				h-0.252c-2.237,0-3.683,1.676-3.683,4.283v3.98h-1.715v-9.923h1.715v2.074c0.807-1.418,2.136-2.245,3.627-2.245
				C434.093,136.45,434.155,136.45,434.211,136.453z M436.487,132.927h0.768h1.155v1.867h-1.923V132.927z M436.582,142.112v-5.491
				h1.716v9.923h-1.716V142.112z M450.345,140.416v6.128h-1.716v-5.771c0-1.735-0.948-2.772-2.529-2.772
				c-1.62,0-2.752,1.183-2.752,2.882v5.662h-1.716v-9.923h1.716v1.362c0.768-1.037,1.833-1.567,3.167-1.567
				C448.843,136.416,450.345,137.989,450.345,140.416z M461.187,138.098c-0.959-1.118-2.175-1.682-3.627-1.682
				c-2.299,0-4.67,1.758-4.67,4.69v0.039c0,2.915,2.371,4.653,4.67,4.653c1.452,0,2.646-0.583,3.65-1.771v0.74
				c0,2.091-1.228,3.291-3.369,3.291c-1.312,0-2.534-0.404-3.633-1.206l-0.123-0.09l-0.796,1.362l0.107,0.073
				c1.306,0.908,2.809,1.371,4.462,1.371c1.603,0,2.91-0.462,3.779-1.329c0.841-0.844,1.267-2.026,1.267-3.512v-8.106h-1.716
				V138.098z M457.841,144.251c-1.794,0-3.201-1.379-3.201-3.145v-0.039c0-1.799,1.345-3.103,3.201-3.103
				c1.676,0,3.408,1.169,3.408,3.125v0.036C461.249,143.057,459.477,144.251,457.841,144.251z M473.694,144.901h7.355v1.643h-9.104
				v-13.34h1.749V144.901z M483.488,132.927h0.892h1.026v1.867h-1.917V132.927z M483.583,139.362v-2.741h1.716v9.923h-1.716V139.362
				z M495.709,136.621h1.85l-0.084,0.196l-4.233,9.8h-1.452l-4.3-9.996h1.889l3.156,7.776L495.709,136.621z M503.469,136.416
				c-2.713,0-4.765,2.229-4.765,5.177c0,2.949,2.13,5.174,4.95,5.174c1.671,0,2.929-0.572,4.084-1.856l0.09-0.104l-1.099-0.984
				l-0.09,0.095c-0.866,0.903-1.797,1.317-2.946,1.317c-1.71,0-2.999-1.169-3.24-2.926h7.627l0.011-0.129
				c0.017-0.23,0.017-0.381,0.017-0.516C508.108,138.527,506.246,136.416,503.469,136.416z M503.435,137.905
				c1.878,0,2.739,1.508,2.923,2.968h-5.906C500.705,139.121,501.916,137.905,503.435,137.905z M517.565,143.662v0.036
				c0,1.813-1.435,3.036-3.571,3.036c-1.413,0-2.977-0.561-4.081-1.452l-0.101-0.084l0.892-1.247l0.112,0.087
				c1.049,0.788,2.175,1.199,3.252,1.199c1.115,0,1.861-0.555,1.861-1.387v-0.036c0-0.855-0.998-1.2-2.304-1.57
				c-1.39-0.393-3.297-0.931-3.297-2.854v-0.039c0-1.704,1.413-2.898,3.425-2.898c1.188,0,2.517,0.409,3.543,1.088l0.112,0.073
				l-0.79,1.317l-0.123-0.079c-0.897-0.578-1.906-0.908-2.781-0.908c-1.032,0-1.727,0.507-1.727,1.262v0.036
				c0,0.799,1.138,1.146,2.343,1.514l0.039,0.014C515.642,141.151,517.565,141.731,517.565,143.662z M520.043,145.341v-1.034h1.996
				v2.237h-1.996V145.341z"/>
		</g>
		<g>
			<path fill="#FFFFFF" d="M157.203,85.003c0,42.78-34.685,77.47-77.478,77.47c-42.786,0-77.471-34.69-77.471-77.47
				c0-42.791,34.685-77.482,77.471-77.482C122.518,7.521,157.203,42.212,157.203,85.003z"/>
			<path fill="#351F65" d="M118.431,152.136c-3.173,1.833-6.486,3.442-9.923,4.821L84.307,94.421L118.431,152.136z M86.964,95.537
				l32.958,55.741c2.489-1.519,4.877-3.184,7.176-4.961L86.964,95.537z M90.748,161.705l-8.803-56.806l3.886,57.339
				C87.485,162.109,89.128,161.935,90.748,161.705z M92.307,99.523l36.142,45.734c1.357-1.099,2.669-2.237,3.947-3.42L92.307,99.523
				z M92.312,94.937l46.11,40.639c1.441-1.665,2.809-3.392,4.098-5.174L92.312,94.937z M83.472,58.43l8.672-49.928
				c-1.065-0.174-2.142-0.314-3.223-0.443L83.472,58.43z M83.012,95.856l14.267,64.621c3.291-0.762,6.509-1.721,9.626-2.893
				L83.012,95.856z M156.99,79.229c-0.314-4.311-0.981-8.521-1.973-12.608L88.853,83.557L156.99,79.229z M79.641,58.082l1.441-50.55
				c-0.454-0.011-0.902-0.034-1.357-0.034c-0.633,0-1.256,0.034-1.878,0.045L79.641,58.082z M98.922,87.127l57.502,8.981
				c0.247-1.704,0.426-3.425,0.555-5.169L98.922,87.127z M94.74,88.221l59.974,16.42c0.583-2.237,1.059-4.513,1.441-6.828
				L94.74,88.221z M87.895,89.712l55.624,39.282c2.355-3.403,4.446-7.002,6.24-10.769L87.895,89.712z M89.571,88.585l60.893,28.07
				c1.497-3.336,2.758-6.795,3.778-10.354L89.571,88.585z M82.765,72.591l19.571-61.735c-2.769-0.841-5.606-1.519-8.499-2.052
				L82.765,72.591z M92.088,77.681l56.184-28.849c-1.183-2.237-2.472-4.406-3.863-6.509L92.088,77.681z M153.329,60.728
				l-52.77,18.052l54.037-13.83C154.215,63.526,153.789,62.119,153.329,60.728z M135.586,31.308c-0.712-0.74-1.435-1.463-2.17-2.175
				L99.41,65.314L135.586,31.308z M76.563,162.417l1.502-50.337l-4.698,50.141C74.427,162.305,75.493,162.378,76.563,162.417z
				 M157.113,89.224c0.073-1.402,0.118-2.809,0.118-4.221c0-1.362-0.039-2.713-0.106-4.053l-64.022,4.064L157.113,89.224z
				 M82.804,7.577L81.216,63.29l5.994-55.427C85.753,7.723,84.284,7.633,82.804,7.577z M93.495,98.272l40.145,42.377
				c1.261-1.222,2.483-2.472,3.661-3.773L93.495,98.272z M90.698,80.333l62.082-21.242c-1.065-2.999-2.31-5.909-3.722-8.723
				L90.698,80.333z M87.328,70.203l30.575-52.641c-1.822-1.037-3.689-1.996-5.6-2.887L87.328,70.203z M95.603,73.23l47.842-32.336
				c-0.959-1.379-1.968-2.725-3.01-4.042L95.603,73.23z M87.009,74.183l39.456-50.998c-2.265-1.716-4.625-3.302-7.069-4.765
				L87.009,74.183z M85.052,71.066l25.682-57.098c-2.203-0.964-4.457-1.822-6.761-2.579L85.052,71.066z M97.548,69.429
				l41.811-33.923c-0.836-1.009-1.699-1.99-2.584-2.954L97.548,69.429z M91.387,71.335l40.779-43.391
				c-1.396-1.284-2.853-2.512-4.35-3.7L91.387,71.335z M84.733,111.643l7.72,49.799c1.054-0.174,2.108-0.359,3.15-0.577
				L84.733,111.643z M56.69,98.042l-45.212,23.686c0.522,0.97,1.076,1.929,1.643,2.882L56.69,98.042z M66.063,94.343l-52.04,31.731
				c1.121,1.794,2.304,3.549,3.566,5.236L66.063,94.343z M58.545,102.241l-39.897,30.424c0.65,0.836,1.312,1.654,1.994,2.456
				L58.545,102.241z M66.556,90.928L7.604,113.347c0.919,2.343,1.951,4.625,3.089,6.845L66.556,90.928z M69.073,86.926l-66.37,6.587
				c0.392,3.56,1.02,7.047,1.872,10.444L69.073,86.926z M71.871,94.628l-44.568,47.439c2.214,2.03,4.552,3.93,6.985,5.696
				L71.871,94.628z M64.134,90.009l-59.11,15.613c0.572,2.074,1.212,4.12,1.952,6.122L64.134,90.009z M75.089,102.404
				l-18.074,56.678c1.799,0.555,3.627,1.048,5.483,1.474L75.089,102.404z M51.28,157.086c1.346,0.532,2.73,1.031,4.109,1.485
				l16.846-52.893L51.28,157.086z M76.12,7.588c-3.123,0.14-6.195,0.482-9.216,0.981l11.537,64.341L76.12,7.588z M77.539,99.197
				l-13.365,61.74c2.45,0.499,4.945,0.88,7.473,1.144L77.539,99.197z M80.067,102.662l-1.783,59.8
				c0.482,0.011,0.959,0.039,1.441,0.039c1.474,0,2.939-0.051,4.391-0.135L80.067,102.662z M52.395,86.847L2.322,88.652
				c0.051,1.054,0.135,2.102,0.224,3.145L52.395,86.847z M21.769,136.422c1.368,1.542,2.803,3.027,4.289,4.457L67.56,96.703
				L21.769,136.422z M72.561,96.635l-36.866,52.126c2.198,1.525,4.479,2.943,6.834,4.238L72.561,96.635z M72.6,100.218
				l-28.546,53.577c1.839,0.953,3.706,1.856,5.623,2.663L72.6,100.218z M65.211,8.872c-2.461,0.471-4.883,1.054-7.254,1.749
				l18.371,60.265L65.211,8.872z M65.592,61.614L40.993,17.881c-0.914,0.533-1.816,1.076-2.702,1.643L65.592,61.614z M71.921,62.332
				L56.303,11.109c-1.222,0.387-2.439,0.807-3.638,1.256L71.921,62.332z M74.652,74.211L51.067,12.993
				c-2.954,1.177-5.819,2.517-8.577,4.031L74.652,74.211z M68.255,74.278L25.464,29.688c-1.609,1.581-3.151,3.24-4.619,4.956
				L68.255,74.278z M2.417,79.901c-0.112,1.687-0.185,3.386-0.185,5.102c0,0.645,0.034,1.284,0.045,1.929l62.222-2.243L2.417,79.901
				z M67.162,83.17L3.785,69.496c-0.577,2.842-0.981,5.741-1.239,8.69L67.162,83.17z M61.802,75.725L12.055,47.246
				c-0.796,1.424-1.559,2.865-2.265,4.339L61.802,75.725z M64.667,78.959L9.079,53.16c-0.892,1.968-1.704,3.98-2.427,6.038
				L64.667,78.959z M65.396,81.028L6.095,60.829c-0.751,2.282-1.39,4.614-1.928,6.985L65.396,81.028z M70.167,71.828l-33.328-51.38
				c-1.794,1.2-3.532,2.472-5.214,3.812L70.167,71.828z M71.703,79.408L19.73,35.955c-2.517,3.078-4.793,6.352-6.817,9.794
				L71.703,79.408z M66.13,69.575L30.279,25.332c-1.228,1.015-2.41,2.074-3.566,3.167L66.13,69.575z"/>
		</g>
	</g>
</g>
</svg>
