<?xml version="1.0" encoding="utf-8"?>
<!-- Generator: Adobe Illustrator 24.1.1, SVG Export Plug-In . SVG Version: 6.00 Build 0)  -->
<svg version="1.1" id="Layer_1" xmlns="http://www.w3.org/2000/svg" xmlns:xlink="http://www.w3.org/1999/xlink" x="0px" y="0px"
	 width="802.542px" height="250px" viewBox="0 0 802.542 250" enable-background="new 0 0 802.542 250" xml:space="preserve">
<g>
	<g>
		<path fill="#53565A" d="M780.828,144.477v-0.05c0-4.645,3.765-8.558,8.51-8.558c4.795,0,8.51,3.863,8.51,8.508v0.05
			c0,4.645-3.765,8.56-8.51,8.56C784.547,152.987,780.828,149.122,780.828,144.477z M796.873,144.427v-0.05
			c0-4.156-3.23-7.581-7.535-7.581c-4.255,0-7.531,3.473-7.531,7.63v0.05c0,4.156,3.226,7.581,7.531,7.581
			C793.593,152.057,796.873,148.585,796.873,144.427z M785.768,139.829h4.16c2.101,0,3.616,0.93,3.616,2.935
			c0,1.418-0.78,2.348-1.955,2.738l2.25,3.23h-2.591l-1.91-2.838h-1.37v2.838h-2.2V139.829z M789.778,144.134
			c1.03,0,1.565-0.49,1.565-1.223c0-0.783-0.585-1.175-1.565-1.175h-1.81v2.397H789.778z"/>
	</g>
	<g>
		<g>
			<path fill="#53565A" d="M273.861,99.573h16.697l3.703,8.348h4.7l-14.754-32.61h-3.844l-14.762,32.61h4.517L273.861,99.573z
				 M275.613,95.583l6.618-14.767l6.584,14.767H275.613z M308.443,107.921h-4.26V75.54h4.218l11.3,16.934l11.3-16.934h4.21v32.381
				h-4.351V83.207l-10.91,16.046h-0.598l-0.108-0.166l-10.802-15.842V107.921z M367.769,107.921h-23.856V75.54h23.632v4.031h-19.279
				V89.58h17.245v4.035h-17.245v10.279h19.503V107.921z M378.264,95.641h8.436l9.166,12.28h5.364l-9.806-13.036
				c5.272-1.167,8.286-4.592,8.286-9.565c0-2.549-0.905-4.857-2.557-6.509c-2.109-2.109-5.397-3.272-9.258-3.272h-13.982v32.381
				h4.351V95.641z M378.264,79.616h9.357c4.816,0,7.697,2.184,7.697,5.932c0,3.712-3.039,6.107-7.738,6.107h-9.316V79.616z
				 M407.017,93.926V75.54h4.351v32.381h-4.351V93.926z M418.583,91.822c0-9.474,7.19-16.822,16.373-16.822
				c6.302,0,9.773,2.458,12.596,5.119l0.282,0.261l-2.972,3.188l-0.291-0.266c-3.122-2.964-6.011-4.23-9.664-4.23
				c-6.75,0-11.84,5.405-11.84,12.566c0,7.191,5.206,12.753,11.84,12.753c4.376,0,7.141-1.785,9.939-4.459l0.274-0.261l2.889,2.844
				l-0.274,0.282c-2.765,2.802-6.46,5.667-12.911,5.667C425.557,108.465,418.583,101.312,418.583,91.822z M459.034,99.573h16.697
				l3.703,8.348h4.7l-14.754-32.61h-3.844l-14.763,32.61h4.517L459.034,99.573z M460.786,95.583l6.617-14.767l6.585,14.767H460.786z
				 M493.616,107.921h-4.26V75.54h3.927l0.116,0.15l19.213,24.435V75.54h4.26v32.381h-3.429l-0.116-0.149l-19.711-25.025V107.921z
				 M544.209,99.573h16.689l3.703,8.348h4.7l-14.754-32.61h-3.853l-14.754,32.61h4.517L544.209,99.573z M545.953,95.583
				l6.626-14.767l6.576,14.767H545.953z M571.335,91.822c0-9.474,7.198-16.822,16.373-16.822c6.302,0,9.781,2.458,12.596,5.119
				l0.282,0.261l-2.972,3.188l-0.29-0.266c-3.122-2.964-6.011-4.23-9.656-4.23c-6.759,0-11.848,5.405-11.848,12.566
				c0,7.191,5.206,12.753,11.848,12.753c4.376,0,7.132-1.785,9.93-4.459l0.274-0.261l2.898,2.844l-0.274,0.282
				c-2.765,2.802-6.468,5.667-12.919,5.667C578.318,108.465,571.335,101.312,571.335,91.822z M611.795,99.573h16.697l3.703,8.348
				h4.7l-14.763-32.61h-3.844l-14.754,32.61h4.517L611.795,99.573z M613.547,95.583l6.617-14.767l6.576,14.767H613.547z
				 M670.663,91.639c0-9.328-7.232-16.099-17.187-16.099h-11.367v32.381h11.367C663.431,107.921,670.663,101.113,670.663,91.639z
				 M653.476,103.844h-7.016V79.616h7.016c7.481,0,12.703,4.982,12.703,12.205C666.179,98.904,660.956,103.844,653.476,103.844z
				 M701.516,107.921h-23.854V75.54h23.63v4.031h-19.28V89.58h17.245v4.035h-17.245v10.279h19.504V107.921z M711.92,107.921h-4.26
				V75.54h4.21l11.308,16.934l11.3-16.934h4.21v32.381h-4.351V83.207l-10.91,16.046h-0.598l-0.116-0.166L711.92,83.245V107.921z
				 M757.008,95.151L743.512,75.54h5.281l0.117,0.17l10.341,15.323l10.536-15.493h5.106l-13.492,19.562v12.82h-4.392V95.151z
				 M282.123,168.914c9.283,0,16.556-7.348,16.556-16.822c0-9.49-7.082-16.647-16.464-16.647c-9.283,0-16.556,7.348-16.556,16.822
				C265.658,161.757,272.74,168.914,282.123,168.914z M282.123,139.526c6.767,0,12.072,5.559,12.072,12.741
				c0,7.165-5.156,12.57-11.981,12.57c-6.883,0-12.064-5.438-12.064-12.745C270.15,144.927,275.289,139.526,282.123,139.526z
				 M309.539,140.062v10.511h17.112v4.035h-17.112v13.766h-4.351v-32.385h23.489v4.073H309.539z M362.621,135.445
				c-9.283,0-16.558,7.348-16.558,16.822c0,9.49,7.084,16.647,16.467,16.647c9.283,0,16.556-7.348,16.556-16.822
				C379.086,142.602,372.003,135.445,362.621,135.445z M362.621,164.837c-6.883,0-12.064-5.438-12.064-12.745
				c0-7.165,5.14-12.566,11.973-12.566c6.883,0,12.064,5.443,12.064,12.741C374.594,159.432,369.446,164.837,362.621,164.837z
				 M385.587,135.989v32.385h4.351v-11.151h7.29c6.369,0,12.803-3.321,12.803-10.823c0-6.327-4.799-10.412-12.222-10.412H385.587z
				 M397.361,153.189h-7.423v-13.127h7.605c5.148,0,8.104,2.366,8.104,6.563C405.647,150.548,402.309,153.189,397.361,153.189z
				 M436.932,135.989h4.351v32.385h-4.351v-14.223h-17.453v14.223h-4.351v-32.385h4.351v14.036h17.453V135.989z M456.942,149.738
				v-9.677h-10.603v-4.073h25.606v4.073h-10.611v28.313h-4.392V149.738z M498.813,135.989h4.351v32.385h-4.351v-14.223h-17.461
				v14.223h-4.351v-32.385h4.351v14.036h17.461V135.989z M532.735,160.022l3.703,8.353h4.7l-14.754-32.61h-3.844l-14.767,32.61
				h4.517l3.745-8.353H532.735z M530.992,156.036H517.79l6.617-14.771L530.992,156.036z M550.121,135.989v28.308h17.784v4.077
				h-22.127v-32.385H550.121z M599.598,168.374v-24.717l-10.918,16.05h-0.59l-0.116-0.166l-10.802-15.842v24.676h-4.259v-32.385
				h4.218l11.3,16.934l11.308-16.934h4.21v32.385H599.598z M610.458,152.267c0,9.49,7.082,16.647,16.465,16.647
				c9.283,0,16.556-7.348,16.556-16.822c0-9.49-7.082-16.647-16.465-16.647C617.732,135.445,610.458,142.793,610.458,152.267z
				 M627.014,164.837c-6.883,0-12.064-5.438-12.064-12.745c0-7.165,5.139-12.566,11.973-12.566c6.767,0,12.072,5.559,12.072,12.741
				C638.995,159.432,633.839,164.837,627.014,164.837z M654.339,164.297h17.785v4.077h-22.136v-32.385h4.351V164.297z
				 M707.088,152.092c0-9.49-7.082-16.647-16.465-16.647c-9.283,0-16.556,7.348-16.556,16.822c0,9.49,7.074,16.647,16.464,16.647
				C699.814,168.914,707.088,161.566,707.088,152.092z M690.623,164.837c-6.883,0-12.072-5.438-12.072-12.745
				c0-7.165,5.148-12.566,11.981-12.566c6.767,0,12.073,5.559,12.073,12.741C702.604,159.432,697.448,164.837,690.623,164.837z
				 M728.36,168.914c-9.698,0-16.465-6.846-16.465-16.647c0-9.474,7.132-16.822,16.232-16.822c4.932,0,8.419,1.246,12.039,4.293
				l0.299,0.249l-2.815,3.313l-0.299-0.258c-2.092-1.826-4.683-3.516-9.357-3.516c-6.518,0-11.616,5.517-11.616,12.566
				c0,7.714,4.866,12.837,12.114,12.837c3.122,0,6.369-1.104,8.727-2.96v-7.273h-9.615v-3.99h13.833v13.16l-0.141,0.12
				C739.236,165.825,734.811,168.914,728.36,168.914z M757.116,168.374v-12.778l-13.488-19.607h5.281l0.116,0.174l10.333,15.319
				l10.544-15.493h5.098l-13.484,19.566v12.82H757.116z M275.987,196.392h-7.456v19.757h2.599v-6.825h4.492
				c3.885,0,7.805-2.021,7.805-6.534v-0.058C283.426,198.883,280.503,196.392,275.987,196.392z M271.129,198.821h4.683
				c3.18,0,4.99,1.457,4.99,3.998v0.054c0,2.424-2.051,4.052-5.098,4.052h-4.575V198.821z M295.233,201.204l0.191,0.008v2.699
				h-0.366c-3.313,0-5.463,2.483-5.463,6.343v5.895h-2.541v-14.696h2.541v3.072c1.204-2.1,3.163-3.325,5.372-3.325
				C295.058,201.2,295.142,201.2,295.233,201.204z M305.055,201.15c-4.301,0-7.672,3.367-7.672,7.668v0.054
				c0,4.263,3.346,7.609,7.614,7.609c4.318,0,7.697-3.363,7.697-7.663v-0.058C312.694,204.492,309.339,201.15,305.055,201.15z
				 M305.055,214.165c-2.848,0-5.073-2.35-5.073-5.347v-0.058c0-3.031,2.159-5.318,5.015-5.318c2.865,0,5.106,2.362,5.106,5.376
				v0.054C310.103,211.89,307.928,214.165,305.055,214.165z M319.593,201.453h4.533v2.291h-4.533v8.137
				c0,1.486,0.698,2.171,2.2,2.171c0.706,0,1.279-0.137,1.984-0.473l0.291-0.145v2.275l-0.108,0.058
				c-0.83,0.431-1.677,0.631-2.665,0.631c-2.74,0-4.243-1.503-4.243-4.239v-8.415h-1.984v-2.291h1.984v-4.314h2.54V201.453z
				 M333.468,201.15c-4.027,0-7.058,3.301-7.058,7.668s3.155,7.663,7.331,7.663c2.475,0,4.334-0.847,6.037-2.748l0.149-0.153
				l-1.635-1.457l-0.133,0.141c-1.279,1.337-2.657,1.951-4.359,1.951c-2.54,0-4.442-1.731-4.799-4.334h11.292l0.008-0.191
				c0.033-0.341,0.033-0.565,0.033-0.764C340.334,204.276,337.578,201.15,333.468,201.15z M333.418,203.354
				c2.781,0,4.052,2.234,4.326,4.396h-8.743C329.374,205.156,331.159,203.354,333.418,203.354z M355.356,211.948l1.652,1.553
				l-0.133,0.149c-1.179,1.32-2.931,2.831-5.986,2.831c-4.153,0-7.533-3.412-7.533-7.609v-0.054c0-4.23,3.379-7.668,7.533-7.668
				c3.039,0,4.733,1.391,5.87,2.603l0.133,0.141l-1.694,1.794l-0.149-0.158c-1.03-1.088-2.259-2.089-4.185-2.089
				c-2.748,0-4.909,2.338-4.909,5.318v0.058c0,2.997,2.219,5.347,5.05,5.347c1.544,0,2.923-0.673,4.209-2.067L355.356,211.948z
				 M364.116,201.453h4.533v2.291h-4.533v8.137c0,1.486,0.697,2.171,2.208,2.171c0.698,0,1.27-0.137,1.976-0.473l0.291-0.145v2.275
				l-0.108,0.058c-0.83,0.431-1.677,0.631-2.665,0.631c-2.732,0-4.243-1.503-4.243-4.239v-8.415h-1.984v-2.291h1.984v-4.314h2.541
				V201.453z M372.087,195.982h1.312h1.536v2.765h-2.848V195.982z M372.228,210.511v-9.058h2.54v14.696h-2.54V210.511z
				 M392.611,207.074v9.075h-2.541v-8.548c0-2.57-1.395-4.106-3.728-4.106c-2.408,0-4.093,1.752-4.093,4.268v8.386h-2.541v-14.696
				h2.541v2.018c1.146-1.536,2.715-2.321,4.691-2.321C390.386,201.15,392.611,203.479,392.611,207.074z M408.677,203.641
				c-1.42-1.656-3.221-2.491-5.38-2.491c-3.396,0-6.917,2.603-6.917,6.945v0.058c0,4.318,3.52,6.891,6.917,6.891
				c2.15,0,3.927-0.863,5.405-2.623v1.096c0,3.097-1.818,4.874-4.99,4.874c-1.943,0-3.753-0.598-5.372-1.785l-0.182-0.133
				l-1.187,2.018l0.166,0.108c1.927,1.345,4.152,2.03,6.609,2.03c2.367,0,4.301-0.685,5.588-1.968
				c1.254-1.249,1.884-3.001,1.884-5.202v-12.006h-2.54V203.641z M403.712,212.753c-2.657,0-4.733-2.043-4.733-4.658v-0.058
				c0-2.665,1.993-4.596,4.733-4.596c2.483,0,5.048,1.731,5.048,4.629v0.054C408.76,210.985,406.136,212.753,403.712,212.753z
				 M438.252,210.694v0.058c0,3.338-2.798,5.679-6.808,5.679c-3.081,0-5.638-1.005-8.046-3.151l-0.15-0.137l1.627-1.918l0.158,0.15
				c2.101,1.901,3.985,2.677,6.493,2.677c2.416,0,4.101-1.266,4.101-3.084v-0.054c0-1.59-0.764-2.611-4.865-3.475
				c-3.994-0.872-6.651-2.184-6.651-5.779v-0.058c0-3.18,2.757-5.484,6.559-5.484c2.74,0,4.808,0.722,6.925,2.42l0.15,0.125
				l-1.519,2.018l-0.158-0.133c-1.718-1.403-3.454-2.051-5.446-2.051c-2.308,0-3.919,1.195-3.919,2.914v0.05
				c0,1.644,0.78,2.64,5.09,3.562C436.317,206.011,438.252,207.705,438.252,210.694z M442.569,206.75v-5.297h2.532v14.696h-2.532
				V206.75z M442.428,195.982h1.262h1.578v2.765h-2.84V195.982z M461.384,203.641c-1.42-1.656-3.221-2.491-5.38-2.491
				c-3.396,0-6.917,2.603-6.917,6.945v0.058c0,4.318,3.521,6.891,6.917,6.891c2.151,0,3.927-0.863,5.405-2.623v1.096
				c0,3.097-1.818,4.874-4.99,4.874c-1.943,0-3.753-0.598-5.372-1.785l-0.183-0.133l-1.187,2.018l0.166,0.108
				c1.926,1.345,4.16,2.03,6.609,2.03c2.366,0,4.301-0.685,5.588-1.968c1.254-1.249,1.885-3.001,1.885-5.202v-12.006h-2.541V203.641
				z M456.419,212.753c-2.657,0-4.733-2.043-4.733-4.658v-0.058c0-2.665,1.992-4.596,4.733-4.596c2.482,0,5.048,1.731,5.048,4.629
				v0.054C461.467,210.985,458.843,212.753,456.419,212.753z M481.676,207.074v9.075h-2.532v-8.548c0-2.57-1.403-4.106-3.745-4.106
				c-2.408,0-4.085,1.752-4.085,4.268v8.386h-2.532v-20.583h2.532v7.904c1.146-1.536,2.723-2.321,4.691-2.321
				C479.451,201.15,481.676,203.479,481.676,207.074z M489.323,201.453h4.533v2.291h-4.533v8.137c0,1.486,0.698,2.171,2.2,2.171
				c0.697,0,1.279-0.137,1.984-0.473l0.29-0.145v2.275l-0.108,0.058c-0.838,0.431-1.685,0.631-2.665,0.631
				c-2.74,0-4.243-1.503-4.243-4.239v-8.415h-1.992v-2.291h1.992v-4.314h2.541V201.453z M497.576,214.721v-1.885h2.956v3.313h-2.956
				V214.721z M516.333,213.75h11.944v2.399h-14.534v-19.757h14.401v2.404h-11.811v6.194h10.566v2.4h-10.566V213.75z
				 M554.198,207.103v9.046h-2.54v-8.548c0-2.611-1.27-4.106-3.496-4.106c-1.86,0-3.744,1.304-3.744,4.218v8.436h-2.516v-8.61
				c0-2.532-1.295-4.044-3.463-4.044c-2.192,0-3.778,1.802-3.778,4.293v8.361h-2.54v-14.696h2.54v1.964
				c0.872-1.146,2.167-2.267,4.409-2.267c2.035,0,3.662,0.934,4.617,2.653c1.254-1.785,2.898-2.653,5.006-2.653
				C552.089,201.15,554.198,203.429,554.198,207.103z M566.777,201.15c-2.117,0-3.836,0.901-5.264,2.744v-2.441h-2.54v19.121h2.54
				v-6.742c1.387,1.74,3.155,2.624,5.264,2.624c3.413,0,7.033-2.678,7.033-7.639v-0.058
				C573.809,203.815,570.19,201.15,566.777,201.15z M566.395,203.466c2.798,0,4.824,2.238,4.824,5.318v0.058
				c0,3.118-1.984,5.297-4.824,5.297c-2.441,0-4.965-1.993-4.965-5.322v-0.058C561.43,205.488,564.012,203.466,566.395,203.466z
				 M584.678,201.15c-4.301,0-7.664,3.367-7.664,7.668v0.054c0,4.263,3.338,7.609,7.606,7.609c4.317,0,7.697-3.363,7.697-7.663
				v-0.058C592.316,204.492,588.962,201.15,584.678,201.15z M584.678,214.165c-2.848,0-5.073-2.35-5.073-5.347v-0.058
				c0-3.031,2.159-5.318,5.015-5.318c2.864,0,5.106,2.362,5.106,5.376v0.054C589.726,211.89,587.551,214.165,584.678,214.165z
				 M613.746,201.453h2.649l-5.173,14.804h-2.142l-3.695-10.844l-3.72,10.844h-2.176l-5.14-14.804h2.699l0.05,0.141l3.562,10.877
				l3.687-11.076h2.067l0.05,0.141l3.678,10.935L613.746,201.453z M625.511,201.15c-4.027,0-7.066,3.301-7.066,7.668
				s3.155,7.663,7.34,7.663c2.466,0,4.334-0.847,6.036-2.748l0.141-0.153l-1.636-1.457l-0.133,0.141
				c-1.27,1.337-2.657,1.951-4.359,1.951c-2.532,0-4.434-1.731-4.799-4.334h11.292l0.017-0.191c0.025-0.341,0.025-0.565,0.025-0.764
				C632.37,204.276,629.613,201.15,625.511,201.15z M625.454,203.354c2.781,0,4.052,2.234,4.325,4.396h-8.743
				C621.41,205.156,623.203,203.354,625.454,203.354z M644.475,201.204l0.199,0.008v2.699h-0.374c-3.312,0-5.455,2.483-5.455,6.343
				v5.895h-2.54v-14.696h2.54v3.072c1.196-2.1,3.164-3.325,5.372-3.325C644.301,201.2,644.392,201.2,644.475,201.204z
				 M647.846,195.982h1.138h1.711v2.765h-2.848V195.982z M647.987,209.586v-8.133h2.541v14.696h-2.541V209.586z M668.371,207.074
				v9.075h-2.541v-8.548c0-2.57-1.403-4.106-3.745-4.106c-2.399,0-4.076,1.752-4.076,4.268v8.386h-2.541v-14.696h2.541v2.018
				c1.137-1.536,2.715-2.321,4.691-2.321C666.146,201.15,668.371,203.479,668.371,207.074z M684.429,203.641
				c-1.42-1.656-3.221-2.491-5.372-2.491c-3.404,0-6.916,2.603-6.916,6.945v0.058c0,4.318,3.512,6.891,6.916,6.891
				c2.151,0,3.919-0.863,5.405-2.623v1.096c0,3.097-1.818,4.874-4.99,4.874c-1.943,0-3.753-0.598-5.38-1.785l-0.183-0.133
				l-1.179,2.018l0.158,0.108c1.934,1.345,4.16,2.03,6.609,2.03c2.375,0,4.309-0.685,5.596-1.968
				c1.245-1.249,1.876-3.001,1.876-5.202v-12.006h-2.541V203.641z M679.472,212.753c-2.657,0-4.741-2.043-4.741-4.658v-0.058
				c0-2.665,1.992-4.596,4.741-4.596c2.483,0,5.048,1.731,5.048,4.629v0.054C684.52,210.985,681.896,212.753,679.472,212.753z
				 M702.953,213.716h10.893v2.433h-13.484v-19.757h2.591V213.716z M717.458,195.982h1.32h1.519v2.765h-2.84V195.982z
				 M717.599,205.513v-4.06h2.541v14.696h-2.541V205.513z M735.558,201.453h2.74l-0.125,0.29l-6.269,14.514h-2.151l-6.368-14.804
				h2.798l4.674,11.516L735.558,201.453z M747.049,201.15c-4.018,0-7.058,3.301-7.058,7.668s3.155,7.663,7.331,7.663
				c2.475,0,4.338-0.847,6.049-2.748l0.133-0.153l-1.627-1.457l-0.133,0.141c-1.283,1.337-2.661,1.951-4.363,1.951
				c-2.532,0-4.442-1.731-4.799-4.334h11.296l0.017-0.191c0.025-0.341,0.025-0.565,0.025-0.764
				C753.92,204.276,751.163,201.15,747.049,201.15z M747,203.354c2.781,0,4.056,2.234,4.33,4.396h-8.747
				C742.956,205.156,744.75,203.354,747,203.354z M767.927,211.881v0.054c0,2.686-2.126,4.496-5.289,4.496
				c-2.092,0-4.409-0.83-6.045-2.15l-0.15-0.125l1.32-1.848l0.166,0.129c1.553,1.166,3.222,1.777,4.816,1.777
				c1.652,0,2.756-0.822,2.756-2.055v-0.054c0-1.266-1.478-1.777-3.412-2.324c-2.059-0.582-4.882-1.379-4.882-4.226v-0.058
				c0-2.524,2.092-4.292,5.073-4.292c1.76,0,3.728,0.606,5.248,1.611l0.166,0.108l-1.171,1.951l-0.182-0.116
				c-1.328-0.855-2.823-1.345-4.118-1.345c-1.528,0-2.557,0.752-2.557,1.868v0.054c0,1.183,1.686,1.698,3.471,2.242l0.058,0.021
				C765.079,208.162,767.927,209.021,767.927,211.881z M771.597,214.368v-1.532h2.956v3.313h-2.956V214.368z"/>
		</g>
		<g>
			<path fill="#FFFFFF" d="M234.213,125.004c0,63.359-51.37,114.738-114.748,114.738c-63.368,0-114.738-51.378-114.738-114.738
				c0-63.376,51.37-114.755,114.738-114.755C182.843,10.25,234.213,61.628,234.213,125.004z"/>
			<path fill="#351F65" d="M176.79,224.431c-4.699,2.715-9.606,5.098-14.696,7.141l-35.843-92.619L176.79,224.431z M130.186,140.605
				l48.813,82.556c3.687-2.25,7.223-4.716,10.628-7.348L130.186,140.605z M135.79,238.604l-13.038-84.133l5.756,84.922
				C130.958,239.202,133.391,238.945,135.79,238.604z M138.098,146.509l53.529,67.735c2.009-1.627,3.952-3.313,5.845-5.065
				L138.098,146.509z M138.107,139.717l68.292,60.188c2.134-2.466,4.16-5.023,6.069-7.663L138.107,139.717z M125.013,85.649
				l12.844-73.946c-1.578-0.257-3.172-0.465-4.774-0.656L125.013,85.649z M124.332,141.078l21.131,95.708
				c4.874-1.129,9.64-2.549,14.256-4.284L124.332,141.078z M233.897,116.452c-0.465-6.385-1.453-12.621-2.923-18.673l-97.99,25.083
				L233.897,116.452z M119.34,85.134l2.134-74.868c-0.673-0.017-1.337-0.05-2.009-0.05c-0.938,0-1.86,0.05-2.781,0.066
				L119.34,85.134z M147.896,128.151l85.163,13.301c0.365-2.524,0.631-5.073,0.822-7.655L147.896,128.151z M141.702,129.77
				l88.825,24.319c0.863-3.313,1.569-6.684,2.134-10.113L141.702,129.77z M131.564,131.979l82.381,58.178
				c3.487-5.04,6.584-10.37,9.241-15.95L131.564,131.979z M134.047,130.31l90.186,41.573c2.217-4.94,4.085-10.063,5.596-15.335
				L134.047,130.31z M123.967,106.622l28.985-91.432c-4.101-1.245-8.303-2.25-12.587-3.039L123.967,106.622z M137.775,114.161
				l83.212-42.727c-1.752-3.313-3.661-6.526-5.721-9.64L137.775,114.161z M228.475,89.052l-78.155,26.735l80.031-20.483
				C229.787,93.196,229.156,91.112,228.475,89.052z M202.197,45.479c-1.054-1.096-2.126-2.167-3.213-3.221l-50.365,53.587
				L202.197,45.479z M114.782,239.659l2.225-74.552l-6.958,74.261C111.619,239.493,113.196,239.601,114.782,239.659z
				 M234.08,131.256c0.108-2.076,0.174-4.16,0.174-6.252c0-2.018-0.058-4.019-0.158-6.003l-94.819,6.02L234.08,131.256z
				 M124.025,10.333l-2.352,82.514l8.878-82.091C128.392,10.549,126.217,10.416,124.025,10.333z M139.858,144.657l59.457,62.762
				c1.868-1.81,3.678-3.661,5.422-5.588L139.858,144.657z M135.715,118.088l91.946-31.46c-1.578-4.442-3.421-8.751-5.513-12.919
				L135.715,118.088z M130.725,103.084l45.284-77.964c-2.698-1.536-5.463-2.956-8.294-4.276L130.725,103.084z M142.98,107.568
				l70.857-47.891c-1.42-2.043-2.915-4.035-4.459-5.986L142.98,107.568z M130.252,108.979l58.436-75.531
				c-3.355-2.541-6.85-4.89-10.47-7.058L130.252,108.979z M127.354,104.363l38.036-84.565c-3.263-1.428-6.601-2.698-10.013-3.819
				L127.354,104.363z M145.861,101.939l61.923-50.241c-1.238-1.494-2.516-2.947-3.828-4.376L145.861,101.939z M136.737,104.762
				l60.395-64.264c-2.067-1.902-4.226-3.72-6.443-5.48L136.737,104.762z M126.881,164.459l11.433,73.755
				c1.561-0.257,3.122-0.531,4.666-0.855L126.881,164.459z M85.348,144.316l-66.961,35.08c0.772,1.436,1.594,2.856,2.433,4.268
				L85.348,144.316z M99.23,138.837l-77.074,46.994c1.661,2.657,3.413,5.256,5.281,7.755L99.23,138.837z M88.096,150.535
				l-59.09,45.06c0.963,1.237,1.943,2.449,2.954,3.637L88.096,150.535z M99.961,133.78L12.65,166.984
				c1.362,3.471,2.889,6.85,4.575,10.138L99.961,133.78z M103.689,127.852l-98.298,9.756c0.581,5.273,1.511,10.437,2.773,15.468
				L103.689,127.852z M107.832,139.26l-66.008,70.259c3.28,3.006,6.742,5.821,10.345,8.436L107.832,139.26z M96.374,132.419
				L8.829,155.542c0.847,3.072,1.795,6.102,2.892,9.067L96.374,132.419z M112.598,150.776L85.83,234.719
				c2.665,0.822,5.372,1.552,8.12,2.183L112.598,150.776z M77.336,231.763c1.993,0.789,4.044,1.527,6.086,2.2l24.95-78.338
				L77.336,231.763z M114.126,10.35c-4.625,0.207-9.175,0.714-13.65,1.453l17.087,95.292L114.126,10.35z M116.227,146.027
				l-19.794,91.44c3.628,0.739,7.323,1.303,11.068,1.694L116.227,146.027z M119.971,151.158l-2.64,88.567
				c0.714,0.017,1.42,0.058,2.134,0.058c2.183,0,4.353-0.075,6.503-0.199L119.971,151.158z M78.988,127.736L4.827,130.41
				c0.075,1.561,0.199,3.113,0.332,4.658L78.988,127.736z M33.629,201.158c2.026,2.283,4.151,4.484,6.352,6.601l61.466-65.427
				L33.629,201.158z M108.854,142.233l-54.6,77.201c3.255,2.258,6.634,4.359,10.121,6.277L108.854,142.233z M108.912,147.538
				l-42.279,79.351c2.724,1.411,5.489,2.748,8.328,3.944L108.912,147.538z M97.968,12.251c-3.645,0.698-7.232,1.561-10.744,2.591
				l27.209,89.256L97.968,12.251z M98.533,90.364L62.1,25.594c-1.353,0.789-2.69,1.594-4.002,2.433L98.533,90.364z M107.907,91.427
				L84.775,15.564c-1.81,0.573-3.612,1.196-5.389,1.86L107.907,91.427z M111.951,109.021L77.02,18.354
				c-4.376,1.743-8.618,3.728-12.704,5.97L111.951,109.021z M102.477,109.121L39.101,43.08c-2.383,2.341-4.666,4.799-6.842,7.34
				L102.477,109.121z M4.968,117.448c-0.166,2.499-0.274,5.015-0.274,7.556c0,0.955,0.05,1.901,0.067,2.856l92.154-3.321
				L4.968,117.448z M100.858,122.289L6.993,102.038c-0.855,4.21-1.453,8.502-1.835,12.87L100.858,122.289z M92.92,111.263
				L19.242,69.084c-1.179,2.109-2.308,4.243-3.355,6.426L92.92,111.263z M97.163,116.054l-82.329-38.21
				c-1.32,2.915-2.524,5.895-3.595,8.942L97.163,116.054z M98.242,119.117L10.414,89.202c-1.112,3.379-2.059,6.833-2.856,10.345
				L98.242,119.117z M105.308,105.492L55.948,29.396c-2.657,1.777-5.231,3.662-7.722,5.646L105.308,105.492z M107.583,116.718
				L30.609,52.362c-3.728,4.558-7.099,9.407-10.096,14.505L107.583,116.718z M99.33,102.155L46.233,36.628
				c-1.818,1.503-3.57,3.072-5.281,4.691L99.33,102.155z"/>
		</g>
	</g>
</g>
</svg>
